# MagicaVoxel @ Ephtracy

# group
o 

# material
mtllib Modular_3D_Printer.mtl
usemtl palette

# normals
vn -1 0 0
vn 1 0 0
vn 0 0 1
vn 0 0 -1
vn 0 -1 0
vn 0 1 0

# texcoords
vt 0.00195312 0.5
vt 0.00585938 0.5
vt 0.00976562 0.5
vt 0.0136719 0.5
vt 0.0175781 0.5
vt 0.0214844 0.5
vt 0.0371094 0.5
vt 0.0410156 0.5
vt 0.0449219 0.5
vt 0.0566406 0.5
vt 0.0957031 0.5
vt 0.0996094 0.5
vt 0.103516 0.5
vt 0.107422 0.5

# verts
v -1.4 0 0.9
v -1.4 0 -0.9
v -1.4 0.2 0.9
v -1.4 0.2 -0.9
v -1.4 1.1 0.1
v -1.4 1.1 -0.1
v -1.4 1.4 0.1
v -1.4 1.4 -0.1
v -1.3 0.2 0.9
v -1.3 0.2 0.6
v -1.3 0.2 -0.6
v -1.3 0.2 -0.9
v -1.3 0.3 0.9
v -1.3 0.3 0.8
v -1.3 0.3 0.6
v -1.3 0.3 -0.6
v -1.3 0.3 -0.8
v -1.3 0.3 -0.9
v -1.3 0.4 0.8
v -1.3 0.4 -0.8
v -1.3 1 0.2
v -1.3 1 -0.2
v -1.3 1.1 0.1
v -1.3 1.1 -0.1
v -1.3 1.4 0.1
v -1.3 1.4 -0.1
v -1.3 1.5 0.2
v -1.3 1.5 -0.2
v -1.2 0.5 0.5
v -1.2 0.5 -0.4
v -1.2 1 0.2
v -1.2 1 -0.2
v -1.2 1.5 0.2
v -1.2 1.5 -0.2
v -1.2 2.1 0.5
v -1.2 2.1 -0.4
v -1.1 0.5 -0.4
v -1.1 0.5 -0.6
v -1.1 2.1 0.5
v -1.1 2.1 -0.4
v -1.1 2.4 0.5
v -1.1 2.4 -0.6
v -1 0.4 0.6
v -1 0.4 -0.7
v -1 0.5 0.5
v -1 0.5 -0.6
v -1 2.4 0.5
v -1 2.4 -0.6
v -1 2.5 -0.6
v -1 2.5 -0.7
v -1 2.6 0.6
v -1 2.6 -0.6
v -0.9 0.4 -0.7
v -0.9 0.4 -0.8
v -0.9 2.4 -0.7
v -0.9 2.4 -0.8
v -0.9 2.6 0.5
v -0.9 2.6 -0.5
v -0.9 2.7 0.5
v -0.9 2.7 -0.5
v -0.6 0.8 0.4
v -0.6 0.8 -0.4
v -0.6 1 0.4
v -0.6 1 -0.4
v -0.5 1 0.3
v -0.5 1 -0.3
v -0.5 1.1 0.3
v -0.5 1.1 -0.3
v -0.4 0.6 -0.5
v -0.4 0.6 -0.6
v -0.4 0.7 -0.5
v -0.4 0.7 -0.6
v -0.3 1.1 0.2
v -0.3 1.1 -0.2
v -0.3 1.3 0.2
v -0.3 1.3 -0.2
v -0.3 2 0.4
v -0.3 2 -0.4
v -0.3 2.3 0.4
v -0.3 2.3 -0.4
v -0.1 1.6 0.1
v -0.1 1.6 -0.1
v -0.1 2 0.1
v -0.1 2 -0.1
v 0.8 0.6 0.6
v 0.8 0.6 0.5
v 0.8 0.8 0.5
v 0.8 0.8 -0.6
v 0.8 2.3 0.6
v 0.8 2.3 0.5
v 0.8 2.3 -0.4
v 0.8 2.4 -0.4
v 0.8 2.4 -0.6
v 0.9 0.2 0.9
v 0.9 0.2 0.8
v 0.9 0.2 -0.8
v 0.9 0.2 -0.9
v 0.9 0.3 0.9
v 0.9 0.3 0.8
v 0.9 0.3 -0.8
v 0.9 0.3 -0.9
v 1.1 0.6 0.5
v 1.1 0.6 -0.3
v 1.1 0.8 0.5
v 1.1 0.8 -0.3
v 1.1 1.1 0.5
v 1.1 1.1 -0.3
v 1.1 1.4 0.5
v 1.1 1.4 -0.3
v 1.1 1.6 0.2
v 1.1 1.6 0
v 1.1 1.7 0.2
v 1.1 1.7 0
v 1.2 0.7 0.6
v 1.2 0.7 0.5
v 1.2 1 0.6
v 1.2 1 0.5
v 1.2 1.1 0.6
v 1.2 1.1 0.5
v 1.2 1.2 0.6
v 1.2 1.2 0.5
v 1.2 1.5 0.6
v 1.2 1.5 0.5
v 1.2 1.6 0.6
v 1.2 1.6 0.5
v 1.2 1.7 0.6
v 1.2 1.7 0.5
v -0.9 0.2 0.9
v -0.9 0.2 0.8
v -0.9 0.2 -0.8
v -0.9 0.2 -0.9
v -0.9 0.3 0.9
v -0.9 0.3 0.8
v -0.9 0.3 -0.8
v -0.9 0.3 -0.9
v -0.9 0.8 0.5
v -0.9 0.8 -0.6
v -0.9 2.3 0.5
v -0.9 2.3 -0.4
v -0.9 2.4 -0.4
v -0.9 2.4 -0.6
v -0.8 0.6 0.6
v -0.8 0.6 0.5
v -0.8 0.6 -0.5
v -0.8 0.6 -0.6
v -0.8 0.7 -0.5
v -0.8 0.7 -0.6
v -0.8 0.8 0.5
v -0.8 2.3 0.6
v -0.8 2.3 0.5
v 0.1 1.6 0.1
v 0.1 1.6 -0.1
v 0.1 2 0.1
v 0.1 2 -0.1
v 0.2 2.1 -0.2
v 0.2 2.1 -0.4
v 0.2 2.2 -0.2
v 0.2 2.2 -0.4
v 0.2 2.3 -0.2
v 0.2 2.3 -0.4
v 0.3 1.1 0.2
v 0.3 1.1 -0.2
v 0.3 1.3 0.2
v 0.3 1.3 -0.2
v 0.3 2 0.4
v 0.3 2 -0.4
v 0.3 2.1 -0.2
v 0.3 2.1 -0.4
v 0.3 2.3 0.4
v 0.3 2.3 -0.2
v 0.5 1 0.3
v 0.5 1 -0.3
v 0.5 1.1 0.3
v 0.5 1.1 -0.3
v 0.6 0.8 0.4
v 0.6 0.8 -0.4
v 0.6 1 0.4
v 0.6 1 -0.4
v 0.9 1.1 -0.7
v 0.9 1.1 -0.8
v 0.9 1.6 0.2
v 0.9 1.6 0
v 0.9 1.6 -0.3
v 0.9 1.6 -0.4
v 0.9 1.7 0.2
v 0.9 1.7 0
v 0.9 1.7 -0.3
v 0.9 1.7 -0.4
v 0.9 2.4 -0.7
v 0.9 2.4 -0.8
v 0.9 2.6 0.5
v 0.9 2.6 -0.5
v 0.9 2.7 0.5
v 0.9 2.7 -0.5
v 1 0.4 0.6
v 1 0.4 -0.4
v 1 0.5 -0.3
v 1 0.5 -0.4
v 1 0.8 0.6
v 1 0.8 -0.3
v 1 1.1 0.6
v 1 1.1 -0.7
v 1 1.4 0.6
v 1 1.4 -0.3
v 1 1.6 -0.3
v 1 1.6 -0.4
v 1 1.7 -0.4
v 1 1.9 -0.4
v 1 1.9 -0.5
v 1 2.5 0.6
v 1 2.5 -0.5
v 1 2.5 -0.6
v 1 2.5 -0.7
v 1 2.6 0.6
v 1 2.6 -0.6
v 1.1 0.7 -0.3
v 1.1 0.7 -0.4
v 1.1 0.8 0.6
v 1.1 0.8 0.5
v 1.1 0.8 -0.3
v 1.1 0.8 -0.4
v 1.1 1.1 0.6
v 1.1 1.1 0.5
v 1.1 1.4 0.6
v 1.1 1.4 0.5
v 1.1 1.7 -0.3
v 1.1 1.7 -0.4
v 1.1 1.9 0.5
v 1.1 1.9 -0.3
v 1.1 1.9 -0.4
v 1.1 1.9 -0.5
v 1.1 2.5 0.6
v 1.1 2.5 -0.5
v 1.2 0.5 -0.3
v 1.2 0.5 -0.4
v 1.2 0.6 -0.3
v 1.2 0.7 -0.3
v 1.2 0.7 -0.4
v 1.2 0.8 -0.3
v 1.2 0.8 -0.4
v 1.2 1.1 -0.3
v 1.2 1.1 -0.4
v 1.3 0.2 0.9
v 1.3 0.2 0.6
v 1.3 0.2 -0.6
v 1.3 0.2 -0.9
v 1.3 0.3 0.9
v 1.3 0.3 0.8
v 1.3 0.3 0.6
v 1.3 0.3 -0.6
v 1.3 0.3 -0.8
v 1.3 0.3 -0.9
v 1.3 0.4 0.8
v 1.3 0.4 -0.4
v 1.3 0.4 -0.8
v 1.3 1.1 -0.4
v 1.3 1.1 -0.8
v 1.4 0 0.9
v 1.4 0 -0.9
v 1.4 0.2 0.9
v 1.4 0.2 -0.9
v 1.6 0.6 0.5
v 1.6 0.6 -0.3
v 1.6 0.7 0.6
v 1.6 0.7 0.5
v 1.6 1 0.6
v 1.6 1 0.5
v 1.6 1.1 0.6
v 1.6 1.1 0.5
v 1.6 1.2 0.6
v 1.6 1.2 0.5
v 1.6 1.5 0.6
v 1.6 1.5 0.5
v 1.6 1.6 0.6
v 1.6 1.6 0.5
v 1.6 1.7 0.6
v 1.6 1.7 0.5
v 1.6 1.9 0.5
v 1.6 1.9 -0.3
v -1.4 0 0.9
v -1.4 0.2 0.9
v -1.3 0.2 0.9
v -1.3 0.3 0.9
v -0.9 0.2 0.9
v -0.9 0.3 0.9
v 0.9 0.2 0.9
v 0.9 0.3 0.9
v 1.3 0.2 0.9
v 1.3 0.3 0.9
v 1.4 0 0.9
v 1.4 0.2 0.9
v -1.3 0.3 0.8
v -1.3 0.4 0.8
v -0.9 0.2 0.8
v -0.9 0.3 0.8
v 0.9 0.2 0.8
v 0.9 0.3 0.8
v 1.3 0.3 0.8
v 1.3 0.4 0.8
v -1 0.4 0.6
v -1 2.6 0.6
v -0.8 0.6 0.6
v -0.8 2.3 0.6
v 0.8 0.6 0.6
v 0.8 2.3 0.6
v 1 0.4 0.6
v 1 0.8 0.6
v 1 1.1 0.6
v 1 1.4 0.6
v 1 2.5 0.6
v 1 2.6 0.6
v 1.1 0.8 0.6
v 1.1 1.1 0.6
v 1.1 1.4 0.6
v 1.1 2.5 0.6
v 1.2 0.7 0.6
v 1.2 1 0.6
v 1.2 1.1 0.6
v 1.2 1.2 0.6
v 1.2 1.5 0.6
v 1.2 1.6 0.6
v 1.2 1.7 0.6
v 1.3 1.1 0.6
v 1.3 1.2 0.6
v 1.4 1.1 0.6
v 1.4 1.2 0.6
v 1.5 1.1 0.6
v 1.5 1.2 0.6
v 1.6 0.7 0.6
v 1.6 1 0.6
v 1.6 1.1 0.6
v 1.6 1.2 0.6
v 1.6 1.5 0.6
v 1.6 1.6 0.6
v 1.6 1.7 0.6
v -1.2 0.5 0.5
v -1.2 2.1 0.5
v -1.1 2.1 0.5
v -1.1 2.4 0.5
v -1 0.5 0.5
v -1 2.4 0.5
v -0.9 2.6 0.5
v -0.9 2.7 0.5
v -0.8 0.6 0.5
v -0.8 0.8 0.5
v 0.8 0.6 0.5
v 0.8 0.8 0.5
v 0.9 2.6 0.5
v 0.9 2.7 0.5
v 1.1 0.6 0.5
v 1.1 0.8 0.5
v 1.1 1.1 0.5
v 1.1 1.4 0.5
v 1.1 1.9 0.5
v 1.2 0.7 0.5
v 1.2 1 0.5
v 1.2 1.1 0.5
v 1.2 1.2 0.5
v 1.2 1.5 0.5
v 1.2 1.6 0.5
v 1.2 1.7 0.5
v 1.3 1.1 0.5
v 1.4 1.1 0.5
v 1.5 1.1 0.5
v 1.6 0.6 0.5
v 1.6 0.7 0.5
v 1.6 1 0.5
v 1.6 1.1 0.5
v 1.6 1.7 0.5
v 1.6 1.9 0.5
v -0.6 0.8 0.4
v -0.6 1 0.4
v -0.3 2 0.4
v -0.3 2.3 0.4
v 0.3 2 0.4
v 0.3 2.3 0.4
v 0.6 0.8 0.4
v 0.6 1 0.4
v -0.5 1 0.3
v -0.5 1.1 0.3
v 0.5 1 0.3
v 0.5 1.1 0.3
v -1.3 1 0.2
v -1.3 1.5 0.2
v -1.2 1 0.2
v -1.2 1.5 0.2
v -0.3 1.1 0.2
v -0.3 1.3 0.2
v 0.3 1.1 0.2
v 0.3 1.3 0.2
v -1.4 1.1 0.1
v -1.4 1.4 0.1
v -1.3 1.1 0.1
v -1.3 1.4 0.1
v -0.1 1.6 0.1
v -0.1 2 0.1
v 0.1 1.6 0.1
v 0.1 2 0.1
v 0.9 1.6 0
v 0.9 1.7 0
v 1.1 1.6 0
v 1.1 1.7 0
v 1 0.5 -0.3
v 1 0.8 -0.3
v 1.1 0.6 -0.3
v 1.1 0.8 -0.3
v 1.2 0.5 -0.3
v 1.2 0.6 -0.3
v 0.9 1.6 -0.4
v 0.9 1.7 -0.4
v 1 0.4 -0.4
v 1 0.5 -0.4
v 1 1.6 -0.4
v 1 1.7 -0.4
v 1.1 0.7 -0.4
v 1.1 0.8 -0.4
v 1.2 0.5 -0.4
v 1.2 0.7 -0.4
v 1.2 0.8 -0.4
v 1.2 1.1 -0.4
v 1.3 0.4 -0.4
v 1.3 1.1 -0.4
v -0.9 0.8 -0.6
v -0.9 2.4 -0.6
v -0.8 0.6 -0.6
v -0.8 0.7 -0.6
v -0.4 0.6 -0.6
v -0.4 0.7 -0.6
v 0.8 0.8 -0.6
v 0.8 2.4 -0.6
v -0.9 0.8 0.5
v -0.9 2.3 0.5
v -0.8 0.8 0.5
v -0.8 2.3 0.5
v 0.9 1.6 0.2
v 0.9 1.7 0.2
v 1.1 1.6 0.2
v 1.1 1.7 0.2
v -1.4 1.1 -0.1
v -1.4 1.4 -0.1
v -1.3 1.1 -0.1
v -1.3 1.4 -0.1
v -0.1 1.6 -0.1
v -0.1 2 -0.1
v 0.1 1.6 -0.1
v 0.1 2 -0.1
v -1.3 1 -0.2
v -1.3 1.5 -0.2
v -1.2 1 -0.2
v -1.2 1.5 -0.2
v -0.3 1.1 -0.2
v -0.3 1.3 -0.2
v 0.2 2.1 -0.2
v 0.2 2.2 -0.2
v 0.2 2.3 -0.2
v 0.3 1.1 -0.2
v 0.3 1.3 -0.2
v 0.3 2.1 -0.2
v 0.3 2.3 -0.2
v -0.5 1 -0.3
v -0.5 1.1 -0.3
v 0.5 1 -0.3
v 0.5 1.1 -0.3
v 0.9 1.6 -0.3
v 0.9 1.7 -0.3
v 1 1.4 -0.3
v 1 1.6 -0.3
v 1.1 0.7 -0.3
v 1.1 0.8 -0.3
v 1.1 1.1 -0.3
v 1.1 1.4 -0.3
v 1.1 1.7 -0.3
v 1.1 1.9 -0.3
v 1.2 0.6 -0.3
v 1.2 0.7 -0.3
v 1.2 0.8 -0.3
v 1.2 1.1 -0.3
v 1.6 0.6 -0.3
v 1.6 1.9 -0.3
v -1.2 0.5 -0.4
v -1.2 2.1 -0.4
v -1.1 0.5 -0.4
v -1.1 2.1 -0.4
v -0.9 2.3 -0.4
v -0.9 2.4 -0.4
v -0.6 0.8 -0.4
v -0.6 1 -0.4
v -0.3 2 -0.4
v -0.3 2.3 -0.4
v -0.3 2.4 -0.4
v -0.2 2.2 -0.4
v -0.2 2.3 -0.4
v -0.1 2.2 -0.4
v -0.1 2.3 -0.4
v -0.1 2.4 -0.4
v 0.1 2.2 -0.4
v 0.1 2.3 -0.4
v 0.1 2.4 -0.4
v 0.2 2.1 -0.4
v 0.2 2.2 -0.4
v 0.2 2.3 -0.4
v 0.2 2.4 -0.4
v 0.3 2 -0.4
v 0.3 2.1 -0.4
v 0.3 2.3 -0.4
v 0.3 2.4 -0.4
v 0.6 0.8 -0.4
v 0.6 1 -0.4
v 0.8 2.3 -0.4
v 0.8 2.4 -0.4
v 1 1.7 -0.4
v 1 1.9 -0.4
v 1.1 1.7 -0.4
v 1.1 1.9 -0.4
v -0.9 2.6 -0.5
v -0.9 2.7 -0.5
v -0.8 0.6 -0.5
v -0.8 0.7 -0.5
v -0.4 0.6 -0.5
v -0.4 0.7 -0.5
v 0.9 2.6 -0.5
v 0.9 2.7 -0.5
v 1 1.9 -0.5
v 1 2.5 -0.5
v 1.1 1.9 -0.5
v 1.1 2.5 -0.5
v -1.1 0.5 -0.6
v -1.1 2.4 -0.6
v -1 0.5 -0.6
v -1 2.4 -0.6
v -1 2.5 -0.6
v -1 2.6 -0.6
v 1 2.5 -0.6
v 1 2.6 -0.6
v -1 0.4 -0.7
v -1 2.5 -0.7
v -0.9 0.4 -0.7
v -0.9 2.4 -0.7
v 0.9 1.1 -0.7
v 0.9 2.4 -0.7
v 1 1.1 -0.7
v 1 2.5 -0.7
v -1.3 0.3 -0.8
v -1.3 0.4 -0.8
v -0.9 0.2 -0.8
v -0.9 0.3 -0.8
v -0.9 0.4 -0.8
v -0.9 2.4 -0.8
v 0.9 0.2 -0.8
v 0.9 0.3 -0.8
v 0.9 1.1 -0.8
v 0.9 2.4 -0.8
v 1.3 0.3 -0.8
v 1.3 0.4 -0.8
v 1.3 1.1 -0.8
v -1.4 0 -0.9
v -1.4 0.2 -0.9
v -1.3 0.2 -0.9
v -1.3 0.3 -0.9
v -0.9 0.2 -0.9
v -0.9 0.3 -0.9
v 0.9 0.2 -0.9
v 0.9 0.3 -0.9
v 1.3 0.2 -0.9
v 1.3 0.3 -0.9
v 1.4 0 -0.9
v 1.4 0.2 -0.9
v -1.4 0 0.9
v 1.4 0 0.9
v -1.4 0 -0.9
v 1.4 0 -0.9
v -1.2 0.5 0.5
v -1 0.5 0.5
v 1 0.5 -0.3
v 1.2 0.5 -0.3
v -1.2 0.5 -0.4
v -1.1 0.5 -0.4
v 1 0.5 -0.4
v 1.2 0.5 -0.4
v -1.1 0.5 -0.6
v -1 0.5 -0.6
v 1.1 0.6 0.5
v 1.6 0.6 0.5
v 1.1 0.6 -0.3
v 1.2 0.6 -0.3
v 1.6 0.6 -0.3
v 1.2 0.7 0.6
v 1.6 0.7 0.6
v 1.2 0.7 0.5
v 1.6 0.7 0.5
v -0.8 0.7 -0.5
v -0.4 0.7 -0.5
v -0.8 0.7 -0.6
v -0.4 0.7 -0.6
v 1 0.8 0.6
v 1.1 0.8 0.6
v 1.1 0.8 0.5
v 1 0.8 -0.3
v 1.1 0.8 -0.3
v 1.2 0.8 -0.3
v 1.1 0.8 -0.4
v 1.2 0.8 -0.4
v -1.3 1 0.2
v -1.2 1 0.2
v -1.3 1 -0.2
v -1.2 1 -0.2
v 1.2 1.1 0.6
v 1.3 1.1 0.6
v 1.4 1.1 0.6
v 1.5 1.1 0.6
v 1.6 1.1 0.6
v 1.2 1.1 0.5
v 1.3 1.1 0.5
v 1.4 1.1 0.5
v 1.5 1.1 0.5
v 1.6 1.1 0.5
v -1.4 1.1 0.1
v -1.3 1.1 0.1
v -1.4 1.1 -0.1
v -1.3 1.1 -0.1
v 1 1.4 0.6
v 1.1 1.4 0.6
v 1.1 1.4 0.5
v 1 1.4 -0.3
v 1.1 1.4 -0.3
v -0.1 1.6 0.1
v 0.1 1.6 0.1
v -0.1 1.6 -0.1
v 0.1 1.6 -0.1
v 0.9 1.7 0.2
v 1.1 1.7 0.2
v 0.9 1.7 0
v 1.1 1.7 0
v 0.9 1.7 -0.3
v 1.1 1.7 -0.3
v 0.9 1.7 -0.4
v 1 1.7 -0.4
v 1.1 1.7 -0.4
v 1 1.9 -0.4
v 1.1 1.9 -0.4
v 1 1.9 -0.5
v 1.1 1.9 -0.5
v -0.3 2 0.4
v 0.3 2 0.4
v -0.1 2 0.1
v 0.1 2 0.1
v -0.1 2 -0.1
v 0.1 2 -0.1
v -0.3 2 -0.4
v 0.3 2 -0.4
v -0.8 2.3 0.6
v 0.8 2.3 0.6
v -0.9 2.3 0.5
v -0.8 2.3 0.5
v 0.8 2.3 0.5
v -0.3 2.3 0.4
v 0.3 2.3 0.4
v 0.2 2.3 -0.2
v 0.3 2.3 -0.2
v -0.9 2.3 -0.4
v -0.3 2.3 -0.4
v 0.2 2.3 -0.4
v 0.3 2.3 -0.4
v 0.8 2.3 -0.4
v -0.9 2.4 -0.4
v -0.3 2.4 -0.4
v -0.1 2.4 -0.4
v 0.1 2.4 -0.4
v 0.2 2.4 -0.4
v 0.3 2.4 -0.4
v 0.8 2.4 -0.4
v -0.9 2.4 -0.6
v 0.8 2.4 -0.6
v -1.4 0.2 0.9
v -1.3 0.2 0.9
v -0.9 0.2 0.9
v 0.9 0.2 0.9
v 1.3 0.2 0.9
v 1.4 0.2 0.9
v -0.9 0.2 0.8
v 0.9 0.2 0.8
v -1.3 0.2 0.6
v 1.3 0.2 0.6
v -1.3 0.2 -0.6
v 1.3 0.2 -0.6
v -0.9 0.2 -0.8
v 0.9 0.2 -0.8
v -1.4 0.2 -0.9
v -1.3 0.2 -0.9
v -0.9 0.2 -0.9
v 0.9 0.2 -0.9
v 1.3 0.2 -0.9
v 1.4 0.2 -0.9
v -1.3 0.3 0.9
v -0.9 0.3 0.9
v 0.9 0.3 0.9
v 1.3 0.3 0.9
v -1.3 0.3 0.8
v -0.9 0.3 0.8
v 0.9 0.3 0.8
v 1.3 0.3 0.8
v -1.3 0.3 -0.8
v -0.9 0.3 -0.8
v 0.9 0.3 -0.8
v 1.3 0.3 -0.8
v -1.3 0.3 -0.9
v -0.9 0.3 -0.9
v 0.9 0.3 -0.9
v 1.3 0.3 -0.9
v -1.3 0.4 0.8
v 1.3 0.4 0.8
v -1 0.4 0.6
v 1 0.4 0.6
v 1 0.4 -0.4
v 1.3 0.4 -0.4
v -1 0.4 -0.7
v -0.9 0.4 -0.7
v -1.3 0.4 -0.8
v -0.9 0.4 -0.8
v -0.8 0.6 0.6
v 0.8 0.6 0.6
v -0.8 0.6 0.5
v 0.8 0.6 0.5
v -0.8 0.6 -0.5
v -0.4 0.6 -0.5
v -0.8 0.6 -0.6
v -0.4 0.6 -0.6
v 1.1 0.7 -0.3
v 1.2 0.7 -0.3
v 1.1 0.7 -0.4
v 1.2 0.7 -0.4
v -0.9 0.8 0.5
v -0.8 0.8 0.5
v 0.8 0.8 0.5
v -0.6 0.8 0.4
v 0.6 0.8 0.4
v -0.6 0.8 -0.4
v 0.6 0.8 -0.4
v -0.9 0.8 -0.6
v 0.8 0.8 -0.6
v 1.2 1 0.6
v 1.6 1 0.6
v 1.2 1 0.5
v 1.6 1 0.5
v -0.6 1 0.4
v 0.6 1 0.4
v -0.5 1 0.3
v 0.5 1 0.3
v -0.5 1 -0.3
v 0.5 1 -0.3
v -0.6 1 -0.4
v 0.6 1 -0.4
v 1 1.1 0.6
v 1.1 1.1 0.6
v 1.1 1.1 0.5
v -0.5 1.1 0.3
v 0.5 1.1 0.3
v -0.3 1.1 0.2
v 0.3 1.1 0.2
v -0.3 1.1 -0.2
v 0.3 1.1 -0.2
v -0.5 1.1 -0.3
v 0.5 1.1 -0.3
v 1.1 1.1 -0.3
v 1.2 1.1 -0.3
v 1.2 1.1 -0.4
v 1.3 1.1 -0.4
v 0.9 1.1 -0.7
v 1 1.1 -0.7
v 0.9 1.1 -0.8
v 1.3 1.1 -0.8
v -0.3 1.3 0.2
v 0.3 1.3 0.2
v -0.1 1.3 0.1
v 0.1 1.3 0.1
v -0.1 1.3 0
v 0.1 1.3 0
v -0.3 1.3 -0.2
v 0.3 1.3 -0.2
v -1.4 1.4 0.1
v -1.3 1.4 0.1
v -1.4 1.4 -0.1
v -1.3 1.4 -0.1
v -1.3 1.5 0.2
v -1.2 1.5 0.2
v -1.3 1.5 -0.2
v -1.2 1.5 -0.2
v 0.9 1.6 0.2
v 1.1 1.6 0.2
v 0.9 1.6 0
v 1.1 1.6 0
v 0.9 1.6 -0.3
v 1 1.6 -0.3
v 0.9 1.6 -0.4
v 1 1.6 -0.4
v 1.2 1.7 0.6
v 1.6 1.7 0.6
v 1.2 1.7 0.5
v 1.6 1.7 0.5
v 1.1 1.9 0.5
v 1.6 1.9 0.5
v 1.1 1.9 -0.3
v 1.6 1.9 -0.3
v -1.2 2.1 0.5
v -1.1 2.1 0.5
v 0.2 2.1 -0.2
v 0.3 2.1 -0.2
v -1.2 2.1 -0.4
v -1.1 2.1 -0.4
v 0.2 2.1 -0.4
v 0.3 2.1 -0.4
v -1.1 2.4 0.5
v -1 2.4 0.5
v -1.1 2.4 -0.6
v -1 2.4 -0.6
v -0.9 2.4 -0.7
v 0.9 2.4 -0.7
v -0.9 2.4 -0.8
v 0.9 2.4 -0.8
v 1 2.5 0.6
v 1.1 2.5 0.6
v 1 2.5 -0.5
v 1.1 2.5 -0.5
v -1 2.5 -0.6
v 1 2.5 -0.6
v -1 2.5 -0.7
v 1 2.5 -0.7
v -1 2.6 0.6
v 1 2.6 0.6
v -0.9 2.6 0.5
v 0.9 2.6 0.5
v -0.9 2.6 -0.5
v 0.9 2.6 -0.5
v -1 2.6 -0.6
v 1 2.6 -0.6
v -0.9 2.7 0.5
v 0.9 2.7 0.5
v -0.9 2.7 -0.5
v 0.9 2.7 -0.5

# faces
f 3/4/1 2/4/1 1/4/1
f 4/4/1 2/4/1 3/4/1
f 7/6/1 6/6/1 5/6/1
f 8/6/1 6/6/1 7/6/1
f 13/6/1 10/6/1 9/6/1
f 14/6/1 10/6/1 13/6/1
f 15/3/1 11/3/1 10/3/1
f 15/6/1 10/6/1 14/6/1
f 16/4/1 12/4/1 11/4/1
f 16/3/1 11/3/1 15/3/1
f 17/4/1 12/4/1 16/4/1
f 18/4/1 12/4/1 17/4/1
f 19/3/1 15/3/1 14/3/1
f 19/3/1 17/3/1 16/3/1
f 19/3/1 16/3/1 15/3/1
f 20/3/1 17/3/1 19/3/1
f 23/5/1 22/5/1 21/5/1
f 24/5/1 22/5/1 23/5/1
f 25/5/1 23/5/1 21/5/1
f 26/5/1 22/5/1 24/5/1
f 27/5/1 25/5/1 21/5/1
f 27/5/1 26/5/1 25/5/1
f 28/5/1 22/5/1 26/5/1
f 28/5/1 26/5/1 27/5/1
f 31/1/1 30/1/1 29/1/1
f 32/1/1 30/1/1 31/1/1
f 33/1/1 31/1/1 29/1/1
f 34/1/1 30/1/1 32/1/1
f 35/1/1 33/1/1 29/1/1
f 35/1/1 34/1/1 33/1/1
f 36/1/1 30/1/1 34/1/1
f 36/1/1 34/1/1 35/1/1
f 40/1/1 38/1/1 37/1/1
f 41/1/1 40/1/1 39/1/1
f 42/1/1 38/1/1 40/1/1
f 42/1/1 40/1/1 41/1/1
f 45/1/1 44/1/1 43/1/1
f 46/1/1 44/1/1 45/1/1
f 47/1/1 45/1/1 43/1/1
f 48/1/1 44/1/1 46/1/1
f 49/1/1 44/1/1 48/1/1
f 49/1/1 48/1/1 47/1/1
f 50/1/1 44/1/1 49/1/1
f 51/1/1 47/1/1 43/1/1
f 51/1/1 49/1/1 47/1/1
f 52/1/1 49/1/1 51/1/1
f 55/1/1 54/1/1 53/1/1
f 56/1/1 54/1/1 55/1/1
f 59/4/1 58/4/1 57/4/1
f 60/4/1 58/4/1 59/4/1
f 63/9/1 62/9/1 61/9/1
f 64/9/1 62/9/1 63/9/1
f 67/10/1 66/10/1 65/10/1
f 68/10/1 66/10/1 67/10/1
f 71/1/1 70/1/1 69/1/1
f 72/1/1 70/1/1 71/1/1
f 75/10/1 74/10/1 73/10/1
f 76/10/1 74/10/1 75/10/1
f 79/3/1 78/3/1 77/3/1
f 80/3/1 78/3/1 79/3/1
f 83/3/1 82/3/1 81/3/1
f 84/3/1 82/3/1 83/3/1
f 87/1/1 86/1/1 85/1/1
f 89/1/1 87/1/1 85/1/1
f 90/4/1 88/4/1 87/4/1
f 90/1/1 87/1/1 89/1/1
f 91/4/1 88/4/1 90/4/1
f 92/4/1 88/4/1 91/4/1
f 93/4/1 88/4/1 92/4/1
f 98/6/1 95/6/1 94/6/1
f 99/6/1 95/6/1 98/6/1
f 100/4/1 97/4/1 96/4/1
f 101/4/1 97/4/1 100/4/1
f 104/1/1 103/1/1 102/1/1
f 105/1/1 103/1/1 104/1/1
f 108/1/1 107/1/1 106/1/1
f 109/1/1 107/1/1 108/1/1
f 112/1/1 111/1/1 110/1/1
f 113/1/1 111/1/1 112/1/1
f 116/5/1 115/5/1 114/5/1
f 117/5/1 115/5/1 116/5/1
f 120/11/1 119/11/1 118/11/1
f 121/11/1 119/11/1 120/11/1
f 122/1/1 121/1/1 120/1/1
f 123/1/1 121/1/1 122/1/1
f 124/6/1 123/6/1 122/6/1
f 125/6/1 123/6/1 124/6/1
f 126/3/1 125/3/1 124/3/1
f 127/3/1 125/3/1 126/3/1
f 128/6/2 129/6/2 132/6/2
f 132/6/2 129/6/2 133/6/2
f 130/4/2 131/4/2 134/4/2
f 134/4/2 131/4/2 135/4/2
f 136/4/2 137/4/2 138/4/2
f 138/4/2 137/4/2 139/4/2
f 139/4/2 137/4/2 140/4/2
f 140/4/2 137/4/2 141/4/2
f 144/1/2 145/1/2 146/1/2
f 146/1/2 145/1/2 147/1/2
f 142/1/2 143/1/2 148/1/2
f 142/1/2 148/1/2 149/1/2
f 149/1/2 148/1/2 150/1/2
f 151/3/2 152/3/2 153/3/2
f 153/3/2 152/3/2 154/3/2
f 155/3/2 156/3/2 157/3/2
f 157/3/2 156/3/2 158/3/2
f 157/6/2 158/6/2 159/6/2
f 159/6/2 158/6/2 160/6/2
f 161/10/2 162/10/2 163/10/2
f 163/10/2 162/10/2 164/10/2
f 165/3/2 166/3/2 167/3/2
f 167/3/2 166/3/2 168/3/2
f 165/3/2 167/3/2 169/3/2
f 169/3/2 167/3/2 170/3/2
f 171/10/2 172/10/2 173/10/2
f 173/10/2 172/10/2 174/10/2
f 175/9/2 176/9/2 177/9/2
f 177/9/2 176/9/2 178/9/2
f 181/4/2 182/4/2 185/4/2
f 185/4/2 182/4/2 186/4/2
f 183/4/2 184/4/2 187/4/2
f 187/4/2 184/4/2 188/4/2
f 179/1/2 180/1/2 189/1/2
f 189/1/2 180/1/2 190/1/2
f 191/4/2 192/4/2 193/4/2
f 193/4/2 192/4/2 194/4/2
f 195/1/2 196/1/2 197/1/2
f 197/1/2 196/1/2 198/1/2
f 195/1/2 197/1/2 199/1/2
f 199/1/2 197/1/2 200/1/2
f 201/1/2 202/1/2 203/1/2
f 203/1/2 202/1/2 204/1/2
f 204/1/2 202/1/2 205/1/2
f 205/1/2 202/1/2 206/1/2
f 206/1/2 202/1/2 207/1/2
f 207/1/2 202/1/2 208/1/2
f 208/1/2 202/1/2 209/1/2
f 209/1/2 202/1/2 211/1/2
f 211/1/2 202/1/2 212/1/2
f 212/1/2 202/1/2 213/1/2
f 210/1/2 211/1/2 214/1/2
f 211/1/2 212/1/2 214/1/2
f 214/1/2 212/1/2 215/1/2
f 216/1/2 217/1/2 220/1/2
f 220/1/2 217/1/2 221/1/2
f 218/1/2 219/1/2 222/1/2
f 222/1/2 219/1/2 223/1/2
f 224/1/2 225/1/2 228/1/2
f 226/1/2 227/1/2 229/1/2
f 229/1/2 227/1/2 230/1/2
f 229/1/2 230/1/2 232/1/2
f 230/1/2 231/1/2 232/1/2
f 228/1/2 229/1/2 232/1/2
f 224/1/2 228/1/2 232/1/2
f 232/1/2 231/1/2 233/1/2
f 234/1/2 235/1/2 236/1/2
f 236/1/2 235/1/2 237/1/2
f 237/1/2 235/1/2 238/1/2
f 239/1/2 240/1/2 241/1/2
f 241/1/2 240/1/2 242/1/2
f 243/6/2 244/6/2 247/6/2
f 247/6/2 244/6/2 248/6/2
f 244/3/2 245/3/2 249/3/2
f 248/6/2 244/6/2 249/6/2
f 245/4/2 246/4/2 250/4/2
f 249/3/2 245/3/2 250/3/2
f 250/4/2 246/4/2 251/4/2
f 251/4/2 246/4/2 252/4/2
f 248/3/2 249/3/2 253/3/2
f 250/3/2 251/3/2 253/3/2
f 249/3/2 250/3/2 253/3/2
f 253/3/2 251/3/2 254/3/2
f 254/3/2 251/3/2 255/3/2
f 254/1/2 255/1/2 256/1/2
f 256/1/2 255/1/2 257/1/2
f 258/4/2 259/4/2 260/4/2
f 260/4/2 259/4/2 261/4/2
f 262/1/2 263/1/2 265/1/2
f 264/5/2 265/5/2 266/5/2
f 265/1/2 263/1/2 267/1/2
f 266/5/2 265/5/2 267/5/2
f 267/1/2 263/1/2 269/1/2
f 268/14/2 269/14/2 270/14/2
f 269/1/2 263/1/2 271/1/2
f 270/14/2 269/14/2 271/14/2
f 270/1/2 271/1/2 272/1/2
f 271/1/2 263/1/2 273/1/2
f 272/1/2 271/1/2 273/1/2
f 272/6/2 273/6/2 274/6/2
f 273/1/2 263/1/2 275/1/2
f 274/6/2 273/6/2 275/6/2
f 274/3/2 275/3/2 276/3/2
f 275/1/2 263/1/2 277/1/2
f 276/3/2 275/3/2 277/3/2
f 277/1/2 263/1/2 278/1/2
f 278/1/2 263/1/2 279/1/2
f 282/4/3 281/4/3 280/4/3
f 284/4/3 282/4/3 280/4/3
f 284/6/3 283/6/3 282/6/3
f 285/6/3 283/6/3 284/6/3
f 286/4/3 284/4/3 280/4/3
f 288/4/3 286/4/3 280/4/3
f 288/6/3 287/6/3 286/6/3
f 289/6/3 287/6/3 288/6/3
f 290/4/3 288/4/3 280/4/3
f 291/4/3 288/4/3 290/4/3
f 295/3/3 293/3/3 292/3/3
f 296/3/3 295/3/3 294/3/3
f 297/3/3 293/3/3 295/3/3
f 297/3/3 295/3/3 296/3/3
f 298/3/3 293/3/3 297/3/3
f 299/3/3 293/3/3 298/3/3
f 302/1/3 301/1/3 300/1/3
f 303/1/3 301/1/3 302/1/3
f 304/1/3 302/1/3 300/1/3
f 305/1/3 301/1/3 303/1/3
f 306/1/3 304/1/3 300/1/3
f 306/1/3 305/1/3 304/1/3
f 307/1/3 305/1/3 306/1/3
f 308/1/3 305/1/3 307/1/3
f 309/1/3 305/1/3 308/1/3
f 310/1/3 301/1/3 305/1/3
f 310/1/3 305/1/3 309/1/3
f 311/1/3 301/1/3 310/1/3
f 312/1/3 308/1/3 307/1/3
f 313/1/3 308/1/3 312/1/3
f 314/1/3 310/1/3 309/1/3
f 315/1/3 310/1/3 314/1/3
f 323/11/3 319/11/3 318/11/3
f 324/1/3 320/1/3 319/1/3
f 324/11/3 319/11/3 323/11/3
f 325/12/3 324/12/3 323/12/3
f 326/1/3 320/1/3 324/1/3
f 326/12/3 324/12/3 325/12/3
f 327/13/3 326/13/3 325/13/3
f 328/1/3 320/1/3 326/1/3
f 328/13/3 326/13/3 327/13/3
f 329/5/3 317/5/3 316/5/3
f 330/5/3 317/5/3 329/5/3
f 331/14/3 328/14/3 327/14/3
f 332/1/3 320/1/3 328/1/3
f 332/14/3 328/14/3 331/14/3
f 333/6/3 321/6/3 320/6/3
f 333/1/3 320/1/3 332/1/3
f 334/3/3 322/3/3 321/3/3
f 334/6/3 321/6/3 333/6/3
f 335/3/3 322/3/3 334/3/3
f 338/1/3 337/1/3 336/1/3
f 340/1/3 338/1/3 336/1/3
f 340/1/3 339/1/3 338/1/3
f 341/1/3 339/1/3 340/1/3
f 346/2/3 345/2/3 344/2/3
f 347/2/3 345/2/3 346/2/3
f 348/4/3 343/4/3 342/4/3
f 349/4/3 343/4/3 348/4/3
f 355/1/3 351/1/3 350/1/3
f 355/1/3 354/1/3 353/1/3
f 355/1/3 353/1/3 352/1/3
f 355/1/3 352/1/3 351/1/3
f 356/1/3 354/1/3 355/1/3
f 357/1/3 354/1/3 356/1/3
f 358/1/3 354/1/3 357/1/3
f 359/1/3 354/1/3 358/1/3
f 360/1/3 354/1/3 359/1/3
f 361/1/3 354/1/3 360/1/3
f 362/1/3 357/1/3 356/1/3
f 363/1/3 362/1/3 356/1/3
f 364/1/3 363/1/3 356/1/3
f 365/1/3 355/1/3 350/1/3
f 366/1/3 355/1/3 365/1/3
f 367/1/3 364/1/3 356/1/3
f 368/1/3 364/1/3 367/1/3
f 369/1/3 354/1/3 361/1/3
f 370/1/3 354/1/3 369/1/3
f 375/3/3 374/3/3 373/3/3
f 376/3/3 374/3/3 375/3/3
f 377/9/3 372/9/3 371/9/3
f 378/9/3 372/9/3 377/9/3
f 381/10/3 380/10/3 379/10/3
f 382/10/3 380/10/3 381/10/3
f 385/5/3 384/5/3 383/5/3
f 386/5/3 384/5/3 385/5/3
f 389/10/3 388/10/3 387/10/3
f 390/10/3 388/10/3 389/10/3
f 393/6/3 392/6/3 391/6/3
f 394/6/3 392/6/3 393/6/3
f 397/3/3 396/3/3 395/3/3
f 398/3/3 396/3/3 397/3/3
f 401/1/3 400/1/3 399/1/3
f 402/1/3 400/1/3 401/1/3
f 405/1/3 404/1/3 403/1/3
f 406/1/3 404/1/3 405/1/3
f 407/1/3 405/1/3 403/1/3
f 408/1/3 405/1/3 407/1/3
f 413/1/3 410/1/3 409/1/3
f 414/1/3 410/1/3 413/1/3
f 417/1/3 412/1/3 411/1/3
f 418/1/3 416/1/3 415/1/3
f 419/1/3 416/1/3 418/1/3
f 421/1/3 417/1/3 411/1/3
f 421/1/3 420/1/3 419/1/3
f 421/1/3 419/1/3 418/1/3
f 421/1/3 418/1/3 417/1/3
f 422/1/3 420/1/3 421/1/3
f 427/4/3 426/4/3 425/4/3
f 428/4/3 426/4/3 427/4/3
f 429/4/3 424/4/3 423/4/3
f 430/4/3 424/4/3 429/4/3
f 431/1/4 432/1/4 433/1/4
f 433/1/4 432/1/4 434/1/4
f 435/1/4 436/1/4 437/1/4
f 437/1/4 436/1/4 438/1/4
f 439/6/4 440/6/4 441/6/4
f 441/6/4 440/6/4 442/6/4
f 443/3/4 444/3/4 445/3/4
f 445/3/4 444/3/4 446/3/4
f 447/5/4 448/5/4 449/5/4
f 449/5/4 448/5/4 450/5/4
f 451/10/4 452/10/4 456/10/4
f 456/10/4 452/10/4 457/10/4
f 454/3/4 455/3/4 458/3/4
f 453/3/4 454/3/4 458/3/4
f 458/3/4 455/3/4 459/3/4
f 460/10/4 461/10/4 462/10/4
f 462/10/4 461/10/4 463/10/4
f 464/1/4 465/1/4 467/1/4
f 466/1/4 467/1/4 471/1/4
f 467/1/4 465/1/4 472/1/4
f 471/1/4 467/1/4 472/1/4
f 468/1/4 469/1/4 475/1/4
f 475/1/4 469/1/4 476/1/4
f 470/1/4 471/1/4 477/1/4
f 472/1/4 473/1/4 477/1/4
f 471/1/4 472/1/4 477/1/4
f 475/1/4 476/1/4 478/1/4
f 476/1/4 477/1/4 478/1/4
f 474/1/4 475/1/4 478/1/4
f 477/1/4 473/1/4 479/1/4
f 478/1/4 477/1/4 479/1/4
f 480/1/4 481/1/4 482/1/4
f 482/1/4 481/1/4 483/1/4
f 484/4/4 485/4/4 489/4/4
f 489/4/4 485/4/4 490/4/4
f 488/3/4 489/3/4 491/3/4
f 489/6/4 490/6/4 492/6/4
f 491/3/4 489/3/4 492/3/4
f 488/3/4 491/3/4 493/3/4
f 491/6/4 492/6/4 493/6/4
f 492/6/4 490/6/4 494/6/4
f 493/6/4 492/6/4 494/6/4
f 494/6/4 490/6/4 495/6/4
f 488/3/4 493/3/4 496/3/4
f 493/3/4 494/3/4 496/3/4
f 494/4/4 495/4/4 497/4/4
f 496/3/4 494/3/4 497/3/4
f 497/4/4 495/4/4 498/4/4
f 488/3/4 496/3/4 499/3/4
f 496/6/4 497/6/4 500/6/4
f 499/3/4 496/3/4 500/3/4
f 497/6/4 498/6/4 500/6/4
f 500/6/4 498/6/4 501/6/4
f 501/6/4 498/6/4 502/6/4
f 488/3/4 499/3/4 503/3/4
f 503/3/4 499/3/4 504/3/4
f 501/3/4 502/3/4 505/3/4
f 505/3/4 502/3/4 506/3/4
f 486/9/4 487/9/4 507/9/4
f 507/9/4 487/9/4 508/9/4
f 505/4/4 506/4/4 509/4/4
f 509/4/4 506/4/4 510/4/4
f 511/1/4 512/1/4 513/1/4
f 513/1/4 512/1/4 514/1/4
f 517/2/4 518/2/4 519/2/4
f 519/2/4 518/2/4 520/2/4
f 515/4/4 516/4/4 521/4/4
f 521/4/4 516/4/4 522/4/4
f 523/1/4 524/1/4 525/1/4
f 525/1/4 524/1/4 526/1/4
f 527/1/4 528/1/4 529/1/4
f 529/1/4 528/1/4 530/1/4
f 531/1/4 532/1/4 533/1/4
f 533/1/4 532/1/4 534/1/4
f 535/1/4 536/1/4 537/1/4
f 537/1/4 536/1/4 538/1/4
f 538/1/4 536/1/4 540/1/4
f 539/1/4 540/1/4 541/1/4
f 540/1/4 536/1/4 542/1/4
f 541/1/4 540/1/4 542/1/4
f 543/3/4 544/3/4 546/3/4
f 546/3/4 544/3/4 547/3/4
f 545/3/4 546/3/4 549/3/4
f 546/3/4 547/3/4 549/3/4
f 549/3/4 547/3/4 550/3/4
f 547/1/4 548/1/4 551/1/4
f 551/1/4 548/1/4 552/1/4
f 550/3/4 547/3/4 553/3/4
f 547/1/4 551/1/4 554/1/4
f 553/3/4 547/3/4 554/3/4
f 554/1/4 551/1/4 555/1/4
f 556/4/4 557/4/4 558/4/4
f 556/4/4 558/4/4 560/4/4
f 558/4/4 559/4/4 560/4/4
f 560/4/4 559/4/4 561/4/4
f 556/4/4 560/4/4 562/4/4
f 556/4/4 562/4/4 564/4/4
f 562/4/4 563/4/4 564/4/4
f 564/4/4 563/4/4 565/4/4
f 556/4/4 564/4/4 566/4/4
f 566/4/4 564/4/4 567/4/4
f 570/4/5 569/4/5 568/4/5
f 571/4/5 569/4/5 570/4/5
f 576/1/5 573/1/5 572/1/5
f 577/1/5 573/1/5 576/1/5
f 578/1/5 575/1/5 574/1/5
f 579/1/5 575/1/5 578/1/5
f 580/1/5 573/1/5 577/1/5
f 581/1/5 573/1/5 580/1/5
f 584/1/5 583/1/5 582/1/5
f 585/1/5 583/1/5 584/1/5
f 586/1/5 583/1/5 585/1/5
f 589/5/5 588/5/5 587/5/5
f 590/5/5 588/5/5 589/5/5
f 593/2/5 592/2/5 591/2/5
f 594/2/5 592/2/5 593/2/5
f 597/1/5 596/1/5 595/1/5
f 598/1/5 597/1/5 595/1/5
f 599/1/5 597/1/5 598/1/5
f 601/1/5 600/1/5 599/1/5
f 602/1/5 600/1/5 601/1/5
f 605/5/5 604/5/5 603/5/5
f 606/5/5 604/5/5 605/5/5
f 612/11/5 608/11/5 607/11/5
f 613/12/5 609/12/5 608/12/5
f 613/11/5 608/11/5 612/11/5
f 614/13/5 610/13/5 609/13/5
f 614/12/5 609/12/5 613/12/5
f 615/14/5 611/14/5 610/14/5
f 615/13/5 610/13/5 614/13/5
f 616/14/5 611/14/5 615/14/5
f 619/6/5 618/6/5 617/6/5
f 620/6/5 618/6/5 619/6/5
f 623/1/5 622/1/5 621/1/5
f 624/1/5 623/1/5 621/1/5
f 625/1/5 623/1/5 624/1/5
f 628/3/5 627/3/5 626/3/5
f 629/3/5 627/3/5 628/3/5
f 632/1/5 631/1/5 630/1/5
f 633/1/5 631/1/5 632/1/5
f 636/1/5 635/1/5 634/1/5
f 637/1/5 635/1/5 636/1/5
f 638/1/5 635/1/5 637/1/5
f 641/1/5 640/1/5 639/1/5
f 642/1/5 640/1/5 641/1/5
f 645/3/5 644/3/5 643/3/5
f 646/3/5 644/3/5 645/3/5
f 647/3/5 645/3/5 643/3/5
f 648/3/5 644/3/5 646/3/5
f 649/3/5 647/3/5 643/3/5
f 649/3/5 648/3/5 647/3/5
f 650/3/5 644/3/5 648/3/5
f 650/3/5 648/3/5 649/3/5
f 654/1/5 652/1/5 651/1/5
f 655/1/5 652/1/5 654/1/5
f 656/4/5 654/4/5 653/4/5
f 656/4/5 655/4/5 654/4/5
f 657/4/5 655/4/5 656/4/5
f 659/4/5 655/4/5 657/4/5
f 660/4/5 656/4/5 653/4/5
f 661/4/5 656/4/5 660/4/5
f 662/3/5 659/3/5 658/3/5
f 663/4/5 655/4/5 659/4/5
f 663/3/5 659/3/5 662/3/5
f 664/4/5 655/4/5 663/4/5
f 672/4/5 666/4/5 665/4/5
f 672/4/5 671/4/5 670/4/5
f 672/4/5 670/4/5 669/4/5
f 672/4/5 669/4/5 668/4/5
f 672/4/5 668/4/5 667/4/5
f 672/4/5 667/4/5 666/4/5
f 673/4/5 671/4/5 672/4/5
f 676/4/6 677/4/6 680/4/6
f 680/4/6 677/4/6 681/4/6
f 674/4/6 675/4/6 682/4/6
f 678/4/6 679/4/6 683/4/6
f 674/4/6 682/4/6 684/4/6
f 683/4/6 679/4/6 685/4/6
f 674/4/6 684/4/6 688/4/6
f 688/4/6 684/4/6 689/4/6
f 686/4/6 687/4/6 690/4/6
f 690/4/6 687/4/6 691/4/6
f 685/4/6 679/4/6 692/4/6
f 692/4/6 679/4/6 693/4/6
f 694/6/6 695/6/6 698/6/6
f 698/6/6 695/6/6 699/6/6
f 696/6/6 697/6/6 700/6/6
f 700/6/6 697/6/6 701/6/6
f 702/4/6 703/4/6 706/4/6
f 706/4/6 703/4/6 707/4/6
f 704/4/6 705/4/6 708/4/6
f 708/4/6 705/4/6 709/4/6
f 710/3/6 711/3/6 712/3/6
f 712/3/6 711/3/6 713/3/6
f 713/3/6 711/3/6 714/3/6
f 714/3/6 711/3/6 715/3/6
f 710/3/6 712/3/6 716/3/6
f 710/3/6 716/3/6 718/3/6
f 716/3/6 717/3/6 718/3/6
f 718/3/6 717/3/6 719/3/6
f 720/1/6 721/1/6 722/1/6
f 722/1/6 721/1/6 723/1/6
f 724/1/6 725/1/6 726/1/6
f 726/1/6 725/1/6 727/1/6
f 728/1/6 729/1/6 730/1/6
f 730/1/6 729/1/6 731/1/6
f 732/2/6 733/2/6 735/2/6
f 733/2/6 734/2/6 735/2/6
f 735/2/6 734/2/6 736/2/6
f 732/2/6 735/2/6 737/2/6
f 736/2/6 734/2/6 738/2/6
f 732/2/6 737/2/6 739/2/6
f 737/2/6 738/2/6 739/2/6
f 738/2/6 734/2/6 740/2/6
f 739/2/6 738/2/6 740/2/6
f 741/5/6 742/5/6 743/5/6
f 743/5/6 742/5/6 744/5/6
f 745/9/6 746/9/6 747/9/6
f 747/9/6 746/9/6 748/9/6
f 745/9/6 747/9/6 749/9/6
f 748/9/6 746/9/6 750/9/6
f 745/9/6 749/9/6 751/9/6
f 749/9/6 750/9/6 751/9/6
f 750/9/6 746/9/6 752/9/6
f 751/9/6 750/9/6 752/9/6
f 753/1/6 754/1/6 755/1/6
f 756/10/6 757/10/6 758/10/6
f 758/10/6 757/10/6 759/10/6
f 756/10/6 758/10/6 760/10/6
f 759/10/6 757/10/6 761/10/6
f 756/10/6 760/10/6 762/10/6
f 760/10/6 761/10/6 762/10/6
f 761/10/6 757/10/6 763/10/6
f 762/10/6 761/10/6 763/10/6
f 753/1/6 755/1/6 764/1/6
f 764/1/6 765/1/6 766/1/6
f 753/1/6 764/1/6 769/1/6
f 766/1/6 767/1/6 769/1/6
f 764/1/6 766/1/6 769/1/6
f 768/1/6 769/1/6 770/1/6
f 769/1/6 767/1/6 771/1/6
f 770/1/6 769/1/6 771/1/6
f 772/10/6 773/10/6 774/10/6
f 774/10/6 773/10/6 775/10/6
f 772/10/6 774/10/6 776/10/6
f 774/8/6 775/8/6 776/8/6
f 775/10/6 773/10/6 777/10/6
f 776/8/6 775/8/6 777/8/6
f 772/10/6 776/10/6 778/10/6
f 776/10/6 777/10/6 778/10/6
f 777/10/6 773/10/6 779/10/6
f 778/10/6 777/10/6 779/10/6
f 780/6/6 781/6/6 782/6/6
f 782/6/6 781/6/6 783/6/6
f 784/5/6 785/5/6 786/5/6
f 786/5/6 785/5/6 787/5/6
f 788/1/6 789/1/6 790/1/6
f 790/1/6 789/1/6 791/1/6
f 792/1/6 793/1/6 794/1/6
f 794/1/6 793/1/6 795/1/6
f 796/3/6 797/3/6 798/3/6
f 798/3/6 797/3/6 799/3/6
f 800/1/6 801/1/6 802/1/6
f 802/1/6 801/1/6 803/1/6
f 804/1/6 805/1/6 808/1/6
f 808/1/6 805/1/6 809/1/6
f 806/3/6 807/3/6 810/3/6
f 810/3/6 807/3/6 811/3/6
f 812/1/6 813/1/6 814/1/6
f 814/1/6 813/1/6 815/1/6
f 816/1/6 817/1/6 818/1/6
f 818/1/6 817/1/6 819/1/6
f 820/1/6 821/1/6 822/1/6
f 822/1/6 821/1/6 823/1/6
f 824/1/6 825/1/6 826/1/6
f 826/1/6 825/1/6 827/1/6
f 828/1/6 829/1/6 830/1/6
f 830/1/6 829/1/6 831/1/6
f 828/1/6 830/1/6 832/1/6
f 831/1/6 829/1/6 833/1/6
f 828/1/6 832/1/6 834/1/6
f 832/1/6 833/1/6 834/1/6
f 833/1/6 829/1/6 835/1/6
f 834/1/6 833/1/6 835/1/6
f 836/4/6 837/4/6 838/4/6
f 838/4/6 837/4/6 839/4/6
