# MagicaVoxel @ Ephtracy

# group
o 

# material
mtllib Sabatier_reactor.mtl
usemtl palette

# normals
vn -1 0 0
vn 1 0 0
vn 0 0 1
vn 0 0 -1
vn 0 -1 0
vn 0 1 0

# texcoords
vt 0.00195312 0.5
vt 0.00585938 0.5
vt 0.00976562 0.5
vt 0.0136719 0.5
vt 0.0175781 0.5
vt 0.0214844 0.5
vt 0.0332031 0.5
vt 0.0371094 0.5
vt 0.0410156 0.5
vt 0.0488281 0.5
vt 0.0644531 0.5
vt 0.0683594 0.5
vt 0.0722656 0.5
vt 0.0761719 0.5
vt 0.0800781 0.5
vt 0.0839844 0.5
vt 0.0878906 0.5

# verts
v -1.4 0 0.7
v -1.4 0 -0.7
v -1.4 0.2 0.7
v -1.4 0.2 -0.7
v -1.3 0.2 0.7
v -1.3 0.2 0.4
v -1.3 0.2 -0.4
v -1.3 0.2 -0.7
v -1.3 0.3 0.7
v -1.3 0.3 0.6
v -1.3 0.3 0.4
v -1.3 0.3 -0.4
v -1.3 0.3 -0.6
v -1.3 0.3 -0.7
v -1.3 0.4 0.6
v -1.3 0.4 -0.6
v -1.3 0.9 0.4
v -1.3 0.9 5.96046e-08
v -1.3 1.8 0.4
v -1.3 1.8 5.96046e-08
v -1.2 0.4 0.5
v -1.2 0.4 -0.1
v -1.2 0.9 0.4
v -1.2 0.9 5.96046e-08
v -1.2 1.2 0.5
v -1.2 1.2 0.4
v -1.2 1.2 5.96046e-08
v -1.2 1.2 -0.1
v -1.2 1.4 0.5
v -1.2 1.4 0.4
v -1.2 1.4 5.96046e-08
v -1.2 1.4 -0.1
v -1.2 1.8 0.4
v -1.2 1.8 5.96046e-08
v -1.2 2.1 0.5
v -1.2 2.1 -0.1
v -1.2 2.4 0.5
v -1.2 2.4 -0.1
v -1.1 0.5 0.6
v -1.1 0.5 0.5
v -1.1 1.2 0.5
v -1.1 1.4 0.5
v -1.1 2 0.6
v -1.1 2 0.5
v -1.1 2.4 0.4
v -1.1 2.4 5.96046e-08
v -1.1 2.6 0.4
v -1.1 2.6 5.96046e-08
v -0.3 0.4 0.5
v -0.3 0.4 5.96046e-08
v -0.3 0.4 -0.1
v -0.3 0.4 -0.6
v -0.3 0.6 5.96046e-08
v -0.3 0.6 -0.1
v -0.3 0.7 -0.1
v -0.3 0.7 -0.6
v -0.3 0.8 5.96046e-08
v -0.3 0.8 -0.1
v -0.3 0.9 -0.1
v -0.3 0.9 -0.6
v -0.3 1 0.5
v -0.3 1 5.96046e-08
v -0.3 1 -0.1
v -0.3 1.2 0.5
v -0.3 1.2 5.96046e-08
v -0.3 1.2 -0.1
v -0.3 1.4 5.96046e-08
v -0.3 1.4 -0.1
v -0.3 1.6 5.96046e-08
v -0.3 1.6 -0.1
v -0.3 1.8 0.5
v -0.3 1.8 5.96046e-08
v -0.3 1.8 -0.1
v -0.3 2 0.5
v -0.3 2 -0.1
v -0.3 2.1 0.5
v -0.3 2.1 0.4
v -0.3 2.1 5.96046e-08
v -0.3 2.1 -0.1
v -0.3 2.3 0.4
v -0.3 2.3 5.96046e-08
v 0.5 0.4 0.5
v 0.5 0.4 0.4
v 0.5 0.4 -0.4
v 0.5 0.7 0.5
v 0.5 0.7 0.4
v 0.5 1.4 0.5
v 0.5 1.4 0.4
v 0.5 1.7 0.5
v 0.5 1.7 0.4
v 0.5 1.7 -0.4
v 0.6 1 0.5
v 0.6 1 0.4
v 0.6 1.4 0.5
v 0.6 1.4 0.4
v 0.7 0.7 0.5
v 0.7 0.7 0.4
v 0.7 0.8 0.5
v 0.7 0.8 0.4
v 0.7 0.9 0.5
v 0.7 0.9 0.4
v 0.7 1.1 0.6
v 0.7 1.1 0.5
v 0.7 1.2 0.6
v 0.7 1.2 0.5
v 0.7 1.4 0.6
v 0.7 1.4 0.5
v 0.7 1.5 0.6
v 0.7 1.5 0.5
v 0.7 1.7 0.2
v 0.7 1.7 5.96046e-08
v 0.7 1.8 0.2
v 0.7 1.8 5.96046e-08
v 0.7 2 0.2
v 0.7 2 5.96046e-08
v 0.7 2.1 0.2
v 0.7 2.1 5.96046e-08
v 0.9 0.2 0.7
v 0.9 0.2 0.6
v 0.9 0.2 -0.6
v 0.9 0.2 -0.7
v 0.9 0.3 0.7
v 0.9 0.3 0.6
v 0.9 0.3 -0.6
v 0.9 0.3 -0.7
v 1.1 0.4 0.5
v 1.1 0.4 0.4
v 1.1 0.5 0.5
v 1.1 0.5 0.4
v 1.1 1.6 0.5
v 1.1 1.6 0.4
v 1.1 1.7 0.5
v 1.1 1.7 0.4
v -0.9 0.2 0.7
v -0.9 0.2 0.6
v -0.9 0.2 -0.6
v -0.9 0.2 -0.7
v -0.9 0.3 0.7
v -0.9 0.3 0.6
v -0.9 0.3 -0.6
v -0.9 0.3 -0.7
v -0.6 0.5 0.6
v -0.6 0.5 0.5
v -0.6 1.2 0.5
v -0.6 1.4 0.5
v -0.6 2 0.6
v -0.6 2 0.5
v -0.5 0.4 0.4
v -0.5 0.4 -0.1
v -0.5 0.5 0.4
v -0.5 0.5 5.96046e-08
v -0.5 1 0.4
v -0.5 1 5.96046e-08
v -0.5 1 -0.1
v -0.5 1.2 0.4
v -0.5 1.2 -0.1
v -0.5 1.4 0.4
v -0.5 1.4 5.96046e-08
v -0.5 1.4 -0.1
v -0.5 1.8 0.4
v -0.5 1.8 5.96046e-08
v -0.5 1.8 -0.1
v -0.5 2 0.4
v -0.5 2 0.3
v -0.5 2 0.1
v -0.5 2 -0.1
v -0.5 2.1 0.4
v -0.5 2.1 0.3
v -0.5 2.1 0.1
v -0.5 2.1 -0.1
v -0.5 2.4 0.4
v -0.5 2.4 0.3
v -0.5 2.4 0.1
v -0.5 2.4 5.96046e-08
v -0.5 2.4 -0.1
v -0.5 2.6 0.4
v -0.5 2.6 5.96046e-08
v -0.4 0.4 0.5
v -0.4 0.4 0.4
v -0.4 1 0.5
v -0.4 1 0.4
v -0.4 1.2 0.5
v -0.4 1.2 0.4
v -0.4 1.8 0.5
v -0.4 1.8 0.4
v -0.4 2 0.5
v -0.4 2 0.4
v -0.4 2.4 0.5
v -0.4 2.4 0.4
v 0.3 0.4 -0.1
v 0.3 0.4 -0.6
v 0.3 0.7 -0.1
v 0.3 0.7 -0.6
v 0.3 0.8 -0.1
v 0.3 0.9 -0.1
v 0.3 0.9 -0.6
v 0.3 2.1 0.4
v 0.3 2.1 5.96046e-08
v 0.3 2.3 0.4
v 0.3 2.3 5.96046e-08
v 0.4 0.4 0.5
v 0.4 0.4 -0.1
v 0.4 0.8 0.5
v 0.4 0.8 -0.1
v 0.4 1 0.5
v 0.4 1 -0.1
v 0.4 1.4 0.5
v 0.4 1.4 -0.1
v 0.4 1.6 0.5
v 0.4 1.6 -0.1
v 0.4 1.8 0.5
v 0.4 1.8 0.2
v 0.4 1.8 5.96046e-08
v 0.4 1.8 -0.1
v 0.4 2 0.2
v 0.4 2 5.96046e-08
v 0.4 2.1 0.5
v 0.4 2.1 -0.1
v 0.7 0.4 0.5
v 0.7 0.4 0.4
v 0.7 0.5 0.5
v 0.7 0.5 0.4
v 0.7 1.6 0.5
v 0.7 1.6 0.4
v 0.7 1.7 0.5
v 0.7 1.7 0.4
v 0.9 1.7 0.2
v 0.9 1.7 5.96046e-08
v 0.9 1.9 0.2
v 0.9 1.9 5.96046e-08
v 0.9 2.1 0.2
v 0.9 2.1 5.96046e-08
v 1.1 0.7 0.5
v 1.1 0.7 0.4
v 1.1 0.8 0.5
v 1.1 0.8 0.4
v 1.1 0.9 0.5
v 1.1 0.9 0.4
v 1.1 1.1 0.6
v 1.1 1.1 0.5
v 1.1 1.2 0.6
v 1.1 1.2 0.5
v 1.1 1.3 0.6
v 1.1 1.3 0.5
v 1.1 1.4 0.6
v 1.1 1.4 0.5
v 1.1 1.5 0.6
v 1.1 1.5 0.5
v 1.2 1 0.5
v 1.2 1 0.4
v 1.2 1.4 0.5
v 1.2 1.4 0.4
v 1.3 0.2 0.7
v 1.3 0.2 0.4
v 1.3 0.2 -0.2
v 1.3 0.2 -0.6
v 1.3 0.2 -0.7
v 1.3 0.3 0.7
v 1.3 0.3 0.6
v 1.3 0.3 0.4
v 1.3 0.3 -0.6
v 1.3 0.3 -0.7
v 1.3 0.4 0.6
v 1.3 0.4 0.5
v 1.3 0.4 0.4
v 1.3 0.4 -0.2
v 1.3 0.4 -0.4
v 1.3 0.7 0.5
v 1.3 0.7 0.4
v 1.3 1.4 0.5
v 1.3 1.4 0.4
v 1.3 1.7 0.5
v 1.3 1.7 0.4
v 1.3 1.7 -0.4
v 1.4 0 0.7
v 1.4 0 -0.7
v 1.4 0.1 -0.2
v 1.4 0.1 -0.6
v 1.4 0.2 0.7
v 1.4 0.2 -0.2
v 1.4 0.2 -0.6
v 1.4 0.2 -0.7
v 1.4 0.4 -0.2
v 1.4 0.4 -0.6
v -1.4 0 0.7
v -1.4 0.2 0.7
v -1.3 0.1 0.7
v -1.3 0.2 0.7
v -1.3 0.3 0.7
v -0.9 0.1 0.7
v -0.9 0.2 0.7
v -0.9 0.3 0.7
v 0.9 0.1 0.7
v 0.9 0.2 0.7
v 0.9 0.3 0.7
v 1.3 0.1 0.7
v 1.3 0.2 0.7
v 1.3 0.3 0.7
v 1.4 0 0.7
v 1.4 0.2 0.7
v -1.3 0.3 0.6
v -1.3 0.4 0.6
v -1.1 0.5 0.6
v -1.1 2 0.6
v -1 0.6 0.6
v -1 1.9 0.6
v -0.9 0.2 0.6
v -0.9 0.3 0.6
v -0.9 0.7 0.6
v -0.9 0.9 0.6
v -0.9 1.3 0.6
v -0.9 1.5 0.6
v -0.9 1.8 0.6
v -0.8 0.7 0.6
v -0.8 0.9 0.6
v -0.8 1.3 0.6
v -0.8 1.5 0.6
v -0.8 1.8 0.6
v -0.7 0.6 0.6
v -0.7 1.9 0.6
v -0.6 0.5 0.6
v -0.6 2 0.6
v 0.7 1.1 0.6
v 0.7 1.2 0.6
v 0.7 1.4 0.6
v 0.7 1.5 0.6
v 0.8 1.1 0.6
v 0.8 1.2 0.6
v 0.9 0.2 0.6
v 0.9 0.3 0.6
v 0.9 1.1 0.6
v 0.9 1.2 0.6
v 0.9 1.3 0.6
v 0.9 1.4 0.6
v 1 1.1 0.6
v 1 1.2 0.6
v 1 1.3 0.6
v 1 1.4 0.6
v 1.1 1.1 0.6
v 1.1 1.2 0.6
v 1.1 1.3 0.6
v 1.1 1.4 0.6
v 1.1 1.5 0.6
v 1.3 0.3 0.6
v 1.3 0.4 0.6
v -1.2 0.4 0.5
v -1.2 1.2 0.5
v -1.2 1.4 0.5
v -1.2 2.1 0.5
v -1.2 2.4 0.5
v -1.1 0.5 0.5
v -1.1 1.2 0.5
v -1.1 1.4 0.5
v -1.1 2 0.5
v -0.6 0.5 0.5
v -0.6 1.2 0.5
v -0.6 1.4 0.5
v -0.6 2 0.5
v -0.5 0.4 0.5
v -0.5 1.2 0.5
v -0.5 1.4 0.5
v -0.5 2.1 0.5
v -0.4 0.4 0.5
v -0.4 1 0.5
v -0.4 1.2 0.5
v -0.4 1.8 0.5
v -0.4 2 0.5
v -0.4 2.4 0.5
v -0.3 0.4 0.5
v -0.3 1 0.5
v -0.3 1.2 0.5
v -0.3 1.8 0.5
v -0.3 2 0.5
v -0.3 2.1 0.5
v -0.2 0.4 0.5
v -0.2 0.8 0.5
v -0.2 1 0.5
v -0.2 1.4 0.5
v -0.2 1.6 0.5
v -0.2 1.8 0.5
v 0.4 0.4 0.5
v 0.4 0.8 0.5
v 0.4 1 0.5
v 0.4 1.4 0.5
v 0.4 1.6 0.5
v 0.4 1.8 0.5
v 0.4 2.1 0.5
v 0.5 0.4 0.5
v 0.5 0.7 0.5
v 0.5 1.4 0.5
v 0.5 1.7 0.5
v 0.6 1 0.5
v 0.6 1.4 0.5
v 0.7 0.4 0.5
v 0.7 0.5 0.5
v 0.7 0.7 0.5
v 0.7 0.8 0.5
v 0.7 0.9 0.5
v 0.7 1.1 0.5
v 0.7 1.2 0.5
v 0.7 1.4 0.5
v 0.7 1.5 0.5
v 0.7 1.6 0.5
v 0.7 1.7 0.5
v 0.8 0.8 0.5
v 0.8 0.9 0.5
v 0.8 1.1 0.5
v 0.9 0.8 0.5
v 0.9 0.9 0.5
v 0.9 1.1 0.5
v 1 0.8 0.5
v 1 0.9 0.5
v 1 1.1 0.5
v 1.1 0.4 0.5
v 1.1 0.5 0.5
v 1.1 0.7 0.5
v 1.1 0.8 0.5
v 1.1 0.9 0.5
v 1.1 1.1 0.5
v 1.1 1.2 0.5
v 1.1 1.3 0.5
v 1.1 1.4 0.5
v 1.1 1.5 0.5
v 1.1 1.6 0.5
v 1.1 1.7 0.5
v 1.2 1 0.5
v 1.2 1.4 0.5
v 1.3 0.4 0.5
v 1.3 0.7 0.5
v 1.3 1.4 0.5
v 1.3 1.7 0.5
v -1.3 0.9 0.4
v -1.3 1.8 0.4
v -1.2 0.9 0.4
v -1.2 1.2 0.4
v -1.2 1.4 0.4
v -1.2 1.8 0.4
v -1.1 2.4 0.4
v -1.1 2.6 0.4
v -0.5 2.4 0.4
v -0.5 2.6 0.4
v -0.3 2.1 0.4
v -0.3 2.3 0.4
v 0.3 2.1 0.4
v 0.3 2.3 0.4
v 0.5 0.7 0.4
v 0.5 1.4 0.4
v 0.6 1 0.4
v 0.6 1.4 0.4
v 0.7 0.4 0.4
v 0.7 0.5 0.4
v 0.7 0.7 0.4
v 0.7 0.8 0.4
v 0.7 0.9 0.4
v 0.7 1.6 0.4
v 0.7 1.7 0.4
v 0.8 0.9 0.4
v 0.9 0.9 0.4
v 1 0.9 0.4
v 1.1 0.4 0.4
v 1.1 0.5 0.4
v 1.1 0.7 0.4
v 1.1 0.8 0.4
v 1.1 0.9 0.4
v 1.1 1.6 0.4
v 1.1 1.7 0.4
v 1.2 1 0.4
v 1.2 1.4 0.4
v 1.3 0.7 0.4
v 1.3 1.4 0.4
v 0.4 1.8 0.2
v 0.4 2 0.2
v 0.7 1.7 0.2
v 0.7 1.8 0.2
v 0.7 1.9 0.2
v 0.7 2 0.2
v 0.7 2.1 0.2
v 0.9 1.7 0.2
v 0.9 1.9 0.2
v 0.9 2.1 0.2
v 1.3 0.2 -0.2
v 1.3 0.4 -0.2
v 1.4 0.2 -0.2
v 1.4 0.4 -0.2
v -0.5 0.4 0.4
v -0.5 0.5 0.4
v -0.5 1 0.4
v -0.5 1.2 0.4
v -0.5 1.4 0.4
v -0.5 1.8 0.4
v -0.5 2 0.4
v -0.5 2.1 0.4
v -0.5 2.4 0.4
v -0.4 0.4 0.4
v -0.4 1 0.4
v -0.4 1.2 0.4
v -0.4 1.8 0.4
v -0.4 2 0.4
v -0.4 2.4 0.4
v -1.3 0.9 5.96046e-08
v -1.3 1.8 5.96046e-08
v -1.2 0.9 5.96046e-08
v -1.2 1.2 5.96046e-08
v -1.2 1.4 5.96046e-08
v -1.2 1.8 5.96046e-08
v -1.1 2.4 5.96046e-08
v -1.1 2.6 5.96046e-08
v -0.5 2.4 5.96046e-08
v -0.5 2.6 5.96046e-08
v -0.3 2.1 5.96046e-08
v -0.3 2.3 5.96046e-08
v 0.3 2.1 5.96046e-08
v 0.3 2.3 5.96046e-08
v 0.4 1.8 5.96046e-08
v 0.4 2 5.96046e-08
v 0.7 1.7 5.96046e-08
v 0.7 1.8 5.96046e-08
v 0.7 1.9 5.96046e-08
v 0.7 2 5.96046e-08
v 0.7 2.1 5.96046e-08
v 0.9 1.7 5.96046e-08
v 0.9 1.9 5.96046e-08
v 0.9 2.1 5.96046e-08
v -1.2 0.4 -0.1
v -1.2 1.2 -0.1
v -1.2 1.4 -0.1
v -1.2 2.1 -0.1
v -1.2 2.4 -0.1
v -0.5 0.4 -0.1
v -0.5 1 -0.1
v -0.5 1.2 -0.1
v -0.5 1.4 -0.1
v -0.5 1.8 -0.1
v -0.5 2 -0.1
v -0.5 2.1 -0.1
v -0.5 2.4 -0.1
v -0.3 0.9 -0.1
v -0.3 1 -0.1
v -0.3 1.2 -0.1
v -0.3 1.4 -0.1
v -0.3 1.6 -0.1
v -0.3 1.8 -0.1
v -0.3 2 -0.1
v -0.3 2.1 -0.1
v 0.3 0.4 -0.1
v 0.3 0.7 -0.1
v 0.3 0.8 -0.1
v 0.3 0.9 -0.1
v 0.4 0.4 -0.1
v 0.4 0.8 -0.1
v 0.4 1 -0.1
v 0.4 1.4 -0.1
v 0.4 1.6 -0.1
v 0.4 1.8 -0.1
v 0.4 2.1 -0.1
v 0.5 0.4 -0.4
v 0.5 1.7 -0.4
v 1.3 0.4 -0.4
v 1.3 1.7 -0.4
v -1.3 0.3 -0.6
v -1.3 0.4 -0.6
v -0.9 0.2 -0.6
v -0.9 0.3 -0.6
v -0.3 0.2 -0.6
v -0.3 0.4 -0.6
v -0.3 0.7 -0.6
v -0.3 0.9 -0.6
v 0.3 0.2 -0.6
v 0.3 0.4 -0.6
v 0.3 0.7 -0.6
v 0.3 0.9 -0.6
v 0.9 0.2 -0.6
v 0.9 0.3 -0.6
v 1.3 0.2 -0.6
v 1.3 0.3 -0.6
v 1.4 0.2 -0.6
v 1.4 0.4 -0.6
v -1.4 0 -0.7
v -1.4 0.2 -0.7
v -1.3 0.1 -0.7
v -1.3 0.2 -0.7
v -1.3 0.3 -0.7
v -0.9 0.1 -0.7
v -0.9 0.2 -0.7
v -0.9 0.3 -0.7
v 0.9 0.1 -0.7
v 0.9 0.2 -0.7
v 0.9 0.3 -0.7
v 1.3 0.1 -0.7
v 1.3 0.2 -0.7
v 1.3 0.3 -0.7
v 1.4 0 -0.7
v 1.4 0.2 -0.7
v -1.4 0 0.7
v 1.4 0 0.7
v -1.4 0 -0.7
v 1.4 0 -0.7
v -1.1 0.5 0.6
v -0.6 0.5 0.6
v -1.1 0.5 0.5
v -0.6 0.5 0.5
v 0.7 0.5 0.5
v 1.1 0.5 0.5
v 0.7 0.5 0.4
v 1.1 0.5 0.4
v -1.3 0.9 0.4
v -1.2 0.9 0.4
v -1.3 0.9 5.96046e-08
v -1.2 0.9 5.96046e-08
v -0.4 1 0.5
v -0.3 1 0.5
v 0.6 1 0.5
v 1.2 1 0.5
v -0.5 1 0.4
v -0.4 1 0.4
v 0.6 1 0.4
v 1.2 1 0.4
v -0.5 1 5.96046e-08
v -0.3 1 5.96046e-08
v -0.5 1 -0.1
v -0.3 1 -0.1
v 0.7 1.1 0.6
v 0.8 1.1 0.6
v 0.9 1.1 0.6
v 1 1.1 0.6
v 1.1 1.1 0.6
v 0.7 1.1 0.5
v 0.8 1.1 0.5
v 0.9 1.1 0.5
v 1 1.1 0.5
v 1.1 1.1 0.5
v 0.5 1.4 0.5
v 0.6 1.4 0.5
v 1.2 1.4 0.5
v 1.3 1.4 0.5
v 0.5 1.4 0.4
v 0.6 1.4 0.4
v 1.2 1.4 0.4
v 1.3 1.4 0.4
v -0.4 1.8 0.5
v -0.3 1.8 0.5
v -0.5 1.8 0.4
v -0.4 1.8 0.4
v 0.4 1.8 0.2
v 0.7 1.8 0.2
v -0.5 1.8 5.96046e-08
v -0.3 1.8 5.96046e-08
v 0.4 1.8 5.96046e-08
v 0.7 1.8 5.96046e-08
v -0.5 1.8 -0.1
v -0.3 1.8 -0.1
v -1.4 0.2 0.7
v -1.3 0.2 0.7
v -0.9 0.2 0.7
v 0.9 0.2 0.7
v 1.3 0.2 0.7
v 1.4 0.2 0.7
v -0.9 0.2 0.6
v 0.9 0.2 0.6
v -1.3 0.2 0.4
v 1.3 0.2 0.4
v 1.3 0.2 -0.2
v 1.4 0.2 -0.2
v -1.3 0.2 -0.4
v -0.9 0.2 -0.6
v -0.3 0.2 -0.6
v 0.3 0.2 -0.6
v 0.9 0.2 -0.6
v 1.3 0.2 -0.6
v 1.4 0.2 -0.6
v -1.4 0.2 -0.7
v -1.3 0.2 -0.7
v -0.9 0.2 -0.7
v 0.9 0.2 -0.7
v 1.3 0.2 -0.7
v 1.4 0.2 -0.7
v -1.3 0.3 0.7
v -0.9 0.3 0.7
v 0.9 0.3 0.7
v 1.3 0.3 0.7
v -1.3 0.3 0.6
v -0.9 0.3 0.6
v 0.9 0.3 0.6
v 1.3 0.3 0.6
v -1.3 0.3 -0.6
v -0.9 0.3 -0.6
v 0.9 0.3 -0.6
v 1.3 0.3 -0.6
v -1.3 0.3 -0.7
v -0.9 0.3 -0.7
v 0.9 0.3 -0.7
v 1.3 0.3 -0.7
v -1.3 0.4 0.6
v 1.3 0.4 0.6
v -1.2 0.4 0.5
v -0.5 0.4 0.5
v -0.4 0.4 0.5
v -0.3 0.4 0.5
v -0.2 0.4 0.5
v 0.4 0.4 0.5
v 0.5 0.4 0.5
v 0.7 0.4 0.5
v 1.1 0.4 0.5
v 1.3 0.4 0.5
v -0.5 0.4 0.4
v -0.4 0.4 0.4
v 0.5 0.4 0.4
v 0.7 0.4 0.4
v 1.1 0.4 0.4
v -0.3 0.4 5.96046e-08
v -1.2 0.4 -0.1
v -0.5 0.4 -0.1
v -0.3 0.4 -0.1
v 0.3 0.4 -0.1
v 0.4 0.4 -0.1
v 1.3 0.4 -0.2
v 1.4 0.4 -0.2
v 0.5 0.4 -0.4
v 1.3 0.4 -0.4
v -1.3 0.4 -0.6
v -0.3 0.4 -0.6
v 0.3 0.4 -0.6
v 1.4 0.4 -0.6
v 0.5 0.7 0.5
v 0.7 0.7 0.5
v 1.1 0.7 0.5
v 1.3 0.7 0.5
v 0.5 0.7 0.4
v 0.7 0.7 0.4
v 1.1 0.7 0.4
v 1.3 0.7 0.4
v 0.7 0.9 0.5
v 0.8 0.9 0.5
v 0.9 0.9 0.5
v 1 0.9 0.5
v 1.1 0.9 0.5
v 0.7 0.9 0.4
v 0.8 0.9 0.4
v 0.9 0.9 0.4
v 1 0.9 0.4
v 1.1 0.9 0.4
v -0.3 0.9 -0.1
v 0.3 0.9 -0.1
v -0.3 0.9 -0.6
v 0.3 0.9 -0.6
v -0.4 1.2 0.5
v -0.3 1.2 0.5
v -0.5 1.2 0.4
v -0.4 1.2 0.4
v -0.3 1.2 5.96046e-08
v -0.5 1.2 -0.1
v -0.3 1.2 -0.1
v 0.7 1.5 0.6
v 1.1 1.5 0.6
v 0.7 1.5 0.5
v 1.1 1.5 0.5
v 0.7 1.6 0.5
v 1.1 1.6 0.5
v 0.7 1.6 0.4
v 1.1 1.6 0.4
v 0.5 1.7 0.5
v 0.7 1.7 0.5
v 1.1 1.7 0.5
v 1.3 1.7 0.5
v 0.5 1.7 0.4
v 0.7 1.7 0.4
v 1.1 1.7 0.4
v 1.3 1.7 0.4
v 0.7 1.7 0.2
v 0.9 1.7 0.2
v 0.7 1.7 5.96046e-08
v 0.9 1.7 5.96046e-08
v 0.5 1.7 -0.4
v 1.3 1.7 -0.4
v -1.3 1.8 0.4
v -1.2 1.8 0.4
v -1.3 1.8 5.96046e-08
v -1.2 1.8 5.96046e-08
v -1.1 2 0.6
v -0.6 2 0.6
v -1.1 2 0.5
v -0.6 2 0.5
v -0.4 2 0.5
v -0.3 2 0.5
v -0.5 2 0.4
v -0.4 2 0.4
v -0.5 2 0.3
v 0.4 2 0.2
v 0.7 2 0.2
v -0.5 2 0.1
v 0.4 2 5.96046e-08
v 0.7 2 5.96046e-08
v -0.5 2 -0.1
v -0.3 2 -0.1
v -0.3 2.1 0.5
v 0.4 2.1 0.5
v -0.3 2.1 0.4
v 0.3 2.1 0.4
v 0.7 2.1 0.2
v 0.9 2.1 0.2
v -0.3 2.1 5.96046e-08
v 0.3 2.1 5.96046e-08
v 0.7 2.1 5.96046e-08
v 0.9 2.1 5.96046e-08
v -0.3 2.1 -0.1
v 0.4 2.1 -0.1
v -0.3 2.3 0.4
v 0.3 2.3 0.4
v -0.3 2.3 5.96046e-08
v 0.3 2.3 5.96046e-08
v -1.2 2.4 0.5
v -0.4 2.4 0.5
v -1.1 2.4 0.4
v -0.5 2.4 0.4
v -0.4 2.4 0.4
v -1.1 2.4 5.96046e-08
v -0.5 2.4 5.96046e-08
v -1.2 2.4 -0.1
v -0.5 2.4 -0.1
v -1.1 2.6 0.4
v -0.5 2.6 0.4
v -1.1 2.6 5.96046e-08
v -0.5 2.6 5.96046e-08

# faces
f 3/4/1 2/4/1 1/4/1
f 4/4/1 2/4/1 3/4/1
f 9/6/1 6/6/1 5/6/1
f 10/6/1 6/6/1 9/6/1
f 11/3/1 7/3/1 6/3/1
f 11/6/1 6/6/1 10/6/1
f 12/6/1 8/6/1 7/6/1
f 12/3/1 7/3/1 11/3/1
f 13/6/1 8/6/1 12/6/1
f 14/6/1 8/6/1 13/6/1
f 15/3/1 11/3/1 10/3/1
f 15/3/1 13/3/1 12/3/1
f 15/3/1 12/3/1 11/3/1
f 16/3/1 13/3/1 15/3/1
f 19/4/1 18/4/1 17/4/1
f 20/4/1 18/4/1 19/4/1
f 23/1/1 22/1/1 21/1/1
f 24/1/1 22/1/1 23/1/1
f 25/1/1 23/1/1 21/1/1
f 26/1/1 23/1/1 25/1/1
f 27/1/1 22/1/1 24/1/1
f 28/1/1 22/1/1 27/1/1
f 29/6/1 26/6/1 25/6/1
f 30/6/1 26/6/1 29/6/1
f 31/6/1 28/6/1 27/6/1
f 32/6/1 28/6/1 31/6/1
f 33/1/1 30/1/1 29/1/1
f 34/1/1 32/1/1 31/1/1
f 35/1/1 33/1/1 29/1/1
f 35/1/1 34/1/1 33/1/1
f 36/1/1 32/1/1 34/1/1
f 36/1/1 34/1/1 35/1/1
f 37/3/1 36/3/1 35/3/1
f 38/3/1 36/3/1 37/3/1
f 41/1/1 40/1/1 39/1/1
f 42/1/1 41/1/1 39/1/1
f 43/1/1 42/1/1 39/1/1
f 44/1/1 42/1/1 43/1/1
f 47/5/1 46/5/1 45/5/1
f 48/5/1 46/5/1 47/5/1
f 53/3/1 50/3/1 49/3/1
f 53/5/1 51/5/1 50/5/1
f 54/1/1 52/1/1 51/1/1
f 54/5/1 51/5/1 53/5/1
f 55/1/1 54/1/1 53/1/1
f 55/1/1 52/1/1 54/1/1
f 56/1/1 52/1/1 55/1/1
f 57/3/1 53/3/1 49/3/1
f 57/1/1 55/1/1 53/1/1
f 58/4/1 56/4/1 55/4/1
f 58/1/1 55/1/1 57/1/1
f 59/6/1 58/6/1 57/6/1
f 59/4/1 56/4/1 58/4/1
f 60/4/1 56/4/1 59/4/1
f 61/3/1 57/3/1 49/3/1
f 62/6/1 59/6/1 57/6/1
f 62/3/1 57/3/1 61/3/1
f 63/6/1 59/6/1 62/6/1
f 67/3/1 65/3/1 64/3/1
f 67/1/1 66/1/1 65/1/1
f 68/1/1 66/1/1 67/1/1
f 69/3/1 67/3/1 64/3/1
f 69/6/1 68/6/1 67/6/1
f 70/6/1 68/6/1 69/6/1
f 71/3/1 69/3/1 64/3/1
f 72/1/1 70/1/1 69/1/1
f 72/3/1 69/3/1 71/3/1
f 73/1/1 70/1/1 72/1/1
f 76/3/1 75/3/1 74/3/1
f 77/3/1 75/3/1 76/3/1
f 78/3/1 75/3/1 77/3/1
f 79/3/1 75/3/1 78/3/1
f 80/5/1 78/5/1 77/5/1
f 81/5/1 78/5/1 80/5/1
f 85/6/1 83/6/1 82/6/1
f 86/1/1 84/1/1 83/1/1
f 86/6/1 83/6/1 85/6/1
f 88/1/1 84/1/1 86/1/1
f 89/6/1 88/6/1 87/6/1
f 90/1/1 84/1/1 88/1/1
f 90/6/1 88/6/1 89/6/1
f 91/1/1 84/1/1 90/1/1
f 94/3/1 93/3/1 92/3/1
f 95/3/1 93/3/1 94/3/1
f 98/3/1 97/3/1 96/3/1
f 99/3/1 97/3/1 98/3/1
f 100/11/1 99/11/1 98/11/1
f 101/11/1 99/11/1 100/11/1
f 104/16/1 103/16/1 102/16/1
f 105/16/1 103/16/1 104/16/1
f 106/15/1 105/15/1 104/15/1
f 107/15/1 105/15/1 106/15/1
f 108/16/1 107/16/1 106/16/1
f 109/16/1 107/16/1 108/16/1
f 112/4/1 111/4/1 110/4/1
f 113/4/1 111/4/1 112/4/1
f 116/6/1 115/6/1 114/6/1
f 117/6/1 115/6/1 116/6/1
f 122/6/1 119/6/1 118/6/1
f 123/6/1 119/6/1 122/6/1
f 124/6/1 121/6/1 120/6/1
f 125/6/1 121/6/1 124/6/1
f 128/6/1 127/6/1 126/6/1
f 129/6/1 127/6/1 128/6/1
f 132/6/1 131/6/1 130/6/1
f 133/6/1 131/6/1 132/6/1
f 134/6/2 135/6/2 138/6/2
f 138/6/2 135/6/2 139/6/2
f 136/6/2 137/6/2 140/6/2
f 140/6/2 137/6/2 141/6/2
f 142/1/2 143/1/2 144/1/2
f 142/1/2 144/1/2 145/1/2
f 142/1/2 145/1/2 146/1/2
f 146/1/2 145/1/2 147/1/2
f 148/1/2 149/1/2 150/1/2
f 150/1/2 149/1/2 151/1/2
f 150/2/2 151/2/2 152/2/2
f 151/1/2 149/1/2 153/1/2
f 152/2/2 151/2/2 153/2/2
f 153/1/2 149/1/2 154/1/2
f 155/6/2 156/6/2 157/6/2
f 157/6/2 156/6/2 158/6/2
f 158/6/2 156/6/2 159/6/2
f 157/2/2 158/2/2 160/2/2
f 158/1/2 159/1/2 161/1/2
f 160/2/2 158/2/2 161/2/2
f 161/1/2 159/1/2 162/1/2
f 163/1/2 164/1/2 167/1/2
f 164/4/2 165/4/2 168/4/2
f 167/1/2 164/1/2 168/1/2
f 165/1/2 166/1/2 169/1/2
f 168/4/2 165/4/2 169/4/2
f 169/1/2 166/1/2 170/1/2
f 167/3/2 168/3/2 171/3/2
f 168/4/2 169/4/2 172/4/2
f 171/3/2 168/3/2 172/3/2
f 169/3/2 170/3/2 173/3/2
f 172/4/2 169/4/2 173/4/2
f 173/3/2 170/3/2 174/3/2
f 174/3/2 170/3/2 175/3/2
f 171/5/2 172/5/2 176/5/2
f 172/5/2 173/5/2 176/5/2
f 173/5/2 174/5/2 176/5/2
f 176/5/2 174/5/2 177/5/2
f 178/3/2 179/3/2 180/3/2
f 180/3/2 179/3/2 181/3/2
f 182/3/2 183/3/2 184/3/2
f 184/3/2 183/3/2 185/3/2
f 186/3/2 187/3/2 188/3/2
f 188/3/2 187/3/2 189/3/2
f 190/1/2 191/1/2 192/1/2
f 192/1/2 191/1/2 193/1/2
f 192/4/2 193/4/2 194/4/2
f 194/4/2 193/4/2 195/4/2
f 195/4/2 193/4/2 196/4/2
f 197/5/2 198/5/2 199/5/2
f 199/5/2 198/5/2 200/5/2
f 201/1/2 202/1/2 203/1/2
f 203/1/2 202/1/2 204/1/2
f 203/6/2 204/6/2 205/6/2
f 205/6/2 204/6/2 206/6/2
f 205/1/2 206/1/2 207/1/2
f 207/1/2 206/1/2 208/1/2
f 207/6/2 208/6/2 209/6/2
f 209/6/2 208/6/2 210/6/2
f 209/1/2 210/1/2 211/1/2
f 211/1/2 210/1/2 212/1/2
f 212/1/2 210/1/2 213/1/2
f 213/1/2 210/1/2 214/1/2
f 211/3/2 212/3/2 215/3/2
f 213/3/2 214/3/2 216/3/2
f 211/3/2 215/3/2 217/3/2
f 215/3/2 216/3/2 217/3/2
f 216/3/2 214/3/2 218/3/2
f 217/3/2 216/3/2 218/3/2
f 219/6/2 220/6/2 221/6/2
f 221/6/2 220/6/2 222/6/2
f 223/6/2 224/6/2 225/6/2
f 225/6/2 224/6/2 226/6/2
f 227/4/2 228/4/2 229/4/2
f 229/4/2 228/4/2 230/4/2
f 229/6/2 230/6/2 231/6/2
f 231/6/2 230/6/2 232/6/2
f 233/3/2 234/3/2 235/3/2
f 235/3/2 234/3/2 236/3/2
f 235/14/2 236/14/2 237/14/2
f 237/14/2 236/14/2 238/14/2
f 239/15/2 240/15/2 241/15/2
f 241/15/2 240/15/2 242/15/2
f 241/16/2 242/16/2 243/16/2
f 243/16/2 242/16/2 244/16/2
f 243/15/2 244/15/2 245/15/2
f 245/15/2 244/15/2 246/15/2
f 245/16/2 246/16/2 247/16/2
f 247/16/2 246/16/2 248/16/2
f 249/3/2 250/3/2 251/3/2
f 251/3/2 250/3/2 252/3/2
f 253/6/2 254/6/2 258/6/2
f 258/6/2 254/6/2 259/6/2
f 254/3/2 255/3/2 260/3/2
f 259/6/2 254/6/2 260/6/2
f 256/6/2 257/6/2 261/6/2
f 261/6/2 257/6/2 262/6/2
f 259/3/2 260/3/2 263/3/2
f 263/3/2 260/3/2 264/3/2
f 260/3/2 255/3/2 265/3/2
f 264/3/2 260/3/2 265/3/2
f 265/3/2 255/3/2 266/3/2
f 264/6/2 265/6/2 268/6/2
f 266/1/2 267/1/2 269/1/2
f 268/6/2 265/6/2 269/6/2
f 265/1/2 266/1/2 269/1/2
f 269/1/2 267/1/2 271/1/2
f 270/6/2 271/6/2 272/6/2
f 271/1/2 267/1/2 273/1/2
f 272/6/2 271/6/2 273/6/2
f 273/1/2 267/1/2 274/1/2
f 275/4/2 276/4/2 277/4/2
f 277/4/2 276/4/2 278/4/2
f 275/4/2 277/4/2 279/4/2
f 277/3/2 278/3/2 280/3/2
f 279/4/2 277/4/2 280/4/2
f 278/4/2 276/4/2 281/4/2
f 280/3/2 278/3/2 281/3/2
f 281/4/2 276/4/2 282/4/2
f 280/3/2 281/3/2 283/3/2
f 283/3/2 281/3/2 284/3/2
f 287/4/3 286/4/3 285/4/3
f 288/4/3 286/4/3 287/4/3
f 290/4/3 287/4/3 285/4/3
f 290/6/3 289/6/3 288/6/3
f 290/6/3 288/6/3 287/6/3
f 291/6/3 289/6/3 290/6/3
f 292/6/3 289/6/3 291/6/3
f 293/4/3 290/4/3 285/4/3
f 293/4/3 291/4/3 290/4/3
f 294/4/3 291/4/3 293/4/3
f 296/4/3 293/4/3 285/4/3
f 296/6/3 295/6/3 294/6/3
f 296/6/3 294/6/3 293/6/3
f 297/6/3 295/6/3 296/6/3
f 298/6/3 295/6/3 297/6/3
f 299/4/3 296/4/3 285/4/3
f 299/4/3 297/4/3 296/4/3
f 300/4/3 297/4/3 299/4/3
f 305/1/3 304/1/3 303/1/3
f 306/1/3 304/1/3 305/1/3
f 308/3/3 302/3/3 301/3/3
f 309/4/3 306/4/3 305/4/3
f 310/4/3 306/4/3 309/4/3
f 311/4/3 306/4/3 310/4/3
f 312/4/3 306/4/3 311/4/3
f 313/4/3 306/4/3 312/4/3
f 314/4/3 309/4/3 305/4/3
f 314/15/3 310/15/3 309/15/3
f 315/16/3 311/16/3 310/16/3
f 315/15/3 310/15/3 314/15/3
f 316/17/3 312/17/3 311/17/3
f 316/16/3 311/16/3 315/16/3
f 317/1/3 313/1/3 312/1/3
f 317/17/3 312/17/3 316/17/3
f 318/4/3 306/4/3 313/4/3
f 318/1/3 313/1/3 317/1/3
f 319/1/3 305/1/3 303/1/3
f 319/4/3 317/4/3 316/4/3
f 319/4/3 318/4/3 317/4/3
f 319/4/3 315/4/3 314/4/3
f 319/4/3 314/4/3 305/4/3
f 319/4/3 316/4/3 315/4/3
f 320/1/3 304/1/3 306/1/3
f 320/4/3 318/4/3 319/4/3
f 320/4/3 306/4/3 318/4/3
f 321/1/3 319/1/3 303/1/3
f 321/1/3 320/1/3 319/1/3
f 322/1/3 304/1/3 320/1/3
f 322/1/3 320/1/3 321/1/3
f 327/16/3 324/16/3 323/16/3
f 328/15/3 325/15/3 324/15/3
f 328/16/3 324/16/3 327/16/3
f 329/3/3 308/3/3 307/3/3
f 330/3/3 302/3/3 308/3/3
f 330/3/3 308/3/3 329/3/3
f 331/15/3 328/15/3 327/15/3
f 332/15/3 325/15/3 328/15/3
f 332/15/3 328/15/3 331/15/3
f 333/15/3 325/15/3 332/15/3
f 334/16/3 326/16/3 325/16/3
f 334/15/3 325/15/3 333/15/3
f 335/16/3 332/16/3 331/16/3
f 336/15/3 333/15/3 332/15/3
f 336/16/3 332/16/3 335/16/3
f 337/16/3 334/16/3 333/16/3
f 337/15/3 333/15/3 336/15/3
f 338/16/3 326/16/3 334/16/3
f 338/16/3 334/16/3 337/16/3
f 339/15/3 336/15/3 335/15/3
f 340/16/3 337/16/3 336/16/3
f 340/15/3 336/15/3 339/15/3
f 341/15/3 338/15/3 337/15/3
f 341/16/3 337/16/3 340/16/3
f 342/16/3 326/16/3 338/16/3
f 342/15/3 338/15/3 341/15/3
f 343/16/3 326/16/3 342/16/3
f 344/3/3 302/3/3 330/3/3
f 345/3/3 302/3/3 344/3/3
f 351/1/3 347/1/3 346/1/3
f 352/6/3 348/6/3 347/6/3
f 352/1/3 347/1/3 351/1/3
f 353/1/3 349/1/3 348/1/3
f 353/6/3 348/6/3 352/6/3
f 354/1/3 349/1/3 353/1/3
f 355/1/3 351/1/3 346/1/3
f 358/1/3 349/1/3 354/1/3
f 359/1/3 355/1/3 346/1/3
f 359/1/3 356/1/3 355/1/3
f 360/6/3 357/6/3 356/6/3
f 360/1/3 356/1/3 359/1/3
f 361/1/3 358/1/3 357/1/3
f 361/6/3 357/6/3 360/6/3
f 362/3/3 350/3/3 349/3/3
f 362/1/3 358/1/3 361/1/3
f 362/1/3 349/1/3 358/1/3
f 363/3/3 361/3/3 360/3/3
f 363/3/3 360/3/3 359/3/3
f 363/3/3 362/3/3 361/3/3
f 364/3/3 362/3/3 363/3/3
f 365/3/3 362/3/3 364/3/3
f 366/3/3 362/3/3 365/3/3
f 367/3/3 362/3/3 366/3/3
f 368/3/3 350/3/3 362/3/3
f 368/3/3 362/3/3 367/3/3
f 370/3/3 365/3/3 364/3/3
f 371/3/3 365/3/3 370/3/3
f 372/3/3 367/3/3 366/3/3
f 373/3/3 367/3/3 372/3/3
f 375/3/3 371/3/3 370/3/3
f 375/3/3 374/3/3 373/3/3
f 375/3/3 373/3/3 372/3/3
f 375/3/3 372/3/3 371/3/3
f 375/3/3 370/3/3 369/3/3
f 376/3/3 374/3/3 375/3/3
f 377/3/3 374/3/3 376/3/3
f 378/3/3 374/3/3 377/3/3
f 379/3/3 374/3/3 378/3/3
f 380/3/3 374/3/3 379/3/3
f 381/1/3 376/1/3 375/1/3
f 382/6/3 377/6/3 376/6/3
f 382/1/3 376/1/3 381/1/3
f 383/1/3 378/1/3 377/1/3
f 383/6/3 377/6/3 382/6/3
f 384/6/3 379/6/3 378/6/3
f 384/1/3 378/1/3 383/1/3
f 385/1/3 380/1/3 379/1/3
f 385/6/3 379/6/3 384/6/3
f 386/3/3 374/3/3 380/3/3
f 386/1/3 380/1/3 385/1/3
f 387/3/3 374/3/3 386/3/3
f 393/6/3 391/6/3 390/6/3
f 394/6/3 389/6/3 388/6/3
f 395/6/3 389/6/3 394/6/3
f 396/6/3 389/6/3 395/6/3
f 399/3/3 393/3/3 392/3/3
f 400/3/3 393/3/3 399/3/3
f 401/6/3 391/6/3 393/6/3
f 401/3/3 393/3/3 400/3/3
f 402/6/3 391/6/3 401/6/3
f 403/6/3 391/6/3 402/6/3
f 404/6/3 391/6/3 403/6/3
f 405/11/3 398/11/3 397/11/3
f 405/3/3 396/3/3 395/3/3
f 405/3/3 397/3/3 396/3/3
f 406/11/3 398/11/3 405/11/3
f 407/3/3 399/3/3 392/3/3
f 408/12/3 406/12/3 405/12/3
f 408/3/3 405/3/3 395/3/3
f 409/12/3 406/12/3 408/12/3
f 410/3/3 407/3/3 392/3/3
f 411/13/3 409/13/3 408/13/3
f 411/3/3 408/3/3 395/3/3
f 412/13/3 409/13/3 411/13/3
f 413/3/3 410/3/3 392/3/3
f 415/3/3 411/3/3 395/3/3
f 416/3/3 411/3/3 415/3/3
f 417/14/3 412/14/3 411/14/3
f 417/3/3 411/3/3 416/3/3
f 418/14/3 412/14/3 417/14/3
f 419/3/3 413/3/3 392/3/3
f 423/3/3 403/3/3 402/3/3
f 424/3/3 403/3/3 423/3/3
f 426/3/3 422/3/3 421/3/3
f 426/3/3 419/3/3 392/3/3
f 426/3/3 420/3/3 419/3/3
f 426/3/3 421/3/3 420/3/3
f 427/6/3 425/6/3 424/6/3
f 427/3/3 422/3/3 426/3/3
f 427/6/3 424/6/3 423/6/3
f 427/6/3 423/6/3 422/6/3
f 428/6/3 416/6/3 415/6/3
f 428/6/3 415/6/3 414/6/3
f 429/6/3 416/6/3 428/6/3
f 430/6/3 425/6/3 427/6/3
f 431/6/3 425/6/3 430/6/3
f 434/4/3 433/4/3 432/4/3
f 435/4/3 433/4/3 434/4/3
f 436/4/3 433/4/3 435/4/3
f 437/4/3 433/4/3 436/4/3
f 440/5/3 439/5/3 438/5/3
f 441/5/3 439/5/3 440/5/3
f 444/5/3 443/5/3 442/5/3
f 445/5/3 443/5/3 444/5/3
f 448/1/3 447/1/3 446/1/3
f 449/1/3 447/1/3 448/1/3
f 452/1/3 448/1/3 446/1/3
f 453/1/3 448/1/3 452/1/3
f 454/1/3 448/1/3 453/1/3
f 457/1/3 448/1/3 454/1/3
f 458/1/3 448/1/3 457/1/3
f 459/1/3 448/1/3 458/1/3
f 460/3/3 451/3/3 450/3/3
f 461/3/3 451/3/3 460/3/3
f 464/1/3 448/1/3 459/1/3
f 465/1/3 456/1/3 455/1/3
f 466/1/3 456/1/3 465/1/3
f 467/1/3 463/1/3 462/1/3
f 467/1/3 464/1/3 463/1/3
f 467/1/3 448/1/3 464/1/3
f 469/1/3 467/1/3 462/1/3
f 469/1/3 468/1/3 467/1/3
f 470/1/3 468/1/3 469/1/3
f 474/4/3 472/4/3 471/4/3
f 475/4/3 472/4/3 474/4/3
f 476/4/3 472/4/3 475/4/3
f 478/4/3 474/4/3 473/4/3
f 478/4/3 475/4/3 474/4/3
f 479/6/3 477/6/3 476/6/3
f 479/4/3 475/4/3 478/4/3
f 479/6/3 476/6/3 475/6/3
f 480/6/3 477/6/3 479/6/3
f 483/3/3 482/3/3 481/3/3
f 484/3/3 482/3/3 483/3/3
f 485/3/4 486/3/4 494/3/4
f 486/3/4 487/3/4 494/3/4
f 494/3/4 487/3/4 495/3/4
f 488/3/4 489/3/4 496/3/4
f 489/3/4 490/3/4 496/3/4
f 496/3/4 490/3/4 497/3/4
f 492/3/4 493/3/4 498/3/4
f 491/3/4 492/3/4 498/3/4
f 498/3/4 493/3/4 499/3/4
f 500/4/4 501/4/4 502/4/4
f 502/4/4 501/4/4 503/4/4
f 503/4/4 501/4/4 504/4/4
f 504/4/4 501/4/4 505/4/4
f 506/5/4 507/5/4 508/5/4
f 508/5/4 507/5/4 509/5/4
f 510/5/4 511/5/4 512/5/4
f 512/5/4 511/5/4 513/5/4
f 514/4/4 515/4/4 517/4/4
f 517/4/4 515/4/4 518/4/4
f 518/4/4 515/4/4 519/4/4
f 516/4/4 517/4/4 521/4/4
f 517/4/4 518/4/4 521/4/4
f 519/6/4 520/6/4 522/6/4
f 521/4/4 518/4/4 522/4/4
f 518/6/4 519/6/4 522/6/4
f 522/6/4 520/6/4 523/6/4
f 524/1/4 525/1/4 529/1/4
f 529/1/4 525/1/4 530/1/4
f 525/6/4 526/6/4 531/6/4
f 530/1/4 525/1/4 531/1/4
f 526/1/4 527/1/4 532/1/4
f 531/6/4 526/6/4 532/6/4
f 532/1/4 527/1/4 533/1/4
f 533/1/4 527/1/4 534/1/4
f 527/3/4 528/3/4 535/3/4
f 534/1/4 527/1/4 535/1/4
f 535/3/4 528/3/4 536/3/4
f 530/3/4 531/3/4 538/3/4
f 538/3/4 531/3/4 539/3/4
f 533/3/4 534/3/4 542/3/4
f 542/3/4 534/3/4 543/3/4
f 537/6/4 538/6/4 548/6/4
f 546/1/4 547/1/4 549/1/4
f 545/1/4 546/1/4 549/1/4
f 547/6/4 548/6/4 550/6/4
f 549/1/4 547/1/4 550/1/4
f 538/1/4 539/1/4 551/1/4
f 550/6/4 548/6/4 551/6/4
f 539/1/4 540/1/4 551/1/4
f 548/6/4 538/6/4 551/6/4
f 540/6/4 541/6/4 552/6/4
f 551/1/4 540/1/4 552/1/4
f 541/1/4 542/1/4 553/1/4
f 552/6/4 541/6/4 553/6/4
f 542/3/4 543/3/4 554/3/4
f 553/1/4 542/1/4 554/1/4
f 543/3/4 544/3/4 554/3/4
f 554/3/4 544/3/4 555/3/4
f 556/1/4 557/1/4 558/1/4
f 558/1/4 557/1/4 559/1/4
f 560/3/4 561/3/4 563/3/4
f 562/3/4 563/3/4 564/3/4
f 563/3/4 561/3/4 565/3/4
f 564/3/4 563/3/4 565/3/4
f 564/1/4 565/1/4 568/1/4
f 565/1/4 566/1/4 568/1/4
f 568/1/4 566/1/4 569/1/4
f 566/4/4 567/4/4 570/4/4
f 569/1/4 566/1/4 570/1/4
f 570/4/4 567/4/4 571/4/4
f 568/3/4 569/3/4 572/3/4
f 572/3/4 569/3/4 573/3/4
f 573/3/4 569/3/4 575/3/4
f 574/3/4 575/3/4 576/3/4
f 575/3/4 569/3/4 577/3/4
f 576/3/4 575/3/4 577/3/4
f 578/4/4 579/4/4 580/4/4
f 580/4/4 579/4/4 581/4/4
f 578/4/4 580/4/4 583/4/4
f 581/6/4 582/6/4 583/6/4
f 580/6/4 581/6/4 583/6/4
f 583/6/4 582/6/4 584/6/4
f 584/6/4 582/6/4 585/6/4
f 578/4/4 583/4/4 586/4/4
f 583/4/4 584/4/4 586/4/4
f 586/4/4 584/4/4 587/4/4
f 578/4/4 586/4/4 589/4/4
f 587/6/4 588/6/4 589/6/4
f 586/6/4 587/6/4 589/6/4
f 589/6/4 588/6/4 590/6/4
f 590/6/4 588/6/4 591/6/4
f 578/4/4 589/4/4 592/4/4
f 589/4/4 590/4/4 592/4/4
f 592/4/4 590/4/4 593/4/4
f 596/4/5 595/4/5 594/4/5
f 597/4/5 595/4/5 596/4/5
f 600/1/5 599/1/5 598/1/5
f 601/1/5 599/1/5 600/1/5
f 604/3/5 603/3/5 602/3/5
f 605/3/5 603/3/5 604/3/5
f 608/4/5 607/4/5 606/4/5
f 609/4/5 607/4/5 608/4/5
f 615/3/5 611/3/5 610/3/5
f 616/3/5 613/3/5 612/3/5
f 617/3/5 613/3/5 616/3/5
f 618/3/5 615/3/5 614/3/5
f 619/3/5 611/3/5 615/3/5
f 619/3/5 615/3/5 618/3/5
f 620/3/5 619/3/5 618/3/5
f 621/3/5 619/3/5 620/3/5
f 627/16/5 623/16/5 622/16/5
f 628/15/5 624/15/5 623/15/5
f 628/16/5 623/16/5 627/16/5
f 629/16/5 625/16/5 624/16/5
f 629/15/5 624/15/5 628/15/5
f 630/15/5 626/15/5 625/15/5
f 630/16/5 625/16/5 629/16/5
f 631/15/5 626/15/5 630/15/5
f 636/6/5 633/6/5 632/6/5
f 637/6/5 633/6/5 636/6/5
f 638/6/5 635/6/5 634/6/5
f 639/6/5 635/6/5 638/6/5
f 643/3/5 641/3/5 640/3/5
f 646/3/5 643/3/5 642/3/5
f 647/3/5 641/3/5 643/3/5
f 647/3/5 643/3/5 646/3/5
f 648/4/5 645/4/5 644/4/5
f 649/4/5 645/4/5 648/4/5
f 650/3/5 647/3/5 646/3/5
f 651/3/5 647/3/5 650/3/5
f 654/4/6 655/4/6 658/4/6
f 658/4/6 655/4/6 659/4/6
f 652/4/6 653/4/6 660/4/6
f 656/4/6 657/4/6 661/4/6
f 661/4/6 657/4/6 662/4/6
f 662/4/6 657/4/6 663/4/6
f 652/4/6 660/4/6 664/4/6
f 652/4/6 664/4/6 671/4/6
f 671/4/6 664/4/6 672/4/6
f 665/4/6 666/4/6 673/4/6
f 666/4/6 667/4/6 673/4/6
f 667/4/6 668/4/6 673/4/6
f 673/4/6 668/4/6 674/4/6
f 669/4/6 670/4/6 675/4/6
f 675/4/6 670/4/6 676/4/6
f 677/6/6 678/6/6 681/6/6
f 681/6/6 678/6/6 682/6/6
f 679/6/6 680/6/6 683/6/6
f 683/6/6 680/6/6 684/6/6
f 685/6/6 686/6/6 689/6/6
f 689/6/6 686/6/6 690/6/6
f 687/6/6 688/6/6 691/6/6
f 691/6/6 688/6/6 692/6/6
f 693/3/6 694/3/6 695/3/6
f 695/3/6 694/3/6 696/3/6
f 696/3/6 694/3/6 697/3/6
f 697/3/6 694/3/6 698/3/6
f 698/3/6 694/3/6 699/3/6
f 699/3/6 694/3/6 700/3/6
f 700/3/6 694/3/6 701/3/6
f 701/3/6 694/3/6 702/3/6
f 702/3/6 694/3/6 703/3/6
f 703/3/6 694/3/6 704/3/6
f 697/3/6 698/3/6 706/3/6
f 700/3/6 701/3/6 707/3/6
f 702/3/6 703/3/6 708/3/6
f 708/3/6 703/3/6 709/3/6
f 705/3/6 706/3/6 710/3/6
f 706/3/6 698/3/6 710/3/6
f 693/3/6 695/3/6 711/3/6
f 705/3/6 710/3/6 712/3/6
f 712/3/6 710/3/6 713/3/6
f 700/3/6 707/3/6 715/3/6
f 715/3/6 707/3/6 718/3/6
f 714/3/6 715/3/6 718/3/6
f 716/3/6 717/3/6 719/3/6
f 712/3/6 713/3/6 720/3/6
f 711/3/6 712/3/6 720/3/6
f 693/3/6 711/3/6 720/3/6
f 720/3/6 713/3/6 721/3/6
f 718/3/6 719/3/6 722/3/6
f 714/3/6 718/3/6 722/3/6
f 719/3/6 717/3/6 723/3/6
f 722/3/6 719/3/6 723/3/6
f 724/6/6 725/6/6 728/6/6
f 728/6/6 725/6/6 729/6/6
f 726/6/6 727/6/6 730/6/6
f 730/6/6 727/6/6 731/6/6
f 732/11/6 733/11/6 737/11/6
f 733/12/6 734/12/6 738/12/6
f 737/11/6 733/11/6 738/11/6
f 734/13/6 735/13/6 739/13/6
f 738/12/6 734/12/6 739/12/6
f 735/14/6 736/14/6 740/14/6
f 739/13/6 735/13/6 740/13/6
f 740/14/6 736/14/6 741/14/6
f 742/4/6 743/4/6 744/4/6
f 744/4/6 743/4/6 745/4/6
f 746/3/6 747/3/6 749/3/6
f 749/3/6 747/3/6 750/3/6
f 748/3/6 749/3/6 750/3/6
f 748/3/6 750/3/6 751/3/6
f 751/3/6 750/3/6 752/3/6
f 753/16/6 754/16/6 755/16/6
f 755/16/6 754/16/6 756/16/6
f 757/3/6 758/3/6 759/3/6
f 759/3/6 758/3/6 760/3/6
f 761/6/6 762/6/6 765/6/6
f 765/6/6 762/6/6 766/6/6
f 763/6/6 764/6/6 767/6/6
f 767/6/6 764/6/6 768/6/6
f 765/1/6 766/1/6 769/1/6
f 766/1/6 767/1/6 769/1/6
f 767/1/6 768/1/6 769/1/6
f 769/1/6 768/1/6 770/1/6
f 765/1/6 769/1/6 771/1/6
f 770/1/6 768/1/6 772/1/6
f 765/1/6 771/1/6 773/1/6
f 771/1/6 772/1/6 773/1/6
f 772/1/6 768/1/6 774/1/6
f 773/1/6 772/1/6 774/1/6
f 775/4/6 776/4/6 777/4/6
f 777/4/6 776/4/6 778/4/6
f 779/1/6 780/1/6 781/1/6
f 781/1/6 780/1/6 782/1/6
f 783/3/6 784/3/6 786/3/6
f 785/3/6 786/3/6 787/3/6
f 787/3/6 786/3/6 790/3/6
f 788/4/6 789/4/6 791/4/6
f 791/4/6 789/4/6 792/4/6
f 790/3/6 786/3/6 793/3/6
f 786/3/6 784/3/6 794/3/6
f 793/3/6 786/3/6 794/3/6
f 795/3/6 796/3/6 797/3/6
f 797/3/6 796/3/6 798/3/6
f 798/3/6 796/3/6 802/3/6
f 799/6/6 800/6/6 803/6/6
f 803/6/6 800/6/6 804/6/6
f 801/3/6 802/3/6 805/3/6
f 802/3/6 796/3/6 806/3/6
f 805/3/6 802/3/6 806/3/6
f 807/5/6 808/5/6 809/5/6
f 809/5/6 808/5/6 810/5/6
f 811/3/6 812/3/6 813/3/6
f 813/3/6 812/3/6 814/3/6
f 814/3/6 812/3/6 815/3/6
f 811/3/6 813/3/6 816/3/6
f 811/3/6 816/3/6 818/3/6
f 816/3/6 817/3/6 818/3/6
f 818/3/6 817/3/6 819/3/6
f 820/5/6 821/5/6 822/5/6
f 822/5/6 821/5/6 823/5/6
