# MagicaVoxel @ Ephtracy

# group
o 

# material
mtllib player.mtl
usemtl palette

# normals
vn -1 0 0
vn 1 0 0
vn 0 0 1
vn 0 0 -1
vn 0 -1 0
vn 0 1 0

# texcoords
vt 0.00195312 0.5
vt 0.00585938 0.5
vt 0.00976562 0.5
vt 0.0136719 0.5
vt 0.0214844 0.5
vt 0.0253906 0.5
vt 0.0292969 0.5
vt 0.0332031 0.5
vt 0.0371094 0.5
vt 0.0410156 0.5
vt 0.0449219 0.5
vt 0.0488281 0.5
vt 0.0527344 0.5
vt 0.0566406 0.5
vt 0.0605469 0.5

# verts
v -1.2 1.9 0.5
v -1.2 1.9 0.1
v -1.2 2 0.4
v -1.2 2 0.2
v -1.2 2.1 0.4
v -1.2 2.1 0.2
v -1.2 2.2 0.5
v -1.2 2.2 0.1
v -1.2 3.4 0.4
v -1.2 3.4 -0.1
v -1.2 3.9 0.4
v -1.2 3.9 -0.1
v -1.2 4 0.4
v -1.2 4 -0.1
v -1.1 1.5 0.5
v -1.1 1.5 -0.2
v -1.1 1.9 0.5
v -1.1 1.9 0.1
v -1.1 1.9 -0.2
v -1.1 2.1 0.1
v -1.1 2.1 -0.2
v -1.1 2.2 0.5
v -1.1 2.2 0.1
v -1.1 2.2 -0.2
v -1.1 2.4 0.5
v -1.1 2.4 -0.2
v -1.1 2.8 0.5
v -1.1 2.8 -0.2
v -1.1 3 0.5
v -1.1 3 -0.2
v -1.1 3.4 0.4
v -1.1 3.4 -0.1
v -1.1 3.8 0.5
v -1.1 3.8 0.4
v -1.1 3.8 -0.1
v -1.1 3.8 -0.2
v -0.9 4.7 0.4
v -0.9 4.7 -0.1
v -0.9 5.2 0.4
v -0.9 5.2 -0.1
v -0.8 4.8 0.5
v -0.8 4.8 0.4
v -0.8 4.8 -0.1
v -0.8 4.8 -0.2
v -0.8 5.1 0.5
v -0.8 5.1 0.4
v -0.8 5.1 -0.1
v -0.8 5.1 -0.2
v -0.7 2.9 -0.5
v -0.7 2.9 -0.9
v -0.7 3.2 0.6
v -0.7 3.2 0.5
v -0.7 3.2 -0.2
v -0.7 3.2 -0.3
v -0.7 3.8 0.5
v -0.7 3.8 0.4
v -0.7 3.8 -0.1
v -0.7 3.8 -0.2
v -0.7 3.9 0.6
v -0.7 3.9 0.5
v -0.7 3.9 0.4
v -0.7 3.9 -0.1
v -0.7 3.9 -0.3
v -0.7 3.9 -0.5
v -0.7 3.9 -0.9
v -0.7 4 0.4
v -0.7 4 -0.1
v -0.7 4.1 0.5
v -0.7 4.1 -0.3
v -0.7 4.6 0.3
v -0.7 4.6 -0.1
v -0.7 4.7 0.3
v -0.7 4.7 -0.1
v -0.7 4.7 -0.2
v -0.7 4.8 -0.1
v -0.7 4.8 -0.2
v -0.7 4.8 -0.3
v -0.7 5.1 -0.1
v -0.7 5.1 -0.2
v -0.7 5.1 -0.3
v -0.7 5.2 0.3
v -0.7 5.2 -0.1
v -0.7 5.2 -0.2
v -0.7 5.3 0.3
v -0.7 5.3 -0.1
v -0.6 0 1
v -0.6 0 0.2
v -0.6 0 -0.5
v -0.6 0.3 1
v -0.6 0.3 0.8
v -0.6 0.3 0.2
v -0.6 0.5 0.8
v -0.6 0.5 -0.5
v -0.6 1.3 0.7
v -0.6 1.3 -0.4
v -0.6 1.6 0.7
v -0.6 1.6 -0.4
v -0.6 2.5 0.6
v -0.6 2.5 -0.4
v -0.6 3.2 0.6
v -0.6 3.2 -0.3
v -0.6 3.9 0.6
v -0.6 3.9 0.5
v -0.6 3.9 -0.3
v -0.6 4 0.6
v -0.6 4 0.5
v -0.6 4 -0.3
v -0.6 4 -0.4
v -0.6 4.4 0.2
v -0.6 4.4 0
v -0.6 4.5 0.4
v -0.6 4.5 0.2
v -0.6 4.5 0
v -0.6 4.5 -0.2
v -0.6 4.6 0.5
v -0.6 4.6 0.4
v -0.6 4.6 0.3
v -0.6 4.6 -0.1
v -0.6 4.6 -0.2
v -0.6 4.6 -0.3
v -0.6 4.7 0.4
v -0.6 4.7 0.3
v -0.6 4.7 -0.1
v -0.6 4.7 -0.2
v -0.6 4.8 0.6
v -0.6 4.8 0.5
v -0.6 4.8 0.4
v -0.6 4.8 -0.2
v -0.6 4.8 -0.3
v -0.6 4.8 -0.4
v -0.6 5.1 0.6
v -0.6 5.1 0.5
v -0.6 5.1 0.4
v -0.6 5.1 -0.2
v -0.6 5.1 -0.3
v -0.6 5.1 -0.4
v -0.6 5.1 -0.5
v -0.6 5.2 0.4
v -0.6 5.2 0.3
v -0.6 5.2 -0.1
v -0.6 5.2 -0.2
v -0.6 5.3 0.5
v -0.6 5.3 0.4
v -0.6 5.3 0.3
v -0.6 5.3 -0.1
v -0.6 5.3 -0.4
v -0.6 5.3 -0.5
v -0.6 5.4 0.4
v -0.6 5.4 -0.4
v -0.5 0.5 0.5
v -0.5 0.5 -0.3
v -0.5 0.7 0.5
v -0.5 0.7 -0.3
v -0.5 1.3 0.5
v -0.5 1.3 -0.3
v -0.5 1.6 0.5
v -0.5 1.6 -0.3
v -0.5 1.8 0.6
v -0.5 1.8 0.5
v -0.5 1.8 -0.3
v -0.5 2.3 0.6
v -0.5 2.3 0.5
v -0.5 2.3 -0.3
v -0.5 2.4 0.5
v -0.5 2.4 -0.3
v -0.5 2.5 0.5
v -0.5 2.5 -0.3
v -0.5 2.5 -0.4
v -0.5 2.5 -0.5
v -0.5 2.7 -0.5
v -0.5 2.7 -1
v -0.5 2.8 -0.4
v -0.5 2.8 -0.5
v -0.5 2.9 -0.4
v -0.5 2.9 -0.5
v -0.5 2.9 -0.9
v -0.5 3.2 -0.4
v -0.5 3.2 -0.5
v -0.5 3.9 -0.5
v -0.5 3.9 -0.9
v -0.5 4 -0.4
v -0.5 4.1 -0.4
v -0.5 4.1 -1
v -0.5 4.4 0.4
v -0.5 4.4 0.2
v -0.5 4.4 0
v -0.5 4.4 -0.2
v -0.5 4.5 0.5
v -0.5 4.5 0.4
v -0.5 4.5 0.2
v -0.5 4.5 0
v -0.5 4.5 -0.2
v -0.5 4.5 -0.3
v -0.5 4.6 0.6
v -0.5 4.6 0.5
v -0.5 4.6 0.4
v -0.5 4.6 -0.2
v -0.5 4.6 -0.3
v -0.5 4.6 -0.4
v -0.5 4.8 0.7
v -0.5 4.8 0.6
v -0.5 4.8 0.5
v -0.5 4.8 -0.3
v -0.5 4.8 -0.4
v -0.5 4.8 -0.5
v -0.5 5.1 0.7
v -0.5 5.1 0.6
v -0.5 5.1 0.5
v -0.5 5.1 -0.4
v -0.5 5.1 -0.5
v -0.5 5.3 0.6
v -0.5 5.3 0.5
v -0.5 5.3 0.4
v -0.5 5.4 0.5
v -0.5 5.4 0.4
v -0.5 5.4 -0.4
v -0.5 5.5 0.4
v -0.5 5.5 -0.4
v -0.4 2.5 -0.8
v -0.4 2.5 -1.2
v -0.4 2.7 -0.8
v -0.4 2.7 -1
v -0.4 2.9 -0.4
v -0.4 2.9 -0.5
v -0.4 2.9 -1
v -0.4 2.9 -1.1
v -0.4 2.9 -1.2
v -0.4 3 -0.5
v -0.4 3.1 0.8
v -0.4 3.1 0.6
v -0.4 3.2 -0.4
v -0.4 3.2 -0.5
v -0.4 3.8 0.8
v -0.4 3.8 0.6
v -0.4 3.9 -1
v -0.4 3.9 -1.1
v -0.4 4.1 0.5
v -0.4 4.1 -0.3
v -0.4 4.3 0.5
v -0.4 4.3 0.3
v -0.4 4.3 -0.1
v -0.4 4.3 -0.3
v -0.4 4.4 0.5
v -0.4 4.4 0.4
v -0.4 4.4 0.3
v -0.4 4.4 -0.1
v -0.4 4.4 -0.2
v -0.4 4.4 -0.3
v -0.4 4.5 0.6
v -0.4 4.5 0.5
v -0.4 4.5 0.4
v -0.4 4.5 -0.2
v -0.4 4.5 -0.3
v -0.4 4.5 -0.4
v -0.4 4.6 0.8
v -0.4 4.6 0.7
v -0.4 4.6 0.6
v -0.4 4.6 0.5
v -0.4 4.6 -0.3
v -0.4 4.6 -0.4
v -0.4 4.6 -0.5
v -0.4 4.8 0.7
v -0.4 4.8 0.6
v -0.4 4.8 -0.4
v -0.4 4.8 -0.5
v -0.4 4.9 0.8
v -0.4 4.9 0.7
v -0.4 5.1 0.7
v -0.4 5.1 0.6
v -0.4 5.3 0.8
v -0.4 5.3 0.7
v -0.4 5.3 0.6
v -0.4 5.3 0.5
v -0.4 5.4 0.6
v -0.4 5.4 0.5
v -0.4 5.4 0.4
v -0.4 5.5 0.5
v -0.4 5.5 0.4
v -0.4 5.5 0.3
v -0.4 5.5 -0.1
v -0.4 5.6 0.3
v -0.4 5.6 -0.1
v -0.3 3.2 0.9
v -0.3 3.2 0.8
v -0.3 3.7 0.9
v -0.3 3.7 0.8
v -0.3 3.9 -1
v -0.3 3.9 -1.1
v -0.3 4.1 -0.6
v -0.3 4.1 -1
v -0.3 4.3 0.4
v -0.3 4.3 0.3
v -0.3 4.3 -0.1
v -0.3 4.3 -0.2
v -0.3 4.3 -0.6
v -0.3 4.3 -1.1
v -0.3 4.4 0.4
v -0.3 4.4 0.3
v -0.3 4.4 -0.1
v -0.3 4.4 -0.2
v -0.3 4.8 -0.5
v -0.3 4.8 -0.6
v -0.3 5.1 -0.5
v -0.3 5.1 -0.6
v -0.3 5.5 0.4
v -0.3 5.5 0.3
v -0.3 5.5 -0.1
v -0.3 5.5 -0.2
v -0.3 5.6 0.4
v -0.3 5.6 0.3
v -0.3 5.6 -0.1
v -0.3 5.6 -0.2
v -0.2 3.5 1
v -0.2 3.5 0.9
v -0.2 3.7 1
v -0.2 3.7 0.9
v -0.2 4.3 0.5
v -0.2 4.3 0.4
v -0.2 4.3 -0.2
v -0.2 4.3 -0.3
v -0.2 4.4 0.6
v -0.2 4.4 0.5
v -0.2 4.4 0.4
v -0.2 4.4 -0.2
v -0.2 4.4 -0.3
v -0.2 4.4 -0.4
v -0.2 4.5 0.7
v -0.2 4.5 0.6
v -0.2 4.5 0.5
v -0.2 4.5 -0.3
v -0.2 4.5 -0.4
v -0.2 4.5 -0.5
v -0.2 4.6 0.7
v -0.2 4.6 0.6
v -0.2 4.6 -0.4
v -0.2 4.6 -0.5
v -0.2 4.7 -0.5
v -0.2 4.7 -0.6
v -0.2 4.8 -0.5
v -0.2 4.8 -0.6
v -0.2 5.3 0.7
v -0.2 5.3 0.6
v -0.2 5.4 0.7
v -0.2 5.4 0.6
v -0.2 5.4 0.5
v -0.2 5.5 0.6
v -0.2 5.5 0.5
v -0.2 5.5 0.4
v -0.2 5.5 -0.2
v -0.2 5.5 -0.3
v -0.2 5.6 0.5
v -0.2 5.6 0.4
v -0.2 5.6 0.2
v -0.2 5.6 0
v -0.2 5.6 -0.2
v -0.2 5.6 -0.3
v -0.2 5.7 0.2
v -0.2 5.7 0
v -0.0999999 4 -1.1
v -0.0999999 4 -1.2
v -0.0999999 4.2 -1.1
v -0.0999999 4.2 -1.2
v -0.0999999 5.6 0.3
v -0.0999999 5.6 0.2
v -0.0999999 5.6 0
v -0.0999999 5.6 -0.1
v -0.0999999 5.7 0.3
v -0.0999999 5.7 0.2
v -0.0999999 5.7 0
v -0.0999999 5.7 -0.1
v 1.19209e-07 3.5 1
v 1.19209e-07 3.5 0.9
v 1.19209e-07 3.7 1
v 1.19209e-07 3.7 0.9
v 0.1 0 1
v 0.1 0 0.2
v 0.1 0 -0.5
v 0.1 0.3 1
v 0.1 0.3 0.8
v 0.1 0.3 0.2
v 0.1 0.5 0.8
v 0.1 0.5 0.5
v 0.1 0.5 -0.3
v 0.1 0.5 -0.5
v 0.1 0.7 0.5
v 0.1 0.7 -0.3
v 0.1 1.3 0.7
v 0.1 1.3 0.5
v 0.1 1.3 -0.3
v 0.1 1.3 -0.4
v 0.1 1.6 0.7
v 0.1 1.6 0.5
v 0.1 1.6 -0.3
v 0.1 1.6 -0.4
v 0.1 2.4 0.5
v 0.1 2.4 -0.3
v 0.1 2.5 0.5
v 0.1 2.5 -0.3
v 0.3 3.3 1
v 0.3 3.3 0.9
v 0.3 3.5 1
v 0.3 3.5 0.9
v 0.4 1.8 0.6
v 0.4 1.8 0.5
v 0.4 2.3 0.6
v 0.4 2.3 0.5
v 0.7 1.6 0.5
v 0.7 1.6 -0.2
v 0.7 1.9 0.5
v 0.7 1.9 -0.2
v 0.7 2.1 0.5
v 0.7 2.1 -0.2
v 0.7 2.2 0.5
v 0.7 2.2 -0.2
v 0.7 2.4 0.5
v 0.7 2.4 -0.2
v 0.7 2.8 0.5
v 0.7 2.8 -0.2
v 0.7 3 0.5
v 0.7 3 -0.2
v 0.7 3.2 0.5
v 0.7 3.2 -0.2
v -0.7 1.5 0.5
v -0.7 1.5 -0.2
v -0.7 1.9 0.5
v -0.7 1.9 -0.2
v -0.7 2.1 0.5
v -0.7 2.1 -0.2
v -0.7 2.2 0.5
v -0.7 2.2 -0.2
v -0.7 2.4 0.5
v -0.7 2.4 -0.2
v -0.7 2.8 0.5
v -0.7 2.8 -0.2
v -0.7 3 0.5
v -0.7 3 -0.2
v -0.7 3.2 0.5
v -0.7 3.2 -0.2
v -0.3 1.8 0.6
v -0.3 1.8 0.5
v -0.3 2.3 0.6
v -0.3 2.3 0.5
v -0.0999999 3.5 1
v -0.0999999 3.5 0.9
v -0.0999999 3.7 1
v -0.0999999 3.7 0.9
v 1.19209e-07 0 1
v 1.19209e-07 0 0.2
v 1.19209e-07 0 -0.5
v 1.19209e-07 0.3 1
v 1.19209e-07 0.3 0.8
v 1.19209e-07 0.3 0.2
v 1.19209e-07 0.5 0.8
v 1.19209e-07 0.5 0.5
v 1.19209e-07 0.5 -0.3
v 1.19209e-07 0.5 -0.5
v 1.19209e-07 0.7 0.5
v 1.19209e-07 0.7 -0.3
v 1.19209e-07 1.3 0.7
v 1.19209e-07 1.3 0.5
v 1.19209e-07 1.3 -0.3
v 1.19209e-07 1.3 -0.4
v 1.19209e-07 1.6 0.7
v 1.19209e-07 1.6 0.5
v 1.19209e-07 1.6 -0.3
v 1.19209e-07 1.6 -0.4
v 1.19209e-07 2.4 0.5
v 1.19209e-07 2.4 -0.3
v 1.19209e-07 2.5 0.5
v 1.19209e-07 2.5 -0.3
v 0.1 4 -1.1
v 0.1 4 -1.2
v 0.1 4.2 -1.1
v 0.1 4.2 -1.2
v 0.1 5.6 0.3
v 0.1 5.6 0.2
v 0.1 5.6 0
v 0.1 5.6 -0.1
v 0.1 5.7 0.3
v 0.1 5.7 0.2
v 0.1 5.7 0
v 0.1 5.7 -0.1
v 0.2 3.5 1
v 0.2 3.5 0.9
v 0.2 3.7 1
v 0.2 3.7 0.9
v 0.2 4.3 0.5
v 0.2 4.3 0.4
v 0.2 4.3 -0.2
v 0.2 4.3 -0.3
v 0.2 4.4 0.6
v 0.2 4.4 0.5
v 0.2 4.4 0.4
v 0.2 4.4 -0.2
v 0.2 4.4 -0.3
v 0.2 4.4 -0.4
v 0.2 4.5 0.7
v 0.2 4.5 0.6
v 0.2 4.5 0.5
v 0.2 4.5 -0.3
v 0.2 4.5 -0.4
v 0.2 4.5 -0.5
v 0.2 4.6 0.7
v 0.2 4.6 0.6
v 0.2 4.6 -0.4
v 0.2 4.6 -0.5
v 0.2 4.7 -0.5
v 0.2 4.7 -0.6
v 0.2 4.8 -0.5
v 0.2 4.8 -0.6
v 0.2 5.3 0.7
v 0.2 5.3 0.6
v 0.2 5.4 0.7
v 0.2 5.4 0.6
v 0.2 5.4 0.5
v 0.2 5.5 0.6
v 0.2 5.5 0.5
v 0.2 5.5 0.4
v 0.2 5.5 -0.2
v 0.2 5.5 -0.3
v 0.2 5.6 0.5
v 0.2 5.6 0.4
v 0.2 5.6 0.2
v 0.2 5.6 0
v 0.2 5.6 -0.2
v 0.2 5.6 -0.3
v 0.2 5.7 0.2
v 0.2 5.7 0
v 0.3 3.2 0.9
v 0.3 3.2 0.8
v 0.3 3.3 0.9
v 0.3 3.5 0.9
v 0.3 3.7 0.9
v 0.3 3.7 0.8
v 0.3 3.9 -1
v 0.3 3.9 -1.1
v 0.3 4.1 -0.6
v 0.3 4.1 -1
v 0.3 4.3 0.4
v 0.3 4.3 0.3
v 0.3 4.3 -0.1
v 0.3 4.3 -0.2
v 0.3 4.3 -0.6
v 0.3 4.3 -1.1
v 0.3 4.4 0.4
v 0.3 4.4 0.3
v 0.3 4.4 -0.1
v 0.3 4.4 -0.2
v 0.3 4.8 -0.5
v 0.3 4.8 -0.6
v 0.3 5.1 -0.5
v 0.3 5.1 -0.6
v 0.3 5.5 0.4
v 0.3 5.5 0.3
v 0.3 5.5 -0.1
v 0.3 5.5 -0.2
v 0.3 5.6 0.4
v 0.3 5.6 0.3
v 0.3 5.6 -0.1
v 0.3 5.6 -0.2
v 0.4 2.5 -0.8
v 0.4 2.5 -1.2
v 0.4 2.7 -0.8
v 0.4 2.7 -1
v 0.4 2.9 -1
v 0.4 2.9 -1.1
v 0.4 2.9 -1.2
v 0.4 3.1 0.8
v 0.4 3.1 0.6
v 0.4 3.2 0.7
v 0.4 3.2 0.6
v 0.4 3.3 1
v 0.4 3.3 0.9
v 0.4 3.3 0.7
v 0.4 3.3 0.6
v 0.4 3.5 1
v 0.4 3.5 0.9
v 0.4 3.8 0.8
v 0.4 3.8 0.6
v 0.4 3.9 -1
v 0.4 3.9 -1.1
v 0.4 4.1 0.5
v 0.4 4.1 -0.3
v 0.4 4.3 0.5
v 0.4 4.3 0.3
v 0.4 4.3 -0.1
v 0.4 4.3 -0.3
v 0.4 4.4 0.5
v 0.4 4.4 0.4
v 0.4 4.4 0.3
v 0.4 4.4 -0.1
v 0.4 4.4 -0.2
v 0.4 4.4 -0.3
v 0.4 4.5 0.6
v 0.4 4.5 0.5
v 0.4 4.5 0.4
v 0.4 4.5 -0.2
v 0.4 4.5 -0.3
v 0.4 4.5 -0.4
v 0.4 4.6 0.8
v 0.4 4.6 0.7
v 0.4 4.6 0.6
v 0.4 4.6 0.5
v 0.4 4.6 -0.3
v 0.4 4.6 -0.4
v 0.4 4.6 -0.5
v 0.4 4.8 0.7
v 0.4 4.8 0.6
v 0.4 4.8 -0.4
v 0.4 4.8 -0.5
v 0.4 5.1 0.7
v 0.4 5.1 0.6
v 0.4 5.3 0.8
v 0.4 5.3 0.7
v 0.4 5.3 0.6
v 0.4 5.3 0.5
v 0.4 5.4 0.6
v 0.4 5.4 0.5
v 0.4 5.4 0.4
v 0.4 5.5 0.5
v 0.4 5.5 0.4
v 0.4 5.5 0.3
v 0.4 5.5 -0.1
v 0.4 5.6 0.3
v 0.4 5.6 -0.1
v 0.5 2.5 -0.4
v 0.5 2.5 -0.5
v 0.5 2.7 -0.5
v 0.5 2.7 -1
v 0.5 2.8 -0.4
v 0.5 2.8 -0.5
v 0.5 2.9 -0.5
v 0.5 2.9 -0.9
v 0.5 3.9 -0.5
v 0.5 3.9 -0.9
v 0.5 4 -0.4
v 0.5 4.1 -0.4
v 0.5 4.1 -1
v 0.5 4.4 0.4
v 0.5 4.4 0.2
v 0.5 4.4 0
v 0.5 4.4 -0.2
v 0.5 4.5 0.5
v 0.5 4.5 0.4
v 0.5 4.5 0.2
v 0.5 4.5 0
v 0.5 4.5 -0.2
v 0.5 4.5 -0.3
v 0.5 4.6 0.6
v 0.5 4.6 0.5
v 0.5 4.6 0.4
v 0.5 4.6 -0.2
v 0.5 4.6 -0.3
v 0.5 4.6 -0.4
v 0.5 4.8 0.7
v 0.5 4.8 0.6
v 0.5 4.8 0.5
v 0.5 4.8 -0.3
v 0.5 4.8 -0.4
v 0.5 4.8 -0.5
v 0.5 5.1 0.7
v 0.5 5.1 0.6
v 0.5 5.1 0.5
v 0.5 5.1 -0.4
v 0.5 5.1 -0.5
v 0.5 5.3 0.6
v 0.5 5.3 0.5
v 0.5 5.3 0.4
v 0.5 5.4 0.5
v 0.5 5.4 0.4
v 0.5 5.4 -0.4
v 0.5 5.5 0.4
v 0.5 5.5 -0.4
v 0.6 0.5 0.5
v 0.6 0.5 -0.3
v 0.6 0.7 0.5
v 0.6 0.7 -0.3
v 0.6 1.3 0.5
v 0.6 1.3 -0.3
v 0.6 1.6 0.5
v 0.6 1.6 -0.3
v 0.6 1.8 0.6
v 0.6 1.8 0.5
v 0.6 1.8 -0.3
v 0.6 2.3 0.6
v 0.6 2.3 0.5
v 0.6 2.3 -0.3
v 0.6 2.4 0.5
v 0.6 2.4 -0.3
v 0.6 2.5 0.6
v 0.6 2.5 0.5
v 0.6 2.5 -0.3
v 0.6 2.5 -0.4
v 0.6 3.2 0.6
v 0.6 3.2 -0.3
v 0.6 3.9 0.6
v 0.6 3.9 0.5
v 0.6 3.9 -0.3
v 0.6 4 0.6
v 0.6 4 0.5
v 0.6 4 -0.3
v 0.6 4 -0.4
v 0.6 4.4 0.2
v 0.6 4.4 0
v 0.6 4.5 0.4
v 0.6 4.5 0.2
v 0.6 4.5 0
v 0.6 4.5 -0.2
v 0.6 4.6 0.5
v 0.6 4.6 0.4
v 0.6 4.6 0.3
v 0.6 4.6 -0.1
v 0.6 4.6 -0.2
v 0.6 4.6 -0.3
v 0.6 4.7 0.4
v 0.6 4.7 0.3
v 0.6 4.7 -0.1
v 0.6 4.7 -0.2
v 0.6 4.8 0.6
v 0.6 4.8 0.5
v 0.6 4.8 0.4
v 0.6 4.8 -0.2
v 0.6 4.8 -0.3
v 0.6 4.8 -0.4
v 0.6 5.1 0.6
v 0.6 5.1 0.5
v 0.6 5.1 0.4
v 0.6 5.1 -0.2
v 0.6 5.1 -0.3
v 0.6 5.1 -0.4
v 0.6 5.1 -0.5
v 0.6 5.2 0.4
v 0.6 5.2 0.3
v 0.6 5.2 -0.1
v 0.6 5.2 -0.2
v 0.6 5.3 0.5
v 0.6 5.3 0.4
v 0.6 5.3 0.3
v 0.6 5.3 -0.1
v 0.6 5.3 -0.4
v 0.6 5.3 -0.5
v 0.6 5.4 0.4
v 0.6 5.4 -0.4
v 0.7 0 1
v 0.7 0 0.2
v 0.7 0 -0.5
v 0.7 0.3 1
v 0.7 0.3 0.8
v 0.7 0.3 0.2
v 0.7 0.5 0.8
v 0.7 0.5 -0.5
v 0.7 1.3 0.7
v 0.7 1.3 -0.4
v 0.7 1.5 0.5
v 0.7 1.5 -0.2
v 0.7 1.6 0.7
v 0.7 1.6 0.5
v 0.7 1.6 -0.2
v 0.7 1.6 -0.4
v 0.7 2.9 -0.5
v 0.7 2.9 -0.9
v 0.7 3.2 0.6
v 0.7 3.2 0.5
v 0.7 3.2 -0.2
v 0.7 3.2 -0.3
v 0.7 3.8 0.5
v 0.7 3.8 0.4
v 0.7 3.8 -0.1
v 0.7 3.8 -0.2
v 0.7 3.9 0.6
v 0.7 3.9 0.5
v 0.7 3.9 0.4
v 0.7 3.9 -0.1
v 0.7 3.9 -0.3
v 0.7 3.9 -0.5
v 0.7 3.9 -0.9
v 0.7 4 0.4
v 0.7 4 -0.1
v 0.7 4.1 0.5
v 0.7 4.1 -0.3
v 0.7 4.6 0.3
v 0.7 4.6 -0.1
v 0.7 4.7 0.3
v 0.7 4.7 -0.1
v 0.7 4.7 -0.2
v 0.7 4.8 -0.1
v 0.7 4.8 -0.2
v 0.7 4.8 -0.3
v 0.7 5.1 -0.1
v 0.7 5.1 -0.2
v 0.7 5.1 -0.3
v 0.7 5.2 0.3
v 0.7 5.2 -0.1
v 0.7 5.2 -0.2
v 0.7 5.3 0.3
v 0.7 5.3 -0.1
v 0.8 4.8 0.5
v 0.8 4.8 0.4
v 0.8 4.8 -0.1
v 0.8 4.8 -0.2
v 0.8 5.1 0.5
v 0.8 5.1 0.4
v 0.8 5.1 -0.1
v 0.8 5.1 -0.2
v 0.9 4.7 0.4
v 0.9 4.7 -0.1
v 0.9 5.2 0.4
v 0.9 5.2 -0.1
v 1.1 1.5 0.5
v 1.1 1.5 -0.2
v 1.1 1.9 0.5
v 1.1 1.9 0.1
v 1.1 1.9 -0.2
v 1.1 2.1 0.1
v 1.1 2.1 -0.2
v 1.1 2.2 0.5
v 1.1 2.2 0.1
v 1.1 2.2 -0.2
v 1.1 2.4 0.5
v 1.1 2.4 -0.2
v 1.1 2.8 0.5
v 1.1 2.8 -0.2
v 1.1 3 0.5
v 1.1 3 -0.2
v 1.1 3.4 0.4
v 1.1 3.4 -0.1
v 1.1 3.8 0.5
v 1.1 3.8 0.4
v 1.1 3.8 -0.1
v 1.1 3.8 -0.2
v 1.2 1.9 0.5
v 1.2 1.9 0.1
v 1.2 2 0.4
v 1.2 2 0.2
v 1.2 2.1 0.4
v 1.2 2.1 0.2
v 1.2 2.2 0.5
v 1.2 2.2 0.1
v 1.2 3.4 0.4
v 1.2 3.4 -0.1
v 1.2 3.9 0.4
v 1.2 3.9 -0.1
v 1.2 4 0.4
v 1.2 4 -0.1
v -0.6 0 1
v -0.6 0.3 1
v -0.2 3.5 1
v -0.2 3.7 1
v -0.0999999 3.5 1
v -0.0999999 3.7 1
v 1.19209e-07 0 1
v 1.19209e-07 0.3 1
v 1.19209e-07 3.5 1
v 1.19209e-07 3.7 1
v 0.1 0 1
v 0.1 0.3 1
v 0.2 3.5 1
v 0.2 3.7 1
v 0.3 3.3 1
v 0.3 3.5 1
v 0.4 3.3 1
v 0.4 3.5 1
v 0.7 0 1
v 0.7 0.3 1
v -0.3 3.2 0.9
v -0.3 3.7 0.9
v -0.2 3.5 0.9
v -0.2 3.7 0.9
v -0.0999999 3.5 0.9
v -0.0999999 3.7 0.9
v 1.19209e-07 3.5 0.9
v 1.19209e-07 3.7 0.9
v 0.2 3.5 0.9
v 0.2 3.7 0.9
v 0.3 3.2 0.9
v 0.3 3.3 0.9
v 0.3 3.5 0.9
v 0.3 3.7 0.9
v -0.6 0.3 0.8
v -0.6 0.5 0.8
v -0.4 3.1 0.8
v -0.4 3.8 0.8
v -0.4 4.6 0.8
v -0.4 4.9 0.8
v -0.4 5.3 0.8
v -0.3 3.2 0.8
v -0.3 3.7 0.8
v -0.3 4.9 0.8
v -0.3 5.1 0.8
v -0.2 5.1 0.8
v -0.2 5.2 0.8
v 1.19209e-07 0.3 0.8
v 1.19209e-07 0.5 0.8
v 1.19209e-07 5.2 0.8
v 1.19209e-07 5.3 0.8
v 0.1 0.3 0.8
v 0.1 0.5 0.8
v 0.1 4.7 0.8
v 0.1 4.8 0.8
v 0.2 4.7 0.8
v 0.2 4.8 0.8
v 0.2 5 0.8
v 0.3 3.2 0.8
v 0.3 3.7 0.8
v 0.3 4.8 0.8
v 0.3 5 0.8
v 0.4 3.1 0.8
v 0.4 3.8 0.8
v 0.4 4.6 0.8
v 0.4 5.3 0.8
v 0.7 0.3 0.8
v 0.7 0.5 0.8
v -0.6 1.3 0.7
v -0.6 1.6 0.7
v -0.5 4.8 0.7
v -0.5 5.1 0.7
v -0.4 4.8 0.7
v -0.4 4.9 0.7
v -0.4 5.1 0.7
v -0.2 4.5 0.7
v -0.2 4.6 0.7
v -0.2 5.3 0.7
v -0.2 5.4 0.7
v 1.19209e-07 1.3 0.7
v 1.19209e-07 1.6 0.7
v 1.19209e-07 5.3 0.7
v 0.1 1.3 0.7
v 0.1 1.6 0.7
v 0.2 4.5 0.7
v 0.2 4.6 0.7
v 0.2 5.3 0.7
v 0.2 5.4 0.7
v 0.4 4.8 0.7
v 0.4 5.1 0.7
v 0.5 4.8 0.7
v 0.5 5.1 0.7
v 0.7 1.3 0.7
v 0.7 1.6 0.7
v -0.7 3.2 0.6
v -0.7 3.9 0.6
v -0.6 2.5 0.6
v -0.6 3.2 0.6
v -0.6 3.9 0.6
v -0.6 4 0.6
v -0.6 4.8 0.6
v -0.6 5.1 0.6
v -0.5 1.8 0.6
v -0.5 2.3 0.6
v -0.5 2.5 0.6
v -0.5 2.8 0.6
v -0.5 3.2 0.6
v -0.5 3.9 0.6
v -0.5 4.6 0.6
v -0.5 4.8 0.6
v -0.5 5.1 0.6
v -0.5 5.3 0.6
v -0.4 3.1 0.6
v -0.4 3.8 0.6
v -0.4 4.5 0.6
v -0.4 4.6 0.6
v -0.4 4.8 0.6
v -0.4 5.1 0.6
v -0.4 5.3 0.6
v -0.4 5.4 0.6
v -0.3 1.8 0.6
v -0.3 2.3 0.6
v -0.2 4.4 0.6
v -0.2 4.5 0.6
v -0.2 4.6 0.6
v -0.2 5.3 0.6
v -0.2 5.4 0.6
v -0.2 5.5 0.6
v 0.2 4.4 0.6
v 0.2 4.5 0.6
v 0.2 4.6 0.6
v 0.2 5.3 0.6
v 0.2 5.4 0.6
v 0.2 5.5 0.6
v 0.4 1.8 0.6
v 0.4 2.3 0.6
v 0.4 3.1 0.6
v 0.4 3.2 0.6
v 0.4 3.3 0.6
v 0.4 3.8 0.6
v 0.4 4.5 0.6
v 0.4 4.6 0.6
v 0.4 4.8 0.6
v 0.4 5.1 0.6
v 0.4 5.3 0.6
v 0.4 5.4 0.6
v 0.5 2.5 0.6
v 0.5 2.8 0.6
v 0.5 3.2 0.6
v 0.5 3.9 0.6
v 0.5 4.6 0.6
v 0.5 4.8 0.6
v 0.5 5.1 0.6
v 0.5 5.3 0.6
v 0.6 1.8 0.6
v 0.6 2.3 0.6
v 0.6 2.5 0.6
v 0.6 3.2 0.6
v 0.6 3.9 0.6
v 0.6 4 0.6
v 0.6 4.8 0.6
v 0.6 5.1 0.6
v 0.7 3.2 0.6
v 0.7 3.9 0.6
v -1.2 1.9 0.5
v -1.2 2.2 0.5
v -1.1 1.5 0.5
v -1.1 1.9 0.5
v -1.1 2.1 0.5
v -1.1 2.2 0.5
v -1.1 2.4 0.5
v -1.1 2.8 0.5
v -1.1 3 0.5
v -1.1 3.8 0.5
v -0.8 4.8 0.5
v -0.8 5.1 0.5
v -0.7 1.5 0.5
v -0.7 1.9 0.5
v -0.7 2.1 0.5
v -0.7 2.2 0.5
v -0.7 2.4 0.5
v -0.7 2.8 0.5
v -0.7 3 0.5
v -0.7 3.2 0.5
v -0.7 3.8 0.5
v -0.7 3.9 0.5
v -0.7 4.1 0.5
v -0.6 3.9 0.5
v -0.6 4 0.5
v -0.6 4.6 0.5
v -0.6 4.8 0.5
v -0.6 5.1 0.5
v -0.6 5.3 0.5
v -0.5 0.5 0.5
v -0.5 0.7 0.5
v -0.5 1.3 0.5
v -0.5 1.6 0.5
v -0.5 1.8 0.5
v -0.5 2.3 0.5
v -0.5 2.4 0.5
v -0.5 2.5 0.5
v -0.5 4.5 0.5
v -0.5 4.6 0.5
v -0.5 4.8 0.5
v -0.5 5.1 0.5
v -0.5 5.3 0.5
v -0.5 5.4 0.5
v -0.4 4 0.5
v -0.4 4.1 0.5
v -0.4 4.3 0.5
v -0.4 4.4 0.5
v -0.4 4.5 0.5
v -0.4 4.6 0.5
v -0.4 5.3 0.5
v -0.4 5.4 0.5
v -0.4 5.5 0.5
v -0.3 1.8 0.5
v -0.3 2.3 0.5
v -0.2 4.3 0.5
v -0.2 4.4 0.5
v -0.2 4.5 0.5
v -0.2 5.4 0.5
v -0.2 5.5 0.5
v -0.2 5.6 0.5
v 1.19209e-07 0.5 0.5
v 1.19209e-07 0.7 0.5
v 1.19209e-07 1.3 0.5
v 1.19209e-07 1.6 0.5
v 1.19209e-07 2.4 0.5
v 1.19209e-07 2.5 0.5
v 0.1 0.5 0.5
v 0.1 0.7 0.5
v 0.1 1.3 0.5
v 0.1 1.6 0.5
v 0.1 2.4 0.5
v 0.1 2.5 0.5
v 0.2 4.3 0.5
v 0.2 4.4 0.5
v 0.2 4.5 0.5
v 0.2 5.4 0.5
v 0.2 5.5 0.5
v 0.2 5.6 0.5
v 0.4 1.8 0.5
v 0.4 2.3 0.5
v 0.4 4 0.5
v 0.4 4.1 0.5
v 0.4 4.3 0.5
v 0.4 4.4 0.5
v 0.4 4.5 0.5
v 0.4 4.6 0.5
v 0.4 5.3 0.5
v 0.4 5.4 0.5
v 0.4 5.5 0.5
v 0.5 2.5 0.5
v 0.5 4.5 0.5
v 0.5 4.6 0.5
v 0.5 4.8 0.5
v 0.5 5.1 0.5
v 0.5 5.3 0.5
v 0.5 5.4 0.5
v 0.6 0.5 0.5
v 0.6 0.7 0.5
v 0.6 1.3 0.5
v 0.6 1.6 0.5
v 0.6 1.8 0.5
v 0.6 2.3 0.5
v 0.6 2.4 0.5
v 0.6 2.5 0.5
v 0.6 3.9 0.5
v 0.6 4 0.5
v 0.6 4.6 0.5
v 0.6 4.8 0.5
v 0.6 5.1 0.5
v 0.6 5.3 0.5
v 0.7 1.5 0.5
v 0.7 1.6 0.5
v 0.7 1.9 0.5
v 0.7 2.1 0.5
v 0.7 2.2 0.5
v 0.7 2.4 0.5
v 0.7 2.8 0.5
v 0.7 3 0.5
v 0.7 3.2 0.5
v 0.7 3.8 0.5
v 0.7 3.9 0.5
v 0.7 4.1 0.5
v 0.8 4.8 0.5
v 0.8 5.1 0.5
v 1.1 1.5 0.5
v 1.1 1.9 0.5
v 1.1 2.1 0.5
v 1.1 2.2 0.5
v 1.1 2.4 0.5
v 1.1 2.8 0.5
v 1.1 3 0.5
v 1.1 3.8 0.5
v 1.2 1.9 0.5
v 1.2 2.2 0.5
v -1.2 3.4 0.4
v -1.2 3.9 0.4
v -1.2 4 0.4
v -1.1 3.4 0.4
v -1.1 3.8 0.4
v -1 3.8 0.4
v -1 3.9 0.4
v -0.9 4.7 0.4
v -0.9 5.2 0.4
v -0.8 4.8 0.4
v -0.8 5.1 0.4
v -0.7 3.8 0.4
v -0.7 3.9 0.4
v -0.7 4 0.4
v -0.6 4.5 0.4
v -0.6 4.6 0.4
v -0.6 4.7 0.4
v -0.6 4.8 0.4
v -0.6 5.1 0.4
v -0.6 5.2 0.4
v -0.6 5.3 0.4
v -0.6 5.4 0.4
v -0.5 4.4 0.4
v -0.5 4.5 0.4
v -0.5 4.6 0.4
v -0.5 5.3 0.4
v -0.5 5.4 0.4
v -0.5 5.5 0.4
v -0.4 4.4 0.4
v -0.4 4.5 0.4
v -0.4 5.4 0.4
v -0.4 5.5 0.4
v -0.3 4.3 0.4
v -0.3 4.4 0.4
v -0.3 5.5 0.4
v -0.3 5.6 0.4
v -0.2 4.3 0.4
v -0.2 4.4 0.4
v -0.2 5.5 0.4
v -0.2 5.6 0.4
v 0.2 4.3 0.4
v 0.2 4.4 0.4
v 0.2 5.5 0.4
v 0.2 5.6 0.4
v 0.3 4.3 0.4
v 0.3 4.4 0.4
v 0.3 5.5 0.4
v 0.3 5.6 0.4
v 0.4 4.4 0.4
v 0.4 4.5 0.4
v 0.4 5.4 0.4
v 0.4 5.5 0.4
v 0.5 4.4 0.4
v 0.5 4.5 0.4
v 0.5 4.6 0.4
v 0.5 5.3 0.4
v 0.5 5.4 0.4
v 0.5 5.5 0.4
v 0.6 4.5 0.4
v 0.6 4.6 0.4
v 0.6 4.7 0.4
v 0.6 4.8 0.4
v 0.6 5.1 0.4
v 0.6 5.2 0.4
v 0.6 5.3 0.4
v 0.6 5.4 0.4
v 0.7 3.8 0.4
v 0.7 3.9 0.4
v 0.7 4 0.4
v 0.8 4.8 0.4
v 0.8 5.1 0.4
v 0.9 4.7 0.4
v 0.9 5.2 0.4
v 1 3.8 0.4
v 1 3.9 0.4
v 1.1 3.4 0.4
v 1.1 3.8 0.4
v 1.2 3.4 0.4
v 1.2 3.9 0.4
v 1.2 4 0.4
v -0.7 4.6 0.3
v -0.7 4.7 0.3
v -0.7 5.2 0.3
v -0.7 5.3 0.3
v -0.6 4.6 0.3
v -0.6 4.7 0.3
v -0.6 5.2 0.3
v -0.6 5.3 0.3
v -0.4 4.3 0.3
v -0.4 4.4 0.3
v -0.4 5.5 0.3
v -0.4 5.6 0.3
v -0.3 4.3 0.3
v -0.3 4.4 0.3
v -0.3 5.5 0.3
v -0.3 5.6 0.3
v -0.0999999 5.6 0.3
v -0.0999999 5.7 0.3
v 0.1 5.6 0.3
v 0.1 5.7 0.3
v 0.3 4.3 0.3
v 0.3 4.4 0.3
v 0.3 5.5 0.3
v 0.3 5.6 0.3
v 0.4 4.3 0.3
v 0.4 4.4 0.3
v 0.4 5.5 0.3
v 0.4 5.6 0.3
v 0.6 4.6 0.3
v 0.6 4.7 0.3
v 0.6 5.2 0.3
v 0.6 5.3 0.3
v 0.7 4.6 0.3
v 0.7 4.7 0.3
v 0.7 5.2 0.3
v 0.7 5.3 0.3
v -0.6 4.4 0.2
v -0.6 4.5 0.2
v -0.5 4.4 0.2
v -0.5 4.5 0.2
v -0.2 5.6 0.2
v -0.2 5.7 0.2
v -0.0999999 5.6 0.2
v -0.0999999 5.7 0.2
v 0.1 5.6 0.2
v 0.1 5.7 0.2
v 0.2 5.6 0.2
v 0.2 5.7 0.2
v 0.5 4.4 0.2
v 0.5 4.5 0.2
v 0.6 4.4 0.2
v 0.6 4.5 0.2
v -0.5 4 -0.4
v -0.5 4.1 -0.4
v 0.5 4 -0.4
v 0.5 4.1 -0.4
v -0.7 2.9 -0.5
v -0.7 3.9 -0.5
v -0.5 2.9 -0.5
v -0.5 3 -0.5
v -0.5 3.2 -0.5
v -0.5 3.9 -0.5
v -0.4 2.9 -0.5
v -0.4 3 -0.5
v -0.4 3.2 -0.5
v 0.5 2.9 -0.5
v 0.5 3.9 -0.5
v 0.7 2.9 -0.5
v 0.7 3.9 -0.5
v -0.3 4.1 -0.6
v -0.3 4.3 -0.6
v 0.3 4.1 -0.6
v 0.3 4.3 -0.6
v -0.4 2.5 -0.8
v -0.4 2.7 -0.8
v 0.4 2.5 -0.8
v 0.4 2.7 -0.8
v 0.3 3.3 0.9
v 0.3 3.5 0.9
v 0.4 3.3 0.9
v 0.4 3.5 0.9
v -1.2 1.9 0.1
v -1.2 2.2 0.1
v -1.1 1.9 0.1
v -1.1 2.1 0.1
v -1.1 2.2 0.1
v 1.1 1.9 0.1
v 1.1 2.1 0.1
v 1.1 2.2 0.1
v 1.2 1.9 0.1
v 1.2 2.2 0.1
v -0.6 4.4 0
v -0.6 4.5 0
v -0.5 4.4 0
v -0.5 4.5 0
v -0.2 5.6 0
v -0.2 5.7 0
v -0.0999999 5.6 0
v -0.0999999 5.7 0
v 0.1 5.6 0
v 0.1 5.7 0
v 0.2 5.6 0
v 0.2 5.7 0
v 0.5 4.4 0
v 0.5 4.5 0
v 0.6 4.4 0
v 0.6 4.5 0
v -1.2 3.4 -0.1
v -1.2 3.9 -0.1
v -1.2 4 -0.1
v -1.1 3.4 -0.1
v -1.1 3.8 -0.1
v -1 3.8 -0.1
v -1 3.9 -0.1
v -0.9 4.7 -0.1
v -0.9 5.2 -0.1
v -0.8 4.8 -0.1
v -0.8 5.1 -0.1
v -0.7 3.8 -0.1
v -0.7 3.9 -0.1
v -0.7 4 -0.1
v -0.7 4.6 -0.1
v -0.7 4.7 -0.1
v -0.7 4.8 -0.1
v -0.7 5.1 -0.1
v -0.7 5.2 -0.1
v -0.7 5.3 -0.1
v -0.6 4.6 -0.1
v -0.6 4.7 -0.1
v -0.6 5.2 -0.1
v -0.6 5.3 -0.1
v -0.4 4.3 -0.1
v -0.4 4.4 -0.1
v -0.4 5.5 -0.1
v -0.4 5.6 -0.1
v -0.3 4.3 -0.1
v -0.3 4.4 -0.1
v -0.3 5.5 -0.1
v -0.3 5.6 -0.1
v -0.0999999 5.6 -0.1
v -0.0999999 5.7 -0.1
v 0.1 5.6 -0.1
v 0.1 5.7 -0.1
v 0.3 4.3 -0.1
v 0.3 4.4 -0.1
v 0.3 5.5 -0.1
v 0.3 5.6 -0.1
v 0.4 4.3 -0.1
v 0.4 4.4 -0.1
v 0.4 5.5 -0.1
v 0.4 5.6 -0.1
v 0.6 4.6 -0.1
v 0.6 4.7 -0.1
v 0.6 5.2 -0.1
v 0.6 5.3 -0.1
v 0.7 3.8 -0.1
v 0.7 3.9 -0.1
v 0.7 4 -0.1
v 0.7 4.6 -0.1
v 0.7 4.7 -0.1
v 0.7 4.8 -0.1
v 0.7 5.1 -0.1
v 0.7 5.2 -0.1
v 0.7 5.3 -0.1
v 0.8 4.8 -0.1
v 0.8 5.1 -0.1
v 0.9 4.7 -0.1
v 0.9 5.2 -0.1
v 1 3.8 -0.1
v 1 3.9 -0.1
v 1.1 3.4 -0.1
v 1.1 3.8 -0.1
v 1.2 3.4 -0.1
v 1.2 3.9 -0.1
v 1.2 4 -0.1
v -1.1 1.5 -0.2
v -1.1 1.9 -0.2
v -1.1 2.1 -0.2
v -1.1 2.2 -0.2
v -1.1 2.4 -0.2
v -1.1 2.8 -0.2
v -1.1 3 -0.2
v -1.1 3.8 -0.2
v -0.8 4.8 -0.2
v -0.8 5.1 -0.2
v -0.7 1.5 -0.2
v -0.7 1.9 -0.2
v -0.7 2.1 -0.2
v -0.7 2.2 -0.2
v -0.7 2.4 -0.2
v -0.7 2.8 -0.2
v -0.7 3 -0.2
v -0.7 3.2 -0.2
v -0.7 3.8 -0.2
v -0.7 4.7 -0.2
v -0.7 4.8 -0.2
v -0.7 5.1 -0.2
v -0.7 5.2 -0.2
v -0.6 4.5 -0.2
v -0.6 4.6 -0.2
v -0.6 4.7 -0.2
v -0.6 4.8 -0.2
v -0.6 5.1 -0.2
v -0.6 5.2 -0.2
v -0.5 4.4 -0.2
v -0.5 4.5 -0.2
v -0.5 4.6 -0.2
v -0.4 4.4 -0.2
v -0.4 4.5 -0.2
v -0.3 4.3 -0.2
v -0.3 4.4 -0.2
v -0.3 5.5 -0.2
v -0.3 5.6 -0.2
v -0.2 4.3 -0.2
v -0.2 4.4 -0.2
v -0.2 5.5 -0.2
v -0.2 5.6 -0.2
v 0.2 4.3 -0.2
v 0.2 4.4 -0.2
v 0.2 5.5 -0.2
v 0.2 5.6 -0.2
v 0.3 4.3 -0.2
v 0.3 4.4 -0.2
v 0.3 5.5 -0.2
v 0.3 5.6 -0.2
v 0.4 4.4 -0.2
v 0.4 4.5 -0.2
v 0.5 4.4 -0.2
v 0.5 4.5 -0.2
v 0.5 4.6 -0.2
v 0.6 4.5 -0.2
v 0.6 4.6 -0.2
v 0.6 4.7 -0.2
v 0.6 4.8 -0.2
v 0.6 5.1 -0.2
v 0.6 5.2 -0.2
v 0.7 1.5 -0.2
v 0.7 1.6 -0.2
v 0.7 1.9 -0.2
v 0.7 2.1 -0.2
v 0.7 2.2 -0.2
v 0.7 2.4 -0.2
v 0.7 2.8 -0.2
v 0.7 3 -0.2
v 0.7 3.2 -0.2
v 0.7 3.8 -0.2
v 0.7 4.7 -0.2
v 0.7 4.8 -0.2
v 0.7 5.1 -0.2
v 0.7 5.2 -0.2
v 0.8 4.8 -0.2
v 0.8 5.1 -0.2
v 1.1 1.5 -0.2
v 1.1 1.9 -0.2
v 1.1 2.1 -0.2
v 1.1 2.2 -0.2
v 1.1 2.4 -0.2
v 1.1 2.8 -0.2
v 1.1 3 -0.2
v 1.1 3.8 -0.2
v -0.7 3.2 -0.3
v -0.7 3.9 -0.3
v -0.7 4.1 -0.3
v -0.7 4.8 -0.3
v -0.7 5.1 -0.3
v -0.6 3.2 -0.3
v -0.6 3.9 -0.3
v -0.6 4 -0.3
v -0.6 4.6 -0.3
v -0.6 4.8 -0.3
v -0.6 5.1 -0.3
v -0.5 0.5 -0.3
v -0.5 0.7 -0.3
v -0.5 1.3 -0.3
v -0.5 1.6 -0.3
v -0.5 1.8 -0.3
v -0.5 2.3 -0.3
v -0.5 2.4 -0.3
v -0.5 2.5 -0.3
v -0.5 4.5 -0.3
v -0.5 4.6 -0.3
v -0.5 4.8 -0.3
v -0.4 4 -0.3
v -0.4 4.1 -0.3
v -0.4 4.3 -0.3
v -0.4 4.4 -0.3
v -0.4 4.5 -0.3
v -0.4 4.6 -0.3
v -0.3 1.8 -0.3
v -0.3 2.3 -0.3
v -0.2 4.3 -0.3
v -0.2 4.4 -0.3
v -0.2 4.5 -0.3
v -0.2 5.5 -0.3
v -0.2 5.6 -0.3
v 1.19209e-07 0.5 -0.3
v 1.19209e-07 0.7 -0.3
v 1.19209e-07 1.3 -0.3
v 1.19209e-07 1.6 -0.3
v 1.19209e-07 2.4 -0.3
v 1.19209e-07 2.5 -0.3
v 0.1 0.5 -0.3
v 0.1 0.7 -0.3
v 0.1 1.3 -0.3
v 0.1 1.6 -0.3
v 0.1 2.4 -0.3
v 0.1 2.5 -0.3
v 0.2 4.3 -0.3
v 0.2 4.4 -0.3
v 0.2 4.5 -0.3
v 0.2 5.5 -0.3
v 0.2 5.6 -0.3
v 0.4 1.8 -0.3
v 0.4 2.3 -0.3
v 0.4 4 -0.3
v 0.4 4.1 -0.3
v 0.4 4.3 -0.3
v 0.4 4.4 -0.3
v 0.4 4.5 -0.3
v 0.4 4.6 -0.3
v 0.5 2.5 -0.3
v 0.5 4.5 -0.3
v 0.5 4.6 -0.3
v 0.5 4.8 -0.3
v 0.6 0.5 -0.3
v 0.6 0.7 -0.3
v 0.6 1.3 -0.3
v 0.6 1.6 -0.3
v 0.6 1.8 -0.3
v 0.6 2.3 -0.3
v 0.6 2.4 -0.3
v 0.6 2.5 -0.3
v 0.6 3.2 -0.3
v 0.6 3.9 -0.3
v 0.6 4 -0.3
v 0.6 4.6 -0.3
v 0.6 4.8 -0.3
v 0.6 5.1 -0.3
v 0.7 3.2 -0.3
v 0.7 3.9 -0.3
v 0.7 4.1 -0.3
v 0.7 4.8 -0.3
v 0.7 5.1 -0.3
v -0.6 1.3 -0.4
v -0.6 1.6 -0.4
v -0.6 2.5 -0.4
v -0.6 4 -0.4
v -0.6 4.8 -0.4
v -0.6 5.1 -0.4
v -0.6 5.3 -0.4
v -0.6 5.4 -0.4
v -0.5 2.5 -0.4
v -0.5 2.8 -0.4
v -0.5 2.9 -0.4
v -0.5 3.2 -0.4
v -0.5 4 -0.4
v -0.5 4.6 -0.4
v -0.5 4.8 -0.4
v -0.5 5.1 -0.4
v -0.5 5.4 -0.4
v -0.5 5.5 -0.4
v -0.4 2.9 -0.4
v -0.4 3.2 -0.4
v -0.4 4.5 -0.4
v -0.4 4.6 -0.4
v -0.4 4.8 -0.4
v -0.2 4.4 -0.4
v -0.2 4.5 -0.4
v -0.2 4.6 -0.4
v 1.19209e-07 1.3 -0.4
v 1.19209e-07 1.6 -0.4
v 0.1 1.3 -0.4
v 0.1 1.6 -0.4
v 0.2 4.4 -0.4
v 0.2 4.5 -0.4
v 0.2 4.6 -0.4
v 0.4 4.5 -0.4
v 0.4 4.6 -0.4
v 0.4 4.8 -0.4
v 0.5 2.5 -0.4
v 0.5 2.8 -0.4
v 0.5 4 -0.4
v 0.5 4.6 -0.4
v 0.5 4.8 -0.4
v 0.5 5.1 -0.4
v 0.5 5.4 -0.4
v 0.5 5.5 -0.4
v 0.6 2.5 -0.4
v 0.6 4 -0.4
v 0.6 4.8 -0.4
v 0.6 5.1 -0.4
v 0.6 5.3 -0.4
v 0.6 5.4 -0.4
v 0.7 1.3 -0.4
v 0.7 1.6 -0.4
v -0.6 0 -0.5
v -0.6 0.5 -0.5
v -0.6 5.1 -0.5
v -0.6 5.3 -0.5
v -0.5 2.5 -0.5
v -0.5 2.7 -0.5
v -0.5 4.8 -0.5
v -0.5 5.1 -0.5
v -0.4 4.6 -0.5
v -0.4 4.8 -0.5
v -0.3 4.8 -0.5
v -0.3 5.1 -0.5
v -0.2 4.5 -0.5
v -0.2 4.6 -0.5
v -0.2 4.7 -0.5
v -0.2 4.8 -0.5
v 1.19209e-07 0 -0.5
v 1.19209e-07 0.5 -0.5
v 0.1 0 -0.5
v 0.1 0.5 -0.5
v 0.2 4.5 -0.5
v 0.2 4.6 -0.5
v 0.2 4.7 -0.5
v 0.2 4.8 -0.5
v 0.3 4.8 -0.5
v 0.3 5.1 -0.5
v 0.4 4.6 -0.5
v 0.4 4.8 -0.5
v 0.5 2.5 -0.5
v 0.5 2.7 -0.5
v 0.5 4.8 -0.5
v 0.5 5.1 -0.5
v 0.6 5.1 -0.5
v 0.6 5.3 -0.5
v 0.7 0 -0.5
v 0.7 0.5 -0.5
v -0.3 4.8 -0.6
v -0.3 5.1 -0.6
v -0.2 4.7 -0.6
v -0.2 4.8 -0.6
v 0.2 4.7 -0.6
v 0.2 4.8 -0.6
v 0.3 4.8 -0.6
v 0.3 5.1 -0.6
v -0.7 2.9 -0.9
v -0.7 3.9 -0.9
v -0.5 2.9 -0.9
v -0.5 3.9 -0.9
v 0.5 2.9 -0.9
v 0.5 3.9 -0.9
v 0.7 2.9 -0.9
v 0.7 3.9 -0.9
v -0.5 2.7 -1
v -0.5 4.1 -1
v -0.4 2.7 -1
v -0.4 2.9 -1
v -0.4 3.9 -1
v -0.3 3.9 -1
v -0.3 4.1 -1
v 0.3 3.9 -1
v 0.3 4.1 -1
v 0.4 2.7 -1
v 0.4 2.9 -1
v 0.4 3.9 -1
v 0.5 2.7 -1
v 0.5 4.1 -1
v -0.4 2.9 -1.1
v -0.4 3.9 -1.1
v -0.3 3.9 -1.1
v -0.3 4.3 -1.1
v -0.0999999 4 -1.1
v -0.0999999 4.2 -1.1
v 0.1 4 -1.1
v 0.1 4.2 -1.1
v 0.3 3.9 -1.1
v 0.3 4.3 -1.1
v 0.4 2.9 -1.1
v 0.4 3.9 -1.1
v -0.4 2.5 -1.2
v -0.4 2.9 -1.2
v -0.0999999 4 -1.2
v -0.0999999 4.2 -1.2
v 0.1 4 -1.2
v 0.1 4.2 -1.2
v 0.4 2.5 -1.2
v 0.4 2.9 -1.2
v -0.6 0 1
v 1.19209e-07 0 1
v 0.1 0 1
v 0.7 0 1
v -0.6 0 0.2
v 1.19209e-07 0 0.2
v 0.1 0 0.2
v 0.7 0 0.2
v -0.6 0 -0.5
v 1.19209e-07 0 -0.5
v 0.1 0 -0.5
v 0.7 0 -0.5
v -0.6 1.3 0.7
v 1.19209e-07 1.3 0.7
v 0.1 1.3 0.7
v 0.7 1.3 0.7
v -0.5 1.3 0.5
v 1.19209e-07 1.3 0.5
v 0.1 1.3 0.5
v 0.6 1.3 0.5
v -0.5 1.3 -0.3
v 1.19209e-07 1.3 -0.3
v 0.1 1.3 -0.3
v 0.6 1.3 -0.3
v -0.6 1.3 -0.4
v 1.19209e-07 1.3 -0.4
v 0.1 1.3 -0.4
v 0.7 1.3 -0.4
v -1.1 1.5 0.5
v -0.7 1.5 0.5
v 0.7 1.5 0.5
v 1.1 1.5 0.5
v -1.1 1.5 -0.2
v -0.7 1.5 -0.2
v 0.7 1.5 -0.2
v 1.1 1.5 -0.2
v -0.5 1.8 0.6
v -0.3 1.8 0.6
v 0.4 1.8 0.6
v 0.6 1.8 0.6
v -0.5 1.8 0.5
v -0.3 1.8 0.5
v 0.4 1.8 0.5
v 0.6 1.8 0.5
v -1.2 1.9 0.5
v -1.1 1.9 0.5
v 1.1 1.9 0.5
v 1.2 1.9 0.5
v -1.2 1.9 0.1
v -1.1 1.9 0.1
v 1.1 1.9 0.1
v 1.2 1.9 0.1
v -0.6 2.5 0.6
v -0.5 2.5 0.6
v 0.5 2.5 0.6
v 0.6 2.5 0.6
v -0.5 2.5 0.5
v 1.19209e-07 2.5 0.5
v 0.1 2.5 0.5
v 0.5 2.5 0.5
v 0.6 2.5 0.5
v -0.5 2.5 -0.3
v 1.19209e-07 2.5 -0.3
v 0.1 2.5 -0.3
v 0.5 2.5 -0.3
v 0.6 2.5 -0.3
v -0.6 2.5 -0.4
v -0.5 2.5 -0.4
v 0.5 2.5 -0.4
v 0.6 2.5 -0.4
v -0.5 2.5 -0.5
v 0.5 2.5 -0.5
v -0.4 2.5 -0.8
v 0.4 2.5 -0.8
v -0.4 2.5 -1.2
v 0.4 2.5 -1.2
v -0.5 2.7 -0.5
v 0.5 2.7 -0.5
v -0.4 2.7 -0.8
v 0.4 2.7 -0.8
v -0.5 2.7 -1
v -0.4 2.7 -1
v 0.4 2.7 -1
v 0.5 2.7 -1
v -0.7 2.9 -0.5
v -0.5 2.9 -0.5
v 0.5 2.9 -0.5
v 0.7 2.9 -0.5
v -0.7 2.9 -0.9
v -0.5 2.9 -0.9
v 0.5 2.9 -0.9
v 0.7 2.9 -0.9
v -0.4 3.1 0.8
v 0.4 3.1 0.8
v -0.4 3.1 0.6
v 0.4 3.1 0.6
v -0.3 3.2 0.9
v 0.3 3.2 0.9
v -0.3 3.2 0.8
v 0.3 3.2 0.8
v -0.7 3.2 0.6
v -0.6 3.2 0.6
v 0.6 3.2 0.6
v 0.7 3.2 0.6
v -0.7 3.2 0.5
v 0.7 3.2 0.5
v -0.7 3.2 -0.2
v 0.7 3.2 -0.2
v -0.7 3.2 -0.3
v -0.6 3.2 -0.3
v 0.6 3.2 -0.3
v 0.7 3.2 -0.3
v -0.5 3.2 -0.4
v -0.4 3.2 -0.4
v -0.5 3.2 -0.5
v -0.4 3.2 -0.5
v 0.3 3.3 1
v 0.4 3.3 1
v 0.3 3.3 0.9
v 0.4 3.3 0.9
v -1.2 3.4 0.4
v -1.1 3.4 0.4
v 1.1 3.4 0.4
v 1.2 3.4 0.4
v -1.2 3.4 -0.1
v -1.1 3.4 -0.1
v 1.1 3.4 -0.1
v 1.2 3.4 -0.1
v -0.2 3.5 1
v -0.0999999 3.5 1
v 1.19209e-07 3.5 1
v 0.2 3.5 1
v -0.2 3.5 0.9
v -0.0999999 3.5 0.9
v 1.19209e-07 3.5 0.9
v 0.2 3.5 0.9
v -0.0999999 4 -1.1
v 0.1 4 -1.1
v -0.0999999 4 -1.2
v 0.1 4 -1.2
v -0.2 4.4 0.6
v 0.2 4.4 0.6
v -0.4 4.4 0.5
v -0.2 4.4 0.5
v 0.2 4.4 0.5
v 0.4 4.4 0.5
v -0.5 4.4 0.4
v -0.4 4.4 0.4
v -0.3 4.4 0.4
v -0.2 4.4 0.4
v 0.2 4.4 0.4
v 0.3 4.4 0.4
v 0.4 4.4 0.4
v 0.5 4.4 0.4
v -0.4 4.4 0.3
v -0.3 4.4 0.3
v 0.3 4.4 0.3
v 0.4 4.4 0.3
v -0.6 4.4 0.2
v -0.5 4.4 0.2
v 0.5 4.4 0.2
v 0.6 4.4 0.2
v -0.6 4.4 0
v -0.5 4.4 0
v 0.5 4.4 0
v 0.6 4.4 0
v -0.4 4.4 -0.1
v -0.3 4.4 -0.1
v 0.3 4.4 -0.1
v 0.4 4.4 -0.1
v -0.5 4.4 -0.2
v -0.4 4.4 -0.2
v -0.3 4.4 -0.2
v -0.2 4.4 -0.2
v 0.2 4.4 -0.2
v 0.3 4.4 -0.2
v 0.4 4.4 -0.2
v 0.5 4.4 -0.2
v -0.4 4.4 -0.3
v -0.2 4.4 -0.3
v 0.2 4.4 -0.3
v 0.4 4.4 -0.3
v -0.2 4.4 -0.4
v 0.2 4.4 -0.4
v -0.2 4.5 0.7
v 0.2 4.5 0.7
v -0.4 4.5 0.6
v -0.2 4.5 0.6
v 0.2 4.5 0.6
v 0.4 4.5 0.6
v -0.5 4.5 0.5
v -0.4 4.5 0.5
v -0.2 4.5 0.5
v 0.2 4.5 0.5
v 0.4 4.5 0.5
v 0.5 4.5 0.5
v -0.6 4.5 0.4
v -0.5 4.5 0.4
v -0.4 4.5 0.4
v 0.4 4.5 0.4
v 0.5 4.5 0.4
v 0.6 4.5 0.4
v -0.6 4.5 0.2
v -0.5 4.5 0.2
v 0.5 4.5 0.2
v 0.6 4.5 0.2
v -0.6 4.5 0
v -0.5 4.5 0
v 0.5 4.5 0
v 0.6 4.5 0
v -0.6 4.5 -0.2
v -0.5 4.5 -0.2
v -0.4 4.5 -0.2
v 0.4 4.5 -0.2
v 0.5 4.5 -0.2
v 0.6 4.5 -0.2
v -0.5 4.5 -0.3
v -0.4 4.5 -0.3
v -0.2 4.5 -0.3
v 0.2 4.5 -0.3
v 0.4 4.5 -0.3
v 0.5 4.5 -0.3
v -0.4 4.5 -0.4
v -0.2 4.5 -0.4
v 0.2 4.5 -0.4
v 0.4 4.5 -0.4
v -0.2 4.5 -0.5
v 0.2 4.5 -0.5
v -0.4 4.6 0.8
v 0.4 4.6 0.8
v -0.4 4.6 0.7
v -0.2 4.6 0.7
v 0.2 4.6 0.7
v 0.4 4.6 0.7
v -0.5 4.6 0.6
v -0.4 4.6 0.6
v -0.2 4.6 0.6
v 0.2 4.6 0.6
v 0.4 4.6 0.6
v 0.5 4.6 0.6
v -0.6 4.6 0.5
v -0.5 4.6 0.5
v -0.4 4.6 0.5
v 0.4 4.6 0.5
v 0.5 4.6 0.5
v 0.6 4.6 0.5
v -0.6 4.6 0.4
v -0.5 4.6 0.4
v 0.5 4.6 0.4
v 0.6 4.6 0.4
v -0.7 4.6 0.3
v -0.6 4.6 0.3
v 0.6 4.6 0.3
v 0.7 4.6 0.3
v -0.7 4.6 -0.1
v -0.6 4.6 -0.1
v 0.6 4.6 -0.1
v 0.7 4.6 -0.1
v -0.6 4.6 -0.2
v -0.5 4.6 -0.2
v 0.5 4.6 -0.2
v 0.6 4.6 -0.2
v -0.6 4.6 -0.3
v -0.5 4.6 -0.3
v -0.4 4.6 -0.3
v 0.4 4.6 -0.3
v 0.5 4.6 -0.3
v 0.6 4.6 -0.3
v -0.5 4.6 -0.4
v -0.4 4.6 -0.4
v -0.2 4.6 -0.4
v 0.2 4.6 -0.4
v 0.4 4.6 -0.4
v 0.5 4.6 -0.4
v -0.4 4.6 -0.5
v -0.2 4.6 -0.5
v 0.2 4.6 -0.5
v 0.4 4.6 -0.5
v -0.9 4.7 0.4
v -0.6 4.7 0.4
v 0.6 4.7 0.4
v 0.9 4.7 0.4
v -0.7 4.7 0.3
v -0.6 4.7 0.3
v 0.6 4.7 0.3
v 0.7 4.7 0.3
v -0.9 4.7 -0.1
v -0.7 4.7 -0.1
v -0.6 4.7 -0.1
v 0.6 4.7 -0.1
v 0.7 4.7 -0.1
v 0.9 4.7 -0.1
v -0.7 4.7 -0.2
v -0.6 4.7 -0.2
v 0.6 4.7 -0.2
v 0.7 4.7 -0.2
v -0.2 4.7 -0.5
v 0.2 4.7 -0.5
v -0.2 4.7 -0.6
v 0.2 4.7 -0.6
v -0.5 4.8 0.7
v -0.4 4.8 0.7
v 0.4 4.8 0.7
v 0.5 4.8 0.7
v -0.6 4.8 0.6
v -0.5 4.8 0.6
v -0.4 4.8 0.6
v 0.4 4.8 0.6
v 0.5 4.8 0.6
v 0.6 4.8 0.6
v -0.8 4.8 0.5
v -0.6 4.8 0.5
v -0.5 4.8 0.5
v 0.5 4.8 0.5
v 0.6 4.8 0.5
v 0.8 4.8 0.5
v -0.8 4.8 0.4
v -0.6 4.8 0.4
v 0.6 4.8 0.4
v 0.8 4.8 0.4
v -0.8 4.8 -0.1
v -0.7 4.8 -0.1
v 0.7 4.8 -0.1
v 0.8 4.8 -0.1
v -0.8 4.8 -0.2
v -0.7 4.8 -0.2
v -0.6 4.8 -0.2
v 0.6 4.8 -0.2
v 0.7 4.8 -0.2
v 0.8 4.8 -0.2
v -0.7 4.8 -0.3
v -0.6 4.8 -0.3
v -0.5 4.8 -0.3
v 0.5 4.8 -0.3
v 0.6 4.8 -0.3
v 0.7 4.8 -0.3
v -0.6 4.8 -0.4
v -0.5 4.8 -0.4
v -0.4 4.8 -0.4
v 0.4 4.8 -0.4
v 0.5 4.8 -0.4
v 0.6 4.8 -0.4
v -0.5 4.8 -0.5
v -0.4 4.8 -0.5
v -0.3 4.8 -0.5
v -0.2 4.8 -0.5
v 0.2 4.8 -0.5
v 0.3 4.8 -0.5
v 0.4 4.8 -0.5
v 0.5 4.8 -0.5
v -0.3 4.8 -0.6
v -0.2 4.8 -0.6
v 0.2 4.8 -0.6
v 0.3 4.8 -0.6
v -0.6 5.1 -0.4
v -0.5 5.1 -0.4
v 0.5 5.1 -0.4
v 0.6 5.1 -0.4
v -0.6 5.1 -0.5
v -0.5 5.1 -0.5
v 0.5 5.1 -0.5
v 0.6 5.1 -0.5
v -0.6 0.3 1
v 1.19209e-07 0.3 1
v 0.1 0.3 1
v 0.7 0.3 1
v -0.6 0.3 0.8
v 1.19209e-07 0.3 0.8
v 0.1 0.3 0.8
v 0.7 0.3 0.8
v -0.6 0.5 0.8
v 1.19209e-07 0.5 0.8
v 0.1 0.5 0.8
v 0.7 0.5 0.8
v -0.5 0.5 0.5
v 1.19209e-07 0.5 0.5
v 0.1 0.5 0.5
v 0.6 0.5 0.5
v -0.5 0.5 -0.3
v 1.19209e-07 0.5 -0.3
v 0.1 0.5 -0.3
v 0.6 0.5 -0.3
v -0.6 0.5 -0.5
v 1.19209e-07 0.5 -0.5
v 0.1 0.5 -0.5
v 0.7 0.5 -0.5
v -0.6 1.6 0.7
v 1.19209e-07 1.6 0.7
v 0.1 1.6 0.7
v 0.7 1.6 0.7
v -0.5 1.6 0.5
v 1.19209e-07 1.6 0.5
v 0.1 1.6 0.5
v 0.6 1.6 0.5
v 0.7 1.6 0.5
v 0.7 1.6 -0.2
v -0.5 1.6 -0.3
v 1.19209e-07 1.6 -0.3
v 0.1 1.6 -0.3
v 0.6 1.6 -0.3
v -0.6 1.6 -0.4
v 1.19209e-07 1.6 -0.4
v 0.1 1.6 -0.4
v 0.7 1.6 -0.4
v -1.2 2.2 0.5
v -1.1 2.2 0.5
v 1.1 2.2 0.5
v 1.2 2.2 0.5
v -1.2 2.2 0.1
v -1.1 2.2 0.1
v 1.1 2.2 0.1
v 1.2 2.2 0.1
v -0.5 2.3 0.6
v -0.3 2.3 0.6
v 0.4 2.3 0.6
v 0.6 2.3 0.6
v -0.5 2.3 0.5
v -0.3 2.3 0.5
v 0.4 2.3 0.5
v 0.6 2.3 0.5
v -0.5 2.9 -0.4
v -0.4 2.9 -0.4
v -0.5 2.9 -0.5
v -0.4 2.9 -0.5
v -0.4 2.9 -1.1
v 0.4 2.9 -1.1
v -0.4 2.9 -1.2
v 0.4 2.9 -1.2
v 0.3 3.5 1
v 0.4 3.5 1
v 0.3 3.5 0.9
v 0.4 3.5 0.9
v -0.2 3.7 1
v -0.0999999 3.7 1
v 1.19209e-07 3.7 1
v 0.2 3.7 1
v -0.3 3.7 0.9
v -0.2 3.7 0.9
v -0.0999999 3.7 0.9
v 1.19209e-07 3.7 0.9
v 0.2 3.7 0.9
v 0.3 3.7 0.9
v -0.3 3.7 0.8
v 0.3 3.7 0.8
v -0.4 3.8 0.8
v 0.4 3.8 0.8
v -0.4 3.8 0.6
v 0.4 3.8 0.6
v -1.1 3.8 0.5
v -0.7 3.8 0.5
v 0.7 3.8 0.5
v 1.1 3.8 0.5
v -1.1 3.8 0.4
v -1 3.8 0.4
v -0.7 3.8 0.4
v 0.7 3.8 0.4
v 1 3.8 0.4
v 1.1 3.8 0.4
v -1.1 3.8 -0.1
v -1 3.8 -0.1
v -0.7 3.8 -0.1
v 0.7 3.8 -0.1
v 1 3.8 -0.1
v 1.1 3.8 -0.1
v -1.1 3.8 -0.2
v -0.7 3.8 -0.2
v 0.7 3.8 -0.2
v 1.1 3.8 -0.2
v -0.7 3.9 0.6
v -0.6 3.9 0.6
v 0.6 3.9 0.6
v 0.7 3.9 0.6
v -0.7 3.9 0.5
v -0.6 3.9 0.5
v 0.6 3.9 0.5
v 0.7 3.9 0.5
v -0.7 3.9 -0.5
v -0.5 3.9 -0.5
v 0.5 3.9 -0.5
v 0.7 3.9 -0.5
v -0.7 3.9 -0.9
v -0.5 3.9 -0.9
v 0.5 3.9 -0.9
v 0.7 3.9 -0.9
v -0.4 3.9 -1
v -0.3 3.9 -1
v 0.3 3.9 -1
v 0.4 3.9 -1
v -0.4 3.9 -1.1
v -0.3 3.9 -1.1
v 0.3 3.9 -1.1
v 0.4 3.9 -1.1
v -0.6 4 0.6
v 0.6 4 0.6
v -0.6 4 0.5
v -0.4 4 0.5
v 0.4 4 0.5
v 0.6 4 0.5
v -1.2 4 0.4
v -0.7 4 0.4
v 0.7 4 0.4
v 1.2 4 0.4
v -1.2 4 -0.1
v -0.7 4 -0.1
v 0.7 4 -0.1
v 1.2 4 -0.1
v -0.6 4 -0.3
v -0.4 4 -0.3
v 0.4 4 -0.3
v 0.6 4 -0.3
v -0.6 4 -0.4
v -0.5 4 -0.4
v 0.5 4 -0.4
v 0.6 4 -0.4
v -0.7 4.1 0.5
v -0.4 4.1 0.5
v 0.4 4.1 0.5
v 0.7 4.1 0.5
v -0.7 4.1 -0.3
v -0.4 4.1 -0.3
v 0.4 4.1 -0.3
v 0.7 4.1 -0.3
v -0.5 4.1 -0.4
v 0.5 4.1 -0.4
v -0.3 4.1 -0.6
v 0.3 4.1 -0.6
v -0.5 4.1 -1
v -0.3 4.1 -1
v 0.3 4.1 -1
v 0.5 4.1 -1
v -0.0999999 4.2 -1.1
v 0.1 4.2 -1.1
v -0.0999999 4.2 -1.2
v 0.1 4.2 -1.2
v -0.4 4.3 0.5
v -0.2 4.3 0.5
v 0.2 4.3 0.5
v 0.4 4.3 0.5
v -0.3 4.3 0.4
v -0.2 4.3 0.4
v 0.2 4.3 0.4
v 0.3 4.3 0.4
v -0.4 4.3 0.3
v -0.3 4.3 0.3
v 0.3 4.3 0.3
v 0.4 4.3 0.3
v -0.4 4.3 -0.1
v -0.3 4.3 -0.1
v 0.3 4.3 -0.1
v 0.4 4.3 -0.1
v -0.3 4.3 -0.2
v -0.2 4.3 -0.2
v 0.2 4.3 -0.2
v 0.3 4.3 -0.2
v -0.4 4.3 -0.3
v -0.2 4.3 -0.3
v 0.2 4.3 -0.3
v 0.4 4.3 -0.3
v -0.3 4.3 -0.6
v 0.3 4.3 -0.6
v -0.3 4.3 -1.1
v 0.3 4.3 -1.1
v -0.5 5.1 0.7
v -0.4 5.1 0.7
v 0.4 5.1 0.7
v 0.5 5.1 0.7
v -0.6 5.1 0.6
v -0.5 5.1 0.6
v -0.4 5.1 0.6
v 0.4 5.1 0.6
v 0.5 5.1 0.6
v 0.6 5.1 0.6
v -0.8 5.1 0.5
v -0.6 5.1 0.5
v -0.5 5.1 0.5
v 0.5 5.1 0.5
v 0.6 5.1 0.5
v 0.8 5.1 0.5
v -0.8 5.1 0.4
v -0.6 5.1 0.4
v 0.6 5.1 0.4
v 0.8 5.1 0.4
v -0.8 5.1 -0.1
v -0.7 5.1 -0.1
v 0.7 5.1 -0.1
v 0.8 5.1 -0.1
v -0.8 5.1 -0.2
v -0.7 5.1 -0.2
v -0.6 5.1 -0.2
v 0.6 5.1 -0.2
v 0.7 5.1 -0.2
v 0.8 5.1 -0.2
v -0.7 5.1 -0.3
v -0.6 5.1 -0.3
v 0.6 5.1 -0.3
v 0.7 5.1 -0.3
v -0.3 5.1 -0.5
v 0.3 5.1 -0.5
v -0.3 5.1 -0.6
v 0.3 5.1 -0.6
v -0.9 5.2 0.4
v -0.6 5.2 0.4
v 0.6 5.2 0.4
v 0.9 5.2 0.4
v -0.7 5.2 0.3
v -0.6 5.2 0.3
v 0.6 5.2 0.3
v 0.7 5.2 0.3
v -0.9 5.2 -0.1
v -0.7 5.2 -0.1
v -0.6 5.2 -0.1
v 0.6 5.2 -0.1
v 0.7 5.2 -0.1
v 0.9 5.2 -0.1
v -0.7 5.2 -0.2
v -0.6 5.2 -0.2
v 0.6 5.2 -0.2
v 0.7 5.2 -0.2
v -0.4 5.3 0.8
v 1.19209e-07 5.3 0.8
v 0.4 5.3 0.8
v -0.4 5.3 0.7
v -0.2 5.3 0.7
v 1.19209e-07 5.3 0.7
v 0.2 5.3 0.7
v 0.4 5.3 0.7
v -0.5 5.3 0.6
v -0.4 5.3 0.6
v -0.2 5.3 0.6
v 0.2 5.3 0.6
v 0.4 5.3 0.6
v 0.5 5.3 0.6
v -0.6 5.3 0.5
v -0.5 5.3 0.5
v -0.4 5.3 0.5
v 0.4 5.3 0.5
v 0.5 5.3 0.5
v 0.6 5.3 0.5
v -0.6 5.3 0.4
v -0.5 5.3 0.4
v 0.5 5.3 0.4
v 0.6 5.3 0.4
v -0.7 5.3 0.3
v -0.6 5.3 0.3
v 0.6 5.3 0.3
v 0.7 5.3 0.3
v -0.7 5.3 -0.1
v -0.6 5.3 -0.1
v 0.6 5.3 -0.1
v 0.7 5.3 -0.1
v -0.6 5.3 -0.4
v 0.6 5.3 -0.4
v -0.6 5.3 -0.5
v 0.6 5.3 -0.5
v -0.2 5.4 0.7
v 0.2 5.4 0.7
v -0.4 5.4 0.6
v -0.2 5.4 0.6
v 0.2 5.4 0.6
v 0.4 5.4 0.6
v -0.5 5.4 0.5
v -0.4 5.4 0.5
v -0.2 5.4 0.5
v 0.2 5.4 0.5
v 0.4 5.4 0.5
v 0.5 5.4 0.5
v -0.6 5.4 0.4
v -0.5 5.4 0.4
v -0.4 5.4 0.4
v 0.4 5.4 0.4
v 0.5 5.4 0.4
v 0.6 5.4 0.4
v -0.6 5.4 -0.4
v -0.5 5.4 -0.4
v 0.5 5.4 -0.4
v 0.6 5.4 -0.4
v -0.2 5.5 0.6
v 0.2 5.5 0.6
v -0.4 5.5 0.5
v -0.2 5.5 0.5
v 0.2 5.5 0.5
v 0.4 5.5 0.5
v -0.5 5.5 0.4
v -0.4 5.5 0.4
v -0.3 5.5 0.4
v -0.2 5.5 0.4
v 0.2 5.5 0.4
v 0.3 5.5 0.4
v 0.4 5.5 0.4
v 0.5 5.5 0.4
v -0.4 5.5 0.3
v -0.3 5.5 0.3
v 0.3 5.5 0.3
v 0.4 5.5 0.3
v -0.4 5.5 -0.1
v -0.3 5.5 -0.1
v 0.3 5.5 -0.1
v 0.4 5.5 -0.1
v -0.3 5.5 -0.2
v -0.2 5.5 -0.2
v 0.2 5.5 -0.2
v 0.3 5.5 -0.2
v -0.2 5.5 -0.3
v 0.2 5.5 -0.3
v 0.4 5.5 -0.3
v -0.5 5.5 -0.4
v 0.5 5.5 -0.4
v -0.2 5.6 0.5
v 0.2 5.6 0.5
v -0.3 5.6 0.4
v -0.2 5.6 0.4
v 0.2 5.6 0.4
v 0.3 5.6 0.4
v -0.4 5.6 0.3
v -0.3 5.6 0.3
v -0.0999999 5.6 0.3
v 0.1 5.6 0.3
v 0.3 5.6 0.3
v 0.4 5.6 0.3
v -0.2 5.6 0.2
v -0.0999999 5.6 0.2
v 0.1 5.6 0.2
v 0.2 5.6 0.2
v -0.2 5.6 0
v -0.0999999 5.6 0
v 0.1 5.6 0
v 0.2 5.6 0
v -0.4 5.6 -0.1
v -0.3 5.6 -0.1
v -0.0999999 5.6 -0.1
v 0.1 5.6 -0.1
v 0.3 5.6 -0.1
v 0.4 5.6 -0.1
v -0.3 5.6 -0.2
v -0.2 5.6 -0.2
v 0.2 5.6 -0.2
v 0.3 5.6 -0.2
v -0.2 5.6 -0.3
v 0.2 5.6 -0.3
v -0.0999999 5.7 0.3
v 0.1 5.7 0.3
v -0.2 5.7 0.2
v -0.0999999 5.7 0.2
v 0.1 5.7 0.2
v 0.2 5.7 0.2
v -0.2 5.7 0
v -0.0999999 5.7 0
v 0.1 5.7 0
v 0.2 5.7 0
v -0.0999999 5.7 -0.1
v 0.1 5.7 -0.1

# faces
f 3/4/1 2/4/1 1/4/1
f 4/4/1 2/4/1 3/4/1
f 5/4/1 3/4/1 1/4/1
f 5/10/1 4/10/1 3/10/1
f 6/4/1 2/4/1 4/4/1
f 6/10/1 4/10/1 5/10/1
f 7/4/1 5/4/1 1/4/1
f 7/4/1 6/4/1 5/4/1
f 8/4/1 2/4/1 6/4/1
f 8/4/1 6/4/1 7/4/1
f 11/7/1 10/7/1 9/7/1
f 12/7/1 10/7/1 11/7/1
f 13/2/1 12/2/1 11/2/1
f 14/2/1 12/2/1 13/2/1
f 17/9/1 16/9/1 15/9/1
f 18/9/1 16/9/1 17/9/1
f 19/9/1 16/9/1 18/9/1
f 20/4/1 19/4/1 18/4/1
f 21/4/1 19/4/1 20/4/1
f 23/1/1 21/1/1 20/1/1
f 24/1/1 21/1/1 23/1/1
f 25/7/1 23/7/1 22/7/1
f 25/7/1 24/7/1 23/7/1
f 26/7/1 24/7/1 25/7/1
f 27/1/1 26/1/1 25/1/1
f 28/1/1 26/1/1 27/1/1
f 29/4/1 28/4/1 27/4/1
f 30/4/1 28/4/1 29/4/1
f 31/1/1 30/1/1 29/1/1
f 32/1/1 30/1/1 31/1/1
f 33/1/1 31/1/1 29/1/1
f 34/1/1 31/1/1 33/1/1
f 35/1/1 30/1/1 32/1/1
f 36/1/1 30/1/1 35/1/1
f 39/7/1 38/7/1 37/7/1
f 40/7/1 38/7/1 39/7/1
f 45/8/1 42/8/1 41/8/1
f 46/8/1 42/8/1 45/8/1
f 47/8/1 44/8/1 43/8/1
f 48/8/1 44/8/1 47/8/1
f 55/7/1 52/7/1 51/7/1
f 58/7/1 54/7/1 53/7/1
f 59/7/1 56/7/1 55/7/1
f 59/7/1 55/7/1 51/7/1
f 60/7/1 56/7/1 59/7/1
f 61/7/1 56/7/1 60/7/1
f 62/7/1 58/7/1 57/7/1
f 63/7/1 54/7/1 58/7/1
f 63/7/1 58/7/1 62/7/1
f 64/15/1 50/15/1 49/15/1
f 65/15/1 50/15/1 64/15/1
f 66/2/1 61/2/1 60/2/1
f 67/2/1 63/2/1 62/2/1
f 68/2/1 66/2/1 60/2/1
f 68/2/1 67/2/1 66/2/1
f 69/2/1 63/2/1 67/2/1
f 69/2/1 67/2/1 68/2/1
f 72/1/1 71/1/1 70/1/1
f 73/1/1 71/1/1 72/1/1
f 75/1/1 74/1/1 73/1/1
f 76/1/1 74/1/1 75/1/1
f 79/1/1 77/1/1 76/1/1
f 80/1/1 77/1/1 79/1/1
f 82/1/1 79/1/1 78/1/1
f 83/1/1 79/1/1 82/1/1
f 84/1/1 82/1/1 81/1/1
f 85/1/1 82/1/1 84/1/1
f 89/13/1 87/13/1 86/13/1
f 90/13/1 87/13/1 89/13/1
f 91/9/1 88/9/1 87/9/1
f 91/13/1 87/13/1 90/13/1
f 92/9/1 91/9/1 90/9/1
f 93/9/1 88/9/1 91/9/1
f 93/9/1 91/9/1 92/9/1
f 96/7/1 95/7/1 94/7/1
f 97/7/1 95/7/1 96/7/1
f 100/1/1 99/1/1 98/1/1
f 101/1/1 99/1/1 100/1/1
f 104/1/1 99/1/1 101/1/1
f 105/1/1 103/1/1 102/1/1
f 106/1/1 103/1/1 105/1/1
f 107/1/1 99/1/1 104/1/1
f 108/1/1 99/1/1 107/1/1
f 112/1/1 110/1/1 109/1/1
f 113/1/1 110/1/1 112/1/1
f 116/1/1 112/1/1 111/1/1
f 116/1/1 114/1/1 113/1/1
f 116/1/1 113/1/1 112/1/1
f 117/1/1 114/1/1 116/1/1
f 118/1/1 114/1/1 117/1/1
f 119/1/1 114/1/1 118/1/1
f 121/1/1 116/1/1 115/1/1
f 121/1/1 117/1/1 116/1/1
f 122/1/1 117/1/1 121/1/1
f 123/1/1 120/1/1 119/1/1
f 123/1/1 119/1/1 118/1/1
f 124/1/1 120/1/1 123/1/1
f 126/1/1 121/1/1 115/1/1
f 127/1/1 121/1/1 126/1/1
f 128/1/1 120/1/1 124/1/1
f 129/1/1 120/1/1 128/1/1
f 131/1/1 126/1/1 125/1/1
f 132/1/1 126/1/1 131/1/1
f 135/1/1 130/1/1 129/1/1
f 136/1/1 130/1/1 135/1/1
f 138/1/1 133/1/1 132/1/1
f 141/1/1 136/1/1 135/1/1
f 141/1/1 135/1/1 134/1/1
f 141/1/1 137/1/1 136/1/1
f 142/1/1 139/1/1 138/1/1
f 142/1/1 138/1/1 132/1/1
f 143/1/1 139/1/1 142/1/1
f 144/1/1 139/1/1 143/1/1
f 145/1/1 141/1/1 140/1/1
f 146/1/1 137/1/1 141/1/1
f 146/1/1 141/1/1 145/1/1
f 147/1/1 137/1/1 146/1/1
f 148/1/1 144/1/1 143/1/1
f 148/1/1 145/1/1 144/1/1
f 148/1/1 146/1/1 145/1/1
f 149/1/1 146/1/1 148/1/1
f 152/4/1 151/4/1 150/4/1
f 153/4/1 151/4/1 152/4/1
f 154/1/1 153/1/1 152/1/1
f 155/1/1 153/1/1 154/1/1
f 159/1/1 157/1/1 156/1/1
f 160/1/1 157/1/1 159/1/1
f 161/7/1 159/7/1 158/7/1
f 161/7/1 160/7/1 159/7/1
f 162/7/1 160/7/1 161/7/1
f 163/7/1 160/7/1 162/7/1
f 164/1/1 163/1/1 162/1/1
f 165/1/1 163/1/1 164/1/1
f 166/4/1 165/4/1 164/4/1
f 167/4/1 165/4/1 166/4/1
f 170/4/1 169/4/1 168/4/1
f 172/4/1 170/4/1 168/4/1
f 173/3/1 171/3/1 170/3/1
f 173/4/1 170/4/1 172/4/1
f 174/3/1 173/3/1 172/3/1
f 175/3/1 171/3/1 173/3/1
f 175/3/1 173/3/1 174/3/1
f 176/3/1 171/3/1 175/3/1
f 179/3/1 178/3/1 177/3/1
f 180/3/1 171/3/1 176/3/1
f 181/3/1 179/3/1 177/3/1
f 181/3/1 180/3/1 179/3/1
f 182/3/1 180/3/1 181/3/1
f 183/3/1 171/3/1 180/3/1
f 183/3/1 180/3/1 182/3/1
f 189/1/1 185/1/1 184/1/1
f 190/1/1 185/1/1 189/1/1
f 191/1/1 187/1/1 186/1/1
f 192/1/1 187/1/1 191/1/1
f 195/1/1 189/1/1 188/1/1
f 196/1/1 189/1/1 195/1/1
f 197/1/1 193/1/1 192/1/1
f 198/1/1 193/1/1 197/1/1
f 201/1/1 195/1/1 194/1/1
f 202/1/1 195/1/1 201/1/1
f 203/1/1 199/1/1 198/1/1
f 204/1/1 199/1/1 203/1/1
f 206/1/1 201/1/1 200/1/1
f 207/1/1 201/1/1 206/1/1
f 209/1/1 205/1/1 204/1/1
f 210/1/1 205/1/1 209/1/1
f 211/1/1 208/1/1 207/1/1
f 212/1/1 208/1/1 211/1/1
f 214/1/1 213/1/1 212/1/1
f 215/1/1 213/1/1 214/1/1
f 217/1/1 216/1/1 215/1/1
f 218/1/1 216/1/1 217/1/1
f 221/9/1 220/9/1 219/9/1
f 222/9/1 220/9/1 221/9/1
f 225/9/1 220/9/1 222/9/1
f 226/9/1 220/9/1 225/9/1
f 227/9/1 220/9/1 226/9/1
f 228/3/1 224/3/1 223/3/1
f 231/3/1 228/3/1 223/3/1
f 232/3/1 228/3/1 231/3/1
f 233/3/1 230/3/1 229/3/1
f 234/3/1 230/3/1 233/3/1
f 235/4/1 226/4/1 225/4/1
f 236/4/1 226/4/1 235/4/1
f 239/4/1 238/4/1 237/4/1
f 240/4/1 238/4/1 239/4/1
f 241/4/1 238/4/1 240/4/1
f 242/4/1 238/4/1 241/4/1
f 245/1/1 241/1/1 240/1/1
f 246/1/1 241/1/1 245/1/1
f 250/1/1 244/1/1 243/1/1
f 251/1/1 244/1/1 250/1/1
f 252/1/1 248/1/1 247/1/1
f 253/1/1 248/1/1 252/1/1
f 257/1/1 250/1/1 249/1/1
f 258/1/1 250/1/1 257/1/1
f 259/1/1 254/1/1 253/1/1
f 260/1/1 254/1/1 259/1/1
f 262/6/1 256/6/1 255/6/1
f 262/1/1 257/1/1 256/1/1
f 263/1/1 257/1/1 262/1/1
f 264/1/1 261/1/1 260/1/1
f 265/1/1 261/1/1 264/1/1
f 266/6/1 262/6/1 255/6/1
f 267/6/1 262/6/1 266/6/1
f 268/5/1 267/5/1 266/5/1
f 270/5/1 268/5/1 266/5/1
f 271/1/1 269/1/1 268/1/1
f 271/5/1 268/5/1 270/5/1
f 272/1/1 269/1/1 271/1/1
f 274/1/1 273/1/1 272/1/1
f 275/1/1 273/1/1 274/1/1
f 277/1/1 276/1/1 275/1/1
f 278/1/1 276/1/1 277/1/1
f 281/1/1 280/1/1 279/1/1
f 282/1/1 280/1/1 281/1/1
f 285/4/1 284/4/1 283/4/1
f 286/4/1 284/4/1 285/4/1
f 290/3/1 288/3/1 287/3/1
f 295/3/1 290/3/1 289/3/1
f 296/3/1 288/3/1 290/3/1
f 296/3/1 290/3/1 295/3/1
f 297/1/1 292/1/1 291/1/1
f 298/1/1 292/1/1 297/1/1
f 299/1/1 294/1/1 293/1/1
f 300/1/1 294/1/1 299/1/1
f 303/1/1 302/1/1 301/1/1
f 304/1/1 302/1/1 303/1/1
f 309/1/1 306/1/1 305/1/1
f 310/1/1 306/1/1 309/1/1
f 311/1/1 308/1/1 307/1/1
f 312/1/1 308/1/1 311/1/1
f 315/10/1 314/10/1 313/10/1
f 316/10/1 314/10/1 315/10/1
f 322/1/1 318/1/1 317/1/1
f 323/1/1 318/1/1 322/1/1
f 324/1/1 320/1/1 319/1/1
f 325/1/1 320/1/1 324/1/1
f 328/1/1 322/1/1 321/1/1
f 329/1/1 322/1/1 328/1/1
f 330/1/1 326/1/1 325/1/1
f 331/1/1 326/1/1 330/1/1
f 333/1/1 328/1/1 327/1/1
f 334/1/1 328/1/1 333/1/1
f 335/1/1 332/1/1 331/1/1
f 336/1/1 332/1/1 335/1/1
f 339/1/1 338/1/1 337/1/1
f 340/1/1 338/1/1 339/1/1
f 343/1/1 342/1/1 341/1/1
f 344/1/1 342/1/1 343/1/1
f 346/1/1 345/1/1 344/1/1
f 347/1/1 345/1/1 346/1/1
f 351/1/1 348/1/1 347/1/1
f 352/1/1 348/1/1 351/1/1
f 355/1/1 350/1/1 349/1/1
f 356/1/1 350/1/1 355/1/1
f 357/1/1 354/1/1 353/1/1
f 358/1/1 354/1/1 357/1/1
f 361/12/1 360/12/1 359/12/1
f 362/12/1 360/12/1 361/12/1
f 367/1/1 364/1/1 363/1/1
f 368/1/1 364/1/1 367/1/1
f 369/1/1 366/1/1 365/1/1
f 370/1/1 366/1/1 369/1/1
f 373/11/1 372/11/1 371/11/1
f 374/11/1 372/11/1 373/11/1
f 378/13/1 376/13/1 375/13/1
f 379/13/1 376/13/1 378/13/1
f 380/9/1 377/9/1 376/9/1
f 380/13/1 376/13/1 379/13/1
f 381/9/1 380/9/1 379/9/1
f 382/9/1 380/9/1 381/9/1
f 383/9/1 377/9/1 380/9/1
f 383/9/1 380/9/1 382/9/1
f 384/9/1 377/9/1 383/9/1
f 385/4/1 383/4/1 382/4/1
f 386/4/1 383/4/1 385/4/1
f 388/1/1 386/1/1 385/1/1
f 389/1/1 386/1/1 388/1/1
f 391/7/1 389/7/1 388/7/1
f 391/7/1 390/7/1 389/7/1
f 391/7/1 388/7/1 387/7/1
f 392/7/1 390/7/1 391/7/1
f 393/7/1 390/7/1 392/7/1
f 394/7/1 390/7/1 393/7/1
f 395/1/1 393/1/1 392/1/1
f 396/1/1 393/1/1 395/1/1
f 397/4/1 396/4/1 395/4/1
f 398/4/1 396/4/1 397/4/1
f 401/12/1 400/12/1 399/12/1
f 402/12/1 400/12/1 401/12/1
f 405/7/1 404/7/1 403/7/1
f 406/7/1 404/7/1 405/7/1
f 409/9/1 408/9/1 407/9/1
f 410/9/1 408/9/1 409/9/1
f 411/4/1 410/4/1 409/4/1
f 412/4/1 410/4/1 411/4/1
f 413/1/1 412/1/1 411/1/1
f 414/1/1 412/1/1 413/1/1
f 415/7/1 414/7/1 413/7/1
f 416/7/1 414/7/1 415/7/1
f 417/1/1 416/1/1 415/1/1
f 418/1/1 416/1/1 417/1/1
f 419/4/1 418/4/1 417/4/1
f 420/4/1 418/4/1 419/4/1
f 421/1/1 420/1/1 419/1/1
f 422/1/1 420/1/1 421/1/1
f 423/9/2 424/9/2 425/9/2
f 425/9/2 424/9/2 426/9/2
f 425/4/2 426/4/2 427/4/2
f 427/4/2 426/4/2 428/4/2
f 427/1/2 428/1/2 429/1/2
f 429/1/2 428/1/2 430/1/2
f 429/7/2 430/7/2 431/7/2
f 431/7/2 430/7/2 432/7/2
f 431/1/2 432/1/2 433/1/2
f 433/1/2 432/1/2 434/1/2
f 433/4/2 434/4/2 435/4/2
f 435/4/2 434/4/2 436/4/2
f 435/1/2 436/1/2 437/1/2
f 437/1/2 436/1/2 438/1/2
f 439/7/2 440/7/2 441/7/2
f 441/7/2 440/7/2 442/7/2
f 443/10/2 444/10/2 445/10/2
f 445/10/2 444/10/2 446/10/2
f 447/13/2 448/13/2 450/13/2
f 450/13/2 448/13/2 451/13/2
f 448/9/2 449/9/2 452/9/2
f 451/13/2 448/13/2 452/13/2
f 451/9/2 452/9/2 453/9/2
f 453/9/2 452/9/2 454/9/2
f 452/9/2 449/9/2 455/9/2
f 454/9/2 452/9/2 455/9/2
f 455/9/2 449/9/2 456/9/2
f 454/4/2 455/4/2 457/4/2
f 457/4/2 455/4/2 458/4/2
f 457/1/2 458/1/2 460/1/2
f 460/1/2 458/1/2 461/1/2
f 460/7/2 461/7/2 463/7/2
f 461/7/2 462/7/2 463/7/2
f 459/7/2 460/7/2 463/7/2
f 463/7/2 462/7/2 464/7/2
f 464/7/2 462/7/2 465/7/2
f 465/7/2 462/7/2 466/7/2
f 464/1/2 465/1/2 467/1/2
f 467/1/2 465/1/2 468/1/2
f 467/4/2 468/4/2 469/4/2
f 469/4/2 468/4/2 470/4/2
f 471/12/2 472/12/2 473/12/2
f 473/12/2 472/12/2 474/12/2
f 475/1/2 476/1/2 479/1/2
f 479/1/2 476/1/2 480/1/2
f 477/1/2 478/1/2 481/1/2
f 481/1/2 478/1/2 482/1/2
f 483/11/2 484/11/2 485/11/2
f 485/11/2 484/11/2 486/11/2
f 487/1/2 488/1/2 492/1/2
f 492/1/2 488/1/2 493/1/2
f 489/1/2 490/1/2 494/1/2
f 494/1/2 490/1/2 495/1/2
f 491/1/2 492/1/2 498/1/2
f 498/1/2 492/1/2 499/1/2
f 495/1/2 496/1/2 500/1/2
f 500/1/2 496/1/2 501/1/2
f 497/1/2 498/1/2 503/1/2
f 503/1/2 498/1/2 504/1/2
f 501/1/2 502/1/2 505/1/2
f 505/1/2 502/1/2 506/1/2
f 507/1/2 508/1/2 509/1/2
f 509/1/2 508/1/2 510/1/2
f 511/1/2 512/1/2 513/1/2
f 513/1/2 512/1/2 514/1/2
f 514/1/2 515/1/2 516/1/2
f 516/1/2 515/1/2 517/1/2
f 517/1/2 518/1/2 521/1/2
f 521/1/2 518/1/2 522/1/2
f 519/1/2 520/1/2 525/1/2
f 525/1/2 520/1/2 526/1/2
f 523/1/2 524/1/2 527/1/2
f 527/1/2 524/1/2 528/1/2
f 529/4/2 530/4/2 531/4/2
f 531/4/2 530/4/2 532/4/2
f 532/4/2 530/4/2 533/4/2
f 533/4/2 530/4/2 534/4/2
f 535/3/2 536/3/2 538/3/2
f 537/3/2 538/3/2 543/3/2
f 538/3/2 536/3/2 544/3/2
f 543/3/2 538/3/2 544/3/2
f 539/1/2 540/1/2 545/1/2
f 545/1/2 540/1/2 546/1/2
f 541/1/2 542/1/2 547/1/2
f 547/1/2 542/1/2 548/1/2
f 549/1/2 550/1/2 551/1/2
f 551/1/2 550/1/2 552/1/2
f 553/1/2 554/1/2 557/1/2
f 557/1/2 554/1/2 558/1/2
f 555/1/2 556/1/2 559/1/2
f 559/1/2 556/1/2 560/1/2
f 561/9/2 562/9/2 563/9/2
f 563/9/2 562/9/2 564/9/2
f 564/9/2 562/9/2 565/9/2
f 565/9/2 562/9/2 566/9/2
f 566/9/2 562/9/2 567/9/2
f 568/3/2 569/3/2 570/3/2
f 570/3/2 569/3/2 571/3/2
f 568/3/2 570/3/2 574/3/2
f 570/14/2 571/14/2 574/14/2
f 574/14/2 571/14/2 575/14/2
f 572/12/2 573/12/2 576/12/2
f 576/12/2 573/12/2 577/12/2
f 568/3/2 574/3/2 578/3/2
f 574/3/2 575/3/2 578/3/2
f 578/3/2 575/3/2 579/3/2
f 565/4/2 566/4/2 580/4/2
f 580/4/2 566/4/2 581/4/2
f 582/4/2 583/4/2 584/4/2
f 584/4/2 583/4/2 585/4/2
f 585/4/2 583/4/2 586/4/2
f 586/4/2 583/4/2 587/4/2
f 585/1/2 586/1/2 590/1/2
f 590/1/2 586/1/2 591/1/2
f 588/1/2 589/1/2 595/1/2
f 595/1/2 589/1/2 596/1/2
f 592/1/2 593/1/2 597/1/2
f 597/1/2 593/1/2 598/1/2
f 594/1/2 595/1/2 602/1/2
f 602/1/2 595/1/2 603/1/2
f 598/1/2 599/1/2 604/1/2
f 604/1/2 599/1/2 605/1/2
f 600/6/2 601/6/2 607/6/2
f 601/1/2 602/1/2 607/1/2
f 607/1/2 602/1/2 608/1/2
f 605/1/2 606/1/2 609/1/2
f 609/1/2 606/1/2 610/1/2
f 600/6/2 607/6/2 611/6/2
f 600/6/2 611/6/2 613/6/2
f 611/1/2 612/1/2 614/1/2
f 613/6/2 611/6/2 614/6/2
f 614/1/2 612/1/2 615/1/2
f 615/1/2 616/1/2 617/1/2
f 617/1/2 616/1/2 618/1/2
f 618/1/2 619/1/2 620/1/2
f 620/1/2 619/1/2 621/1/2
f 622/1/2 623/1/2 624/1/2
f 624/1/2 623/1/2 625/1/2
f 626/4/2 627/4/2 628/4/2
f 626/4/2 628/4/2 630/4/2
f 628/3/2 629/3/2 631/3/2
f 630/4/2 628/4/2 631/4/2
f 630/3/2 631/3/2 632/3/2
f 631/3/2 629/3/2 632/3/2
f 632/3/2 629/3/2 633/3/2
f 630/3/2 632/3/2 634/3/2
f 633/3/2 629/3/2 635/3/2
f 630/3/2 634/3/2 636/3/2
f 634/3/2 635/3/2 636/3/2
f 636/3/2 635/3/2 637/3/2
f 635/3/2 629/3/2 638/3/2
f 637/3/2 635/3/2 638/3/2
f 639/1/2 640/1/2 644/1/2
f 644/1/2 640/1/2 645/1/2
f 641/1/2 642/1/2 646/1/2
f 646/1/2 642/1/2 647/1/2
f 643/1/2 644/1/2 650/1/2
f 650/1/2 644/1/2 651/1/2
f 647/1/2 648/1/2 652/1/2
f 652/1/2 648/1/2 653/1/2
f 649/1/2 650/1/2 656/1/2
f 656/1/2 650/1/2 657/1/2
f 653/1/2 654/1/2 658/1/2
f 658/1/2 654/1/2 659/1/2
f 655/1/2 656/1/2 661/1/2
f 661/1/2 656/1/2 662/1/2
f 659/1/2 660/1/2 664/1/2
f 664/1/2 660/1/2 665/1/2
f 662/1/2 663/1/2 666/1/2
f 666/1/2 663/1/2 667/1/2
f 667/1/2 668/1/2 669/1/2
f 669/1/2 668/1/2 670/1/2
f 670/1/2 671/1/2 672/1/2
f 672/1/2 671/1/2 673/1/2
f 674/4/2 675/4/2 676/4/2
f 676/4/2 675/4/2 677/4/2
f 676/1/2 677/1/2 678/1/2
f 678/1/2 677/1/2 679/1/2
f 680/1/2 681/1/2 683/1/2
f 683/1/2 681/1/2 684/1/2
f 682/7/2 683/7/2 685/7/2
f 683/7/2 684/7/2 685/7/2
f 685/7/2 684/7/2 686/7/2
f 686/7/2 684/7/2 687/7/2
f 686/1/2 687/1/2 688/1/2
f 688/1/2 687/1/2 689/1/2
f 688/4/2 689/4/2 691/4/2
f 691/4/2 689/4/2 692/4/2
f 691/1/2 692/1/2 694/1/2
f 692/1/2 693/1/2 694/1/2
f 690/1/2 691/1/2 694/1/2
f 694/1/2 693/1/2 695/1/2
f 695/1/2 693/1/2 698/1/2
f 696/1/2 697/1/2 699/1/2
f 699/1/2 697/1/2 700/1/2
f 698/1/2 693/1/2 701/1/2
f 701/1/2 693/1/2 702/1/2
f 703/1/2 704/1/2 706/1/2
f 706/1/2 704/1/2 707/1/2
f 705/1/2 706/1/2 710/1/2
f 707/1/2 708/1/2 710/1/2
f 706/1/2 707/1/2 710/1/2
f 710/1/2 708/1/2 711/1/2
f 711/1/2 708/1/2 712/1/2
f 712/1/2 708/1/2 713/1/2
f 709/1/2 710/1/2 715/1/2
f 710/1/2 711/1/2 715/1/2
f 715/1/2 711/1/2 716/1/2
f 713/1/2 714/1/2 717/1/2
f 712/1/2 713/1/2 717/1/2
f 717/1/2 714/1/2 718/1/2
f 709/1/2 715/1/2 720/1/2
f 720/1/2 715/1/2 721/1/2
f 718/1/2 714/1/2 722/1/2
f 722/1/2 714/1/2 723/1/2
f 719/1/2 720/1/2 725/1/2
f 725/1/2 720/1/2 726/1/2
f 723/1/2 724/1/2 729/1/2
f 729/1/2 724/1/2 730/1/2
f 726/1/2 727/1/2 732/1/2
f 729/1/2 730/1/2 735/1/2
f 730/1/2 731/1/2 735/1/2
f 728/1/2 729/1/2 735/1/2
f 732/1/2 733/1/2 736/1/2
f 726/1/2 732/1/2 736/1/2
f 736/1/2 733/1/2 737/1/2
f 737/1/2 733/1/2 738/1/2
f 734/1/2 735/1/2 739/1/2
f 735/1/2 731/1/2 740/1/2
f 739/1/2 735/1/2 740/1/2
f 740/1/2 731/1/2 741/1/2
f 737/1/2 738/1/2 742/1/2
f 738/1/2 739/1/2 742/1/2
f 739/1/2 740/1/2 742/1/2
f 742/1/2 740/1/2 743/1/2
f 744/13/2 745/13/2 747/13/2
f 747/13/2 745/13/2 748/13/2
f 745/9/2 746/9/2 749/9/2
f 748/13/2 745/13/2 749/13/2
f 748/9/2 749/9/2 750/9/2
f 749/9/2 746/9/2 751/9/2
f 750/9/2 749/9/2 751/9/2
f 752/7/2 753/7/2 754/7/2
f 754/7/2 753/7/2 755/7/2
f 752/7/2 754/7/2 756/7/2
f 756/7/2 754/7/2 757/7/2
f 755/7/2 753/7/2 758/7/2
f 758/7/2 753/7/2 759/7/2
f 762/7/2 763/7/2 766/7/2
f 764/7/2 765/7/2 769/7/2
f 766/7/2 767/7/2 770/7/2
f 762/7/2 766/7/2 770/7/2
f 770/7/2 767/7/2 771/7/2
f 771/7/2 767/7/2 772/7/2
f 768/7/2 769/7/2 773/7/2
f 769/7/2 765/7/2 774/7/2
f 773/7/2 769/7/2 774/7/2
f 760/15/2 761/15/2 775/15/2
f 775/15/2 761/15/2 776/15/2
f 771/2/2 772/2/2 777/2/2
f 773/2/2 774/2/2 778/2/2
f 771/2/2 777/2/2 779/2/2
f 777/2/2 778/2/2 779/2/2
f 778/2/2 774/2/2 780/2/2
f 779/2/2 778/2/2 780/2/2
f 781/1/2 782/1/2 783/1/2
f 783/1/2 782/1/2 784/1/2
f 784/1/2 785/1/2 786/1/2
f 786/1/2 785/1/2 787/1/2
f 787/1/2 788/1/2 790/1/2
f 790/1/2 788/1/2 791/1/2
f 789/1/2 790/1/2 793/1/2
f 793/1/2 790/1/2 794/1/2
f 792/1/2 793/1/2 795/1/2
f 795/1/2 793/1/2 796/1/2
f 797/8/2 798/8/2 801/8/2
f 801/8/2 798/8/2 802/8/2
f 799/8/2 800/8/2 803/8/2
f 803/8/2 800/8/2 804/8/2
f 805/7/2 806/7/2 807/7/2
f 807/7/2 806/7/2 808/7/2
f 809/9/2 810/9/2 811/9/2
f 811/9/2 810/9/2 812/9/2
f 812/9/2 810/9/2 813/9/2
f 812/4/2 813/4/2 814/4/2
f 814/4/2 813/4/2 815/4/2
f 814/1/2 815/1/2 817/1/2
f 817/1/2 815/1/2 818/1/2
f 816/7/2 817/7/2 819/7/2
f 817/7/2 818/7/2 819/7/2
f 819/7/2 818/7/2 820/7/2
f 819/1/2 820/1/2 821/1/2
f 821/1/2 820/1/2 822/1/2
f 821/4/2 822/4/2 823/4/2
f 823/4/2 822/4/2 824/4/2
f 823/1/2 824/1/2 825/1/2
f 825/1/2 824/1/2 826/1/2
f 823/1/2 825/1/2 827/1/2
f 827/1/2 825/1/2 828/1/2
f 826/1/2 824/1/2 829/1/2
f 829/1/2 824/1/2 830/1/2
f 831/4/2 832/4/2 833/4/2
f 833/4/2 832/4/2 834/4/2
f 831/4/2 833/4/2 835/4/2
f 833/10/2 834/10/2 835/10/2
f 834/4/2 832/4/2 836/4/2
f 835/10/2 834/10/2 836/10/2
f 831/4/2 835/4/2 837/4/2
f 835/4/2 836/4/2 837/4/2
f 836/4/2 832/4/2 838/4/2
f 837/4/2 836/4/2 838/4/2
f 839/7/2 840/7/2 841/7/2
f 841/7/2 840/7/2 842/7/2
f 841/2/2 842/2/2 843/2/2
f 843/2/2 842/2/2 844/2/2
f 849/10/3 848/10/3 847/10/3
f 850/10/3 848/10/3 849/10/3
f 851/13/3 846/13/3 845/13/3
f 852/13/3 846/13/3 851/13/3
f 857/11/3 854/11/3 853/11/3
f 858/11/3 854/11/3 857/11/3
f 861/12/3 860/12/3 859/12/3
f 862/12/3 860/12/3 861/12/3
f 863/13/3 856/13/3 855/13/3
f 864/13/3 856/13/3 863/13/3
f 867/4/3 866/4/3 865/4/3
f 868/4/3 866/4/3 867/4/3
f 869/4/3 867/4/3 865/4/3
f 871/4/3 869/4/3 865/4/3
f 871/4/3 870/4/3 869/4/3
f 872/4/3 870/4/3 871/4/3
f 873/4/3 871/4/3 865/4/3
f 875/4/3 873/4/3 865/4/3
f 875/4/3 874/4/3 873/4/3
f 876/4/3 874/4/3 875/4/3
f 877/4/3 874/4/3 876/4/3
f 878/4/3 874/4/3 877/4/3
f 886/3/3 882/3/3 881/3/3
f 887/3/3 882/3/3 886/3/3
f 888/5/3 885/5/3 884/5/3
f 888/6/3 884/6/3 883/6/3
f 889/5/3 885/5/3 888/5/3
f 890/5/3 885/5/3 889/5/3
f 890/6/3 889/6/3 888/6/3
f 891/5/3 885/5/3 890/5/3
f 892/9/3 880/9/3 879/9/3
f 893/9/3 880/9/3 892/9/3
f 894/5/3 885/5/3 891/5/3
f 894/6/3 891/6/3 890/6/3
f 895/5/3 885/5/3 894/5/3
f 898/6/3 888/6/3 883/6/3
f 898/6/3 890/6/3 888/6/3
f 898/6/3 895/6/3 894/6/3
f 898/6/3 894/6/3 890/6/3
f 899/6/3 895/6/3 898/6/3
f 900/6/3 898/6/3 883/6/3
f 900/1/3 899/1/3 898/1/3
f 901/6/3 895/6/3 899/6/3
f 901/1/3 899/1/3 900/1/3
f 902/6/3 895/6/3 901/6/3
f 903/3/3 886/3/3 881/3/3
f 904/3/3 882/3/3 887/3/3
f 905/6/3 901/6/3 900/6/3
f 905/1/3 902/1/3 901/1/3
f 906/6/3 895/6/3 902/6/3
f 906/1/3 902/1/3 905/1/3
f 907/3/3 903/3/3 881/3/3
f 907/3/3 904/3/3 903/3/3
f 908/3/3 882/3/3 904/3/3
f 908/3/3 904/3/3 907/3/3
f 909/6/3 905/6/3 900/6/3
f 909/6/3 900/6/3 883/6/3
f 909/6/3 906/6/3 905/6/3
f 910/6/3 895/6/3 906/6/3
f 910/6/3 906/6/3 909/6/3
f 911/9/3 897/9/3 896/9/3
f 912/9/3 897/9/3 911/9/3
f 917/1/3 916/1/3 915/1/3
f 918/1/3 916/1/3 917/1/3
f 919/1/3 916/1/3 918/1/3
f 924/7/3 914/7/3 913/7/3
f 925/7/3 914/7/3 924/7/3
f 926/1/3 923/1/3 922/1/3
f 929/1/3 921/1/3 920/1/3
f 930/1/3 921/1/3 929/1/3
f 931/1/3 923/1/3 926/1/3
f 932/1/3 923/1/3 931/1/3
f 935/1/3 934/1/3 933/1/3
f 936/1/3 934/1/3 935/1/3
f 937/7/3 928/7/3 927/7/3
f 938/7/3 928/7/3 937/7/3
f 942/7/3 940/7/3 939/7/3
f 943/7/3 940/7/3 942/7/3
f 949/1/3 942/1/3 941/1/3
f 950/1/3 942/1/3 949/1/3
f 951/7/3 943/7/3 942/7/3
f 951/1/3 942/1/3 950/1/3
f 952/1/3 944/1/3 943/1/3
f 952/7/3 943/7/3 951/7/3
f 954/1/3 946/1/3 945/1/3
f 955/1/3 946/1/3 954/1/3
f 957/1/3 951/1/3 950/1/3
f 957/1/3 952/1/3 951/1/3
f 958/1/3 952/1/3 957/1/3
f 960/1/3 954/1/3 953/1/3
f 961/1/3 954/1/3 960/1/3
f 962/1/3 956/1/3 955/1/3
f 963/1/3 956/1/3 962/1/3
f 965/7/3 948/7/3 947/7/3
f 966/7/3 948/7/3 965/7/3
f 968/1/3 960/1/3 959/1/3
f 969/1/3 960/1/3 968/1/3
f 970/1/3 964/1/3 963/1/3
f 971/1/3 964/1/3 970/1/3
f 973/1/3 968/1/3 967/1/3
f 974/1/3 968/1/3 973/1/3
f 977/1/3 972/1/3 971/1/3
f 978/1/3 972/1/3 977/1/3
f 981/1/3 957/1/3 950/1/3
f 984/1/3 952/1/3 958/1/3
f 985/1/3 975/1/3 974/1/3
f 986/1/3 975/1/3 985/1/3
f 989/1/3 977/1/3 976/1/3
f 990/1/3 977/1/3 989/1/3
f 991/4/3 950/4/3 949/4/3
f 992/1/3 984/1/3 983/1/3
f 992/4/3 950/4/3 991/4/3
f 992/1/3 983/1/3 982/1/3
f 992/1/3 981/1/3 950/1/3
f 992/1/3 982/1/3 981/1/3
f 993/1/3 984/1/3 992/1/3
f 994/1/3 944/1/3 952/1/3
f 994/1/3 984/1/3 993/1/3
f 994/1/3 952/1/3 984/1/3
f 995/1/3 987/1/3 986/1/3
f 996/1/3 987/1/3 995/1/3
f 997/1/3 989/1/3 988/1/3
f 998/1/3 989/1/3 997/1/3
f 999/7/3 980/7/3 979/7/3
f 1000/7/3 980/7/3 999/7/3
f 1001/1/3 993/1/3 992/1/3
f 1001/1/3 992/1/3 991/1/3
f 1002/7/3 994/7/3 993/7/3
f 1002/1/3 993/1/3 1001/1/3
f 1003/1/3 944/1/3 994/1/3
f 1003/7/3 994/7/3 1002/7/3
f 1004/1/3 944/1/3 1003/1/3
f 1005/1/3 997/1/3 996/1/3
f 1006/1/3 997/1/3 1005/1/3
f 1007/7/3 1003/7/3 1002/7/3
f 1008/7/3 1003/7/3 1007/7/3
f 1012/4/3 1010/4/3 1009/4/3
f 1013/4/3 1010/4/3 1012/4/3
f 1014/4/3 1010/4/3 1013/4/3
f 1021/9/3 1012/9/3 1011/9/3
f 1022/4/3 1013/4/3 1012/4/3
f 1022/9/3 1012/9/3 1021/9/3
f 1023/1/3 1014/1/3 1013/1/3
f 1023/4/3 1013/4/3 1022/4/3
f 1024/7/3 1015/7/3 1014/7/3
f 1024/1/3 1014/1/3 1023/1/3
f 1025/1/3 1016/1/3 1015/1/3
f 1025/7/3 1015/7/3 1024/7/3
f 1026/4/3 1017/4/3 1016/4/3
f 1026/1/3 1016/1/3 1025/1/3
f 1027/1/3 1018/1/3 1017/1/3
f 1027/4/3 1017/4/3 1026/4/3
f 1028/1/3 1018/1/3 1027/1/3
f 1029/1/3 1018/1/3 1028/1/3
f 1032/2/3 1031/2/3 1030/2/3
f 1033/2/3 1031/2/3 1032/2/3
f 1035/8/3 1020/8/3 1019/8/3
f 1036/8/3 1020/8/3 1035/8/3
f 1047/1/3 1035/1/3 1034/1/3
f 1048/1/3 1035/1/3 1047/1/3
f 1049/1/3 1037/1/3 1036/1/3
f 1050/1/3 1037/1/3 1049/1/3
f 1052/2/3 1031/2/3 1033/2/3
f 1053/2/3 1031/2/3 1052/2/3
f 1056/1/3 1047/1/3 1046/1/3
f 1057/1/3 1047/1/3 1056/1/3
f 1058/1/3 1051/1/3 1050/1/3
f 1059/1/3 1051/1/3 1058/1/3
f 1061/1/3 1042/1/3 1041/1/3
f 1062/1/3 1044/1/3 1043/1/3
f 1063/4/3 1054/4/3 1053/4/3
f 1063/4/3 1053/4/3 1052/4/3
f 1064/1/3 1056/1/3 1055/1/3
f 1065/1/3 1056/1/3 1064/1/3
f 1066/1/3 1060/1/3 1059/1/3
f 1067/1/3 1060/1/3 1066/1/3
f 1069/4/3 1039/4/3 1038/4/3
f 1070/1/3 1040/1/3 1039/1/3
f 1070/4/3 1039/4/3 1069/4/3
f 1071/1/3 1040/1/3 1070/1/3
f 1072/1/3 1061/1/3 1041/1/3
f 1072/1/3 1062/1/3 1061/1/3
f 1073/4/3 1045/4/3 1044/4/3
f 1073/1/3 1062/1/3 1072/1/3
f 1073/1/3 1044/1/3 1062/1/3
f 1074/4/3 1045/4/3 1073/4/3
f 1081/1/3 1064/1/3 1063/1/3
f 1081/4/3 1063/4/3 1052/4/3
f 1082/1/3 1064/1/3 1081/1/3
f 1085/1/3 1068/1/3 1067/1/3
f 1086/1/3 1068/1/3 1085/1/3
f 1087/1/3 1079/1/3 1078/1/3
f 1088/1/3 1079/1/3 1087/1/3
f 1089/4/3 1081/4/3 1052/4/3
f 1090/4/3 1081/4/3 1089/4/3
f 1091/4/3 1081/4/3 1090/4/3
f 1092/1/3 1083/1/3 1082/1/3
f 1093/1/3 1083/1/3 1092/1/3
f 1096/1/3 1085/1/3 1084/1/3
f 1097/1/3 1085/1/3 1096/1/3
f 1098/4/3 1080/4/3 1079/4/3
f 1099/1/3 1094/1/3 1093/1/3
f 1100/1/3 1094/1/3 1099/1/3
f 1103/1/3 1096/1/3 1095/1/3
f 1104/1/3 1096/1/3 1103/1/3
f 1105/4/3 1076/4/3 1075/4/3
f 1106/1/3 1077/1/3 1076/1/3
f 1106/4/3 1076/4/3 1105/4/3
f 1107/1/3 1077/1/3 1106/1/3
f 1108/1/3 1087/1/3 1078/1/3
f 1109/1/3 1087/1/3 1108/1/3
f 1110/1/3 1079/1/3 1088/1/3
f 1111/4/3 1098/4/3 1079/4/3
f 1111/1/3 1079/1/3 1110/1/3
f 1112/4/3 1098/4/3 1111/4/3
f 1114/2/3 1090/2/3 1089/2/3
f 1115/1/3 1101/1/3 1100/1/3
f 1116/1/3 1101/1/3 1115/1/3
f 1117/1/3 1103/1/3 1102/1/3
f 1118/1/3 1103/1/3 1117/1/3
f 1129/2/3 1114/2/3 1113/2/3
f 1130/2/3 1090/2/3 1114/2/3
f 1130/2/3 1114/2/3 1129/2/3
f 1131/8/3 1117/8/3 1116/8/3
f 1132/8/3 1117/8/3 1131/8/3
f 1133/9/3 1120/9/3 1119/9/3
f 1133/9/3 1121/9/3 1120/9/3
f 1134/4/3 1122/4/3 1121/4/3
f 1134/9/3 1121/9/3 1133/9/3
f 1135/1/3 1123/1/3 1122/1/3
f 1135/4/3 1122/4/3 1134/4/3
f 1136/7/3 1124/7/3 1123/7/3
f 1136/1/3 1123/1/3 1135/1/3
f 1137/1/3 1125/1/3 1124/1/3
f 1137/7/3 1124/7/3 1136/7/3
f 1138/4/3 1126/4/3 1125/4/3
f 1138/1/3 1125/1/3 1137/1/3
f 1139/1/3 1128/1/3 1127/1/3
f 1139/4/3 1126/4/3 1138/4/3
f 1139/1/3 1127/1/3 1126/1/3
f 1140/1/3 1128/1/3 1139/1/3
f 1141/4/3 1136/4/3 1135/4/3
f 1141/4/3 1135/4/3 1134/4/3
f 1142/4/3 1136/4/3 1141/4/3
f 1146/7/3 1144/7/3 1143/7/3
f 1147/7/3 1144/7/3 1146/7/3
f 1148/7/3 1144/7/3 1147/7/3
f 1149/2/3 1145/2/3 1144/2/3
f 1149/7/3 1144/7/3 1148/7/3
f 1152/7/3 1151/7/3 1150/7/3
f 1153/7/3 1151/7/3 1152/7/3
f 1154/2/3 1149/2/3 1148/2/3
f 1155/2/3 1145/2/3 1149/2/3
f 1155/2/3 1149/2/3 1154/2/3
f 1156/2/3 1145/2/3 1155/2/3
f 1159/7/3 1152/7/3 1150/7/3
f 1160/7/3 1152/7/3 1159/7/3
f 1161/7/3 1151/7/3 1153/7/3
f 1162/7/3 1151/7/3 1161/7/3
f 1166/1/3 1158/1/3 1157/1/3
f 1167/1/3 1158/1/3 1166/1/3
f 1168/1/3 1164/1/3 1163/1/3
f 1169/1/3 1164/1/3 1168/1/3
f 1171/1/3 1166/1/3 1165/1/3
f 1172/1/3 1166/1/3 1171/1/3
f 1173/1/3 1170/1/3 1169/1/3
f 1174/1/3 1170/1/3 1173/1/3
f 1179/1/3 1176/1/3 1175/1/3
f 1180/1/3 1176/1/3 1179/1/3
f 1181/1/3 1178/1/3 1177/1/3
f 1182/1/3 1178/1/3 1181/1/3
f 1187/1/3 1184/1/3 1183/1/3
f 1188/1/3 1184/1/3 1187/1/3
f 1189/1/3 1186/1/3 1185/1/3
f 1190/1/3 1186/1/3 1189/1/3
f 1195/1/3 1192/1/3 1191/1/3
f 1196/1/3 1192/1/3 1195/1/3
f 1199/1/3 1194/1/3 1193/1/3
f 1200/1/3 1194/1/3 1199/1/3
f 1201/1/3 1197/1/3 1196/1/3
f 1202/1/3 1197/1/3 1201/1/3
f 1207/1/3 1199/1/3 1198/1/3
f 1208/1/3 1199/1/3 1207/1/3
f 1212/7/3 1204/7/3 1203/7/3
f 1213/7/3 1206/7/3 1205/7/3
f 1214/7/3 1212/7/3 1203/7/3
f 1214/7/3 1213/7/3 1212/7/3
f 1215/7/3 1206/7/3 1213/7/3
f 1215/7/3 1213/7/3 1214/7/3
f 1216/2/3 1211/2/3 1210/2/3
f 1216/2/3 1210/2/3 1209/2/3
f 1217/2/3 1211/2/3 1216/2/3
f 1219/7/3 1217/7/3 1216/7/3
f 1220/7/3 1219/7/3 1218/7/3
f 1221/2/3 1211/2/3 1217/2/3
f 1221/7/3 1219/7/3 1220/7/3
f 1221/7/3 1217/7/3 1219/7/3
f 1222/2/3 1211/2/3 1221/2/3
f 1227/1/3 1224/1/3 1223/1/3
f 1228/1/3 1224/1/3 1227/1/3
f 1229/1/3 1226/1/3 1225/1/3
f 1230/1/3 1226/1/3 1229/1/3
f 1235/1/3 1232/1/3 1231/1/3
f 1236/1/3 1232/1/3 1235/1/3
f 1237/1/3 1234/1/3 1233/1/3
f 1238/1/3 1234/1/3 1237/1/3
f 1241/1/3 1240/1/3 1239/1/3
f 1242/1/3 1240/1/3 1241/1/3
f 1247/1/3 1244/1/3 1243/1/3
f 1248/1/3 1244/1/3 1247/1/3
f 1249/1/3 1246/1/3 1245/1/3
f 1250/1/3 1246/1/3 1249/1/3
f 1255/1/3 1252/1/3 1251/1/3
f 1256/1/3 1252/1/3 1255/1/3
f 1257/1/3 1254/1/3 1253/1/3
f 1258/1/3 1254/1/3 1257/1/3
f 1261/1/3 1260/1/3 1259/1/3
f 1262/1/3 1260/1/3 1261/1/3
f 1265/1/3 1264/1/3 1263/1/3
f 1266/1/3 1264/1/3 1265/1/3
f 1269/1/3 1268/1/3 1267/1/3
f 1270/1/3 1268/1/3 1269/1/3
f 1273/1/3 1272/1/3 1271/1/3
f 1274/1/3 1272/1/3 1273/1/3
f 1277/3/3 1276/3/3 1275/3/3
f 1278/3/3 1276/3/3 1277/3/3
f 1281/15/3 1280/15/3 1279/15/3
f 1282/15/3 1280/15/3 1281/15/3
f 1283/15/3 1280/15/3 1282/15/3
f 1284/15/3 1280/15/3 1283/15/3
f 1285/15/3 1282/15/3 1281/15/3
f 1286/3/3 1283/3/3 1282/3/3
f 1286/15/3 1282/15/3 1285/15/3
f 1287/3/3 1283/3/3 1286/3/3
f 1290/15/3 1289/15/3 1288/15/3
f 1291/15/3 1289/15/3 1290/15/3
f 1294/3/3 1293/3/3 1292/3/3
f 1295/3/3 1293/3/3 1294/3/3
f 1298/9/3 1297/9/3 1296/9/3
f 1299/9/3 1297/9/3 1298/9/3
f 1300/12/4 1301/12/4 1302/12/4
f 1302/12/4 1301/12/4 1303/12/4
f 1304/4/4 1305/4/4 1306/4/4
f 1306/4/4 1305/4/4 1307/4/4
f 1307/4/4 1305/4/4 1308/4/4
f 1309/4/4 1310/4/4 1312/4/4
f 1310/4/4 1311/4/4 1312/4/4
f 1312/4/4 1311/4/4 1313/4/4
f 1314/1/4 1315/1/4 1316/1/4
f 1316/1/4 1315/1/4 1317/1/4
f 1318/1/4 1319/1/4 1320/1/4
f 1320/1/4 1319/1/4 1321/1/4
f 1322/1/4 1323/1/4 1324/1/4
f 1324/1/4 1323/1/4 1325/1/4
f 1326/1/4 1327/1/4 1328/1/4
f 1328/1/4 1327/1/4 1329/1/4
f 1330/7/4 1331/7/4 1333/7/4
f 1333/7/4 1331/7/4 1334/7/4
f 1334/7/4 1331/7/4 1335/7/4
f 1331/2/4 1332/2/4 1336/2/4
f 1335/7/4 1331/7/4 1336/7/4
f 1337/7/4 1338/7/4 1339/7/4
f 1339/7/4 1338/7/4 1340/7/4
f 1335/2/4 1336/2/4 1341/2/4
f 1336/2/4 1332/2/4 1342/2/4
f 1341/2/4 1336/2/4 1342/2/4
f 1342/2/4 1332/2/4 1343/2/4
f 1337/7/4 1339/7/4 1345/7/4
f 1345/7/4 1339/7/4 1346/7/4
f 1340/7/4 1338/7/4 1347/7/4
f 1347/7/4 1338/7/4 1348/7/4
f 1344/1/4 1345/1/4 1350/1/4
f 1350/1/4 1345/1/4 1351/1/4
f 1348/1/4 1349/1/4 1352/1/4
f 1352/1/4 1349/1/4 1353/1/4
f 1354/1/4 1355/1/4 1358/1/4
f 1358/1/4 1355/1/4 1359/1/4
f 1356/1/4 1357/1/4 1360/1/4
f 1360/1/4 1357/1/4 1361/1/4
f 1362/1/4 1363/1/4 1364/1/4
f 1364/1/4 1363/1/4 1365/1/4
f 1366/1/4 1367/1/4 1370/1/4
f 1370/1/4 1367/1/4 1371/1/4
f 1368/1/4 1369/1/4 1372/1/4
f 1372/1/4 1369/1/4 1373/1/4
f 1374/1/4 1375/1/4 1381/1/4
f 1381/1/4 1375/1/4 1382/1/4
f 1376/1/4 1377/1/4 1385/1/4
f 1385/1/4 1377/1/4 1386/1/4
f 1382/7/4 1383/7/4 1387/7/4
f 1384/7/4 1385/7/4 1388/7/4
f 1382/7/4 1387/7/4 1389/7/4
f 1387/7/4 1388/7/4 1389/7/4
f 1388/7/4 1385/7/4 1390/7/4
f 1389/7/4 1388/7/4 1390/7/4
f 1379/2/4 1380/2/4 1391/2/4
f 1378/2/4 1379/2/4 1391/2/4
f 1391/2/4 1380/2/4 1392/2/4
f 1391/7/4 1392/7/4 1394/7/4
f 1393/7/4 1394/7/4 1395/7/4
f 1392/2/4 1380/2/4 1396/2/4
f 1395/7/4 1394/7/4 1396/7/4
f 1394/7/4 1392/7/4 1396/7/4
f 1396/2/4 1380/2/4 1397/2/4
f 1398/9/4 1399/9/4 1408/9/4
f 1399/4/4 1400/4/4 1409/4/4
f 1408/9/4 1399/9/4 1409/9/4
f 1400/1/4 1401/1/4 1410/1/4
f 1409/4/4 1400/4/4 1410/4/4
f 1401/7/4 1402/7/4 1411/7/4
f 1410/1/4 1401/1/4 1411/1/4
f 1402/1/4 1403/1/4 1412/1/4
f 1411/7/4 1402/7/4 1412/7/4
f 1403/4/4 1404/4/4 1413/4/4
f 1412/1/4 1403/1/4 1413/1/4
f 1404/1/4 1405/1/4 1414/1/4
f 1413/4/4 1404/4/4 1414/4/4
f 1414/1/4 1405/1/4 1415/1/4
f 1415/1/4 1405/1/4 1416/1/4
f 1406/8/4 1407/8/4 1418/8/4
f 1418/8/4 1407/8/4 1419/8/4
f 1417/1/4 1418/1/4 1423/1/4
f 1423/1/4 1418/1/4 1424/1/4
f 1419/1/4 1420/1/4 1425/1/4
f 1425/1/4 1420/1/4 1426/1/4
f 1421/1/4 1422/1/4 1428/1/4
f 1428/1/4 1422/1/4 1429/1/4
f 1427/1/4 1428/1/4 1430/1/4
f 1430/1/4 1428/1/4 1431/1/4
f 1432/1/4 1433/1/4 1436/1/4
f 1436/1/4 1433/1/4 1437/1/4
f 1434/1/4 1435/1/4 1438/1/4
f 1438/1/4 1435/1/4 1439/1/4
f 1440/1/4 1441/1/4 1444/1/4
f 1444/1/4 1441/1/4 1445/1/4
f 1442/1/4 1443/1/4 1446/1/4
f 1446/1/4 1443/1/4 1447/1/4
f 1448/1/4 1449/1/4 1450/1/4
f 1450/1/4 1449/1/4 1451/1/4
f 1451/1/4 1452/1/4 1453/1/4
f 1453/1/4 1452/1/4 1454/1/4
f 1455/1/4 1456/1/4 1469/1/4
f 1469/1/4 1456/1/4 1470/1/4
f 1457/1/4 1458/1/4 1471/1/4
f 1471/1/4 1458/1/4 1472/1/4
f 1470/8/4 1471/8/4 1473/8/4
f 1473/8/4 1471/8/4 1474/8/4
f 1459/9/4 1460/9/4 1475/9/4
f 1460/9/4 1461/9/4 1475/9/4
f 1461/4/4 1462/4/4 1476/4/4
f 1475/9/4 1461/9/4 1476/9/4
f 1462/1/4 1463/1/4 1477/1/4
f 1476/4/4 1462/4/4 1477/4/4
f 1463/7/4 1464/7/4 1478/7/4
f 1477/1/4 1463/1/4 1478/1/4
f 1464/1/4 1465/1/4 1479/1/4
f 1478/7/4 1464/7/4 1479/7/4
f 1465/4/4 1466/4/4 1480/4/4
f 1479/1/4 1465/1/4 1480/1/4
f 1467/1/4 1468/1/4 1481/1/4
f 1480/4/4 1466/4/4 1481/4/4
f 1466/1/4 1467/1/4 1481/1/4
f 1481/1/4 1468/1/4 1482/1/4
f 1483/7/4 1484/7/4 1488/7/4
f 1484/2/4 1485/2/4 1489/2/4
f 1488/7/4 1484/7/4 1489/7/4
f 1489/2/4 1485/2/4 1490/2/4
f 1486/1/4 1487/1/4 1492/1/4
f 1492/1/4 1487/1/4 1493/1/4
f 1491/1/4 1492/1/4 1503/1/4
f 1503/1/4 1492/1/4 1504/1/4
f 1490/2/4 1485/2/4 1505/2/4
f 1505/2/4 1485/2/4 1506/2/4
f 1502/1/4 1503/1/4 1509/1/4
f 1509/1/4 1503/1/4 1510/1/4
f 1497/1/4 1498/1/4 1511/1/4
f 1498/7/4 1499/7/4 1511/7/4
f 1499/1/4 1500/1/4 1512/1/4
f 1511/7/4 1499/7/4 1512/7/4
f 1506/4/4 1507/4/4 1513/4/4
f 1505/4/4 1506/4/4 1513/4/4
f 1508/1/4 1509/1/4 1514/1/4
f 1514/1/4 1509/1/4 1515/1/4
f 1494/4/4 1495/4/4 1518/4/4
f 1495/1/4 1496/1/4 1519/1/4
f 1518/4/4 1495/4/4 1519/4/4
f 1519/1/4 1496/1/4 1520/1/4
f 1497/1/4 1511/1/4 1521/1/4
f 1511/1/4 1512/1/4 1521/1/4
f 1500/4/4 1501/4/4 1522/4/4
f 1521/1/4 1512/1/4 1522/1/4
f 1512/1/4 1500/1/4 1522/1/4
f 1522/4/4 1501/4/4 1523/4/4
f 1513/1/4 1514/1/4 1530/1/4
f 1505/4/4 1513/4/4 1530/4/4
f 1530/1/4 1514/1/4 1531/1/4
f 1516/1/4 1517/1/4 1533/1/4
f 1533/1/4 1517/1/4 1534/1/4
f 1527/1/4 1528/1/4 1535/1/4
f 1535/1/4 1528/1/4 1536/1/4
f 1505/4/4 1530/4/4 1537/4/4
f 1537/4/4 1530/4/4 1538/4/4
f 1538/4/4 1530/4/4 1539/4/4
f 1531/1/4 1532/1/4 1540/1/4
f 1540/1/4 1532/1/4 1541/1/4
f 1528/4/4 1529/4/4 1543/4/4
f 1541/1/4 1542/1/4 1544/1/4
f 1544/1/4 1542/1/4 1545/1/4
f 1524/4/4 1525/4/4 1547/4/4
f 1525/1/4 1526/1/4 1548/1/4
f 1547/4/4 1525/4/4 1548/4/4
f 1548/1/4 1526/1/4 1549/1/4
f 1527/1/4 1535/1/4 1550/1/4
f 1535/7/4 1536/7/4 1551/7/4
f 1550/1/4 1535/1/4 1551/1/4
f 1536/1/4 1528/1/4 1552/1/4
f 1551/7/4 1536/7/4 1552/7/4
f 1528/4/4 1543/4/4 1553/4/4
f 1552/1/4 1528/1/4 1553/1/4
f 1553/4/4 1543/4/4 1554/4/4
f 1537/2/4 1538/2/4 1557/2/4
f 1545/1/4 1546/1/4 1558/1/4
f 1558/1/4 1546/1/4 1559/1/4
f 1555/7/4 1556/7/4 1561/7/4
f 1556/2/4 1557/2/4 1562/2/4
f 1561/7/4 1556/7/4 1562/7/4
f 1557/2/4 1538/2/4 1563/2/4
f 1562/2/4 1557/2/4 1563/2/4
f 1559/1/4 1560/1/4 1564/1/4
f 1564/1/4 1560/1/4 1565/1/4
f 1568/1/4 1569/1/4 1574/1/4
f 1574/1/4 1569/1/4 1575/1/4
f 1575/1/4 1569/1/4 1576/1/4
f 1576/1/4 1569/1/4 1577/1/4
f 1577/1/4 1569/1/4 1578/1/4
f 1570/1/4 1571/1/4 1580/1/4
f 1580/1/4 1571/1/4 1581/1/4
f 1572/1/4 1573/1/4 1582/1/4
f 1576/1/4 1577/1/4 1584/1/4
f 1584/1/4 1577/1/4 1585/1/4
f 1579/1/4 1580/1/4 1587/1/4
f 1587/1/4 1580/1/4 1588/1/4
f 1586/1/4 1587/1/4 1590/1/4
f 1590/1/4 1587/1/4 1591/1/4
f 1566/7/4 1567/7/4 1592/7/4
f 1592/7/4 1567/7/4 1593/7/4
f 1589/1/4 1590/1/4 1596/1/4
f 1596/1/4 1590/1/4 1597/1/4
f 1597/1/4 1598/1/4 1599/1/4
f 1599/1/4 1598/1/4 1600/1/4
f 1600/1/4 1601/1/4 1605/1/4
f 1605/1/4 1601/1/4 1606/1/4
f 1582/1/4 1583/1/4 1608/1/4
f 1572/1/4 1582/1/4 1608/1/4
f 1608/1/4 1583/1/4 1609/1/4
f 1603/1/4 1604/1/4 1610/1/4
f 1602/1/4 1603/1/4 1610/1/4
f 1610/1/4 1604/1/4 1611/1/4
f 1606/1/4 1607/1/4 1612/1/4
f 1612/1/4 1607/1/4 1613/1/4
f 1572/1/4 1608/1/4 1614/1/4
f 1614/1/4 1608/1/4 1615/1/4
f 1594/7/4 1595/7/4 1616/7/4
f 1616/7/4 1595/7/4 1617/7/4
f 1620/1/4 1621/1/4 1625/1/4
f 1624/1/4 1625/1/4 1627/1/4
f 1627/1/4 1625/1/4 1628/1/4
f 1626/1/4 1627/1/4 1628/1/4
f 1625/1/4 1621/1/4 1629/1/4
f 1628/1/4 1625/1/4 1629/1/4
f 1626/1/4 1628/1/4 1631/1/4
f 1631/1/4 1628/1/4 1632/1/4
f 1632/1/4 1628/1/4 1633/1/4
f 1618/9/4 1619/9/4 1634/9/4
f 1634/9/4 1619/9/4 1635/9/4
f 1630/1/4 1631/1/4 1638/1/4
f 1631/1/4 1632/1/4 1638/1/4
f 1638/1/4 1632/1/4 1639/1/4
f 1639/1/4 1632/1/4 1640/1/4
f 1640/1/4 1641/1/4 1642/1/4
f 1639/1/4 1640/1/4 1642/1/4
f 1629/1/4 1621/1/4 1643/1/4
f 1639/1/4 1642/1/4 1644/1/4
f 1642/1/4 1643/1/4 1644/1/4
f 1644/1/4 1643/1/4 1645/1/4
f 1622/4/4 1623/4/4 1646/4/4
f 1646/4/4 1623/4/4 1647/4/4
f 1645/1/4 1643/1/4 1648/1/4
f 1643/1/4 1621/1/4 1649/1/4
f 1648/1/4 1643/1/4 1649/1/4
f 1649/1/4 1621/1/4 1650/1/4
f 1650/1/4 1621/1/4 1651/1/4
f 1636/9/4 1637/9/4 1652/9/4
f 1652/9/4 1637/9/4 1653/9/4
f 1654/1/4 1655/1/4 1657/1/4
f 1656/1/4 1657/1/4 1658/1/4
f 1657/1/4 1655/1/4 1659/1/4
f 1658/1/4 1657/1/4 1659/1/4
f 1659/1/4 1655/1/4 1660/1/4
f 1660/1/4 1655/1/4 1661/1/4
f 1662/15/4 1663/15/4 1664/15/4
f 1664/15/4 1663/15/4 1665/15/4
f 1666/15/4 1667/15/4 1668/15/4
f 1668/15/4 1667/15/4 1669/15/4
f 1670/3/4 1671/3/4 1672/3/4
f 1672/3/4 1671/3/4 1673/3/4
f 1673/3/4 1671/3/4 1674/3/4
f 1674/3/4 1671/3/4 1675/3/4
f 1675/3/4 1671/3/4 1676/3/4
f 1677/3/4 1678/3/4 1681/3/4
f 1679/3/4 1680/3/4 1682/3/4
f 1680/3/4 1681/3/4 1682/3/4
f 1681/3/4 1678/3/4 1683/3/4
f 1682/3/4 1681/3/4 1683/3/4
f 1684/4/4 1685/4/4 1686/4/4
f 1686/3/4 1687/3/4 1688/3/4
f 1688/3/4 1687/3/4 1689/3/4
f 1686/3/4 1688/3/4 1690/3/4
f 1689/3/4 1687/3/4 1691/3/4
f 1684/4/4 1686/4/4 1692/4/4
f 1690/3/4 1691/3/4 1692/3/4
f 1686/3/4 1690/3/4 1692/3/4
f 1691/3/4 1687/3/4 1693/3/4
f 1692/3/4 1691/3/4 1693/3/4
f 1684/4/4 1692/4/4 1694/4/4
f 1694/4/4 1692/4/4 1695/4/4
f 1698/12/4 1699/12/4 1700/12/4
f 1700/12/4 1699/12/4 1701/12/4
f 1696/9/4 1697/9/4 1702/9/4
f 1702/9/4 1697/9/4 1703/9/4
f 1708/13/5 1705/13/5 1704/13/5
f 1709/13/5 1705/13/5 1708/13/5
f 1710/13/5 1707/13/5 1706/13/5
f 1711/13/5 1707/13/5 1710/13/5
f 1712/9/5 1709/9/5 1708/9/5
f 1713/9/5 1709/9/5 1712/9/5
f 1714/9/5 1711/9/5 1710/9/5
f 1715/9/5 1711/9/5 1714/9/5
f 1720/7/5 1717/7/5 1716/7/5
f 1721/7/5 1717/7/5 1720/7/5
f 1722/7/5 1719/7/5 1718/7/5
f 1723/7/5 1719/7/5 1722/7/5
f 1724/7/5 1720/7/5 1716/7/5
f 1727/7/5 1719/7/5 1723/7/5
f 1728/7/5 1725/7/5 1724/7/5
f 1728/7/5 1724/7/5 1716/7/5
f 1729/7/5 1725/7/5 1728/7/5
f 1730/7/5 1727/7/5 1726/7/5
f 1731/7/5 1719/7/5 1727/7/5
f 1731/7/5 1727/7/5 1730/7/5
f 1736/9/5 1733/9/5 1732/9/5
f 1737/9/5 1733/9/5 1736/9/5
f 1738/9/5 1735/9/5 1734/9/5
f 1739/9/5 1735/9/5 1738/9/5
f 1744/7/5 1741/7/5 1740/7/5
f 1745/7/5 1741/7/5 1744/7/5
f 1746/7/5 1743/7/5 1742/7/5
f 1747/7/5 1743/7/5 1746/7/5
f 1752/4/5 1749/4/5 1748/4/5
f 1753/4/5 1749/4/5 1752/4/5
f 1754/4/5 1751/4/5 1750/4/5
f 1755/4/5 1751/4/5 1754/4/5
f 1760/1/5 1757/1/5 1756/1/5
f 1760/4/5 1758/4/5 1757/4/5
f 1761/4/5 1758/4/5 1760/4/5
f 1762/4/5 1758/4/5 1761/4/5
f 1763/1/5 1759/1/5 1758/1/5
f 1763/4/5 1758/4/5 1762/4/5
f 1764/1/5 1759/1/5 1763/1/5
f 1765/1/5 1760/1/5 1756/1/5
f 1766/4/5 1762/4/5 1761/4/5
f 1767/4/5 1762/4/5 1766/4/5
f 1770/1/5 1765/1/5 1756/1/5
f 1771/4/5 1766/4/5 1765/4/5
f 1771/1/5 1765/1/5 1770/1/5
f 1771/4/5 1767/4/5 1766/4/5
f 1771/4/5 1768/4/5 1767/4/5
f 1772/1/5 1769/1/5 1768/1/5
f 1772/4/5 1768/4/5 1771/4/5
f 1773/1/5 1769/1/5 1772/1/5
f 1774/4/5 1772/4/5 1771/4/5
f 1775/4/5 1772/4/5 1774/4/5
f 1778/9/5 1777/9/5 1776/9/5
f 1779/9/5 1777/9/5 1778/9/5
f 1782/3/5 1781/3/5 1780/3/5
f 1783/3/5 1781/3/5 1782/3/5
f 1784/3/5 1782/3/5 1780/3/5
f 1785/3/5 1782/3/5 1784/3/5
f 1786/3/5 1781/3/5 1783/3/5
f 1787/3/5 1781/3/5 1786/3/5
f 1792/15/5 1789/15/5 1788/15/5
f 1793/15/5 1789/15/5 1792/15/5
f 1794/15/5 1791/15/5 1790/15/5
f 1795/15/5 1791/15/5 1794/15/5
f 1798/3/5 1797/3/5 1796/3/5
f 1799/3/5 1797/3/5 1798/3/5
f 1802/4/5 1801/4/5 1800/4/5
f 1803/4/5 1801/4/5 1802/4/5
f 1808/7/5 1805/7/5 1804/7/5
f 1809/7/5 1807/7/5 1806/7/5
f 1810/7/5 1805/7/5 1808/7/5
f 1811/7/5 1809/7/5 1806/7/5
f 1812/7/5 1805/7/5 1810/7/5
f 1813/7/5 1805/7/5 1812/7/5
f 1814/7/5 1811/7/5 1806/7/5
f 1815/7/5 1811/7/5 1814/7/5
f 1818/3/5 1817/3/5 1816/3/5
f 1819/3/5 1817/3/5 1818/3/5
f 1822/12/5 1821/12/5 1820/12/5
f 1823/12/5 1821/12/5 1822/12/5
f 1828/7/5 1825/7/5 1824/7/5
f 1829/7/5 1825/7/5 1828/7/5
f 1830/7/5 1827/7/5 1826/7/5
f 1831/7/5 1827/7/5 1830/7/5
f 1836/10/5 1833/10/5 1832/10/5
f 1837/10/5 1833/10/5 1836/10/5
f 1838/11/5 1835/11/5 1834/11/5
f 1839/11/5 1835/11/5 1838/11/5
f 1842/12/5 1841/12/5 1840/12/5
f 1843/12/5 1841/12/5 1842/12/5
f 1847/1/5 1845/1/5 1844/1/5
f 1848/1/5 1845/1/5 1847/1/5
f 1851/1/5 1847/1/5 1846/1/5
f 1852/1/5 1847/1/5 1851/1/5
f 1853/1/5 1847/1/5 1852/1/5
f 1854/1/5 1849/1/5 1848/1/5
f 1855/1/5 1849/1/5 1854/1/5
f 1856/1/5 1849/1/5 1855/1/5
f 1858/1/5 1851/1/5 1850/1/5
f 1858/1/5 1852/1/5 1851/1/5
f 1859/1/5 1852/1/5 1858/1/5
f 1860/1/5 1857/1/5 1856/1/5
f 1860/1/5 1856/1/5 1855/1/5
f 1861/1/5 1857/1/5 1860/1/5
f 1863/1/5 1858/1/5 1850/1/5
f 1864/1/5 1857/1/5 1861/1/5
f 1866/1/5 1863/1/5 1862/1/5
f 1867/1/5 1858/1/5 1863/1/5
f 1867/1/5 1863/1/5 1866/1/5
f 1868/1/5 1865/1/5 1864/1/5
f 1868/1/5 1864/1/5 1861/1/5
f 1869/1/5 1865/1/5 1868/1/5
f 1870/1/5 1858/1/5 1867/1/5
f 1873/1/5 1868/1/5 1861/1/5
f 1874/1/5 1871/1/5 1870/1/5
f 1874/1/5 1870/1/5 1867/1/5
f 1875/1/5 1871/1/5 1874/1/5
f 1876/1/5 1871/1/5 1875/1/5
f 1879/1/5 1873/1/5 1872/1/5
f 1880/1/5 1868/1/5 1873/1/5
f 1880/1/5 1873/1/5 1879/1/5
f 1881/1/5 1868/1/5 1880/1/5
f 1882/1/5 1877/1/5 1876/1/5
f 1882/1/5 1876/1/5 1875/1/5
f 1883/1/5 1877/1/5 1882/1/5
f 1884/1/5 1879/1/5 1878/1/5
f 1884/1/5 1880/1/5 1879/1/5
f 1885/1/5 1880/1/5 1884/1/5
f 1886/1/5 1884/1/5 1883/1/5
f 1887/1/5 1884/1/5 1886/1/5
f 1891/1/5 1889/1/5 1888/1/5
f 1892/1/5 1889/1/5 1891/1/5
f 1895/1/5 1891/1/5 1890/1/5
f 1896/1/5 1891/1/5 1895/1/5
f 1897/1/5 1893/1/5 1892/1/5
f 1898/1/5 1893/1/5 1897/1/5
f 1901/1/5 1895/1/5 1894/1/5
f 1902/1/5 1895/1/5 1901/1/5
f 1903/1/5 1899/1/5 1898/1/5
f 1904/1/5 1899/1/5 1903/1/5
f 1906/1/5 1901/1/5 1900/1/5
f 1907/1/5 1901/1/5 1906/1/5
f 1908/1/5 1905/1/5 1904/1/5
f 1909/1/5 1905/1/5 1908/1/5
f 1914/1/5 1911/1/5 1910/1/5
f 1915/1/5 1911/1/5 1914/1/5
f 1918/1/5 1913/1/5 1912/1/5
f 1919/1/5 1913/1/5 1918/1/5
f 1920/1/5 1916/1/5 1915/1/5
f 1921/1/5 1916/1/5 1920/1/5
f 1924/1/5 1918/1/5 1917/1/5
f 1925/1/5 1918/1/5 1924/1/5
f 1926/1/5 1922/1/5 1921/1/5
f 1927/1/5 1922/1/5 1926/1/5
f 1928/1/5 1924/1/5 1923/1/5
f 1929/1/5 1924/1/5 1928/1/5
f 1930/1/5 1928/1/5 1927/1/5
f 1931/1/5 1928/1/5 1930/1/5
f 1934/6/5 1933/6/5 1932/6/5
f 1935/6/5 1933/6/5 1934/6/5
f 1936/6/5 1933/6/5 1935/6/5
f 1937/6/5 1933/6/5 1936/6/5
f 1939/1/5 1935/1/5 1934/1/5
f 1940/1/5 1935/1/5 1939/1/5
f 1941/1/5 1937/1/5 1936/1/5
f 1942/1/5 1937/1/5 1941/1/5
f 1945/1/5 1939/1/5 1938/1/5
f 1946/1/5 1939/1/5 1945/1/5
f 1947/1/5 1943/1/5 1942/1/5
f 1948/1/5 1943/1/5 1947/1/5
f 1950/1/5 1945/1/5 1944/1/5
f 1951/1/5 1945/1/5 1950/1/5
f 1952/1/5 1949/1/5 1948/1/5
f 1953/1/5 1949/1/5 1952/1/5
f 1958/1/5 1955/1/5 1954/1/5
f 1959/1/5 1955/1/5 1958/1/5
f 1960/1/5 1957/1/5 1956/1/5
f 1961/1/5 1957/1/5 1960/1/5
f 1966/1/5 1963/1/5 1962/1/5
f 1967/1/5 1963/1/5 1966/1/5
f 1970/1/5 1965/1/5 1964/1/5
f 1971/1/5 1965/1/5 1970/1/5
f 1972/1/5 1968/1/5 1967/1/5
f 1973/1/5 1968/1/5 1972/1/5
f 1976/1/5 1970/1/5 1969/1/5
f 1977/1/5 1970/1/5 1976/1/5
f 1978/1/5 1974/1/5 1973/1/5
f 1979/1/5 1974/1/5 1978/1/5
f 1980/1/5 1976/1/5 1975/1/5
f 1981/1/5 1976/1/5 1980/1/5
f 1986/7/5 1983/7/5 1982/7/5
f 1987/7/5 1983/7/5 1986/7/5
f 1988/7/5 1985/7/5 1984/7/5
f 1989/7/5 1985/7/5 1988/7/5
f 1990/7/5 1986/7/5 1982/7/5
f 1991/7/5 1986/7/5 1990/7/5
f 1994/7/5 1985/7/5 1989/7/5
f 1995/7/5 1985/7/5 1994/7/5
f 1996/1/5 1992/1/5 1991/1/5
f 1997/1/5 1992/1/5 1996/1/5
f 1998/1/5 1994/1/5 1993/1/5
f 1999/1/5 1994/1/5 1998/1/5
f 2002/1/5 2001/1/5 2000/1/5
f 2003/1/5 2001/1/5 2002/1/5
f 2009/1/5 2005/1/5 2004/1/5
f 2010/1/5 2005/1/5 2009/1/5
f 2011/1/5 2007/1/5 2006/1/5
f 2012/1/5 2007/1/5 2011/1/5
f 2015/1/5 2009/1/5 2008/1/5
f 2016/1/5 2009/1/5 2015/1/5
f 2017/1/5 2013/1/5 2012/1/5
f 2018/1/5 2013/1/5 2017/1/5
f 2020/8/5 2015/8/5 2014/8/5
f 2021/8/5 2015/8/5 2020/8/5
f 2022/8/5 2019/8/5 2018/8/5
f 2023/8/5 2019/8/5 2022/8/5
f 2028/8/5 2025/8/5 2024/8/5
f 2029/8/5 2025/8/5 2028/8/5
f 2032/8/5 2027/8/5 2026/8/5
f 2033/8/5 2027/8/5 2032/8/5
f 2034/1/5 2030/1/5 2029/1/5
f 2035/1/5 2030/1/5 2034/1/5
f 2038/1/5 2032/1/5 2031/1/5
f 2039/1/5 2032/1/5 2038/1/5
f 2040/1/5 2036/1/5 2035/1/5
f 2041/1/5 2036/1/5 2040/1/5
f 2044/1/5 2038/1/5 2037/1/5
f 2045/1/5 2038/1/5 2044/1/5
f 2046/1/5 2042/1/5 2041/1/5
f 2047/1/5 2042/1/5 2046/1/5
f 2052/1/5 2044/1/5 2043/1/5
f 2053/1/5 2044/1/5 2052/1/5
f 2054/1/5 2049/1/5 2048/1/5
f 2055/1/5 2049/1/5 2054/1/5
f 2056/1/5 2051/1/5 2050/1/5
f 2057/1/5 2051/1/5 2056/1/5
f 2062/1/5 2059/1/5 2058/1/5
f 2063/1/5 2059/1/5 2062/1/5
f 2064/1/5 2061/1/5 2060/1/5
f 2065/1/5 2061/1/5 2064/1/5
f 2066/13/6 2067/13/6 2070/13/6
f 2070/13/6 2067/13/6 2071/13/6
f 2068/13/6 2069/13/6 2072/13/6
f 2072/13/6 2069/13/6 2073/13/6
f 2074/9/6 2075/9/6 2078/9/6
f 2078/9/6 2075/9/6 2079/9/6
f 2076/9/6 2077/9/6 2080/9/6
f 2080/9/6 2077/9/6 2081/9/6
f 2074/9/6 2078/9/6 2082/9/6
f 2081/9/6 2077/9/6 2085/9/6
f 2082/9/6 2083/9/6 2086/9/6
f 2074/9/6 2082/9/6 2086/9/6
f 2086/9/6 2083/9/6 2087/9/6
f 2084/9/6 2085/9/6 2088/9/6
f 2085/9/6 2077/9/6 2089/9/6
f 2088/9/6 2085/9/6 2089/9/6
f 2090/7/6 2091/7/6 2094/7/6
f 2094/7/6 2091/7/6 2095/7/6
f 2092/7/6 2093/7/6 2096/7/6
f 2096/7/6 2093/7/6 2097/7/6
f 2097/7/6 2093/7/6 2098/7/6
f 2097/7/6 2098/7/6 2099/7/6
f 2090/7/6 2094/7/6 2100/7/6
f 2097/7/6 2099/7/6 2103/7/6
f 2100/7/6 2101/7/6 2104/7/6
f 2090/7/6 2100/7/6 2104/7/6
f 2104/7/6 2101/7/6 2105/7/6
f 2102/7/6 2103/7/6 2106/7/6
f 2103/7/6 2099/7/6 2107/7/6
f 2106/7/6 2103/7/6 2107/7/6
f 2108/4/6 2109/4/6 2112/4/6
f 2112/4/6 2109/4/6 2113/4/6
f 2110/4/6 2111/4/6 2114/4/6
f 2114/4/6 2111/4/6 2115/4/6
f 2116/7/6 2117/7/6 2120/7/6
f 2120/7/6 2117/7/6 2121/7/6
f 2118/7/6 2119/7/6 2122/7/6
f 2122/7/6 2119/7/6 2123/7/6
f 2124/3/6 2125/3/6 2126/3/6
f 2126/3/6 2125/3/6 2127/3/6
f 2128/9/6 2129/9/6 2130/9/6
f 2130/9/6 2129/9/6 2131/9/6
f 2132/12/6 2133/12/6 2134/12/6
f 2134/12/6 2133/12/6 2135/12/6
f 2136/10/6 2137/10/6 2141/10/6
f 2141/10/6 2137/10/6 2142/10/6
f 2138/11/6 2139/11/6 2143/11/6
f 2143/11/6 2139/11/6 2144/11/6
f 2141/4/6 2142/4/6 2146/4/6
f 2144/4/6 2145/4/6 2146/4/6
f 2143/4/6 2144/4/6 2146/4/6
f 2142/4/6 2143/4/6 2146/4/6
f 2140/4/6 2141/4/6 2146/4/6
f 2146/4/6 2145/4/6 2147/4/6
f 2148/3/6 2149/3/6 2150/3/6
f 2150/3/6 2149/3/6 2151/3/6
f 2152/1/6 2153/1/6 2156/1/6
f 2156/1/6 2153/1/6 2157/1/6
f 2157/1/6 2153/1/6 2158/1/6
f 2154/1/6 2155/1/6 2159/1/6
f 2159/1/6 2155/1/6 2160/1/6
f 2160/1/6 2155/1/6 2161/1/6
f 2162/1/6 2163/1/6 2168/1/6
f 2163/1/6 2164/1/6 2168/1/6
f 2168/1/6 2164/1/6 2169/1/6
f 2166/1/6 2167/1/6 2170/1/6
f 2165/1/6 2166/1/6 2170/1/6
f 2170/1/6 2167/1/6 2171/1/6
f 2172/7/6 2173/7/6 2176/7/6
f 2176/7/6 2173/7/6 2177/7/6
f 2174/7/6 2175/7/6 2178/7/6
f 2178/7/6 2175/7/6 2179/7/6
f 2180/15/6 2181/15/6 2184/15/6
f 2184/15/6 2181/15/6 2185/15/6
f 2182/15/6 2183/15/6 2186/15/6
f 2186/15/6 2183/15/6 2187/15/6
f 2188/4/6 2189/4/6 2192/4/6
f 2192/4/6 2189/4/6 2193/4/6
f 2190/4/6 2191/4/6 2194/4/6
f 2194/4/6 2191/4/6 2195/4/6
f 2196/1/6 2197/1/6 2198/1/6
f 2198/1/6 2197/1/6 2199/1/6
f 2199/1/6 2197/1/6 2200/1/6
f 2200/1/6 2197/1/6 2201/1/6
f 2202/2/6 2203/2/6 2206/2/6
f 2206/2/6 2203/2/6 2207/2/6
f 2204/2/6 2205/2/6 2208/2/6
f 2208/2/6 2205/2/6 2209/2/6
f 2210/1/6 2211/1/6 2214/1/6
f 2212/1/6 2213/1/6 2214/1/6
f 2211/1/6 2212/1/6 2214/1/6
f 2214/1/6 2213/1/6 2215/1/6
f 2215/1/6 2213/1/6 2216/1/6
f 2216/1/6 2213/1/6 2217/1/6
f 2218/2/6 2219/2/6 2222/2/6
f 2222/2/6 2219/2/6 2223/2/6
f 2220/2/6 2221/2/6 2224/2/6
f 2224/2/6 2221/2/6 2225/2/6
f 2226/3/6 2227/3/6 2228/3/6
f 2228/3/6 2227/3/6 2229/3/6
f 2226/3/6 2228/3/6 2230/3/6
f 2230/3/6 2228/3/6 2231/3/6
f 2229/3/6 2227/3/6 2232/3/6
f 2232/3/6 2227/3/6 2233/3/6
f 2234/12/6 2235/12/6 2236/12/6
f 2236/12/6 2235/12/6 2237/12/6
f 2238/4/6 2239/4/6 2242/4/6
f 2242/4/6 2239/4/6 2243/4/6
f 2240/4/6 2241/4/6 2244/4/6
f 2244/4/6 2241/4/6 2245/4/6
f 2238/4/6 2242/4/6 2246/4/6
f 2246/4/6 2242/4/6 2247/4/6
f 2245/4/6 2241/4/6 2248/4/6
f 2248/4/6 2241/4/6 2249/4/6
f 2250/4/6 2251/4/6 2254/4/6
f 2252/4/6 2253/4/6 2257/4/6
f 2254/4/6 2255/4/6 2258/4/6
f 2250/4/6 2254/4/6 2258/4/6
f 2258/4/6 2255/4/6 2259/4/6
f 2256/4/6 2257/4/6 2260/4/6
f 2257/4/6 2253/4/6 2261/4/6
f 2260/4/6 2257/4/6 2261/4/6
f 2262/3/6 2263/3/6 2264/3/6
f 2264/3/6 2263/3/6 2265/3/6
f 2266/1/6 2267/1/6 2271/1/6
f 2271/1/6 2267/1/6 2272/1/6
f 2268/1/6 2269/1/6 2273/1/6
f 2273/1/6 2269/1/6 2274/1/6
f 2270/1/6 2271/1/6 2277/1/6
f 2277/1/6 2271/1/6 2278/1/6
f 2274/1/6 2275/1/6 2279/1/6
f 2279/1/6 2275/1/6 2280/1/6
f 2276/8/6 2277/8/6 2282/8/6
f 2282/8/6 2277/8/6 2283/8/6
f 2280/8/6 2281/8/6 2284/8/6
f 2284/8/6 2281/8/6 2285/8/6
f 2286/8/6 2287/8/6 2290/8/6
f 2290/8/6 2287/8/6 2291/8/6
f 2288/8/6 2289/8/6 2294/8/6
f 2294/8/6 2289/8/6 2295/8/6
f 2291/1/6 2292/1/6 2296/1/6
f 2296/1/6 2292/1/6 2297/1/6
f 2293/1/6 2294/1/6 2298/1/6
f 2298/1/6 2294/1/6 2299/1/6
f 2300/1/6 2301/1/6 2302/1/6
f 2302/1/6 2301/1/6 2303/1/6
f 2304/7/6 2305/7/6 2308/7/6
f 2308/7/6 2305/7/6 2309/7/6
f 2306/7/6 2307/7/6 2310/7/6
f 2310/7/6 2307/7/6 2311/7/6
f 2304/7/6 2308/7/6 2312/7/6
f 2312/7/6 2308/7/6 2313/7/6
f 2311/7/6 2307/7/6 2316/7/6
f 2316/7/6 2307/7/6 2317/7/6
f 2313/1/6 2314/1/6 2318/1/6
f 2318/1/6 2314/1/6 2319/1/6
f 2315/1/6 2316/1/6 2320/1/6
f 2320/1/6 2316/1/6 2321/1/6
f 2322/5/6 2323/5/6 2325/5/6
f 2325/5/6 2323/5/6 2326/5/6
f 2323/6/6 2324/6/6 2327/6/6
f 2326/5/6 2323/5/6 2327/5/6
f 2327/6/6 2324/6/6 2328/6/6
f 2328/6/6 2324/6/6 2329/6/6
f 2325/1/6 2326/1/6 2331/1/6
f 2331/1/6 2326/1/6 2332/1/6
f 2328/1/6 2329/1/6 2333/1/6
f 2333/1/6 2329/1/6 2334/1/6
f 2330/1/6 2331/1/6 2337/1/6
f 2337/1/6 2331/1/6 2338/1/6
f 2334/1/6 2335/1/6 2339/1/6
f 2339/1/6 2335/1/6 2340/1/6
f 2336/1/6 2337/1/6 2342/1/6
f 2342/1/6 2337/1/6 2343/1/6
f 2340/1/6 2341/1/6 2344/1/6
f 2344/1/6 2341/1/6 2345/1/6
f 2346/1/6 2347/1/6 2350/1/6
f 2350/1/6 2347/1/6 2351/1/6
f 2348/1/6 2349/1/6 2352/1/6
f 2352/1/6 2349/1/6 2353/1/6
f 2354/1/6 2355/1/6 2356/1/6
f 2356/1/6 2355/1/6 2357/1/6
f 2358/1/6 2359/1/6 2361/1/6
f 2361/1/6 2359/1/6 2362/1/6
f 2360/1/6 2361/1/6 2365/1/6
f 2365/1/6 2361/1/6 2366/1/6
f 2362/1/6 2363/1/6 2367/1/6
f 2367/1/6 2363/1/6 2368/1/6
f 2364/1/6 2365/1/6 2371/1/6
f 2371/1/6 2365/1/6 2372/1/6
f 2368/1/6 2369/1/6 2373/1/6
f 2373/1/6 2369/1/6 2374/1/6
f 2370/1/6 2371/1/6 2376/1/6
f 2376/1/6 2371/1/6 2377/1/6
f 2374/1/6 2375/1/6 2378/1/6
f 2378/1/6 2375/1/6 2379/1/6
f 2380/1/6 2381/1/6 2383/1/6
f 2383/1/6 2381/1/6 2384/1/6
f 2382/1/6 2383/1/6 2387/1/6
f 2387/1/6 2383/1/6 2388/1/6
f 2388/1/6 2383/1/6 2389/1/6
f 2384/1/6 2385/1/6 2390/1/6
f 2390/1/6 2385/1/6 2391/1/6
f 2391/1/6 2385/1/6 2392/1/6
f 2386/1/6 2387/1/6 2394/1/6
f 2387/1/6 2388/1/6 2394/1/6
f 2394/1/6 2388/1/6 2395/1/6
f 2392/1/6 2393/1/6 2396/1/6
f 2391/1/6 2392/1/6 2396/1/6
f 2396/1/6 2393/1/6 2397/1/6
f 2386/1/6 2394/1/6 2398/1/6
f 2397/1/6 2393/1/6 2401/1/6
f 2398/1/6 2399/1/6 2402/1/6
f 2400/2/6 2401/2/6 2405/2/6
f 2402/1/6 2403/1/6 2406/1/6
f 2404/2/6 2405/2/6 2407/2/6
f 2401/1/6 2393/1/6 2408/1/6
f 2405/2/6 2401/2/6 2408/2/6
f 2407/2/6 2405/2/6 2408/2/6
f 2402/1/6 2406/1/6 2409/1/6
f 2386/1/6 2398/1/6 2409/1/6
f 2407/1/6 2408/1/6 2409/1/6
f 2406/1/6 2407/1/6 2409/1/6
f 2398/1/6 2402/1/6 2409/1/6
f 2408/1/6 2393/1/6 2410/1/6
f 2409/1/6 2408/1/6 2410/1/6
f 2411/1/6 2412/1/6 2414/1/6
f 2414/1/6 2412/1/6 2415/1/6
f 2413/1/6 2414/1/6 2418/1/6
f 2415/1/6 2416/1/6 2418/1/6
f 2414/1/6 2415/1/6 2418/1/6
f 2418/1/6 2416/1/6 2419/1/6
f 2419/1/6 2416/1/6 2420/1/6
f 2420/1/6 2416/1/6 2421/1/6
f 2417/1/6 2418/1/6 2423/1/6
f 2418/1/6 2419/1/6 2423/1/6
f 2423/1/6 2419/1/6 2424/1/6
f 2421/1/6 2422/1/6 2425/1/6
f 2420/1/6 2421/1/6 2425/1/6
f 2425/1/6 2422/1/6 2426/1/6
f 2417/1/6 2423/1/6 2427/1/6
f 2426/1/6 2422/1/6 2430/1/6
f 2427/1/6 2428/1/6 2431/1/6
f 2417/1/6 2427/1/6 2431/1/6
f 2431/1/6 2428/1/6 2432/1/6
f 2432/1/6 2428/1/6 2433/1/6
f 2429/1/6 2430/1/6 2434/1/6
f 2430/1/6 2422/1/6 2435/1/6
f 2434/1/6 2430/1/6 2435/1/6
f 2435/1/6 2422/1/6 2436/1/6
f 2432/1/6 2433/1/6 2437/1/6
f 2433/1/6 2434/1/6 2437/1/6
f 2434/1/6 2435/1/6 2437/1/6
f 2437/1/6 2435/1/6 2438/1/6
f 2438/1/6 2435/1/6 2439/1/6
f 2439/1/6 2435/1/6 2440/1/6
f 2438/1/6 2439/1/6 2441/1/6
f 2441/1/6 2439/1/6 2442/1/6
f 2443/1/6 2444/1/6 2446/1/6
f 2446/1/6 2444/1/6 2447/1/6
f 2445/1/6 2446/1/6 2449/1/6
f 2447/1/6 2448/1/6 2449/1/6
f 2446/1/6 2447/1/6 2449/1/6
f 2449/1/6 2448/1/6 2450/1/6
f 2450/1/6 2448/1/6 2451/1/6
f 2451/1/6 2448/1/6 2452/1/6
f 2450/1/6 2451/1/6 2453/1/6
f 2453/1/6 2451/1/6 2454/1/6
