# MagicaVoxel @ Ephtracy

# group
o 

# material
mtllib Electrolytic_oxygen_generator.mtl
usemtl palette

# normals
vn -1 0 0
vn 1 0 0
vn 0 0 1
vn 0 0 -1
vn 0 -1 0
vn 0 1 0

# texcoords
vt 0.00195312 0.5
vt 0.00585938 0.5
vt 0.00976562 0.5
vt 0.0136719 0.5
vt 0.0175781 0.5
vt 0.0214844 0.5
vt 0.0332031 0.5
vt 0.0371094 0.5
vt 0.0488281 0.5
vt 0.0644531 0.5
vt 0.0683594 0.5
vt 0.0722656 0.5

# verts
v -1.3 0 0.7
v -1.3 0 -0.7
v -1.3 0.2 0.7
v -1.3 0.2 -0.7
v -1.2 0.2 0.7
v -1.2 0.2 0.6
v -1.2 0.2 -0.6
v -1.2 0.3 0.7
v -1.2 0.3 0.6
v -1.2 0.4 0.6
v -1.2 0.4 -0.6
v -1.2 0.9 0.2
v -1.2 0.9 -0.2
v -1.2 1.8 0.2
v -1.2 1.8 -0.2
v -1.1 0.4 0.5
v -1.1 0.4 -0.5
v -1.1 0.9 0.2
v -1.1 0.9 -0.2
v -1.1 1.2 0.5
v -1.1 1.2 0.2
v -1.1 1.2 -0.2
v -1.1 1.2 -0.5
v -1.1 1.5 0.5
v -1.1 1.5 0.2
v -1.1 1.5 -0.2
v -1.1 1.5 -0.5
v -1.1 1.8 0.2
v -1.1 1.8 -0.2
v -1.1 2.3 0.5
v -1.1 2.3 -0.5
v -1.1 2.5 0.5
v -1.1 2.5 -0.5
v -1 0.8 -0.5
v -1 0.8 -0.7
v -1 1.2 -0.5
v -1 1.5 -0.5
v -1 2.3 -0.5
v -1 2.3 -0.7
v -1 2.5 0.4
v -1 2.5 -0.4
v -1 2.7 0.4
v -1 2.7 -0.4
v -0.9 2.4 0.6
v -0.9 2.4 0.5
v -0.9 2.5 0.5
v -0.9 2.5 0.4
v -0.9 2.6 0.7
v -0.9 2.6 0.6
v -0.9 2.7 0.6
v -0.9 2.7 0.5
v -0.9 2.7 0.4
v -0.9 2.9 0.7
v -0.9 2.9 0.5
v -0.8 2.2 0.7
v -0.8 2.2 0.5
v -0.8 2.3 0.5
v -0.8 2.4 0.6
v -0.8 2.4 0.5
v -0.8 2.6 0.7
v -0.8 2.6 0.6
v -0.6 0.4 -0.5
v -0.6 0.4 -0.6
v -0.6 0.6 -0.5
v -0.6 0.6 -0.6
v -0.5 0.4 0.5
v -0.5 0.4 -0.3
v -0.5 0.6 -0.3
v -0.5 0.6 -0.5
v -0.5 0.8 0.6
v -0.5 0.8 0.5
v -0.5 0.8 0.4
v -0.5 0.9 0.2
v -0.5 0.9 -0.2
v -0.5 1.6 0.6
v -0.5 1.6 0.5
v -0.5 1.6 0.4
v -0.5 1.7 0.5
v -0.5 1.7 0.2
v -0.5 1.7 -0.2
v -0.5 1.7 -0.5
v -0.4 1.7 0.4
v -0.4 1.7 -0.4
v -0.4 2.4 0.4
v -0.4 2.4 -0.4
v -0.3 1 0.7
v -0.3 1 0.6
v -0.3 1.4 0.7
v -0.3 1.4 0.6
v -0.3 1.8 0.5
v -0.3 1.8 0.4
v -0.3 2.2 0.7
v -0.3 2.2 0.5
v -0.3 2.3 0.5
v -0.3 2.3 0.4
v -0.3 2.4 0.7
v -0.3 2.4 0.5
v -0.3 2.6 0.9
v -0.3 2.6 0.7
v -0.3 2.7 0.7
v -0.3 2.8 0.9
v -0.3 2.8 0.7
v -0.2 0.7 0.6
v -0.2 0.7 0.5
v -0.2 0.9 0.6
v -0.2 0.9 0.5
v -0.2 1.9 0.6
v -0.2 1.9 0.5
v -0.2 2 0.6
v -0.2 2 0.5
v -0.2 2.2 0.6
v -0.2 2.2 0.5
v -0.2 2.4 0.7
v -0.2 2.4 0.5
v -0.2 2.5 0.9
v -0.2 2.5 0.7
v -0.2 2.6 0.9
v -0.2 2.6 0.7
v -0.2 2.7 0.7
v -0.2 2.7 0.5
v -0.2 2.8 0.9
v -0.2 2.8 0.7
v -0.2 2.9 0.9
v -0.2 2.9 0.7
v -0.0999999 2.4 0.9
v -0.0999999 2.4 0.7
v -0.0999999 2.5 0.9
v -0.0999999 2.5 0.7
v -0.0999999 2.7 0.9
v -0.0999999 2.7 0.8
v -0.0999999 2.8 0.9
v -0.0999999 2.8 0.8
v -0.0999999 2.9 0.9
v -0.0999999 2.9 0.7
v -0.0999999 3 0.9
v -0.0999999 3 0.7
v 0 2.5 0.9
v 0 2.5 0.8
v 0 2.7 0.9
v 0 2.7 0.8
v 0.1 2.8 0.9
v 0.1 2.8 0.8
v 0.1 2.9 0.9
v 0.1 2.9 0.8
v 0.2 2.6 0.9
v 0.2 2.6 0.8
v 0.2 2.8 0.9
v 0.2 2.8 0.8
v 0.4 0.4 -0.5
v 0.4 0.4 -0.6
v 0.4 0.6 -0.5
v 0.4 0.6 -0.6
v 0.4 0.8 0.6
v 0.4 0.8 0.5
v 0.4 0.9 0.6
v 0.4 0.9 0.5
v 0.5 1.7 0.2
v 0.5 1.7 -0.2
v 0.5 1.8 0.2
v 0.5 1.8 -0.2
v 0.6 0.4 0.5
v 0.6 0.4 -0.3
v 0.6 0.6 -0.3
v 0.6 0.6 -0.5
v 0.6 0.9 0.2
v 0.6 0.9 -0.2
v 0.6 1.2 0.5
v 0.6 1.2 0.2
v 0.6 1.2 -0.2
v 0.6 1.2 -0.5
v 0.6 1.5 0.5
v 0.6 1.5 0.2
v 0.6 1.5 -0.2
v 0.6 1.5 -0.5
v 0.6 1.8 0.2
v 0.6 1.8 -0.2
v 0.6 2.3 0.5
v 0.6 2.3 -0.5
v 0.6 2.5 0.5
v 0.6 2.5 -0.5
v 0.6 2.6 0.7
v 0.6 2.6 0.5
v 0.6 2.7 0.7
v 0.6 2.7 0.5
v 0.7 2.2 0.7
v 0.7 2.2 0.5
v 0.7 2.3 0.5
v 0.7 2.5 0.5
v 0.7 2.5 0.3
v 0.7 2.5 -0.4
v 0.7 2.6 0.7
v 0.7 2.6 0.5
v 0.7 2.7 0.5
v 0.7 2.7 0.3
v 0.7 2.7 -0.4
v 0.8 0.2 0.7
v 0.8 0.2 0.6
v 0.8 0.3 0.7
v 0.8 0.3 0.6
v 0.8 0.8 -0.5
v 0.8 0.8 -0.7
v 0.8 1.2 -0.5
v 0.8 1.5 -0.5
v 0.8 2.3 -0.5
v 0.8 2.3 -0.7
v -0.8 0.2 0.7
v -0.8 0.2 0.6
v -0.8 0.3 0.7
v -0.8 0.3 0.6
v -0.8 0.8 -0.5
v -0.8 0.8 -0.7
v -0.8 1.2 -0.5
v -0.8 1.5 -0.5
v -0.8 2.3 -0.5
v -0.8 2.3 -0.7
v -0.7 2.5 0.3
v -0.7 2.5 -0.4
v -0.7 2.7 0.3
v -0.7 2.7 -0.4
v -0.6 0.4 0.5
v -0.6 0.4 -0.3
v -0.6 0.6 -0.3
v -0.6 0.6 -0.5
v -0.6 0.9 0.2
v -0.6 0.9 -0.2
v -0.6 1.2 0.5
v -0.6 1.2 0.2
v -0.6 1.2 -0.2
v -0.6 1.2 -0.5
v -0.6 1.5 0.5
v -0.6 1.5 0.2
v -0.6 1.5 -0.2
v -0.6 1.5 -0.5
v -0.6 1.8 0.2
v -0.6 1.8 -0.2
v -0.6 2.2 0.7
v -0.6 2.2 0.5
v -0.6 2.3 0.5
v -0.6 2.3 -0.5
v -0.6 2.4 0.5
v -0.6 2.4 0.3
v -0.6 2.5 0.3
v -0.6 2.5 -0.5
v -0.6 2.6 0.7
v -0.6 2.6 0.5
v -0.6 2.7 0.5
v -0.6 2.7 0.3
v -0.5 1.7 0.2
v -0.5 1.7 -0.2
v -0.5 1.8 0.2
v -0.5 1.8 -0.2
v -0.5 2.6 0.7
v -0.5 2.6 0.5
v -0.5 2.7 0.7
v -0.5 2.7 0.5
v -0.4 0.4 -0.5
v -0.4 0.4 -0.6
v -0.4 0.6 -0.5
v -0.4 0.6 -0.6
v -0.4 0.8 0.6
v -0.4 0.8 0.5
v -0.4 0.9 0.6
v -0.4 0.9 0.5
v -0.2 2.6 0.9
v -0.2 2.6 0.8
v -0.2 2.8 0.9
v -0.2 2.8 0.8
v -0.0999999 2.5 0.9
v -0.0999999 2.5 0.8
v -0.0999999 2.6 0.9
v -0.0999999 2.6 0.8
v 0 2.7 0.9
v 0 2.7 0.8
v 0 2.9 0.9
v 0 2.9 0.8
v 0.1 2.4 0.9
v 0.1 2.4 0.7
v 0.1 2.5 0.9
v 0.1 2.5 0.7
v 0.1 2.6 0.9
v 0.1 2.6 0.8
v 0.1 2.7 0.9
v 0.1 2.7 0.8
v 0.1 2.9 0.9
v 0.1 2.9 0.7
v 0.1 3 0.9
v 0.1 3 0.7
v 0.2 0.7 0.6
v 0.2 0.7 0.5
v 0.2 0.9 0.6
v 0.2 0.9 0.5
v 0.2 1.9 0.6
v 0.2 1.9 0.5
v 0.2 2.1 0.6
v 0.2 2.1 0.5
v 0.2 2.2 0.6
v 0.2 2.2 0.5
v 0.2 2.4 0.7
v 0.2 2.4 0.5
v 0.2 2.5 0.9
v 0.2 2.5 0.7
v 0.2 2.6 0.9
v 0.2 2.6 0.7
v 0.2 2.7 0.7
v 0.2 2.7 0.5
v 0.2 2.8 0.9
v 0.2 2.8 0.7
v 0.2 2.9 0.9
v 0.2 2.9 0.7
v 0.3 1 0.7
v 0.3 1 0.6
v 0.3 1.4 0.7
v 0.3 1.4 0.6
v 0.3 1.8 0.5
v 0.3 1.8 0.4
v 0.3 2.2 0.7
v 0.3 2.2 0.5
v 0.3 2.3 0.5
v 0.3 2.3 0.4
v 0.3 2.4 0.7
v 0.3 2.4 0.5
v 0.3 2.6 0.9
v 0.3 2.6 0.7
v 0.3 2.7 0.7
v 0.3 2.8 0.9
v 0.3 2.8 0.7
v 0.4 1.7 0.4
v 0.4 1.7 -0.4
v 0.4 2.4 0.4
v 0.4 2.4 -0.4
v 0.5 0.4 0.5
v 0.5 0.4 -0.3
v 0.5 0.6 -0.3
v 0.5 0.6 -0.5
v 0.5 0.8 0.6
v 0.5 0.8 0.5
v 0.5 0.8 0.4
v 0.5 0.9 0.2
v 0.5 0.9 -0.2
v 0.5 1.6 0.6
v 0.5 1.6 0.5
v 0.5 1.6 0.4
v 0.5 1.7 0.5
v 0.5 1.7 0.2
v 0.5 1.7 -0.2
v 0.5 1.7 -0.5
v 0.6 0.4 -0.5
v 0.6 0.4 -0.6
v 0.6 0.6 -0.5
v 0.6 0.6 -0.6
v 0.9 2.2 0.7
v 0.9 2.2 0.5
v 0.9 2.3 0.5
v 0.9 2.4 0.6
v 0.9 2.4 0.5
v 0.9 2.6 0.7
v 0.9 2.6 0.6
v 1 0.8 -0.5
v 1 0.8 -0.7
v 1 1.2 -0.5
v 1 1.5 -0.5
v 1 2.3 -0.5
v 1 2.3 -0.7
v 1 2.4 0.6
v 1 2.4 0.5
v 1 2.5 0.5
v 1 2.5 0.3
v 1 2.5 -0.4
v 1 2.6 0.7
v 1 2.6 0.6
v 1 2.7 0.6
v 1 2.7 0.5
v 1 2.7 0.3
v 1 2.7 -0.4
v 1 2.9 0.7
v 1 2.9 0.5
v 1.1 0.4 0.5
v 1.1 0.4 -0.5
v 1.1 0.9 0.2
v 1.1 0.9 -0.2
v 1.1 1.2 0.5
v 1.1 1.2 0.2
v 1.1 1.2 -0.2
v 1.1 1.2 -0.5
v 1.1 1.5 0.5
v 1.1 1.5 0.2
v 1.1 1.5 -0.2
v 1.1 1.5 -0.5
v 1.1 1.8 0.2
v 1.1 1.8 -0.2
v 1.1 2.3 0.5
v 1.1 2.3 -0.5
v 1.1 2.5 0.5
v 1.1 2.5 -0.5
v 1.2 0.2 0.7
v 1.2 0.2 0.6
v 1.2 0.2 -0.6
v 1.2 0.3 0.7
v 1.2 0.3 0.6
v 1.2 0.4 0.6
v 1.2 0.4 -0.6
v 1.2 0.9 0.2
v 1.2 0.9 -0.2
v 1.2 1.8 0.2
v 1.2 1.8 -0.2
v 1.3 0 0.7
v 1.3 0 -0.7
v 1.3 0.2 0.7
v 1.3 0.2 -0.7
v -0.3 2.6 0.9
v -0.3 2.8 0.9
v -0.2 2.5 0.9
v -0.2 2.6 0.9
v -0.2 2.8 0.9
v -0.2 2.9 0.9
v -0.0999999 2.4 0.9
v -0.0999999 2.5 0.9
v -0.0999999 2.6 0.9
v -0.0999999 2.7 0.9
v -0.0999999 2.8 0.9
v -0.0999999 2.9 0.9
v -0.0999999 3 0.9
v 0 2.5 0.9
v 0 2.7 0.9
v 0 2.9 0.9
v 0.1 2.4 0.9
v 0.1 2.5 0.9
v 0.1 2.6 0.9
v 0.1 2.7 0.9
v 0.1 2.8 0.9
v 0.1 2.9 0.9
v 0.1 3 0.9
v 0.2 2.5 0.9
v 0.2 2.6 0.9
v 0.2 2.8 0.9
v 0.2 2.9 0.9
v 0.3 2.6 0.9
v 0.3 2.8 0.9
v -0.2 2.6 0.8
v -0.2 2.8 0.8
v -0.0999999 2.5 0.8
v -0.0999999 2.6 0.8
v -0.0999999 2.7 0.8
v -0.0999999 2.8 0.8
v 0 2.5 0.8
v 0 2.7 0.8
v 0 2.9 0.8
v 0.1 2.6 0.8
v 0.1 2.7 0.8
v 0.1 2.8 0.8
v 0.1 2.9 0.8
v 0.2 2.6 0.8
v 0.2 2.8 0.8
v -1.3 0 0.7
v -1.3 0.2 0.7
v -1.2 0.1 0.7
v -1.2 0.2 0.7
v -1.2 0.3 0.7
v -0.9 2.6 0.7
v -0.9 2.9 0.7
v -0.8 0.1 0.7
v -0.8 0.2 0.7
v -0.8 0.3 0.7
v -0.8 2.2 0.7
v -0.8 2.6 0.7
v -0.6 2.2 0.7
v -0.6 2.6 0.7
v -0.5 2.6 0.7
v -0.5 2.7 0.7
v -0.5 2.9 0.7
v -0.3 1 0.7
v -0.3 1.4 0.7
v -0.3 2.2 0.7
v -0.3 2.4 0.7
v -0.3 2.7 0.7
v -0.3 2.8 0.7
v -0.2 1.1 0.7
v -0.2 1.3 0.7
v -0.2 2.4 0.7
v -0.2 2.5 0.7
v -0.2 2.8 0.7
v -0.2 2.9 0.7
v -0.0999999 1.1 0.7
v -0.0999999 1.2 0.7
v -0.0999999 2.4 0.7
v -0.0999999 2.5 0.7
v 0 1.2 0.7
v 0 1.3 0.7
v 0.1 1.1 0.7
v 0.1 1.3 0.7
v 0.1 2.4 0.7
v 0.1 2.5 0.7
v 0.2 1.1 0.7
v 0.2 1.3 0.7
v 0.2 2.4 0.7
v 0.2 2.5 0.7
v 0.2 2.8 0.7
v 0.2 2.9 0.7
v 0.3 1 0.7
v 0.3 1.4 0.7
v 0.3 2.2 0.7
v 0.3 2.4 0.7
v 0.3 2.7 0.7
v 0.3 2.8 0.7
v 0.6 2.6 0.7
v 0.6 2.7 0.7
v 0.6 2.9 0.7
v 0.7 2.2 0.7
v 0.7 2.6 0.7
v 0.8 0.1 0.7
v 0.8 0.2 0.7
v 0.8 0.3 0.7
v 0.9 2.2 0.7
v 0.9 2.6 0.7
v 1 2.6 0.7
v 1 2.9 0.7
v 1.2 0.1 0.7
v 1.2 0.2 0.7
v 1.2 0.3 0.7
v 1.3 0 0.7
v 1.3 0.2 0.7
v -1.2 0.3 0.6
v -1.2 0.4 0.6
v -0.9 2.4 0.6
v -0.9 2.6 0.6
v -0.8 0.2 0.6
v -0.8 0.3 0.6
v -0.8 2.4 0.6
v -0.8 2.6 0.6
v -0.5 0.8 0.6
v -0.5 1.6 0.6
v -0.4 0.8 0.6
v -0.4 0.9 0.6
v -0.4 1.6 0.6
v -0.3 1 0.6
v -0.3 1.4 0.6
v -0.2 0.7 0.6
v -0.2 0.9 0.6
v -0.2 1.5 0.6
v -0.2 1.6 0.6
v -0.2 1.9 0.6
v -0.2 2 0.6
v -0.2 2.2 0.6
v -0.0999999 1.5 0.6
v -0.0999999 1.6 0.6
v -0.0999999 1.9 0.6
v -0.0999999 2 0.6
v -0.0999999 2.1 0.6
v 0 1.5 0.6
v 0 1.6 0.6
v 0.1 1.5 0.6
v 0.1 1.6 0.6
v 0.1 1.9 0.6
v 0.1 2 0.6
v 0.2 0.7 0.6
v 0.2 0.9 0.6
v 0.2 1.5 0.6
v 0.2 1.6 0.6
v 0.2 1.9 0.6
v 0.2 2.1 0.6
v 0.2 2.2 0.6
v 0.3 1 0.6
v 0.3 1.4 0.6
v 0.4 0.8 0.6
v 0.4 0.9 0.6
v 0.4 1.6 0.6
v 0.5 0.8 0.6
v 0.5 1.6 0.6
v 0.8 0.2 0.6
v 0.8 0.3 0.6
v 0.9 2.4 0.6
v 0.9 2.6 0.6
v 1 2.4 0.6
v 1 2.6 0.6
v 1.2 0.3 0.6
v 1.2 0.4 0.6
v -1.1 0.4 0.5
v -1.1 1.2 0.5
v -1.1 1.5 0.5
v -1.1 2.3 0.5
v -1.1 2.5 0.5
v -0.9 2.4 0.5
v -0.9 2.5 0.5
v -0.8 2.2 0.5
v -0.8 2.3 0.5
v -0.8 2.4 0.5
v -0.6 0.4 0.5
v -0.6 1.2 0.5
v -0.6 1.5 0.5
v -0.6 2.2 0.5
v -0.5 0.4 0.5
v -0.5 0.8 0.5
v -0.5 1.6 0.5
v -0.5 1.7 0.5
v -0.4 0.8 0.5
v -0.4 0.9 0.5
v -0.4 1.6 0.5
v -0.3 0.4 0.5
v -0.3 0.7 0.5
v -0.3 1.8 0.5
v -0.3 2.2 0.5
v -0.2 0.7 0.5
v -0.2 0.9 0.5
v -0.2 1.6 0.5
v -0.2 1.9 0.5
v -0.2 2 0.5
v -0.2 2.2 0.5
v -0.0999999 1.6 0.5
v -0.0999999 1.9 0.5
v 0 1.6 0.5
v 0.1 1.6 0.5
v 0.1 1.9 0.5
v 0.2 0.7 0.5
v 0.2 0.9 0.5
v 0.2 1.6 0.5
v 0.2 1.9 0.5
v 0.2 2.1 0.5
v 0.2 2.2 0.5
v 0.3 0.4 0.5
v 0.3 0.7 0.5
v 0.3 1.8 0.5
v 0.3 2.2 0.5
v 0.4 0.8 0.5
v 0.4 0.9 0.5
v 0.4 1.6 0.5
v 0.5 0.4 0.5
v 0.5 0.8 0.5
v 0.5 1.6 0.5
v 0.5 1.7 0.5
v 0.6 0.4 0.5
v 0.6 1.2 0.5
v 0.6 1.5 0.5
v 0.6 2.3 0.5
v 0.6 2.5 0.5
v 0.7 2.2 0.5
v 0.7 2.3 0.5
v 0.7 2.5 0.5
v 0.9 2.2 0.5
v 0.9 2.3 0.5
v 0.9 2.4 0.5
v 1 2.4 0.5
v 1 2.5 0.5
v 1.1 0.4 0.5
v 1.1 1.2 0.5
v 1.1 1.5 0.5
v 1.1 2.3 0.5
v 1.1 2.5 0.5
v -1 2.5 0.4
v -1 2.7 0.4
v -0.9 2.5 0.4
v -0.9 2.7 0.4
v -0.4 1.7 0.4
v -0.4 2.4 0.4
v -0.3 1.8 0.4
v -0.3 2.3 0.4
v 0.3 1.8 0.4
v 0.3 2.3 0.4
v 0.4 1.7 0.4
v 0.4 2.4 0.4
v -1.2 0.9 0.2
v -1.2 1.8 0.2
v -1.1 0.9 0.2
v -1.1 1.2 0.2
v -1.1 1.5 0.2
v -1.1 1.8 0.2
v -0.6 0.9 0.2
v -0.6 1.2 0.2
v -0.6 1.5 0.2
v -0.6 1.8 0.2
v -0.5 0.9 0.2
v -0.5 1.7 0.2
v -0.5 1.8 0.2
v 0.5 0.9 0.2
v 0.5 1.7 0.2
v 0.5 1.8 0.2
v 0.6 0.9 0.2
v 0.6 1.2 0.2
v 0.6 1.5 0.2
v 0.6 1.8 0.2
v 1.1 0.9 0.2
v 1.1 1.2 0.2
v 1.1 1.5 0.2
v 1.1 1.8 0.2
v 1.2 0.9 0.2
v 1.2 1.8 0.2
v -0.6 0.4 -0.3
v -0.6 0.6 -0.3
v -0.5 0.4 -0.3
v -0.5 0.6 -0.3
v 0.5 0.4 -0.3
v 0.5 0.6 -0.3
v 0.6 0.4 -0.3
v 0.6 0.6 -0.3
v -0.3 2.6 0.7
v -0.3 2.7 0.7
v -0.2 2.6 0.7
v -0.2 2.7 0.7
v -0.0999999 2.9 0.7
v -0.0999999 3 0.7
v 0.1 2.9 0.7
v 0.1 3 0.7
v 0.2 2.6 0.7
v 0.2 2.7 0.7
v 0.3 2.6 0.7
v 0.3 2.7 0.7
v -0.9 2.7 0.5
v -0.9 2.9 0.5
v -0.6 2.6 0.5
v -0.6 2.7 0.5
v -0.5 2.6 0.5
v -0.5 2.7 0.5
v -0.5 2.9 0.5
v -0.3 2.3 0.5
v -0.3 2.4 0.5
v -0.2 2.4 0.5
v -0.2 2.7 0.5
v 0.2 2.4 0.5
v 0.2 2.7 0.5
v 0.3 2.3 0.5
v 0.3 2.4 0.5
v 0.6 2.6 0.5
v 0.6 2.7 0.5
v 0.6 2.9 0.5
v 0.7 2.6 0.5
v 0.7 2.7 0.5
v 1 2.7 0.5
v 1 2.9 0.5
v -0.7 2.5 0.3
v -0.7 2.7 0.3
v -0.6 2.5 0.3
v -0.6 2.7 0.3
v -1.2 0.9 -0.2
v -1.2 1.8 -0.2
v -1.1 0.9 -0.2
v -1.1 1.2 -0.2
v -1.1 1.5 -0.2
v -1.1 1.8 -0.2
v -0.6 0.9 -0.2
v -0.6 1.2 -0.2
v -0.6 1.5 -0.2
v -0.6 1.8 -0.2
v -0.5 0.9 -0.2
v -0.5 1.7 -0.2
v -0.5 1.8 -0.2
v 0.5 0.9 -0.2
v 0.5 1.7 -0.2
v 0.5 1.8 -0.2
v 0.6 0.9 -0.2
v 0.6 1.2 -0.2
v 0.6 1.5 -0.2
v 0.6 1.8 -0.2
v 1.1 0.9 -0.2
v 1.1 1.2 -0.2
v 1.1 1.5 -0.2
v 1.1 1.8 -0.2
v 1.2 0.9 -0.2
v 1.2 1.8 -0.2
v -1 2.5 -0.4
v -1 2.7 -0.4
v -0.7 2.5 -0.4
v -0.7 2.7 -0.4
v -0.4 1.7 -0.4
v -0.4 2.4 -0.4
v 0.4 1.7 -0.4
v 0.4 2.4 -0.4
v 0.7 2.5 -0.4
v 0.7 2.7 -0.4
v 1 2.5 -0.4
v 1 2.7 -0.4
v -1.1 0.4 -0.5
v -1.1 1.2 -0.5
v -1.1 1.5 -0.5
v -1.1 2.3 -0.5
v -1.1 2.5 -0.5
v -1 0.8 -0.5
v -1 1.2 -0.5
v -1 1.5 -0.5
v -1 2.3 -0.5
v -0.8 0.8 -0.5
v -0.8 1.2 -0.5
v -0.8 1.5 -0.5
v -0.8 2.3 -0.5
v -0.6 0.4 -0.5
v -0.6 0.6 -0.5
v -0.6 1.2 -0.5
v -0.6 1.5 -0.5
v -0.6 2.3 -0.5
v -0.6 2.5 -0.5
v -0.5 0.6 -0.5
v -0.5 1.7 -0.5
v -0.4 0.4 -0.5
v -0.4 0.6 -0.5
v 0.4 0.4 -0.5
v 0.4 0.6 -0.5
v 0.5 0.6 -0.5
v 0.5 1.7 -0.5
v 0.6 0.4 -0.5
v 0.6 0.6 -0.5
v 0.6 1.2 -0.5
v 0.6 1.5 -0.5
v 0.6 2.3 -0.5
v 0.6 2.5 -0.5
v 0.8 0.8 -0.5
v 0.8 1.2 -0.5
v 0.8 1.5 -0.5
v 0.8 2.3 -0.5
v 1 0.8 -0.5
v 1 1.2 -0.5
v 1 1.5 -0.5
v 1 2.3 -0.5
v 1.1 0.4 -0.5
v 1.1 1.2 -0.5
v 1.1 1.5 -0.5
v 1.1 2.3 -0.5
v 1.1 2.5 -0.5
v -1.2 0.2 -0.6
v -1.2 0.4 -0.6
v -0.6 0.4 -0.6
v -0.6 0.6 -0.6
v -0.4 0.4 -0.6
v -0.4 0.6 -0.6
v 0.4 0.4 -0.6
v 0.4 0.6 -0.6
v 0.6 0.4 -0.6
v 0.6 0.6 -0.6
v 1.2 0.2 -0.6
v 1.2 0.4 -0.6
v -1.3 0 -0.7
v -1.3 0.2 -0.7
v -1 0.8 -0.7
v -1 2.3 -0.7
v -0.8 0.8 -0.7
v -0.8 2.3 -0.7
v 0.8 0.8 -0.7
v 0.8 2.3 -0.7
v 1 0.8 -0.7
v 1 2.3 -0.7
v 1.3 0 -0.7
v 1.3 0.2 -0.7
v -1.3 0 0.7
v 1.3 0 0.7
v -1.3 0 -0.7
v 1.3 0 -0.7
v -0.2 0.7 0.6
v 0.2 0.7 0.6
v -0.2 0.7 0.5
v 0.2 0.7 0.5
v -0.5 0.8 0.6
v -0.4 0.8 0.6
v 0.4 0.8 0.6
v 0.5 0.8 0.6
v -0.5 0.8 0.5
v -0.4 0.8 0.5
v 0.4 0.8 0.5
v 0.5 0.8 0.5
v -1 0.8 -0.5
v -0.8 0.8 -0.5
v 0.8 0.8 -0.5
v 1 0.8 -0.5
v -1 0.8 -0.7
v -0.8 0.8 -0.7
v 0.8 0.8 -0.7
v 1 0.8 -0.7
v -0.4 0.9 0.6
v -0.2 0.9 0.6
v 0.2 0.9 0.6
v 0.4 0.9 0.6
v -0.4 0.9 0.5
v -0.2 0.9 0.5
v 0.2 0.9 0.5
v 0.4 0.9 0.5
v -1.2 0.9 0.2
v -1.1 0.9 0.2
v -0.6 0.9 0.2
v -0.5 0.9 0.2
v 0.5 0.9 0.2
v 0.6 0.9 0.2
v 1.1 0.9 0.2
v 1.2 0.9 0.2
v -1.2 0.9 -0.2
v -1.1 0.9 -0.2
v -0.6 0.9 -0.2
v -0.5 0.9 -0.2
v 0.5 0.9 -0.2
v 0.6 0.9 -0.2
v 1.1 0.9 -0.2
v 1.2 0.9 -0.2
v -0.3 1 0.7
v 0.3 1 0.7
v -0.3 1 0.6
v 0.3 1 0.6
v -0.3 1.8 0.5
v 0.3 1.8 0.5
v -0.3 1.8 0.4
v 0.3 1.8 0.4
v -0.2 1.9 0.6
v -0.0999999 1.9 0.6
v 0.1 1.9 0.6
v 0.2 1.9 0.6
v -0.2 1.9 0.5
v -0.0999999 1.9 0.5
v 0.1 1.9 0.5
v 0.2 1.9 0.5
v -0.8 2.2 0.7
v -0.6 2.2 0.7
v -0.3 2.2 0.7
v 0.3 2.2 0.7
v 0.7 2.2 0.7
v 0.9 2.2 0.7
v -0.2 2.2 0.6
v 0.2 2.2 0.6
v -0.8 2.2 0.5
v -0.6 2.2 0.5
v -0.3 2.2 0.5
v -0.2 2.2 0.5
v 0.2 2.2 0.5
v 0.3 2.2 0.5
v 0.7 2.2 0.5
v 0.9 2.2 0.5
v -0.0999999 2.4 0.9
v 0.1 2.4 0.9
v -0.0999999 2.4 0.7
v 0.1 2.4 0.7
v -0.9 2.4 0.6
v -0.8 2.4 0.6
v 0.9 2.4 0.6
v 1 2.4 0.6
v -0.9 2.4 0.5
v -0.8 2.4 0.5
v 0.9 2.4 0.5
v 1 2.4 0.5
v -0.2 2.5 0.9
v -0.0999999 2.5 0.9
v 0.1 2.5 0.9
v 0.2 2.5 0.9
v -0.2 2.5 0.7
v -0.0999999 2.5 0.7
v 0.1 2.5 0.7
v 0.2 2.5 0.7
v -0.3 2.6 0.9
v -0.2 2.6 0.9
v 0.2 2.6 0.9
v 0.3 2.6 0.9
v -0.9 2.6 0.7
v -0.8 2.6 0.7
v -0.6 2.6 0.7
v -0.5 2.6 0.7
v -0.3 2.6 0.7
v -0.2 2.6 0.7
v 0.2 2.6 0.7
v 0.3 2.6 0.7
v 0.6 2.6 0.7
v 0.7 2.6 0.7
v 0.9 2.6 0.7
v 1 2.6 0.7
v -0.9 2.6 0.6
v -0.8 2.6 0.6
v 0.9 2.6 0.6
v 1 2.6 0.6
v -0.6 2.6 0.5
v -0.5 2.6 0.5
v 0.6 2.6 0.5
v 0.7 2.6 0.5
v -0.0999999 2.7 0.9
v 0 2.7 0.9
v -0.0999999 2.7 0.8
v 0 2.7 0.8
v -0.5 2.7 0.7
v -0.3 2.7 0.7
v -0.2 2.7 0.7
v 0.2 2.7 0.7
v 0.3 2.7 0.7
v 0.6 2.7 0.7
v -0.5 2.7 0.5
v -0.2 2.7 0.5
v 0.2 2.7 0.5
v 0.6 2.7 0.5
v -0.2 2.8 0.9
v -0.0999999 2.8 0.9
v 0.1 2.8 0.9
v 0.2 2.8 0.9
v -0.2 2.8 0.8
v -0.0999999 2.8 0.8
v 0.1 2.8 0.8
v 0.2 2.8 0.8
v 0 2.9 0.9
v 0.1 2.9 0.9
v 0 2.9 0.8
v 0.1 2.9 0.8
v -1.3 0.2 0.7
v -1.2 0.2 0.7
v -0.8 0.2 0.7
v 0.8 0.2 0.7
v 1.2 0.2 0.7
v 1.3 0.2 0.7
v -1.2 0.2 0.6
v -0.8 0.2 0.6
v 0.8 0.2 0.6
v 1.2 0.2 0.6
v -1.2 0.2 -0.6
v 1.2 0.2 -0.6
v -1.3 0.2 -0.7
v 1.3 0.2 -0.7
v -1.2 0.3 0.7
v -0.8 0.3 0.7
v 0.8 0.3 0.7
v 1.2 0.3 0.7
v -1.2 0.3 0.6
v -0.8 0.3 0.6
v 0.8 0.3 0.6
v 1.2 0.3 0.6
v -1.2 0.4 0.6
v 1.2 0.4 0.6
v -1.1 0.4 0.5
v -0.6 0.4 0.5
v -0.5 0.4 0.5
v -0.3 0.4 0.5
v 0.3 0.4 0.5
v 0.5 0.4 0.5
v 0.6 0.4 0.5
v 1.1 0.4 0.5
v -0.6 0.4 -0.3
v -0.5 0.4 -0.3
v 0.5 0.4 -0.3
v 0.6 0.4 -0.3
v -1.1 0.4 -0.5
v -0.6 0.4 -0.5
v -0.4 0.4 -0.5
v 0.4 0.4 -0.5
v 0.6 0.4 -0.5
v 1.1 0.4 -0.5
v -1.2 0.4 -0.6
v -0.6 0.4 -0.6
v -0.4 0.4 -0.6
v 0.4 0.4 -0.6
v 0.6 0.4 -0.6
v 1.2 0.4 -0.6
v -0.6 0.6 -0.3
v -0.5 0.6 -0.3
v 0.5 0.6 -0.3
v 0.6 0.6 -0.3
v -0.6 0.6 -0.5
v -0.5 0.6 -0.5
v -0.4 0.6 -0.5
v 0.4 0.6 -0.5
v 0.5 0.6 -0.5
v 0.6 0.6 -0.5
v -0.6 0.6 -0.6
v -0.4 0.6 -0.6
v 0.4 0.6 -0.6
v 0.6 0.6 -0.6
v -0.3 1.4 0.7
v 0.3 1.4 0.7
v -0.3 1.4 0.6
v 0.3 1.4 0.6
v -0.5 1.6 0.6
v -0.4 1.6 0.6
v -0.2 1.6 0.6
v -0.0999999 1.6 0.6
v 0 1.6 0.6
v 0.1 1.6 0.6
v 0.2 1.6 0.6
v 0.4 1.6 0.6
v 0.5 1.6 0.6
v -0.5 1.6 0.5
v -0.4 1.6 0.5
v -0.2 1.6 0.5
v -0.0999999 1.6 0.5
v 0 1.6 0.5
v 0.1 1.6 0.5
v 0.2 1.6 0.5
v 0.4 1.6 0.5
v 0.5 1.6 0.5
v -0.5 1.7 0.5
v 0.5 1.7 0.5
v -0.4 1.7 0.4
v 0.4 1.7 0.4
v -0.5 1.7 0.2
v 0.5 1.7 0.2
v -0.5 1.7 -0.2
v 0.5 1.7 -0.2
v -0.4 1.7 -0.4
v 0.4 1.7 -0.4
v -0.5 1.7 -0.5
v 0.5 1.7 -0.5
v -1.2 1.8 0.2
v -1.1 1.8 0.2
v -0.6 1.8 0.2
v -0.5 1.8 0.2
v 0.5 1.8 0.2
v 0.6 1.8 0.2
v 1.1 1.8 0.2
v 1.2 1.8 0.2
v -1.2 1.8 -0.2
v -1.1 1.8 -0.2
v -0.6 1.8 -0.2
v -0.5 1.8 -0.2
v 0.5 1.8 -0.2
v 0.6 1.8 -0.2
v 1.1 1.8 -0.2
v 1.2 1.8 -0.2
v -0.3 2.3 0.5
v 0.3 2.3 0.5
v -0.3 2.3 0.4
v 0.3 2.3 0.4
v -1 2.3 -0.5
v -0.8 2.3 -0.5
v 0.8 2.3 -0.5
v 1 2.3 -0.5
v -1 2.3 -0.7
v -0.8 2.3 -0.7
v 0.8 2.3 -0.7
v 1 2.3 -0.7
v -0.3 2.4 0.7
v -0.2 2.4 0.7
v 0.2 2.4 0.7
v 0.3 2.4 0.7
v -0.3 2.4 0.5
v -0.2 2.4 0.5
v 0.2 2.4 0.5
v 0.3 2.4 0.5
v -0.4 2.4 0.4
v 0.4 2.4 0.4
v -0.4 2.4 -0.4
v 0.4 2.4 -0.4
v -0.0999999 2.5 0.9
v 0 2.5 0.9
v -0.0999999 2.5 0.8
v 0 2.5 0.8
v -1.1 2.5 0.5
v -0.9 2.5 0.5
v 0.6 2.5 0.5
v 0.7 2.5 0.5
v 1 2.5 0.5
v 1.1 2.5 0.5
v -1 2.5 0.4
v -0.9 2.5 0.4
v -0.7 2.5 0.3
v -0.6 2.5 0.3
v 0.7 2.5 0.3
v 1 2.5 0.3
v -1 2.5 -0.4
v -0.7 2.5 -0.4
v 0.7 2.5 -0.4
v 1 2.5 -0.4
v -1.1 2.5 -0.5
v -0.6 2.5 -0.5
v 0.6 2.5 -0.5
v 1.1 2.5 -0.5
v -0.2 2.6 0.9
v -0.0999999 2.6 0.9
v 0.1 2.6 0.9
v 0.2 2.6 0.9
v -0.2 2.6 0.8
v -0.0999999 2.6 0.8
v 0.1 2.6 0.8
v 0.2 2.6 0.8
v 0 2.7 0.9
v 0.1 2.7 0.9
v 0 2.7 0.8
v 0.1 2.7 0.8
v -0.9 2.7 0.5
v -0.6 2.7 0.5
v 0.7 2.7 0.5
v 1 2.7 0.5
v -1 2.7 0.4
v -0.9 2.7 0.4
v -0.9 2.7 0.3
v -0.7 2.7 0.3
v -0.6 2.7 0.3
v 0.7 2.7 0.3
v 1 2.7 0.3
v -1 2.7 -0.4
v -0.7 2.7 -0.4
v 0.7 2.7 -0.4
v 1 2.7 -0.4
v -0.3 2.8 0.9
v -0.2 2.8 0.9
v 0.2 2.8 0.9
v 0.3 2.8 0.9
v -0.3 2.8 0.7
v -0.2 2.8 0.7
v 0.2 2.8 0.7
v 0.3 2.8 0.7
v -0.2 2.9 0.9
v -0.0999999 2.9 0.9
v 0.1 2.9 0.9
v 0.2 2.9 0.9
v -0.9 2.9 0.7
v -0.5 2.9 0.7
v -0.2 2.9 0.7
v -0.0999999 2.9 0.7
v 0.1 2.9 0.7
v 0.2 2.9 0.7
v 0.6 2.9 0.7
v 1 2.9 0.7
v -0.9 2.9 0.5
v -0.5 2.9 0.5
v 0.6 2.9 0.5
v 1 2.9 0.5
v -0.0999999 3 0.9
v 0.1 3 0.9
v -0.0999999 3 0.7
v 0.1 3 0.7

# faces
f 3/4/1 2/4/1 1/4/1
f 4/4/1 2/4/1 3/4/1
f 8/6/1 6/6/1 5/6/1
f 9/3/1 7/3/1 6/3/1
f 9/6/1 6/6/1 8/6/1
f 10/3/1 7/3/1 9/3/1
f 11/3/1 7/3/1 10/3/1
f 14/4/1 13/4/1 12/4/1
f 15/4/1 13/4/1 14/4/1
f 18/1/1 17/1/1 16/1/1
f 19/1/1 17/1/1 18/1/1
f 20/1/1 18/1/1 16/1/1
f 21/1/1 18/1/1 20/1/1
f 22/1/1 17/1/1 19/1/1
f 23/1/1 17/1/1 22/1/1
f 24/6/1 21/6/1 20/6/1
f 25/6/1 21/6/1 24/6/1
f 26/6/1 23/6/1 22/6/1
f 27/6/1 23/6/1 26/6/1
f 28/1/1 25/1/1 24/1/1
f 29/1/1 27/1/1 26/1/1
f 30/1/1 28/1/1 24/1/1
f 30/1/1 29/1/1 28/1/1
f 31/1/1 27/1/1 29/1/1
f 31/1/1 29/1/1 30/1/1
f 32/3/1 31/3/1 30/3/1
f 33/3/1 31/3/1 32/3/1
f 36/4/1 35/4/1 34/4/1
f 37/4/1 35/4/1 36/4/1
f 38/4/1 35/4/1 37/4/1
f 39/4/1 35/4/1 38/4/1
f 42/5/1 41/5/1 40/5/1
f 43/5/1 41/5/1 42/5/1
f 46/4/1 45/4/1 44/4/1
f 49/4/1 46/4/1 44/4/1
f 49/4/1 47/4/1 46/4/1
f 50/4/1 47/4/1 49/4/1
f 50/6/1 49/6/1 48/6/1
f 51/4/1 47/4/1 50/4/1
f 52/4/1 47/4/1 51/4/1
f 53/6/1 50/6/1 48/6/1
f 53/6/1 51/6/1 50/6/1
f 54/6/1 51/6/1 53/6/1
f 57/4/1 56/4/1 55/4/1
f 58/4/1 57/4/1 55/4/1
f 59/4/1 57/4/1 58/4/1
f 60/4/1 58/4/1 55/4/1
f 61/4/1 58/4/1 60/4/1
f 64/3/1 63/3/1 62/3/1
f 65/3/1 63/3/1 64/3/1
f 68/1/1 67/1/1 66/1/1
f 71/1/1 68/1/1 66/1/1
f 71/1/1 69/1/1 68/1/1
f 72/1/1 69/1/1 71/1/1
f 73/1/1 69/1/1 72/1/1
f 74/1/1 69/1/1 73/1/1
f 75/6/1 71/6/1 70/6/1
f 75/6/1 72/6/1 71/6/1
f 76/6/1 72/6/1 75/6/1
f 77/1/1 73/1/1 72/1/1
f 77/6/1 72/6/1 76/6/1
f 78/1/1 77/1/1 76/1/1
f 79/1/1 73/1/1 77/1/1
f 79/1/1 77/1/1 78/1/1
f 80/1/1 69/1/1 74/1/1
f 81/1/1 69/1/1 80/1/1
f 84/3/1 83/3/1 82/3/1
f 85/3/1 83/3/1 84/3/1
f 88/7/1 87/7/1 86/7/1
f 89/7/1 87/7/1 88/7/1
f 93/5/1 91/5/1 90/5/1
f 94/5/1 91/5/1 93/5/1
f 94/6/1 93/6/1 92/6/1
f 95/5/1 91/5/1 94/5/1
f 96/6/1 94/6/1 92/6/1
f 97/6/1 94/6/1 96/6/1
f 100/9/1 99/9/1 98/9/1
f 101/9/1 100/9/1 98/9/1
f 102/9/1 100/9/1 101/9/1
f 105/4/1 104/4/1 103/4/1
f 106/4/1 104/4/1 105/4/1
f 109/8/1 108/8/1 107/8/1
f 110/8/1 108/8/1 109/8/1
f 111/7/1 110/7/1 109/7/1
f 112/7/1 110/7/1 111/7/1
f 116/4/1 114/4/1 113/4/1
f 117/9/1 116/9/1 115/9/1
f 118/4/1 114/4/1 116/4/1
f 118/9/1 116/9/1 117/9/1
f 119/4/1 114/4/1 118/4/1
f 120/4/1 114/4/1 119/4/1
f 123/9/1 122/9/1 121/9/1
f 124/9/1 122/9/1 123/9/1
f 127/9/1 126/9/1 125/9/1
f 128/9/1 126/9/1 127/9/1
f 131/12/1 130/12/1 129/12/1
f 132/12/1 130/12/1 131/12/1
f 135/9/1 134/9/1 133/9/1
f 136/9/1 134/9/1 135/9/1
f 139/12/1 138/12/1 137/12/1
f 140/12/1 138/12/1 139/12/1
f 143/9/1 142/9/1 141/9/1
f 144/9/1 142/9/1 143/9/1
f 147/9/1 146/9/1 145/9/1
f 148/9/1 146/9/1 147/9/1
f 151/3/1 150/3/1 149/3/1
f 152/3/1 150/3/1 151/3/1
f 155/6/1 154/6/1 153/6/1
f 156/6/1 154/6/1 155/6/1
f 159/4/1 158/4/1 157/4/1
f 160/4/1 158/4/1 159/4/1
f 163/1/1 162/1/1 161/1/1
f 165/1/1 163/1/1 161/1/1
f 165/1/1 164/1/1 163/1/1
f 166/1/1 164/1/1 165/1/1
f 167/1/1 165/1/1 161/1/1
f 168/1/1 165/1/1 167/1/1
f 169/1/1 164/1/1 166/1/1
f 170/1/1 164/1/1 169/1/1
f 171/6/1 168/6/1 167/6/1
f 172/6/1 168/6/1 171/6/1
f 173/6/1 170/6/1 169/6/1
f 174/6/1 170/6/1 173/6/1
f 175/1/1 172/1/1 171/1/1
f 176/1/1 174/1/1 173/1/1
f 177/1/1 175/1/1 171/1/1
f 177/1/1 176/1/1 175/1/1
f 178/1/1 174/1/1 176/1/1
f 178/1/1 176/1/1 177/1/1
f 179/3/1 178/3/1 177/3/1
f 180/3/1 178/3/1 179/3/1
f 183/6/1 182/6/1 181/6/1
f 184/6/1 182/6/1 183/6/1
f 187/4/1 186/4/1 185/4/1
f 188/4/1 187/4/1 185/4/1
f 191/4/1 188/4/1 185/4/1
f 191/4/1 189/4/1 188/4/1
f 192/4/1 189/4/1 191/4/1
f 193/4/1 189/4/1 192/4/1
f 194/5/1 190/5/1 189/5/1
f 194/4/1 189/4/1 193/4/1
f 195/5/1 190/5/1 194/5/1
f 198/6/1 197/6/1 196/6/1
f 199/6/1 197/6/1 198/6/1
f 202/4/1 201/4/1 200/4/1
f 203/4/1 201/4/1 202/4/1
f 204/4/1 201/4/1 203/4/1
f 205/4/1 201/4/1 204/4/1
f 206/6/2 207/6/2 208/6/2
f 208/6/2 207/6/2 209/6/2
f 210/4/2 211/4/2 212/4/2
f 212/4/2 211/4/2 213/4/2
f 213/4/2 211/4/2 214/4/2
f 214/4/2 211/4/2 215/4/2
f 216/5/2 217/5/2 218/5/2
f 218/5/2 217/5/2 219/5/2
f 220/1/2 221/1/2 222/1/2
f 220/1/2 222/1/2 224/1/2
f 222/1/2 223/1/2 224/1/2
f 224/1/2 223/1/2 225/1/2
f 220/1/2 224/1/2 226/1/2
f 226/1/2 224/1/2 227/1/2
f 225/1/2 223/1/2 228/1/2
f 228/1/2 223/1/2 229/1/2
f 226/6/2 227/6/2 230/6/2
f 230/6/2 227/6/2 231/6/2
f 228/6/2 229/6/2 232/6/2
f 232/6/2 229/6/2 233/6/2
f 230/1/2 231/1/2 234/1/2
f 232/1/2 233/1/2 235/1/2
f 230/1/2 234/1/2 237/1/2
f 234/1/2 235/1/2 237/1/2
f 237/1/2 235/1/2 238/1/2
f 236/4/2 237/4/2 238/4/2
f 235/1/2 233/1/2 239/1/2
f 238/1/2 235/1/2 239/1/2
f 236/4/2 238/4/2 240/4/2
f 238/3/2 239/3/2 240/3/2
f 240/3/2 239/3/2 241/3/2
f 240/4/2 241/4/2 242/4/2
f 241/3/2 239/3/2 242/3/2
f 242/3/2 239/3/2 243/3/2
f 236/4/2 240/4/2 244/4/2
f 240/4/2 242/4/2 244/4/2
f 244/4/2 242/4/2 245/4/2
f 245/4/2 242/4/2 246/4/2
f 246/4/2 242/4/2 247/4/2
f 248/4/2 249/4/2 250/4/2
f 250/4/2 249/4/2 251/4/2
f 252/6/2 253/6/2 254/6/2
f 254/6/2 253/6/2 255/6/2
f 256/3/2 257/3/2 258/3/2
f 258/3/2 257/3/2 259/3/2
f 260/6/2 261/6/2 262/6/2
f 262/6/2 261/6/2 263/6/2
f 264/9/2 265/9/2 266/9/2
f 266/9/2 265/9/2 267/9/2
f 268/9/2 269/9/2 270/9/2
f 270/9/2 269/9/2 271/9/2
f 272/12/2 273/12/2 274/12/2
f 274/12/2 273/12/2 275/12/2
f 276/9/2 277/9/2 278/9/2
f 278/9/2 277/9/2 279/9/2
f 280/12/2 281/12/2 282/12/2
f 282/12/2 281/12/2 283/12/2
f 284/9/2 285/9/2 286/9/2
f 286/9/2 285/9/2 287/9/2
f 288/4/2 289/4/2 290/4/2
f 290/4/2 289/4/2 291/4/2
f 292/8/2 293/8/2 294/8/2
f 294/8/2 293/8/2 295/8/2
f 294/7/2 295/7/2 296/7/2
f 296/7/2 295/7/2 297/7/2
f 298/4/2 299/4/2 301/4/2
f 300/9/2 301/9/2 302/9/2
f 301/4/2 299/4/2 303/4/2
f 302/9/2 301/9/2 303/9/2
f 303/4/2 299/4/2 304/4/2
f 304/4/2 299/4/2 305/4/2
f 306/9/2 307/9/2 308/9/2
f 308/9/2 307/9/2 309/9/2
f 310/7/2 311/7/2 312/7/2
f 312/7/2 311/7/2 313/7/2
f 314/5/2 315/5/2 317/5/2
f 317/5/2 315/5/2 318/5/2
f 316/6/2 317/6/2 318/6/2
f 318/5/2 315/5/2 319/5/2
f 316/6/2 318/6/2 320/6/2
f 320/6/2 318/6/2 321/6/2
f 322/9/2 323/9/2 324/9/2
f 322/9/2 324/9/2 325/9/2
f 325/9/2 324/9/2 326/9/2
f 327/3/2 328/3/2 329/3/2
f 329/3/2 328/3/2 330/3/2
f 331/1/2 332/1/2 333/1/2
f 331/1/2 333/1/2 336/1/2
f 333/1/2 334/1/2 336/1/2
f 336/1/2 334/1/2 337/1/2
f 337/1/2 334/1/2 338/1/2
f 338/1/2 334/1/2 339/1/2
f 335/6/2 336/6/2 340/6/2
f 336/6/2 337/6/2 340/6/2
f 340/6/2 337/6/2 341/6/2
f 337/1/2 338/1/2 342/1/2
f 341/6/2 337/6/2 342/6/2
f 341/1/2 342/1/2 343/1/2
f 342/1/2 338/1/2 344/1/2
f 343/1/2 342/1/2 344/1/2
f 339/1/2 334/1/2 345/1/2
f 345/1/2 334/1/2 346/1/2
f 347/3/2 348/3/2 349/3/2
f 349/3/2 348/3/2 350/3/2
f 351/4/2 352/4/2 353/4/2
f 351/4/2 353/4/2 354/4/2
f 354/4/2 353/4/2 355/4/2
f 351/4/2 354/4/2 356/4/2
f 356/4/2 354/4/2 357/4/2
f 358/4/2 359/4/2 360/4/2
f 360/4/2 359/4/2 361/4/2
f 361/4/2 359/4/2 362/4/2
f 362/4/2 359/4/2 363/4/2
f 364/4/2 365/4/2 366/4/2
f 364/4/2 366/4/2 370/4/2
f 366/4/2 367/4/2 370/4/2
f 370/4/2 367/4/2 371/4/2
f 369/6/2 370/6/2 371/6/2
f 371/4/2 367/4/2 372/4/2
f 367/5/2 368/5/2 373/5/2
f 372/4/2 367/4/2 373/4/2
f 373/5/2 368/5/2 374/5/2
f 371/6/2 372/6/2 375/6/2
f 369/6/2 371/6/2 375/6/2
f 375/6/2 372/6/2 376/6/2
f 377/1/2 378/1/2 379/1/2
f 379/1/2 378/1/2 380/1/2
f 377/1/2 379/1/2 381/1/2
f 381/1/2 379/1/2 382/1/2
f 380/1/2 378/1/2 383/1/2
f 383/1/2 378/1/2 384/1/2
f 381/6/2 382/6/2 385/6/2
f 385/6/2 382/6/2 386/6/2
f 383/6/2 384/6/2 387/6/2
f 387/6/2 384/6/2 388/6/2
f 385/1/2 386/1/2 389/1/2
f 387/1/2 388/1/2 390/1/2
f 385/1/2 389/1/2 391/1/2
f 389/1/2 390/1/2 391/1/2
f 390/1/2 388/1/2 392/1/2
f 391/1/2 390/1/2 392/1/2
f 391/3/2 392/3/2 393/3/2
f 393/3/2 392/3/2 394/3/2
f 395/6/2 396/6/2 398/6/2
f 396/3/2 397/3/2 399/3/2
f 398/6/2 396/6/2 399/6/2
f 399/3/2 397/3/2 400/3/2
f 400/3/2 397/3/2 401/3/2
f 402/4/2 403/4/2 404/4/2
f 404/4/2 403/4/2 405/4/2
f 406/4/2 407/4/2 408/4/2
f 408/4/2 407/4/2 409/4/2
f 413/9/3 411/9/3 410/9/3
f 414/9/3 411/9/3 413/9/3
f 417/9/3 413/9/3 412/9/3
f 418/9/3 413/9/3 417/9/3
f 420/9/3 415/9/3 414/9/3
f 421/9/3 415/9/3 420/9/3
f 423/9/3 417/9/3 416/9/3
f 424/12/3 421/12/3 420/12/3
f 424/12/3 420/12/3 419/12/3
f 425/9/3 422/9/3 421/9/3
f 425/12/3 421/12/3 424/12/3
f 426/9/3 423/9/3 416/9/3
f 427/12/3 424/12/3 423/12/3
f 427/9/3 423/9/3 426/9/3
f 428/12/3 424/12/3 427/12/3
f 429/12/3 424/12/3 428/12/3
f 431/9/3 422/9/3 425/9/3
f 432/9/3 422/9/3 431/9/3
f 433/9/3 428/9/3 427/9/3
f 434/9/3 428/9/3 433/9/3
f 435/9/3 431/9/3 430/9/3
f 436/9/3 431/9/3 435/9/3
f 437/9/3 435/9/3 434/9/3
f 438/9/3 435/9/3 437/9/3
f 442/9/3 440/9/3 439/9/3
f 443/9/3 440/9/3 442/9/3
f 444/9/3 440/9/3 443/9/3
f 445/9/3 442/9/3 441/9/3
f 445/9/3 443/9/3 442/9/3
f 446/9/3 443/9/3 445/9/3
f 449/9/3 447/9/3 446/9/3
f 450/9/3 447/9/3 449/9/3
f 451/9/3 447/9/3 450/9/3
f 452/9/3 449/9/3 448/9/3
f 452/9/3 450/9/3 449/9/3
f 453/9/3 450/9/3 452/9/3
f 456/4/3 455/4/3 454/4/3
f 457/4/3 455/4/3 456/4/3
f 461/4/3 456/4/3 454/4/3
f 461/6/3 457/6/3 456/6/3
f 461/6/3 458/6/3 457/6/3
f 462/6/3 458/6/3 461/6/3
f 463/6/3 458/6/3 462/6/3
f 465/6/3 460/6/3 459/6/3
f 466/4/3 465/4/3 464/4/3
f 467/6/3 460/6/3 465/6/3
f 467/4/3 465/4/3 466/4/3
f 468/6/3 460/6/3 467/6/3
f 469/6/3 460/6/3 468/6/3
f 470/6/3 460/6/3 469/6/3
f 475/4/3 470/4/3 469/4/3
f 476/4/3 470/4/3 475/4/3
f 477/7/3 472/7/3 471/7/3
f 478/7/3 472/7/3 477/7/3
f 479/6/3 474/6/3 473/6/3
f 481/4/3 470/4/3 476/4/3
f 482/4/3 470/4/3 481/4/3
f 483/7/3 477/7/3 471/7/3
f 483/8/3 478/8/3 477/8/3
f 484/8/3 478/8/3 483/8/3
f 485/4/3 480/4/3 479/4/3
f 485/6/3 479/6/3 473/6/3
f 486/4/3 480/4/3 485/4/3
f 487/8/3 478/8/3 484/8/3
f 487/7/3 484/7/3 483/7/3
f 488/7/3 472/7/3 478/7/3
f 488/8/3 478/8/3 487/8/3
f 489/7/3 487/7/3 483/7/3
f 489/7/3 483/7/3 471/7/3
f 489/7/3 488/7/3 487/7/3
f 490/7/3 472/7/3 488/7/3
f 490/7/3 488/7/3 489/7/3
f 491/6/3 485/6/3 473/6/3
f 493/7/3 489/7/3 471/7/3
f 493/8/3 490/8/3 489/8/3
f 494/7/3 472/7/3 490/7/3
f 494/8/3 490/8/3 493/8/3
f 495/4/3 492/4/3 491/4/3
f 495/6/3 491/6/3 473/6/3
f 496/4/3 492/4/3 495/4/3
f 499/7/3 493/7/3 471/7/3
f 499/7/3 494/7/3 493/7/3
f 500/7/3 472/7/3 494/7/3
f 500/7/3 494/7/3 499/7/3
f 501/6/3 495/6/3 473/6/3
f 502/6/3 495/6/3 501/6/3
f 504/4/3 498/4/3 497/4/3
f 506/4/3 504/4/3 503/4/3
f 507/4/3 498/4/3 504/4/3
f 507/4/3 504/4/3 506/4/3
f 509/6/3 506/6/3 505/6/3
f 509/6/3 507/6/3 506/6/3
f 510/4/3 461/4/3 454/4/3
f 510/4/3 462/4/3 461/4/3
f 511/4/3 462/4/3 510/4/3
f 513/4/3 509/4/3 508/4/3
f 514/6/3 507/6/3 509/6/3
f 514/4/3 509/4/3 513/4/3
f 515/6/3 507/6/3 514/6/3
f 516/6/3 507/6/3 515/6/3
f 517/6/3 512/6/3 511/6/3
f 517/4/3 510/4/3 454/4/3
f 517/6/3 511/6/3 510/6/3
f 518/6/3 512/6/3 517/6/3
f 519/6/3 512/6/3 518/6/3
f 520/4/3 517/4/3 454/4/3
f 520/4/3 518/4/3 517/4/3
f 521/4/3 518/4/3 520/4/3
f 527/3/3 523/3/3 522/3/3
f 528/4/3 525/4/3 524/4/3
f 529/4/3 525/4/3 528/4/3
f 532/6/3 531/6/3 530/6/3
f 533/6/3 531/6/3 532/6/3
f 534/6/3 531/6/3 533/6/3
f 535/3/3 534/3/3 533/3/3
f 536/3/3 534/3/3 535/3/3
f 538/3/3 535/3/3 533/3/3
f 539/3/3 534/3/3 536/3/3
f 540/3/3 534/3/3 539/3/3
f 544/10/3 540/10/3 539/10/3
f 544/3/3 539/3/3 536/3/3
f 545/10/3 540/10/3 544/10/3
f 546/8/3 542/8/3 541/8/3
f 547/7/3 543/7/3 542/7/3
f 547/8/3 542/8/3 546/8/3
f 548/7/3 543/7/3 547/7/3
f 549/11/3 545/11/3 544/11/3
f 549/3/3 544/3/3 536/3/3
f 550/11/3 545/11/3 549/11/3
f 551/3/3 549/3/3 536/3/3
f 551/12/3 550/12/3 549/12/3
f 552/12/3 550/12/3 551/12/3
f 553/7/3 547/7/3 546/7/3
f 554/8/3 548/8/3 547/8/3
f 554/7/3 547/7/3 553/7/3
f 555/4/3 538/4/3 537/4/3
f 556/3/3 535/3/3 538/3/3
f 556/4/3 538/4/3 555/4/3
f 557/8/3 552/8/3 551/8/3
f 557/3/3 551/3/3 536/3/3
f 558/8/3 552/8/3 557/8/3
f 559/8/3 554/8/3 553/8/3
f 560/8/3 548/8/3 554/8/3
f 560/8/3 554/8/3 559/8/3
f 560/7/3 543/7/3 548/7/3
f 561/7/3 543/7/3 560/7/3
f 562/3/3 535/3/3 556/3/3
f 563/3/3 557/3/3 536/3/3
f 563/3/3 558/3/3 557/3/3
f 565/3/3 562/3/3 556/3/3
f 565/3/3 563/3/3 562/3/3
f 566/3/3 558/3/3 563/3/3
f 566/3/3 563/3/3 565/3/3
f 567/6/3 565/6/3 564/6/3
f 567/6/3 566/6/3 565/6/3
f 568/6/3 566/6/3 567/6/3
f 569/3/3 527/3/3 526/3/3
f 570/3/3 523/3/3 527/3/3
f 570/3/3 527/3/3 569/3/3
f 573/4/3 572/4/3 571/4/3
f 574/4/3 572/4/3 573/4/3
f 575/3/3 523/3/3 570/3/3
f 576/3/3 523/3/3 575/3/3
f 582/3/3 581/3/3 580/3/3
f 583/3/3 581/3/3 582/3/3
f 584/1/3 580/1/3 579/1/3
f 585/3/3 582/3/3 580/3/3
f 585/1/3 580/1/3 584/1/3
f 586/3/3 582/3/3 585/3/3
f 587/1/3 578/1/3 577/1/3
f 588/6/3 579/6/3 578/6/3
f 588/1/3 578/1/3 587/1/3
f 589/1/3 584/1/3 579/1/3
f 589/6/3 579/6/3 588/6/3
f 590/1/3 584/1/3 589/1/3
f 595/1/3 592/1/3 591/1/3
f 597/1/3 594/1/3 593/1/3
f 598/1/3 596/1/3 595/1/3
f 598/1/3 595/1/3 591/1/3
f 599/1/3 596/1/3 598/1/3
f 602/5/3 599/5/3 598/5/3
f 602/1/3 596/1/3 599/1/3
f 603/1/3 596/1/3 602/1/3
f 604/1/3 594/1/3 597/1/3
f 605/5/3 601/5/3 600/5/3
f 606/5/3 601/5/3 605/5/3
f 607/5/3 601/5/3 606/5/3
f 608/1/3 594/1/3 604/1/3
f 609/5/3 605/5/3 600/5/3
f 610/1/3 594/1/3 608/1/3
f 611/1/3 594/1/3 610/1/3
f 612/5/3 609/5/3 600/5/3
f 613/5/3 602/5/3 598/5/3
f 615/1/3 594/1/3 611/1/3
f 616/5/3 612/5/3 600/5/3
f 619/5/3 613/5/3 598/5/3
f 620/1/3 614/1/3 613/1/3
f 620/5/3 613/5/3 619/5/3
f 621/5/3 616/5/3 600/5/3
f 621/5/3 618/5/3 617/5/3
f 621/5/3 617/5/3 616/5/3
f 622/5/3 618/5/3 621/5/3
f 623/1/3 614/1/3 620/1/3
f 623/1/3 620/1/3 619/1/3
f 624/1/3 614/1/3 623/1/3
f 625/1/3 594/1/3 615/1/3
f 626/1/3 623/1/3 619/1/3
f 627/1/3 623/1/3 626/1/3
f 628/1/3 594/1/3 625/1/3
f 629/1/3 594/1/3 628/1/3
f 635/1/3 633/1/3 632/1/3
f 636/3/3 634/3/3 633/3/3
f 636/1/3 633/1/3 635/1/3
f 637/3/3 634/3/3 636/3/3
f 638/1/3 635/1/3 632/1/3
f 641/3/3 640/3/3 639/3/3
f 643/1/3 631/1/3 630/1/3
f 644/6/3 632/6/3 631/6/3
f 644/1/3 631/1/3 643/1/3
f 645/1/3 638/1/3 632/1/3
f 645/6/3 632/6/3 644/6/3
f 645/1/3 639/1/3 638/1/3
f 646/3/3 642/3/3 641/3/3
f 646/1/3 639/1/3 645/1/3
f 646/3/3 641/3/3 639/3/3
f 647/3/3 642/3/3 646/3/3
f 650/5/3 649/5/3 648/5/3
f 651/5/3 649/5/3 650/5/3
f 654/3/3 653/3/3 652/3/3
f 655/3/3 653/3/3 654/3/3
f 656/3/3 654/3/3 652/3/3
f 657/3/3 653/3/3 655/3/3
f 658/3/3 656/3/3 652/3/3
f 658/3/3 657/3/3 656/3/3
f 659/3/3 653/3/3 657/3/3
f 659/3/3 657/3/3 658/3/3
f 662/4/3 661/4/3 660/4/3
f 663/4/3 661/4/3 662/4/3
f 664/4/3 661/4/3 663/4/3
f 665/4/3 661/4/3 664/4/3
f 670/4/3 667/4/3 666/4/3
f 670/4/3 669/4/3 668/4/3
f 670/4/3 668/4/3 667/4/3
f 671/4/3 669/4/3 670/4/3
f 672/4/3 669/4/3 671/4/3
f 676/4/3 674/4/3 673/4/3
f 676/4/3 675/4/3 674/4/3
f 677/4/3 675/4/3 676/4/3
f 678/4/3 675/4/3 677/4/3
f 679/4/3 675/4/3 678/4/3
f 684/4/3 681/4/3 680/4/3
f 684/4/3 683/4/3 682/4/3
f 684/4/3 682/4/3 681/4/3
f 685/4/3 683/4/3 684/4/3
f 688/3/3 687/3/3 686/3/3
f 689/3/3 687/3/3 688/3/3
f 692/3/3 691/3/3 690/3/3
f 693/3/3 691/3/3 692/3/3
f 694/9/4 695/9/4 696/9/4
f 696/9/4 695/9/4 697/9/4
f 698/9/4 699/9/4 700/9/4
f 700/9/4 699/9/4 701/9/4
f 702/9/4 703/9/4 704/9/4
f 704/9/4 703/9/4 705/9/4
f 706/6/4 707/6/4 709/6/4
f 708/6/4 709/6/4 710/6/4
f 709/6/4 707/6/4 711/6/4
f 710/6/4 709/6/4 711/6/4
f 711/6/4 707/6/4 712/6/4
f 713/6/4 714/6/4 715/6/4
f 711/4/4 712/4/4 716/4/4
f 713/6/4 715/6/4 717/6/4
f 715/4/4 716/4/4 717/4/4
f 716/4/4 712/4/4 718/4/4
f 717/4/4 716/4/4 718/4/4
f 713/6/4 717/6/4 719/6/4
f 719/6/4 717/6/4 720/6/4
f 718/4/4 712/4/4 722/4/4
f 722/4/4 712/4/4 723/4/4
f 721/6/4 722/6/4 724/6/4
f 722/6/4 723/6/4 724/6/4
f 724/6/4 723/6/4 725/6/4
f 725/6/4 723/6/4 726/6/4
f 726/6/4 723/6/4 727/6/4
f 728/4/4 729/4/4 730/4/4
f 730/4/4 729/4/4 731/4/4
f 732/4/4 733/4/4 734/4/4
f 734/4/4 733/4/4 735/4/4
f 735/4/4 733/4/4 736/4/4
f 736/4/4 733/4/4 737/4/4
f 738/4/4 739/4/4 742/4/4
f 740/4/4 741/4/4 742/4/4
f 739/4/4 740/4/4 742/4/4
f 742/4/4 741/4/4 743/4/4
f 743/4/4 741/4/4 744/4/4
f 745/4/4 746/4/4 748/4/4
f 746/4/4 747/4/4 748/4/4
f 748/4/4 747/4/4 749/4/4
f 749/4/4 747/4/4 750/4/4
f 750/4/4 747/4/4 751/4/4
f 752/4/4 753/4/4 756/4/4
f 754/4/4 755/4/4 756/4/4
f 753/4/4 754/4/4 756/4/4
f 756/4/4 755/4/4 757/4/4
f 758/5/4 759/5/4 760/5/4
f 760/5/4 759/5/4 761/5/4
f 762/3/4 763/3/4 764/3/4
f 764/3/4 763/3/4 765/3/4
f 766/5/4 767/5/4 768/5/4
f 768/5/4 767/5/4 769/5/4
f 770/1/4 771/1/4 775/1/4
f 771/6/4 772/6/4 776/6/4
f 775/1/4 771/1/4 776/1/4
f 772/1/4 773/1/4 777/1/4
f 776/6/4 772/6/4 777/6/4
f 773/3/4 774/3/4 778/3/4
f 777/1/4 773/1/4 778/1/4
f 770/1/4 775/1/4 779/1/4
f 778/3/4 774/3/4 782/3/4
f 770/1/4 779/1/4 783/1/4
f 779/1/4 780/1/4 783/1/4
f 783/1/4 780/1/4 784/1/4
f 780/6/4 781/6/4 785/6/4
f 784/1/4 780/1/4 785/1/4
f 781/1/4 782/1/4 786/1/4
f 785/6/4 781/6/4 786/6/4
f 782/3/4 774/3/4 787/3/4
f 786/1/4 782/1/4 787/1/4
f 787/3/4 774/3/4 788/3/4
f 789/1/4 790/1/4 792/1/4
f 791/1/4 792/1/4 793/1/4
f 792/1/4 790/1/4 794/1/4
f 793/1/4 792/1/4 794/1/4
f 794/1/4 790/1/4 795/1/4
f 795/1/4 790/1/4 796/1/4
f 797/1/4 798/1/4 803/1/4
f 798/1/4 799/1/4 803/1/4
f 799/6/4 800/6/4 804/6/4
f 803/1/4 799/1/4 804/1/4
f 800/1/4 801/1/4 805/1/4
f 804/6/4 800/6/4 805/6/4
f 801/3/4 802/3/4 806/3/4
f 805/1/4 801/1/4 806/1/4
f 797/1/4 803/1/4 807/1/4
f 806/3/4 802/3/4 810/3/4
f 797/1/4 807/1/4 811/1/4
f 807/1/4 808/1/4 811/1/4
f 808/6/4 809/6/4 812/6/4
f 811/1/4 808/1/4 812/1/4
f 809/1/4 810/1/4 813/1/4
f 812/6/4 809/6/4 813/6/4
f 810/3/4 802/3/4 814/3/4
f 813/1/4 810/1/4 814/1/4
f 814/3/4 802/3/4 815/3/4
f 816/3/4 817/3/4 818/3/4
f 816/3/4 818/3/4 820/3/4
f 818/3/4 819/3/4 820/3/4
f 820/3/4 819/3/4 821/3/4
f 816/3/4 820/3/4 822/3/4
f 816/3/4 822/3/4 824/3/4
f 822/3/4 823/3/4 824/3/4
f 824/3/4 823/3/4 825/3/4
f 816/3/4 824/3/4 826/3/4
f 826/3/4 824/3/4 827/3/4
f 830/4/4 831/4/4 832/4/4
f 832/4/4 831/4/4 833/4/4
f 834/4/4 835/4/4 836/4/4
f 836/4/4 835/4/4 837/4/4
f 828/4/4 829/4/4 838/4/4
f 838/4/4 829/4/4 839/4/4
f 842/4/5 841/4/5 840/4/5
f 843/4/5 841/4/5 842/4/5
f 846/4/5 845/4/5 844/4/5
f 847/4/5 845/4/5 846/4/5
f 852/6/5 849/6/5 848/6/5
f 853/6/5 849/6/5 852/6/5
f 854/6/5 851/6/5 850/6/5
f 855/6/5 851/6/5 854/6/5
f 860/4/5 857/4/5 856/4/5
f 861/4/5 857/4/5 860/4/5
f 862/4/5 859/4/5 858/4/5
f 863/4/5 859/4/5 862/4/5
f 868/3/5 865/3/5 864/3/5
f 869/3/5 865/3/5 868/3/5
f 870/3/5 867/3/5 866/3/5
f 871/3/5 867/3/5 870/3/5
f 880/4/5 873/4/5 872/4/5
f 881/4/5 873/4/5 880/4/5
f 882/4/5 875/4/5 874/4/5
f 883/4/5 875/4/5 882/4/5
f 884/4/5 877/4/5 876/4/5
f 885/4/5 877/4/5 884/4/5
f 886/4/5 879/4/5 878/4/5
f 887/4/5 879/4/5 886/4/5
f 890/7/5 889/7/5 888/7/5
f 891/7/5 889/7/5 890/7/5
f 894/5/5 893/5/5 892/5/5
f 895/5/5 893/5/5 894/5/5
f 900/8/5 897/8/5 896/8/5
f 901/7/5 898/7/5 897/7/5
f 901/8/5 897/8/5 900/8/5
f 902/8/5 899/8/5 898/8/5
f 902/7/5 898/7/5 901/7/5
f 903/8/5 899/8/5 902/8/5
f 910/6/5 907/6/5 906/6/5
f 911/6/5 907/6/5 910/6/5
f 912/4/5 905/4/5 904/4/5
f 913/4/5 905/4/5 912/4/5
f 914/6/5 910/6/5 906/6/5
f 915/6/5 910/6/5 914/6/5
f 916/6/5 907/6/5 911/6/5
f 917/6/5 907/6/5 916/6/5
f 918/4/5 909/4/5 908/4/5
f 919/4/5 909/4/5 918/4/5
f 922/9/5 921/9/5 920/9/5
f 923/9/5 921/9/5 922/9/5
f 928/4/5 925/4/5 924/4/5
f 929/4/5 925/4/5 928/4/5
f 930/4/5 927/4/5 926/4/5
f 931/4/5 927/4/5 930/4/5
f 936/9/5 933/9/5 932/9/5
f 937/9/5 933/9/5 936/9/5
f 938/9/5 935/9/5 934/9/5
f 939/9/5 935/9/5 938/9/5
f 948/9/5 941/9/5 940/9/5
f 949/9/5 941/9/5 948/9/5
f 950/9/5 943/9/5 942/9/5
f 951/9/5 943/9/5 950/9/5
f 956/6/5 945/6/5 944/6/5
f 957/6/5 945/6/5 956/6/5
f 958/6/5 955/6/5 954/6/5
f 959/6/5 955/6/5 958/6/5
f 960/6/5 947/6/5 946/6/5
f 961/6/5 947/6/5 960/6/5
f 962/6/5 953/6/5 952/6/5
f 963/6/5 953/6/5 962/6/5
f 966/12/5 965/12/5 964/12/5
f 967/12/5 965/12/5 966/12/5
f 974/4/5 970/4/5 969/4/5
f 974/4/5 969/4/5 968/4/5
f 975/4/5 970/4/5 974/4/5
f 976/4/5 973/4/5 972/4/5
f 976/4/5 972/4/5 971/4/5
f 977/4/5 973/4/5 976/4/5
f 982/9/5 979/9/5 978/9/5
f 983/9/5 979/9/5 982/9/5
f 984/9/5 981/9/5 980/9/5
f 985/9/5 981/9/5 984/9/5
f 988/9/5 987/9/5 986/9/5
f 989/9/5 987/9/5 988/9/5
f 990/4/6 991/4/6 996/4/6
f 992/4/6 993/4/6 997/4/6
f 997/4/6 993/4/6 998/4/6
f 994/4/6 995/4/6 999/4/6
f 990/4/6 996/4/6 1000/4/6
f 999/4/6 995/4/6 1001/4/6
f 990/4/6 1000/4/6 1002/4/6
f 1000/4/6 1001/4/6 1002/4/6
f 1001/4/6 995/4/6 1003/4/6
f 1002/4/6 1001/4/6 1003/4/6
f 1004/6/6 1005/6/6 1008/6/6
f 1008/6/6 1005/6/6 1009/6/6
f 1006/6/6 1007/6/6 1010/6/6
f 1010/6/6 1007/6/6 1011/6/6
f 1012/3/6 1013/3/6 1014/3/6
f 1014/3/6 1013/3/6 1015/3/6
f 1015/3/6 1013/3/6 1016/3/6
f 1016/3/6 1013/3/6 1017/3/6
f 1017/3/6 1013/3/6 1018/3/6
f 1018/3/6 1013/3/6 1019/3/6
f 1019/3/6 1013/3/6 1020/3/6
f 1020/3/6 1013/3/6 1021/3/6
f 1015/3/6 1016/3/6 1022/3/6
f 1022/3/6 1016/3/6 1023/3/6
f 1019/3/6 1020/3/6 1024/3/6
f 1024/3/6 1020/3/6 1025/3/6
f 1012/3/6 1014/3/6 1026/3/6
f 1021/3/6 1013/3/6 1031/3/6
f 1026/3/6 1027/3/6 1032/3/6
f 1012/3/6 1026/3/6 1032/3/6
f 1032/3/6 1027/3/6 1033/3/6
f 1028/3/6 1029/3/6 1034/3/6
f 1034/3/6 1029/3/6 1035/3/6
f 1030/3/6 1031/3/6 1036/3/6
f 1031/3/6 1013/3/6 1037/3/6
f 1036/3/6 1031/3/6 1037/3/6
f 1038/3/6 1039/3/6 1042/3/6
f 1042/3/6 1039/3/6 1043/3/6
f 1040/3/6 1041/3/6 1046/3/6
f 1046/3/6 1041/3/6 1047/3/6
f 1043/3/6 1044/3/6 1048/3/6
f 1042/3/6 1043/3/6 1048/3/6
f 1048/3/6 1044/3/6 1049/3/6
f 1046/3/6 1047/3/6 1050/3/6
f 1045/3/6 1046/3/6 1050/3/6
f 1050/3/6 1047/3/6 1051/3/6
f 1052/7/6 1053/7/6 1054/7/6
f 1054/7/6 1053/7/6 1055/7/6
f 1056/6/6 1057/6/6 1065/6/6
f 1057/3/6 1058/3/6 1066/3/6
f 1065/6/6 1057/6/6 1066/6/6
f 1058/10/6 1059/10/6 1067/10/6
f 1066/3/6 1058/3/6 1067/3/6
f 1059/11/6 1060/11/6 1068/11/6
f 1067/10/6 1059/10/6 1068/10/6
f 1060/12/6 1061/12/6 1069/12/6
f 1068/11/6 1060/11/6 1069/11/6
f 1061/8/6 1062/8/6 1070/8/6
f 1069/12/6 1061/12/6 1070/12/6
f 1062/3/6 1063/3/6 1071/3/6
f 1070/8/6 1062/8/6 1071/8/6
f 1063/6/6 1064/6/6 1072/6/6
f 1071/3/6 1063/3/6 1072/3/6
f 1072/6/6 1064/6/6 1073/6/6
f 1074/1/6 1075/1/6 1076/1/6
f 1076/1/6 1075/1/6 1077/1/6
f 1074/1/6 1076/1/6 1078/1/6
f 1077/1/6 1075/1/6 1079/1/6
f 1078/1/6 1076/1/6 1080/1/6
f 1077/1/6 1079/1/6 1081/1/6
f 1080/1/6 1076/1/6 1082/1/6
f 1077/1/6 1081/1/6 1083/1/6
f 1080/1/6 1082/1/6 1084/1/6
f 1082/1/6 1083/1/6 1084/1/6
f 1083/1/6 1081/1/6 1085/1/6
f 1084/1/6 1083/1/6 1085/1/6
f 1086/4/6 1087/4/6 1094/4/6
f 1094/4/6 1087/4/6 1095/4/6
f 1088/4/6 1089/4/6 1096/4/6
f 1096/4/6 1089/4/6 1097/4/6
f 1090/4/6 1091/4/6 1098/4/6
f 1098/4/6 1091/4/6 1099/4/6
f 1092/4/6 1093/4/6 1100/4/6
f 1100/4/6 1093/4/6 1101/4/6
f 1102/5/6 1103/5/6 1104/5/6
f 1104/5/6 1103/5/6 1105/5/6
f 1106/4/6 1107/4/6 1110/4/6
f 1110/4/6 1107/4/6 1111/4/6
f 1108/4/6 1109/4/6 1112/4/6
f 1112/4/6 1109/4/6 1113/4/6
f 1114/6/6 1115/6/6 1118/6/6
f 1118/6/6 1115/6/6 1119/6/6
f 1116/6/6 1117/6/6 1120/6/6
f 1120/6/6 1117/6/6 1121/6/6
f 1122/3/6 1123/3/6 1124/3/6
f 1124/3/6 1123/3/6 1125/3/6
f 1126/9/6 1127/9/6 1128/9/6
f 1128/9/6 1127/9/6 1129/9/6
f 1130/3/6 1131/3/6 1136/3/6
f 1136/3/6 1131/3/6 1137/3/6
f 1132/3/6 1133/3/6 1140/3/6
f 1134/3/6 1135/3/6 1141/3/6
f 1130/3/6 1136/3/6 1142/3/6
f 1138/3/6 1139/3/6 1143/3/6
f 1132/3/6 1140/3/6 1144/3/6
f 1141/3/6 1135/3/6 1145/3/6
f 1142/3/6 1143/3/6 1146/3/6
f 1130/3/6 1142/3/6 1146/3/6
f 1143/3/6 1139/3/6 1147/3/6
f 1146/3/6 1143/3/6 1147/3/6
f 1144/3/6 1145/3/6 1148/3/6
f 1132/3/6 1144/3/6 1148/3/6
f 1145/3/6 1135/3/6 1149/3/6
f 1148/3/6 1145/3/6 1149/3/6
f 1150/9/6 1151/9/6 1154/9/6
f 1154/9/6 1151/9/6 1155/9/6
f 1152/9/6 1153/9/6 1156/9/6
f 1156/9/6 1153/9/6 1157/9/6
f 1158/12/6 1159/12/6 1160/12/6
f 1160/12/6 1159/12/6 1161/12/6
f 1162/4/6 1163/4/6 1167/4/6
f 1167/4/6 1163/4/6 1168/4/6
f 1166/5/6 1167/5/6 1168/5/6
f 1168/4/6 1163/4/6 1169/4/6
f 1169/4/6 1163/4/6 1170/4/6
f 1164/4/6 1165/4/6 1171/4/6
f 1171/4/6 1165/4/6 1172/4/6
f 1166/5/6 1168/5/6 1173/5/6
f 1168/5/6 1169/5/6 1173/5/6
f 1173/5/6 1169/5/6 1174/5/6
f 1171/5/6 1172/5/6 1175/5/6
f 1175/5/6 1172/5/6 1176/5/6
f 1177/9/6 1178/9/6 1181/9/6
f 1181/9/6 1178/9/6 1182/9/6
f 1179/9/6 1180/9/6 1183/9/6
f 1183/9/6 1180/9/6 1184/9/6
f 1185/9/6 1186/9/6 1191/9/6
f 1191/9/6 1186/9/6 1192/9/6
f 1187/9/6 1188/9/6 1193/9/6
f 1193/9/6 1188/9/6 1194/9/6
f 1189/6/6 1190/6/6 1197/6/6
f 1191/4/6 1192/4/6 1198/4/6
f 1197/6/6 1190/6/6 1198/6/6
f 1190/4/6 1191/4/6 1198/4/6
f 1194/4/6 1195/4/6 1198/4/6
f 1193/4/6 1194/4/6 1198/4/6
f 1192/4/6 1193/4/6 1198/4/6
f 1195/6/6 1196/6/6 1199/6/6
f 1198/4/6 1195/4/6 1199/4/6
f 1199/6/6 1196/6/6 1200/6/6
f 1201/9/6 1202/9/6 1203/9/6
f 1203/9/6 1202/9/6 1204/9/6
