# MagicaVoxel @ Ephtracy

# group
o 

# material
mtllib Molecular_Resource_Refiner.mtl
usemtl palette

# normals
vn -1 0 0
vn 1 0 0
vn 0 0 1
vn 0 0 -1
vn 0 -1 0
vn 0 1 0

# texcoords
vt 0.00195312 0.5
vt 0.00585938 0.5
vt 0.00976562 0.5
vt 0.0136719 0.5
vt 0.0175781 0.5
vt 0.0214844 0.5
vt 0.0332031 0.5
vt 0.0371094 0.5
vt 0.0410156 0.5
vt 0.0449219 0.5
vt 0.0488281 0.5
vt 0.0527344 0.5
vt 0.0566406 0.5
vt 0.0644531 0.5
vt 0.0683594 0.5
vt 0.0722656 0.5
vt 0.0761719 0.5
vt 0.0800781 0.5

# verts
v -1.6 0 0.9
v -1.6 0 -0.9
v -1.6 0.2 0.9
v -1.6 0.2 -0.9
v -1.5 0.2 0.9
v -1.5 0.2 0.6
v -1.5 0.2 -0.8
v -1.5 0.3 0.9
v -1.5 0.3 0.8
v -1.5 0.3 0.6
v -1.5 0.4 0.8
v -1.5 0.4 -0.8
v -1.4 1.6 0.7
v -1.4 1.6 0.2
v -1.4 2 0.7
v -1.4 2 0.2
v -1.3 1 0.6
v -1.3 1 -0.1
v -1.3 1.6 0.9
v -1.3 1.6 0.7
v -1.3 1.6 0.6
v -1.3 1.6 0.2
v -1.3 1.8 0.9
v -1.3 1.8 0.8
v -1.3 1.8 0.7
v -1.3 1.9 0.8
v -1.3 1.9 0.7
v -1.3 1.9 0.2
v -1.3 1.9 -0.1
v -1.2 0.4 0.4
v -1.2 0.4 -0.1
v -1.2 1 0.4
v -1.2 1 -0.1
v -1.1 0.4 -0.1
v -1.1 0.4 -0.2
v -1.1 1 -0.1
v -1.1 1 -0.2
v -0.9 0.4 -0.2
v -0.9 0.4 -0.7
v -0.9 0.5 -0.2
v -0.9 0.5 -0.7
v -0.9 0.6 0.5
v -0.9 0.6 0.4
v -0.9 0.7 0.5
v -0.9 0.7 0.4
v -0.9 0.8 0.5
v -0.9 0.8 0.4
v -0.9 0.9 0.5
v -0.9 0.9 0.4
v -0.5 0.4 0.6
v -0.5 0.4 0.4
v -0.5 0.5 -0.2
v -0.5 0.5 -0.5
v -0.5 1 0.6
v -0.5 1 0.4
v -0.5 1 -0.1
v -0.5 1 -0.2
v -0.5 1.6 -0.4
v -0.5 1.6 -0.5
v -0.5 1.6 -0.6
v -0.5 1.8 -0.1
v -0.5 1.8 -0.4
v -0.5 1.8 -0.6
v -0.3 0.6 0.7
v -0.3 0.6 0.6
v -0.3 0.7 0.7
v -0.3 0.7 0.6
v -0.3 1.6 0.7
v -0.3 1.6 0.6
v -0.3 1.8 0.4
v -0.3 1.8 -0.3
v -0.3 2.1 0.4
v -0.3 2.1 -0.3
v -0.2 0.8 0.8
v -0.2 0.8 0.7
v -0.2 1.5 0.8
v -0.2 1.5 0.7
v -0.0999999 0.6 0.7
v -0.0999999 0.6 0.6
v -0.0999999 0.7 0.7
v -0.0999999 0.7 0.6
v -0.0999999 0.8 0.9
v -0.0999999 0.8 0.8
v -0.0999999 1.4 0.9
v -0.0999999 1.4 0.8
v -0.0999999 2.1 0.3
v -0.0999999 2.1 -0.2
v -0.0999999 2.3 0.3
v -0.0999999 2.3 -0.2
v 1.19209e-07 0.9 1
v 1.19209e-07 0.9 0.9
v 1.19209e-07 1.3 1
v 1.19209e-07 1.3 0.9
v 0.1 0.6 0.7
v 0.1 0.6 0.6
v 0.1 0.7 0.7
v 0.1 0.7 0.6
v 0.3 0.6 0.7
v 0.3 0.6 0.6
v 0.3 0.7 0.7
v 0.3 0.7 0.6
v 0.8 0.4 0.5
v 0.8 0.4 0.4
v 0.8 0.5 0.5
v 0.8 0.5 0.4
v 0.8 0.9 0.7
v 0.8 0.9 0.6
v 0.8 0.9 0.5
v 0.8 1 0.7
v 0.8 1 0.6
v 0.8 1.1 0.7
v 0.8 1.1 0.6
v 0.8 1.4 0.7
v 0.8 1.4 0.6
v 0.8 1.4 0.5
v 0.8 1.7 -1.19209e-07
v 0.8 1.7 -0.2
v 0.8 1.9 -1.19209e-07
v 0.8 1.9 -0.2
v 0.9 0.1 0.9
v 0.9 0.1 0.8
v 0.9 0.2 0.9
v 0.9 0.2 0.8
v 0.9 1.9 -0.1
v 0.9 1.9 -0.2
v 0.9 2 -0.1
v 0.9 2 -0.2
v 1.1 0.2 0.9
v 1.1 0.2 0.8
v 1.1 0.3 0.9
v 1.1 0.3 0.8
v -1.1 0.2 0.9
v -1.1 0.2 0.8
v -1.1 0.3 0.9
v -1.1 0.3 0.8
v -0.8 0.1 0.9
v -0.8 0.1 0.8
v -0.8 0.2 0.9
v -0.8 0.2 0.8
v -0.8 0.6 0.5
v -0.8 0.6 0.4
v -0.8 0.7 0.5
v -0.8 0.7 0.4
v -0.8 0.8 0.5
v -0.8 0.8 0.4
v -0.8 0.9 0.5
v -0.8 0.9 0.4
v -0.8 1.6 0.9
v -0.8 1.6 0.7
v -0.8 1.8 0.9
v -0.8 1.8 0.8
v -0.8 1.8 0.7
v -0.8 1.9 0.8
v -0.8 1.9 0.7
v -0.7 1.6 0.7
v -0.7 1.6 0.6
v -0.7 1.9 0.6
v -0.7 1.9 0.2
v -0.7 2 0.7
v -0.7 2 0.2
v -0.5 1.8 0.6
v -0.5 1.8 -0.1
v -0.5 1.9 0.6
v -0.5 1.9 -0.1
v -0.2 0.6 0.7
v -0.2 0.6 0.6
v -0.2 0.7 0.7
v -0.2 0.7 0.6
v 1.19209e-07 0.6 0.7
v 1.19209e-07 0.6 0.6
v 1.19209e-07 0.7 0.7
v 1.19209e-07 0.7 0.6
v 0.2 0.6 0.7
v 0.2 0.6 0.6
v 0.2 0.7 0.7
v 0.2 0.7 0.6
v 0.2 0.9 1
v 0.2 0.9 0.9
v 0.2 1.3 1
v 0.2 1.3 0.9
v 0.3 0.8 0.9
v 0.3 0.8 0.8
v 0.3 1.4 0.9
v 0.3 1.4 0.8
v 0.3 2.1 0.3
v 0.3 2.1 -0.2
v 0.3 2.3 0.3
v 0.3 2.3 -0.2
v 0.4 0.6 0.7
v 0.4 0.6 0.6
v 0.4 0.7 0.7
v 0.4 0.7 0.6
v 0.4 0.8 0.8
v 0.4 0.8 0.7
v 0.4 1.5 0.8
v 0.4 1.5 0.7
v 0.5 0.7 0.7
v 0.5 0.7 0.6
v 0.5 1.6 0.7
v 0.5 1.6 0.6
v 0.5 1.8 0.4
v 0.5 1.8 -0.3
v 0.5 2.1 0.4
v 0.5 2.1 -0.3
v 0.7 0.4 0.6
v 0.7 0.4 -0.3
v 0.7 0.5 0.6
v 0.7 0.5 0.5
v 0.7 0.5 -0.3
v 0.7 0.5 -0.5
v 0.7 0.8 0.6
v 0.7 0.8 0.5
v 0.7 1.4 0.6
v 0.7 1.4 0.5
v 0.7 1.6 -0.4
v 0.7 1.6 -0.5
v 0.7 1.7 0.6
v 0.7 1.7 0.5
v 0.7 1.7 -0.3
v 0.7 1.8 0.6
v 0.7 1.8 -0.4
v 1 0.4 -0.3
v 1 0.4 -0.7
v 1 0.5 -0.3
v 1 0.5 -0.7
v 1.1 1.6 -0.4
v 1.1 1.6 -0.6
v 1.1 1.8 -0.4
v 1.1 1.8 -0.6
v 1.1 1.9 -0.1
v 1.1 1.9 -0.2
v 1.1 2 -0.1
v 1.1 2 -0.2
v 1.2 0.4 0.5
v 1.2 0.4 0.4
v 1.2 0.5 0.5
v 1.2 0.5 0.4
v 1.2 0.9 0.7
v 1.2 0.9 0.6
v 1.2 0.9 0.5
v 1.2 1 0.7
v 1.2 1 0.6
v 1.2 1.1 0.7
v 1.2 1.1 0.6
v 1.2 1.4 0.7
v 1.2 1.4 0.6
v 1.2 1.4 0.5
v 1.2 1.7 -1.19209e-07
v 1.2 1.7 -0.2
v 1.2 1.9 -1.19209e-07
v 1.2 1.9 -0.2
v 1.3 0.5 0.6
v 1.3 0.5 0.5
v 1.3 0.5 -0.3
v 1.3 0.8 0.6
v 1.3 0.8 0.5
v 1.3 1.4 0.6
v 1.3 1.4 0.5
v 1.3 1.7 0.6
v 1.3 1.7 0.5
v 1.3 1.7 -0.3
v 1.5 0.2 0.9
v 1.5 0.2 0.6
v 1.5 0.2 -0.8
v 1.5 0.3 0.9
v 1.5 0.3 0.8
v 1.5 0.3 0.6
v 1.5 0.4 0.8
v 1.5 0.4 -0.8
v 1.6 0 0.9
v 1.6 0 -0.9
v 1.6 0.2 0.9
v 1.6 0.2 -0.9
v 1.19209e-07 0.9 1
v 1.19209e-07 1.3 1
v 0.2 0.9 1
v 0.2 1.3 1
v -1.6 0 0.9
v -1.6 0.2 0.9
v -1.5 0.1 0.9
v -1.5 0.2 0.9
v -1.5 0.3 0.9
v -1.3 1.6 0.9
v -1.3 1.8 0.9
v -1.1 0.1 0.9
v -1.1 0.2 0.9
v -1.1 0.3 0.9
v -0.8 0.1 0.9
v -0.8 0.2 0.9
v -0.8 1.6 0.9
v -0.8 1.8 0.9
v -0.0999999 0.8 0.9
v -0.0999999 1.4 0.9
v 1.19209e-07 0.9 0.9
v 1.19209e-07 1.3 0.9
v 0.2 0.9 0.9
v 0.2 1.3 0.9
v 0.3 0.8 0.9
v 0.3 1.4 0.9
v 0.9 0.1 0.9
v 0.9 0.2 0.9
v 1.1 0.1 0.9
v 1.1 0.2 0.9
v 1.1 0.3 0.9
v 1.5 0.1 0.9
v 1.5 0.2 0.9
v 1.5 0.3 0.9
v 1.6 0 0.9
v 1.6 0.2 0.9
v -1.5 0.3 0.8
v -1.5 0.4 0.8
v -1.3 1.8 0.8
v -1.3 1.9 0.8
v -1.1 0.2 0.8
v -1.1 0.3 0.8
v -0.8 0.1 0.8
v -0.8 0.2 0.8
v -0.8 1.8 0.8
v -0.8 1.9 0.8
v -0.2 0.8 0.8
v -0.2 1.5 0.8
v -0.0999999 0.8 0.8
v -0.0999999 1.4 0.8
v 0.3 0.8 0.8
v 0.3 1.4 0.8
v 0.4 0.8 0.8
v 0.4 1.5 0.8
v 0.9 0.1 0.8
v 0.9 0.2 0.8
v 1.1 0.2 0.8
v 1.1 0.3 0.8
v 1.5 0.3 0.8
v 1.5 0.4 0.8
v -1.4 1.6 0.7
v -1.4 2 0.7
v -1.3 1.6 0.7
v -1.3 1.8 0.7
v -1.3 1.9 0.7
v -0.8 1.6 0.7
v -0.8 1.8 0.7
v -0.8 1.9 0.7
v -0.7 1.6 0.7
v -0.7 2 0.7
v -0.3 0.6 0.7
v -0.3 0.7 0.7
v -0.3 1.6 0.7
v -0.2 0.6 0.7
v -0.2 0.7 0.7
v -0.2 0.8 0.7
v -0.2 1.5 0.7
v -0.0999999 0.6 0.7
v -0.0999999 0.7 0.7
v 1.19209e-07 0.6 0.7
v 1.19209e-07 0.7 0.7
v 0.1 0.6 0.7
v 0.1 0.7 0.7
v 0.2 0.6 0.7
v 0.2 0.7 0.7
v 0.3 0.6 0.7
v 0.3 0.7 0.7
v 0.4 0.6 0.7
v 0.4 0.7 0.7
v 0.4 0.8 0.7
v 0.4 1.5 0.7
v 0.5 0.7 0.7
v 0.5 1.6 0.7
v 0.8 0.9 0.7
v 0.8 1 0.7
v 0.8 1.1 0.7
v 0.8 1.4 0.7
v 0.9 1 0.7
v 0.9 1.1 0.7
v 0.9 1.2 0.7
v 0.9 1.4 0.7
v 1 1 0.7
v 1 1.1 0.7
v 1.1 1 0.7
v 1.1 1.1 0.7
v 1.1 1.2 0.7
v 1.1 1.4 0.7
v 1.2 0.9 0.7
v 1.2 1 0.7
v 1.2 1.1 0.7
v 1.2 1.4 0.7
v -1.3 1 0.6
v -1.3 1.6 0.6
v -0.8 1.6 0.6
v -0.7 1.6 0.6
v -0.7 1.9 0.6
v -0.5 0.4 0.6
v -0.5 1 0.6
v -0.5 1.8 0.6
v -0.5 1.9 0.6
v -0.3 0.6 0.6
v -0.3 0.7 0.6
v -0.3 1.6 0.6
v -0.2 0.6 0.6
v -0.2 0.7 0.6
v -0.0999999 0.6 0.6
v -0.0999999 0.7 0.6
v 1.19209e-07 0.6 0.6
v 1.19209e-07 0.7 0.6
v 0.1 0.6 0.6
v 0.1 0.7 0.6
v 0.2 0.6 0.6
v 0.2 0.7 0.6
v 0.3 0.6 0.6
v 0.3 0.7 0.6
v 0.4 0.6 0.6
v 0.4 0.7 0.6
v 0.5 0.6 0.6
v 0.5 0.7 0.6
v 0.5 1.6 0.6
v 0.5 1.7 0.6
v 0.7 0.4 0.6
v 0.7 0.5 0.6
v 0.7 0.6 0.6
v 0.7 0.8 0.6
v 0.7 1.4 0.6
v 0.7 1.7 0.6
v 0.7 1.8 0.6
v 0.8 1.4 0.6
v 0.9 0.5 0.6
v 0.9 0.8 0.6
v 0.9 1.4 0.6
v 1.1 0.5 0.6
v 1.1 0.8 0.6
v 1.1 1.4 0.6
v 1.2 1.4 0.6
v 1.3 0.5 0.6
v 1.3 0.8 0.6
v 1.3 1.4 0.6
v 1.3 1.7 0.6
v -0.9 0.6 0.5
v -0.9 0.7 0.5
v -0.9 0.8 0.5
v -0.9 0.9 0.5
v -0.8 0.6 0.5
v -0.8 0.7 0.5
v -0.8 0.8 0.5
v -0.8 0.9 0.5
v 0.7 0.8 0.5
v 0.7 1.4 0.5
v 0.8 0.4 0.5
v 0.8 0.5 0.5
v 0.8 0.9 0.5
v 0.8 1.4 0.5
v 0.9 0.5 0.5
v 0.9 0.8 0.5
v 1.1 0.5 0.5
v 1.1 0.8 0.5
v 1.2 0.4 0.5
v 1.2 0.5 0.5
v 1.2 0.9 0.5
v 1.2 1.4 0.5
v 1.3 0.8 0.5
v 1.3 1.4 0.5
v -1.2 0.4 0.4
v -1.2 1 0.4
v -1.1 0.5 0.4
v -1.1 0.9 0.4
v -0.9 0.6 0.4
v -0.9 0.7 0.4
v -0.9 0.8 0.4
v -0.9 0.9 0.4
v -0.8 0.6 0.4
v -0.8 0.7 0.4
v -0.8 0.8 0.4
v -0.8 0.9 0.4
v -0.6 0.5 0.4
v -0.6 0.9 0.4
v -0.5 0.4 0.4
v -0.5 1 0.4
v -0.3 1.8 0.4
v -0.3 2.1 0.4
v 0.5 1.8 0.4
v 0.5 2.1 0.4
v -0.0999999 2.1 0.3
v -0.0999999 2.3 0.3
v 0.3 2.1 0.3
v 0.3 2.3 0.3
v 0.8 1.7 -1.19209e-07
v 0.8 1.9 -1.19209e-07
v 1.2 1.7 -1.19209e-07
v 1.2 1.9 -1.19209e-07
v 0.9 1.9 -0.1
v 0.9 2 -0.1
v 1.1 1.9 -0.1
v 1.1 2 -0.1
v 0.7 0.4 -0.3
v 0.7 0.5 -0.3
v 1 0.4 -0.3
v 1 0.5 -0.3
v 0.7 1.6 -0.4
v 0.7 1.8 -0.4
v 1.1 1.6 -0.4
v 1.1 1.8 -0.4
v 0.8 0.4 0.4
v 0.8 0.5 0.4
v 1.2 0.4 0.4
v 1.2 0.5 0.4
v -1.4 1.6 0.2
v -1.4 2 0.2
v -1.3 1.6 0.2
v -1.3 1.9 0.2
v -0.7 1.9 0.2
v -0.7 2 0.2
v -1.3 1 -0.1
v -1.3 1.9 -0.1
v -1.2 0.4 -0.1
v -1.2 1 -0.1
v -1.1 0.4 -0.1
v -1.1 1 -0.1
v -0.5 1 -0.1
v -0.5 1.8 -0.1
v -0.5 1.9 -0.1
v -1.1 0.4 -0.2
v -1.1 1 -0.2
v -0.9 0.4 -0.2
v -0.9 0.5 -0.2
v -0.5 0.5 -0.2
v -0.5 1 -0.2
v -0.0999999 2.1 -0.2
v -0.0999999 2.3 -0.2
v 0.3 2.1 -0.2
v 0.3 2.3 -0.2
v 0.8 1.7 -0.2
v 0.8 1.9 -0.2
v 0.9 1.9 -0.2
v 0.9 2 -0.2
v 1.1 1.9 -0.2
v 1.1 2 -0.2
v 1.2 1.7 -0.2
v 1.2 1.9 -0.2
v -0.3 1.8 -0.3
v -0.3 2.1 -0.3
v 0.5 1.8 -0.3
v 0.5 2.1 -0.3
v 0.7 0.5 -0.3
v 0.7 1.7 -0.3
v 1 0.5 -0.3
v 1.3 0.5 -0.3
v 1.3 1.7 -0.3
v -0.5 0.5 -0.5
v -0.5 1.6 -0.5
v 0.7 0.5 -0.5
v 0.7 1.6 -0.5
v -0.5 1.6 -0.6
v -0.5 1.8 -0.6
v 1.1 1.6 -0.6
v 1.1 1.8 -0.6
v -0.9 0.4 -0.7
v -0.9 0.5 -0.7
v 1 0.4 -0.7
v 1 0.5 -0.7
v -1.5 0.2 -0.8
v -1.5 0.4 -0.8
v 1.5 0.2 -0.8
v 1.5 0.4 -0.8
v -1.6 0 -0.9
v -1.6 0.2 -0.9
v 1.6 0 -0.9
v 1.6 0.2 -0.9
v -1.6 0 0.9
v 1.6 0 0.9
v -1.6 0 -0.9
v 1.6 0 -0.9
v 0.7 0.5 0.6
v 0.9 0.5 0.6
v 1.1 0.5 0.6
v 1.3 0.5 0.6
v 0.7 0.5 0.5
v 0.8 0.5 0.5
v 0.9 0.5 0.5
v 1.1 0.5 0.5
v 1.2 0.5 0.5
v 1.3 0.5 0.5
v 0.8 0.5 0.4
v 1.2 0.5 0.4
v 0.7 0.5 -0.3
v 1 0.5 -0.3
v 1.3 0.5 -0.3
v -0.3 0.6 0.7
v -0.2 0.6 0.7
v -0.0999999 0.6 0.7
v 1.19209e-07 0.6 0.7
v 0.1 0.6 0.7
v 0.2 0.6 0.7
v 0.3 0.6 0.7
v 0.4 0.6 0.7
v -0.3 0.6 0.6
v -0.2 0.6 0.6
v -0.0999999 0.6 0.6
v 1.19209e-07 0.6 0.6
v 0.1 0.6 0.6
v 0.2 0.6 0.6
v 0.3 0.6 0.6
v 0.4 0.6 0.6
v -0.9 0.6 0.5
v -0.8 0.6 0.5
v -0.9 0.6 0.4
v -0.8 0.6 0.4
v -0.2 0.7 0.7
v -0.0999999 0.7 0.7
v 1.19209e-07 0.7 0.7
v 0.1 0.7 0.7
v 0.2 0.7 0.7
v 0.3 0.7 0.7
v 0.4 0.7 0.7
v 0.5 0.7 0.7
v -0.2 0.7 0.6
v -0.0999999 0.7 0.6
v 1.19209e-07 0.7 0.6
v 0.1 0.7 0.6
v 0.2 0.7 0.6
v 0.3 0.7 0.6
v 0.4 0.7 0.6
v 0.5 0.7 0.6
v -0.0999999 0.8 0.9
v 0.3 0.8 0.9
v -0.2 0.8 0.8
v -0.0999999 0.8 0.8
v 0.3 0.8 0.8
v 0.4 0.8 0.8
v -0.2 0.8 0.7
v 0.4 0.8 0.7
v -0.9 0.8 0.5
v -0.8 0.8 0.5
v -0.9 0.8 0.4
v -0.8 0.8 0.4
v 1.19209e-07 0.9 1
v 0.2 0.9 1
v 1.19209e-07 0.9 0.9
v 0.2 0.9 0.9
v 0.8 0.9 0.7
v 1.2 0.9 0.7
v 0.8 0.9 0.6
v 1.2 0.9 0.6
v 0.8 0.9 0.5
v 1.2 0.9 0.5
v -1.3 1 0.6
v -0.5 1 0.6
v -1.2 1 0.4
v -0.5 1 0.4
v -1.3 1 -0.1
v -1.2 1 -0.1
v 0.7 1.4 0.6
v 0.8 1.4 0.6
v 1.2 1.4 0.6
v 1.3 1.4 0.6
v 0.7 1.4 0.5
v 0.8 1.4 0.5
v 1.2 1.4 0.5
v 1.3 1.4 0.5
v -1.3 1.6 0.9
v -0.8 1.6 0.9
v -1.4 1.6 0.7
v -1.3 1.6 0.7
v -0.8 1.6 0.7
v -0.7 1.6 0.7
v -1.3 1.6 0.6
v -0.8 1.6 0.6
v -0.7 1.6 0.6
v -1.4 1.6 0.2
v -1.3 1.6 0.2
v 0.7 1.6 -0.4
v 1.1 1.6 -0.4
v -0.5 1.6 -0.5
v 0.7 1.6 -0.5
v -0.5 1.6 -0.6
v 1.1 1.6 -0.6
v -0.8 0.1 0.9
v 0.9 0.1 0.9
v -0.8 0.1 0.8
v 0.9 0.1 0.8
v -1.6 0.2 0.9
v -1.5 0.2 0.9
v -1.1 0.2 0.9
v -0.8 0.2 0.9
v 0.9 0.2 0.9
v 1.1 0.2 0.9
v 1.5 0.2 0.9
v 1.6 0.2 0.9
v -1.1 0.2 0.8
v -0.8 0.2 0.8
v 0.9 0.2 0.8
v 1.1 0.2 0.8
v -1.5 0.2 0.6
v 1.5 0.2 0.6
v -1.5 0.2 -0.8
v 1.5 0.2 -0.8
v -1.6 0.2 -0.9
v 1.6 0.2 -0.9
v -1.5 0.3 0.9
v -1.1 0.3 0.9
v 1.1 0.3 0.9
v 1.5 0.3 0.9
v -1.5 0.3 0.8
v -1.1 0.3 0.8
v 1.1 0.3 0.8
v 1.5 0.3 0.8
v -1.5 0.4 0.8
v 1.5 0.4 0.8
v -0.5 0.4 0.6
v 0.7 0.4 0.6
v 0.8 0.4 0.5
v 1.2 0.4 0.5
v -1.2 0.4 0.4
v -0.5 0.4 0.4
v 0.8 0.4 0.4
v 1.2 0.4 0.4
v -1.2 0.4 -0.1
v -1.1 0.4 -0.1
v -1.1 0.4 -0.2
v -0.9 0.4 -0.2
v 0.7 0.4 -0.3
v 1 0.4 -0.3
v -0.9 0.4 -0.7
v 1 0.4 -0.7
v -1.5 0.4 -0.8
v 1.5 0.4 -0.8
v -0.9 0.5 -0.2
v -0.5 0.5 -0.2
v 0.7 0.5 -0.3
v 1 0.5 -0.3
v -0.5 0.5 -0.5
v 0.7 0.5 -0.5
v -0.9 0.5 -0.7
v 1 0.5 -0.7
v -0.9 0.7 0.5
v -0.8 0.7 0.5
v -0.9 0.7 0.4
v -0.8 0.7 0.4
v 0.7 0.8 0.6
v 0.9 0.8 0.6
v 1.1 0.8 0.6
v 1.3 0.8 0.6
v 0.7 0.8 0.5
v 0.9 0.8 0.5
v 1.1 0.8 0.5
v 1.3 0.8 0.5
v -0.9 0.9 0.5
v -0.8 0.9 0.5
v -0.9 0.9 0.4
v -0.8 0.9 0.4
v -1.1 1 -0.1
v -0.5 1 -0.1
v -1.1 1 -0.2
v -0.5 1 -0.2
v 1.19209e-07 1.3 1
v 0.2 1.3 1
v 1.19209e-07 1.3 0.9
v 0.2 1.3 0.9
v -0.0999999 1.4 0.9
v 0.3 1.4 0.9
v -0.0999999 1.4 0.8
v 0.3 1.4 0.8
v 0.8 1.4 0.7
v 0.9 1.4 0.7
v 1.1 1.4 0.7
v 1.2 1.4 0.7
v 0.8 1.4 0.6
v 0.9 1.4 0.6
v 1.1 1.4 0.6
v 1.2 1.4 0.6
v -0.2 1.5 0.8
v 0.4 1.5 0.8
v -0.2 1.5 0.7
v 0.4 1.5 0.7
v -0.3 1.6 0.7
v 0.5 1.6 0.7
v -0.3 1.6 0.6
v 0.5 1.6 0.6
v 0.7 1.7 0.6
v 1.3 1.7 0.6
v 0.7 1.7 0.5
v 1.3 1.7 0.5
v 0.8 1.7 -1.19209e-07
v 1.2 1.7 -1.19209e-07
v 0.8 1.7 -0.2
v 1.2 1.7 -0.2
v 0.7 1.7 -0.3
v 1.3 1.7 -0.3
v -1.3 1.8 0.9
v -0.8 1.8 0.9
v -1.3 1.8 0.8
v -0.8 1.8 0.8
v -0.5 1.8 0.6
v 0.7 1.8 0.6
v -0.3 1.8 0.4
v 0.5 1.8 0.4
v -0.5 1.8 -0.1
v -0.3 1.8 -0.3
v 0.5 1.8 -0.3
v -0.5 1.8 -0.4
v 0.7 1.8 -0.4
v 1.1 1.8 -0.4
v -0.5 1.8 -0.6
v 1.1 1.8 -0.6
v -1.3 1.9 0.8
v -0.8 1.9 0.8
v -1.3 1.9 0.7
v -0.8 1.9 0.7
v -0.7 1.9 0.6
v -0.5 1.9 0.6
v -1.3 1.9 0.2
v -0.7 1.9 0.2
v 0.8 1.9 -1.19209e-07
v 1.2 1.9 -1.19209e-07
v -1.3 1.9 -0.1
v -0.5 1.9 -0.1
v 0.9 1.9 -0.1
v 1.1 1.9 -0.1
v 0.8 1.9 -0.2
v 0.9 1.9 -0.2
v 1.1 1.9 -0.2
v 1.2 1.9 -0.2
v -1.4 2 0.7
v -0.7 2 0.7
v -1.4 2 0.2
v -0.7 2 0.2
v 0.9 2 -0.1
v 1.1 2 -0.1
v 0.9 2 -0.2
v 1.1 2 -0.2
v -0.3 2.1 0.4
v 0.5 2.1 0.4
v -0.0999999 2.1 0.3
v 0.3 2.1 0.3
v -0.0999999 2.1 -0.2
v 0.3 2.1 -0.2
v -0.3 2.1 -0.3
v 0.5 2.1 -0.3
v -0.0999999 2.3 0.3
v 0.3 2.3 0.3
v -0.0999999 2.3 -0.2
v 0.3 2.3 -0.2

# faces
f 3/4/1 2/4/1 1/4/1
f 4/4/1 2/4/1 3/4/1
f 8/6/1 6/6/1 5/6/1
f 9/6/1 6/6/1 8/6/1
f 10/3/1 7/3/1 6/3/1
f 10/6/1 6/6/1 9/6/1
f 11/3/1 10/3/1 9/3/1
f 12/3/1 7/3/1 10/3/1
f 12/3/1 10/3/1 11/3/1
f 15/1/1 14/1/1 13/1/1
f 16/1/1 14/1/1 15/1/1
f 21/1/1 18/1/1 17/1/1
f 22/1/1 18/1/1 21/1/1
f 23/5/1 20/5/1 19/5/1
f 24/5/1 20/5/1 23/5/1
f 25/5/1 20/5/1 24/5/1
f 26/3/1 25/3/1 24/3/1
f 27/3/1 25/3/1 26/3/1
f 28/1/1 18/1/1 22/1/1
f 29/1/1 18/1/1 28/1/1
f 32/18/1 31/18/1 30/18/1
f 33/18/1 31/18/1 32/18/1
f 36/18/1 35/18/1 34/18/1
f 37/18/1 35/18/1 36/18/1
f 40/4/1 39/4/1 38/4/1
f 41/4/1 39/4/1 40/4/1
f 44/18/1 43/18/1 42/18/1
f 45/18/1 43/18/1 44/18/1
f 48/18/1 47/18/1 46/18/1
f 49/18/1 47/18/1 48/18/1
f 54/1/1 51/1/1 50/1/1
f 55/1/1 51/1/1 54/1/1
f 57/1/1 53/1/1 52/1/1
f 58/1/1 57/1/1 56/1/1
f 58/1/1 53/1/1 57/1/1
f 59/1/1 53/1/1 58/1/1
f 61/1/1 58/1/1 56/1/1
f 62/4/1 60/4/1 59/4/1
f 62/1/1 58/1/1 61/1/1
f 62/4/1 59/4/1 58/4/1
f 63/4/1 60/4/1 62/4/1
f 66/6/1 65/6/1 64/6/1
f 67/6/1 65/6/1 66/6/1
f 68/4/1 67/4/1 66/4/1
f 69/4/1 67/4/1 68/4/1
f 72/3/1 71/3/1 70/3/1
f 73/3/1 71/3/1 72/3/1
f 76/5/1 75/5/1 74/5/1
f 77/5/1 75/5/1 76/5/1
f 80/6/1 79/6/1 78/6/1
f 81/6/1 79/6/1 80/6/1
f 84/9/1 83/9/1 82/9/1
f 85/9/1 83/9/1 84/9/1
f 88/6/1 87/6/1 86/6/1
f 89/6/1 87/6/1 88/6/1
f 92/10/1 91/10/1 90/10/1
f 93/10/1 91/10/1 92/10/1
f 96/6/1 95/6/1 94/6/1
f 97/6/1 95/6/1 96/6/1
f 100/6/1 99/6/1 98/6/1
f 101/6/1 99/6/1 100/6/1
f 104/11/1 103/11/1 102/11/1
f 105/11/1 103/11/1 104/11/1
f 109/7/1 107/7/1 106/7/1
f 110/3/1 108/3/1 107/3/1
f 110/7/1 107/7/1 109/7/1
f 111/14/1 110/14/1 109/14/1
f 112/3/1 108/3/1 110/3/1
f 112/14/1 110/14/1 111/14/1
f 113/7/1 112/7/1 111/7/1
f 114/3/1 108/3/1 112/3/1
f 114/7/1 112/7/1 113/7/1
f 115/3/1 108/3/1 114/3/1
f 118/4/1 117/4/1 116/4/1
f 119/4/1 117/4/1 118/4/1
f 122/4/1 121/4/1 120/4/1
f 123/4/1 121/4/1 122/4/1
f 126/6/1 125/6/1 124/6/1
f 127/6/1 125/6/1 126/6/1
f 130/6/1 129/6/1 128/6/1
f 131/6/1 129/6/1 130/6/1
f 132/6/2 133/6/2 134/6/2
f 134/6/2 133/6/2 135/6/2
f 136/4/2 137/4/2 138/4/2
f 138/4/2 137/4/2 139/4/2
f 140/18/2 141/18/2 142/18/2
f 142/18/2 141/18/2 143/18/2
f 144/18/2 145/18/2 146/18/2
f 146/18/2 145/18/2 147/18/2
f 148/5/2 149/5/2 150/5/2
f 150/5/2 149/5/2 151/5/2
f 151/5/2 149/5/2 152/5/2
f 151/3/2 152/3/2 153/3/2
f 153/3/2 152/3/2 154/3/2
f 155/1/2 156/1/2 157/1/2
f 155/1/2 157/1/2 159/1/2
f 157/1/2 158/1/2 159/1/2
f 159/1/2 158/1/2 160/1/2
f 161/1/2 162/1/2 163/1/2
f 163/1/2 162/1/2 164/1/2
f 165/6/2 166/6/2 167/6/2
f 167/6/2 166/6/2 168/6/2
f 169/6/2 170/6/2 171/6/2
f 171/6/2 170/6/2 172/6/2
f 173/6/2 174/6/2 175/6/2
f 175/6/2 174/6/2 176/6/2
f 177/10/2 178/10/2 179/10/2
f 179/10/2 178/10/2 180/10/2
f 181/9/2 182/9/2 183/9/2
f 183/9/2 182/9/2 184/9/2
f 185/6/2 186/6/2 187/6/2
f 187/6/2 186/6/2 188/6/2
f 189/6/2 190/6/2 191/6/2
f 191/6/2 190/6/2 192/6/2
f 193/5/2 194/5/2 195/5/2
f 195/5/2 194/5/2 196/5/2
f 197/4/2 198/4/2 199/4/2
f 199/4/2 198/4/2 200/4/2
f 201/3/2 202/3/2 203/3/2
f 203/3/2 202/3/2 204/3/2
f 205/1/2 206/1/2 207/1/2
f 207/1/2 206/1/2 208/1/2
f 208/1/2 206/1/2 209/1/2
f 211/6/2 212/6/2 213/6/2
f 213/6/2 212/6/2 214/6/2
f 209/1/2 210/1/2 215/1/2
f 215/1/2 210/1/2 216/1/2
f 209/1/2 215/1/2 219/1/2
f 217/1/2 218/1/2 220/1/2
f 218/1/2 219/1/2 220/1/2
f 219/1/2 215/1/2 221/1/2
f 220/1/2 219/1/2 221/1/2
f 222/4/2 223/4/2 224/4/2
f 224/4/2 223/4/2 225/4/2
f 226/4/2 227/4/2 228/4/2
f 228/4/2 227/4/2 229/4/2
f 230/6/2 231/6/2 232/6/2
f 232/6/2 231/6/2 233/6/2
f 234/11/2 235/11/2 236/11/2
f 236/11/2 235/11/2 237/11/2
f 238/7/2 239/7/2 241/7/2
f 239/3/2 240/3/2 242/3/2
f 241/7/2 239/7/2 242/7/2
f 241/17/2 242/17/2 243/17/2
f 242/3/2 240/3/2 244/3/2
f 243/17/2 242/17/2 244/17/2
f 243/7/2 244/7/2 245/7/2
f 244/3/2 240/3/2 246/3/2
f 245/7/2 244/7/2 246/7/2
f 246/3/2 240/3/2 247/3/2
f 248/4/2 249/4/2 250/4/2
f 250/4/2 249/4/2 251/4/2
f 252/6/2 253/6/2 255/6/2
f 253/1/2 254/1/2 256/1/2
f 255/6/2 253/6/2 256/6/2
f 256/1/2 254/1/2 258/1/2
f 257/6/2 258/6/2 259/6/2
f 258/1/2 254/1/2 260/1/2
f 259/6/2 258/6/2 260/6/2
f 260/1/2 254/1/2 261/1/2
f 262/6/2 263/6/2 265/6/2
f 265/6/2 263/6/2 266/6/2
f 263/3/2 264/3/2 267/3/2
f 266/6/2 263/6/2 267/6/2
f 266/3/2 267/3/2 268/3/2
f 267/3/2 264/3/2 269/3/2
f 268/3/2 267/3/2 269/3/2
f 270/4/2 271/4/2 272/4/2
f 272/4/2 271/4/2 273/4/2
f 276/10/3 275/10/3 274/10/3
f 277/10/3 275/10/3 276/10/3
f 280/4/3 279/4/3 278/4/3
f 281/4/3 279/4/3 280/4/3
f 285/4/3 280/4/3 278/4/3
f 285/6/3 281/6/3 280/6/3
f 285/6/3 282/6/3 281/6/3
f 286/6/3 282/6/3 285/6/3
f 287/6/3 282/6/3 286/6/3
f 288/4/3 285/4/3 278/4/3
f 288/4/3 286/4/3 285/4/3
f 289/4/3 286/4/3 288/4/3
f 290/5/3 284/5/3 283/5/3
f 291/5/3 284/5/3 290/5/3
f 294/9/3 293/9/3 292/9/3
f 295/9/3 293/9/3 294/9/3
f 296/9/3 294/9/3 292/9/3
f 297/9/3 293/9/3 295/9/3
f 298/9/3 296/9/3 292/9/3
f 298/9/3 297/9/3 296/9/3
f 299/9/3 293/9/3 297/9/3
f 299/9/3 297/9/3 298/9/3
f 300/4/3 288/4/3 278/4/3
f 302/4/3 300/4/3 278/4/3
f 302/4/3 301/4/3 300/4/3
f 303/4/3 301/4/3 302/4/3
f 305/4/3 302/4/3 278/4/3
f 305/6/3 304/6/3 303/6/3
f 305/6/3 303/6/3 302/6/3
f 306/6/3 304/6/3 305/6/3
f 307/6/3 304/6/3 306/6/3
f 308/4/3 305/4/3 278/4/3
f 308/4/3 306/4/3 305/4/3
f 309/4/3 306/4/3 308/4/3
f 315/3/3 311/3/3 310/3/3
f 317/3/3 315/3/3 314/3/3
f 318/3/3 313/3/3 312/3/3
f 319/3/3 313/3/3 318/3/3
f 322/5/3 321/5/3 320/5/3
f 323/5/3 321/5/3 322/5/3
f 325/5/3 321/5/3 323/5/3
f 326/5/3 325/5/3 324/5/3
f 327/5/3 321/5/3 325/5/3
f 327/5/3 325/5/3 326/5/3
f 328/4/3 317/4/3 316/4/3
f 329/3/3 315/3/3 317/3/3
f 329/4/3 317/4/3 328/4/3
f 330/3/3 315/3/3 329/3/3
f 331/3/3 311/3/3 315/3/3
f 331/3/3 315/3/3 330/3/3
f 332/3/3 311/3/3 331/3/3
f 333/3/3 311/3/3 332/3/3
f 336/1/3 335/1/3 334/1/3
f 337/1/3 335/1/3 336/1/3
f 338/1/3 335/1/3 337/1/3
f 341/1/3 335/1/3 338/1/3
f 342/1/3 340/1/3 339/1/3
f 342/1/3 341/1/3 340/1/3
f 343/1/3 335/1/3 341/1/3
f 343/1/3 341/1/3 342/1/3
f 347/6/3 345/6/3 344/6/3
f 348/4/3 346/4/3 345/4/3
f 348/6/3 345/6/3 347/6/3
f 349/4/3 346/4/3 348/4/3
f 350/4/3 346/4/3 349/4/3
f 352/4/3 349/4/3 348/4/3
f 353/6/3 352/6/3 351/6/3
f 354/4/3 349/4/3 352/4/3
f 354/6/3 352/6/3 353/6/3
f 356/4/3 349/4/3 354/4/3
f 357/6/3 356/6/3 355/6/3
f 358/4/3 349/4/3 356/4/3
f 358/6/3 356/6/3 357/6/3
f 360/4/3 349/4/3 358/4/3
f 361/6/3 360/6/3 359/6/3
f 362/4/3 349/4/3 360/4/3
f 362/6/3 360/6/3 361/6/3
f 363/4/3 349/4/3 362/4/3
f 364/4/3 346/4/3 350/4/3
f 365/4/3 363/4/3 362/4/3
f 365/4/3 364/4/3 363/4/3
f 366/4/3 346/4/3 364/4/3
f 366/4/3 364/4/3 365/4/3
f 371/7/3 368/7/3 367/7/3
f 371/14/3 369/14/3 368/14/3
f 372/7/3 370/7/3 369/7/3
f 372/14/3 369/14/3 371/14/3
f 373/7/3 370/7/3 372/7/3
f 374/7/3 370/7/3 373/7/3
f 375/7/3 371/7/3 367/7/3
f 375/15/3 372/15/3 371/15/3
f 376/7/3 373/7/3 372/7/3
f 376/15/3 372/15/3 375/15/3
f 377/7/3 375/7/3 367/7/3
f 377/16/3 376/16/3 375/16/3
f 378/7/3 373/7/3 376/7/3
f 378/16/3 376/16/3 377/16/3
f 379/8/3 374/8/3 373/8/3
f 379/7/3 373/7/3 378/7/3
f 380/8/3 374/8/3 379/8/3
f 381/7/3 377/7/3 367/7/3
f 382/17/3 378/17/3 377/17/3
f 382/7/3 377/7/3 381/7/3
f 383/7/3 379/7/3 378/7/3
f 383/17/3 378/17/3 382/17/3
f 383/7/3 380/7/3 379/7/3
f 384/7/3 380/7/3 383/7/3
f 387/1/3 386/1/3 385/1/3
f 388/1/3 387/1/3 385/1/3
f 391/1/3 388/1/3 385/1/3
f 391/1/3 389/1/3 388/1/3
f 392/1/3 389/1/3 391/1/3
f 393/1/3 389/1/3 392/1/3
f 394/1/3 391/1/3 390/1/3
f 394/1/3 392/1/3 391/1/3
f 395/1/3 392/1/3 394/1/3
f 396/1/3 392/1/3 395/1/3
f 397/1/3 394/1/3 390/1/3
f 399/1/3 397/1/3 390/1/3
f 399/1/3 398/1/3 397/1/3
f 400/1/3 398/1/3 399/1/3
f 401/1/3 399/1/3 390/1/3
f 403/1/3 401/1/3 390/1/3
f 403/1/3 402/1/3 401/1/3
f 404/1/3 402/1/3 403/1/3
f 405/1/3 403/1/3 390/1/3
f 407/1/3 405/1/3 390/1/3
f 407/1/3 406/1/3 405/1/3
f 408/1/3 406/1/3 407/1/3
f 409/1/3 407/1/3 390/1/3
f 411/1/3 409/1/3 390/1/3
f 411/1/3 410/1/3 409/1/3
f 412/1/3 410/1/3 411/1/3
f 413/1/3 392/1/3 396/1/3
f 414/1/3 392/1/3 413/1/3
f 415/1/3 411/1/3 390/1/3
f 416/1/3 411/1/3 415/1/3
f 417/6/3 412/6/3 411/6/3
f 417/1/3 411/1/3 416/1/3
f 417/6/3 413/6/3 412/6/3
f 417/6/3 414/6/3 413/6/3
f 418/6/3 414/6/3 417/6/3
f 419/6/3 414/6/3 418/6/3
f 420/1/3 392/1/3 414/1/3
f 420/6/3 414/6/3 419/6/3
f 421/1/3 392/1/3 420/1/3
f 422/6/3 420/6/3 419/6/3
f 423/6/3 418/6/3 417/6/3
f 423/6/3 417/6/3 416/6/3
f 424/6/3 418/6/3 423/6/3
f 425/6/3 420/6/3 422/6/3
f 426/5/3 424/5/3 423/5/3
f 427/5/3 424/5/3 426/5/3
f 428/6/3 420/6/3 425/6/3
f 429/6/3 420/6/3 428/6/3
f 430/6/3 427/6/3 426/6/3
f 431/6/3 427/6/3 430/6/3
f 432/6/3 420/6/3 429/6/3
f 433/6/3 420/6/3 432/6/3
f 438/18/3 435/18/3 434/18/3
f 439/18/3 435/18/3 438/18/3
f 440/18/3 437/18/3 436/18/3
f 441/18/3 437/18/3 440/18/3
f 446/1/3 443/1/3 442/1/3
f 447/1/3 443/1/3 446/1/3
f 448/11/3 445/11/3 444/11/3
f 449/1/3 446/1/3 442/1/3
f 450/11/3 448/11/3 444/11/3
f 451/1/3 446/1/3 449/1/3
f 452/11/3 450/11/3 444/11/3
f 453/11/3 450/11/3 452/11/3
f 454/1/3 446/1/3 451/1/3
f 456/1/3 455/1/3 454/1/3
f 456/1/3 454/1/3 451/1/3
f 457/1/3 455/1/3 456/1/3
f 460/18/3 459/18/3 458/18/3
f 461/18/3 459/18/3 460/18/3
f 462/4/3 461/4/3 460/4/3
f 463/4/3 461/4/3 462/4/3
f 464/4/3 461/4/3 463/4/3
f 465/18/3 459/18/3 461/18/3
f 465/4/3 461/4/3 464/4/3
f 466/4/3 462/4/3 460/4/3
f 467/4/3 464/4/3 463/4/3
f 468/4/3 464/4/3 467/4/3
f 469/18/3 459/18/3 465/18/3
f 470/18/3 460/18/3 458/18/3
f 470/4/3 469/4/3 468/4/3
f 470/4/3 466/4/3 460/4/3
f 470/4/3 468/4/3 467/4/3
f 470/4/3 467/4/3 466/4/3
f 471/18/3 459/18/3 469/18/3
f 471/4/3 469/4/3 470/4/3
f 472/18/3 470/18/3 458/18/3
f 472/18/3 471/18/3 470/18/3
f 473/18/3 459/18/3 471/18/3
f 473/18/3 471/18/3 472/18/3
f 476/3/3 475/3/3 474/3/3
f 477/3/3 475/3/3 476/3/3
f 480/6/3 479/6/3 478/6/3
f 481/6/3 479/6/3 480/6/3
f 484/4/3 483/4/3 482/4/3
f 485/4/3 483/4/3 484/4/3
f 488/6/3 487/6/3 486/6/3
f 489/6/3 487/6/3 488/6/3
f 492/4/3 491/4/3 490/4/3
f 493/4/3 491/4/3 492/4/3
f 496/4/3 495/4/3 494/4/3
f 497/4/3 495/4/3 496/4/3
f 498/11/4 499/11/4 500/11/4
f 500/11/4 499/11/4 501/11/4
f 502/1/4 503/1/4 504/1/4
f 504/1/4 503/1/4 505/1/4
f 505/1/4 503/1/4 506/1/4
f 506/1/4 503/1/4 507/1/4
f 508/1/4 509/1/4 511/1/4
f 510/18/4 511/18/4 512/18/4
f 511/1/4 509/1/4 513/1/4
f 512/18/4 511/18/4 513/18/4
f 513/1/4 509/1/4 514/1/4
f 514/1/4 509/1/4 515/1/4
f 515/1/4 509/1/4 516/1/4
f 517/18/4 518/18/4 519/18/4
f 519/18/4 518/18/4 520/18/4
f 520/18/4 518/18/4 521/18/4
f 521/18/4 518/18/4 522/18/4
f 523/6/4 524/6/4 525/6/4
f 525/6/4 524/6/4 526/6/4
f 527/4/4 528/4/4 529/4/4
f 527/4/4 529/4/4 531/4/4
f 529/6/4 530/6/4 531/6/4
f 531/6/4 530/6/4 532/6/4
f 527/4/4 531/4/4 533/4/4
f 533/4/4 531/4/4 534/4/4
f 535/3/4 536/3/4 537/3/4
f 537/3/4 536/3/4 538/3/4
f 539/1/4 540/1/4 541/1/4
f 541/1/4 540/1/4 542/1/4
f 542/1/4 540/1/4 543/1/4
f 544/1/4 545/1/4 546/1/4
f 546/1/4 545/1/4 547/1/4
f 548/4/4 549/4/4 550/4/4
f 550/4/4 549/4/4 551/4/4
f 552/4/4 553/4/4 554/4/4
f 554/4/4 553/4/4 555/4/4
f 556/3/4 557/3/4 558/3/4
f 558/3/4 557/3/4 559/3/4
f 560/4/4 561/4/4 562/4/4
f 562/4/4 561/4/4 563/4/4
f 566/4/5 565/4/5 564/4/5
f 567/4/5 565/4/5 566/4/5
f 572/6/5 569/6/5 568/6/5
f 573/6/5 569/6/5 572/6/5
f 574/5/5 570/5/5 569/5/5
f 574/6/5 569/6/5 573/6/5
f 575/6/5 571/6/5 570/6/5
f 575/5/5 570/5/5 574/5/5
f 576/6/5 571/6/5 575/6/5
f 577/6/5 571/6/5 576/6/5
f 578/1/5 573/1/5 572/1/5
f 579/1/5 577/1/5 576/1/5
f 580/1/5 578/1/5 572/1/5
f 580/1/5 579/1/5 578/1/5
f 581/1/5 579/1/5 580/1/5
f 582/1/5 577/1/5 579/1/5
f 582/1/5 579/1/5 581/1/5
f 591/6/5 584/6/5 583/6/5
f 592/6/5 584/6/5 591/6/5
f 593/6/5 586/6/5 585/6/5
f 594/6/5 586/6/5 593/6/5
f 595/6/5 588/6/5 587/6/5
f 596/6/5 588/6/5 595/6/5
f 597/6/5 590/6/5 589/6/5
f 598/6/5 590/6/5 597/6/5
f 601/18/5 600/18/5 599/18/5
f 602/18/5 600/18/5 601/18/5
f 611/4/5 604/4/5 603/4/5
f 612/4/5 604/4/5 611/4/5
f 613/4/5 606/4/5 605/4/5
f 614/4/5 606/4/5 613/4/5
f 615/4/5 608/4/5 607/4/5
f 616/4/5 608/4/5 615/4/5
f 617/4/5 610/4/5 609/4/5
f 618/4/5 610/4/5 617/4/5
f 622/9/5 620/9/5 619/9/5
f 623/9/5 620/9/5 622/9/5
f 625/5/5 622/5/5 621/5/5
f 625/5/5 624/5/5 623/5/5
f 625/5/5 623/5/5 622/5/5
f 626/5/5 624/5/5 625/5/5
f 629/18/5 628/18/5 627/18/5
f 630/18/5 628/18/5 629/18/5
f 633/10/5 632/10/5 631/10/5
f 634/10/5 632/10/5 633/10/5
f 637/7/5 636/7/5 635/7/5
f 638/7/5 636/7/5 637/7/5
f 639/3/5 638/3/5 637/3/5
f 640/3/5 638/3/5 639/3/5
f 643/1/5 642/1/5 641/1/5
f 644/1/5 642/1/5 643/1/5
f 645/1/5 643/1/5 641/1/5
f 646/1/5 643/1/5 645/1/5
f 651/6/5 648/6/5 647/6/5
f 652/6/5 648/6/5 651/6/5
f 653/6/5 650/6/5 649/6/5
f 654/6/5 650/6/5 653/6/5
f 658/5/5 656/5/5 655/5/5
f 659/5/5 656/5/5 658/5/5
f 661/1/5 658/1/5 657/1/5
f 661/5/5 659/5/5 658/5/5
f 662/1/5 660/1/5 659/1/5
f 662/5/5 659/5/5 661/5/5
f 663/1/5 660/1/5 662/1/5
f 664/1/5 661/1/5 657/1/5
f 665/1/5 661/1/5 664/1/5
f 669/4/5 667/4/5 666/4/5
f 670/4/5 669/4/5 668/4/5
f 671/4/5 667/4/5 669/4/5
f 671/4/5 669/4/5 670/4/5
f 672/4/6 673/4/6 674/4/6
f 674/4/6 673/4/6 675/4/6
f 678/4/6 679/4/6 684/4/6
f 684/4/6 679/4/6 685/4/6
f 680/4/6 681/4/6 686/4/6
f 686/4/6 681/4/6 687/4/6
f 676/4/6 677/4/6 688/4/6
f 682/4/6 683/4/6 689/4/6
f 676/4/6 688/4/6 690/4/6
f 689/4/6 683/4/6 691/4/6
f 676/4/6 690/4/6 692/4/6
f 690/4/6 691/4/6 692/4/6
f 691/4/6 683/4/6 693/4/6
f 692/4/6 691/4/6 693/4/6
f 694/6/6 695/6/6 698/6/6
f 698/6/6 695/6/6 699/6/6
f 696/6/6 697/6/6 700/6/6
f 700/6/6 697/6/6 701/6/6
f 702/3/6 703/3/6 704/3/6
f 704/3/6 703/3/6 705/3/6
f 705/3/6 703/3/6 706/3/6
f 706/3/6 703/3/6 707/3/6
f 702/3/6 704/3/6 708/3/6
f 708/3/6 704/3/6 709/3/6
f 705/3/6 706/3/6 710/3/6
f 707/3/6 703/3/6 711/3/6
f 702/3/6 708/3/6 712/3/6
f 712/3/6 713/3/6 714/3/6
f 705/3/6 710/3/6 716/3/6
f 710/3/6 711/3/6 716/3/6
f 716/3/6 711/3/6 717/3/6
f 714/3/6 715/3/6 718/3/6
f 717/3/6 711/3/6 719/3/6
f 714/3/6 718/3/6 720/3/6
f 718/3/6 719/3/6 720/3/6
f 712/3/6 714/3/6 720/3/6
f 702/3/6 712/3/6 720/3/6
f 719/3/6 711/3/6 721/3/6
f 720/3/6 719/3/6 721/3/6
f 711/3/6 703/3/6 721/3/6
f 722/4/6 723/4/6 726/4/6
f 724/4/6 725/4/6 727/4/6
f 722/4/6 726/4/6 728/4/6
f 726/4/6 727/4/6 728/4/6
f 727/4/6 725/4/6 729/4/6
f 728/4/6 727/4/6 729/4/6
f 730/18/6 731/18/6 732/18/6
f 732/18/6 731/18/6 733/18/6
f 734/6/6 735/6/6 738/6/6
f 735/5/6 736/5/6 739/5/6
f 738/6/6 735/6/6 739/6/6
f 736/6/6 737/6/6 740/6/6
f 739/5/6 736/5/6 740/5/6
f 740/6/6 737/6/6 741/6/6
f 742/18/6 743/18/6 744/18/6
f 744/18/6 743/18/6 745/18/6
f 746/18/6 747/18/6 748/18/6
f 748/18/6 747/18/6 749/18/6
f 750/10/6 751/10/6 752/10/6
f 752/10/6 751/10/6 753/10/6
f 754/9/6 755/9/6 756/9/6
f 756/9/6 755/9/6 757/9/6
f 758/7/6 759/7/6 762/7/6
f 759/8/6 760/8/6 763/8/6
f 762/7/6 759/7/6 763/7/6
f 760/7/6 761/7/6 764/7/6
f 763/8/6 760/8/6 764/8/6
f 764/7/6 761/7/6 765/7/6
f 766/5/6 767/5/6 768/5/6
f 768/5/6 767/5/6 769/5/6
f 770/4/6 771/4/6 772/4/6
f 772/4/6 771/4/6 773/4/6
f 774/6/6 775/6/6 776/6/6
f 776/6/6 775/6/6 777/6/6
f 776/1/6 777/1/6 778/1/6
f 778/1/6 777/1/6 779/1/6
f 776/1/6 778/1/6 780/1/6
f 779/1/6 777/1/6 781/1/6
f 776/1/6 780/1/6 782/1/6
f 780/1/6 781/1/6 782/1/6
f 781/1/6 777/1/6 783/1/6
f 782/1/6 781/1/6 783/1/6
f 784/5/6 785/5/6 786/5/6
f 786/5/6 785/5/6 787/5/6
f 788/1/6 789/1/6 790/1/6
f 790/1/6 789/1/6 791/1/6
f 788/1/6 790/1/6 792/1/6
f 792/1/6 790/1/6 793/1/6
f 791/1/6 789/1/6 794/1/6
f 792/1/6 793/1/6 795/1/6
f 793/1/6 794/1/6 795/1/6
f 794/1/6 789/1/6 796/1/6
f 795/1/6 794/1/6 796/1/6
f 795/4/6 796/4/6 798/4/6
f 796/4/6 797/4/6 798/4/6
f 798/4/6 797/4/6 799/4/6
f 800/3/6 801/3/6 802/3/6
f 802/3/6 801/3/6 803/3/6
f 804/1/6 805/1/6 807/1/6
f 806/1/6 807/1/6 810/1/6
f 807/1/6 805/1/6 811/1/6
f 810/1/6 807/1/6 811/1/6
f 808/4/6 809/4/6 812/4/6
f 812/4/6 809/4/6 813/4/6
f 808/4/6 812/4/6 814/4/6
f 814/4/6 812/4/6 815/4/6
f 813/4/6 809/4/6 816/4/6
f 816/4/6 809/4/6 817/4/6
f 818/1/6 819/1/6 820/1/6
f 820/1/6 819/1/6 821/1/6
f 822/6/6 823/6/6 824/6/6
f 824/6/6 823/6/6 825/6/6
f 826/3/6 827/3/6 828/3/6
f 828/3/6 827/3/6 829/3/6
f 826/3/6 828/3/6 830/3/6
f 829/3/6 827/3/6 831/3/6
f 826/3/6 830/3/6 832/3/6
f 830/3/6 831/3/6 832/3/6
f 831/3/6 827/3/6 833/3/6
f 832/3/6 831/3/6 833/3/6
f 834/6/6 835/6/6 836/6/6
f 836/6/6 835/6/6 837/6/6
