# MagicaVoxel @ Ephtracy

# group
o 

# material
mtllib Waste_Compactor.mtl
usemtl palette

# normals
vn -1 0 0
vn 1 0 0
vn 0 0 1
vn 0 0 -1
vn 0 -1 0
vn 0 1 0

# texcoords
vt 0.00195312 0.5
vt 0.00585938 0.5
vt 0.00976562 0.5
vt 0.0136719 0.5
vt 0.0175781 0.5
vt 0.0214844 0.5
vt 0.0332031 0.5
vt 0.0371094 0.5
vt 0.0410156 0.5
vt 0.0449219 0.5
vt 0.0488281 0.5
vt 0.0566406 0.5
vt 0.0644531 0.5
vt 0.0683594 0.5
vt 0.0722656 0.5
vt 0.0761719 0.5

# verts
v -1.4 0 0.8
v -1.4 0 -0.8
v -1.4 0.2 0.8
v -1.4 0.2 -0.8
v -1.3 0.2 0.8
v -1.3 0.2 0.5
v -1.3 0.2 -0.5
v -1.3 0.2 -0.8
v -1.3 0.3 0.8
v -1.3 0.3 0.7
v -1.3 0.3 0.5
v -1.3 0.3 -0.5
v -1.3 0.3 -0.7
v -1.3 0.3 -0.8
v -1.3 0.4 0.7
v -1.3 0.4 -0.7
v -1.2 1 0.3
v -1.2 1 0.1
v -1.2 1.4 0.3
v -1.2 1.4 0.1
v -1.1 0.4 0.5
v -1.1 0.4 -0.6
v -1.1 0.7 0.5
v -1.1 0.7 -0.6
v -1.1 0.7 -0.7
v -1.1 1 0.3
v -1.1 1 0.1
v -1.1 1.4 0.3
v -1.1 1.4 0.1
v -1.1 2 0.5
v -1.1 2 -0.6
v -1.1 2 -0.7
v -0.8 0.7 0.6
v -0.8 0.7 0.5
v -0.8 0.8 0.6
v -0.8 0.8 0.5
v -0.8 2 0.4
v -0.8 2 0.1
v -0.8 2.2 0.4
v -0.8 2.2 0.1
v -0.6 2.2 0.4
v -0.6 2.2 0.1
v -0.6 2.3 0.4
v -0.6 2.3 0.1
v 0.5 0.6 0.6
v 0.5 0.6 0.5
v 0.5 0.7 0.6
v 0.5 0.7 0.5
v 0.5 0.7 -0.6
v 0.5 0.7 -0.7
v 0.5 1.8 -0.6
v 0.5 1.8 -0.7
v 0.8 1.2 0.6
v 0.8 1.2 0.5
v 0.8 1.3 0.6
v 0.8 1.3 0.5
v 0.8 1.6 0.6
v 0.8 1.6 0.5
v 0.9 0.2 0.8
v 0.9 0.2 0.7
v 0.9 0.2 -0.7
v 0.9 0.2 -0.8
v 0.9 0.3 0.8
v 0.9 0.3 0.7
v 0.9 0.3 -0.7
v 0.9 0.3 -0.8
v -0.9 0.2 0.8
v -0.9 0.2 0.7
v -0.9 0.2 -0.7
v -0.9 0.2 -0.8
v -0.9 0.3 0.8
v -0.9 0.3 0.7
v -0.9 0.3 -0.7
v -0.9 0.3 -0.8
v -0.8 0.7 -0.6
v -0.8 0.7 -0.7
v -0.8 1.8 -0.6
v -0.8 1.8 -0.7
v -0.3 2.2 0.4
v -0.3 2.2 0.1
v -0.3 2.3 0.4
v -0.3 2.3 0.1
v -0.2 2 0.4
v -0.2 2 0.1
v -0.2 2.2 0.4
v -0.2 2.2 0.1
v 0.8 0.7 -0.6
v 0.8 0.7 -0.7
v 0.8 2 -0.6
v 0.8 2 -0.7
v 0.9 0.4 0.5
v 0.9 0.4 -0.6
v 0.9 0.6 0.6
v 0.9 0.6 0.5
v 0.9 0.7 0.6
v 0.9 0.7 0.5
v 0.9 0.7 0.4
v 0.9 0.7 -0.4
v 0.9 0.7 -0.6
v 0.9 0.8 0.6
v 0.9 0.8 0.5
v 0.9 0.8 0.4
v 0.9 1.1 0.5
v 0.9 1.1 0.4
v 0.9 1.2 0.5
v 0.9 1.2 0.4
v 0.9 1.7 0.5
v 0.9 1.7 0.4
v 0.9 1.8 0.4
v 0.9 1.8 -0.4
v 0.9 2 0.5
v 0.9 2 -0.6
v 1.1 0.8 0.5
v 1.1 0.8 0.4
v 1.1 1.1 0.5
v 1.1 1.1 0.4
v 1.1 1.2 0.6
v 1.1 1.2 0.5
v 1.1 1.2 0.4
v 1.1 1.3 0.6
v 1.1 1.3 0.5
v 1.1 1.4 0.4
v 1.1 1.6 0.6
v 1.1 1.6 0.5
v 1.1 1.7 0.5
v 1.1 1.7 0.4
v 1.2 0.7 0.4
v 1.2 0.7 -0.4
v 1.2 1.1 0.4
v 1.2 1.1 -0.4
v 1.2 1.4 0.4
v 1.2 1.4 -0.4
v 1.2 1.8 0.4
v 1.2 1.8 -0.4
v 1.3 0.2 0.8
v 1.3 0.2 0.5
v 1.3 0.2 -0.5
v 1.3 0.2 -0.8
v 1.3 0.3 0.8
v 1.3 0.3 0.7
v 1.3 0.3 0.5
v 1.3 0.3 -0.5
v 1.3 0.3 -0.7
v 1.3 0.3 -0.8
v 1.3 0.4 0.7
v 1.3 0.4 -0.7
v 1.4 0 0.8
v 1.4 0 -0.8
v 1.4 0.2 0.8
v 1.4 0.2 -0.8
v -1.4 0 0.8
v -1.4 0.2 0.8
v -1.3 0.1 0.8
v -1.3 0.2 0.8
v -1.3 0.3 0.8
v -0.9 0.1 0.8
v -0.9 0.2 0.8
v -0.9 0.3 0.8
v 0.9 0.1 0.8
v 0.9 0.2 0.8
v 0.9 0.3 0.8
v 1.3 0.1 0.8
v 1.3 0.2 0.8
v 1.3 0.3 0.8
v 1.4 0 0.8
v 1.4 0.2 0.8
v -1.3 0.3 0.7
v -1.3 0.4 0.7
v -0.9 0.2 0.7
v -0.9 0.3 0.7
v 0.9 0.2 0.7
v 0.9 0.3 0.7
v 1.3 0.3 0.7
v 1.3 0.4 0.7
v -0.8 0.7 0.6
v -0.8 0.8 0.6
v -0.7 0.7 0.6
v -0.7 0.8 0.6
v -0.6 0.7 0.6
v -0.6 0.8 0.6
v -0.5 0.7 0.6
v -0.5 0.8 0.6
v -0.4 0.7 0.6
v -0.4 0.8 0.6
v -0.3 0.7 0.6
v -0.3 0.8 0.6
v -0.2 0.7 0.6
v -0.2 0.8 0.6
v -0.1 0.7 0.6
v -0.1 0.8 0.6
v 0 0.7 0.6
v 0 0.8 0.6
v 0.1 0.7 0.6
v 0.1 0.8 0.6
v 0.2 0.7 0.6
v 0.2 0.8 0.6
v 0.3 0.7 0.6
v 0.3 0.8 0.6
v 0.4 0.7 0.6
v 0.4 0.8 0.6
v 0.5 0.6 0.6
v 0.5 0.7 0.6
v 0.5 0.8 0.6
v 0.6 0.7 0.6
v 0.6 0.8 0.6
v 0.7 0.7 0.6
v 0.7 0.8 0.6
v 0.8 0.7 0.6
v 0.8 0.8 0.6
v 0.8 1.2 0.6
v 0.8 1.3 0.6
v 0.8 1.6 0.6
v 0.9 0.6 0.6
v 0.9 0.7 0.6
v 0.9 0.8 0.6
v 0.9 1.4 0.6
v 0.9 1.6 0.6
v 1 1.4 0.6
v 1 1.6 0.6
v 1.1 1.2 0.6
v 1.1 1.3 0.6
v 1.1 1.6 0.6
v -1.1 0.4 0.5
v -1.1 0.7 0.5
v -1.1 2 0.5
v -1 1.2 0.5
v -1 1.3 0.5
v -0.9 1.1 0.5
v -0.9 1.2 0.5
v -0.9 1.3 0.5
v -0.9 1.4 0.5
v -0.8 0.7 0.5
v -0.8 0.8 0.5
v -0.8 1.1 0.5
v -0.8 1.2 0.5
v -0.8 1.3 0.5
v -0.8 1.4 0.5
v -0.7 0.7 0.5
v -0.7 0.8 0.5
v -0.7 1.2 0.5
v -0.7 1.3 0.5
v -0.6 0.7 0.5
v -0.6 0.8 0.5
v -0.6 1.6 0.5
v -0.5 0.7 0.5
v -0.5 0.8 0.5
v -0.5 0.9 0.5
v -0.5 1.5 0.5
v -0.4 0.7 0.5
v -0.4 0.8 0.5
v -0.3 0.7 0.5
v -0.3 0.8 0.5
v -0.2 0.7 0.5
v -0.2 0.8 0.5
v -0.2 1 0.5
v -0.2 1.1 0.5
v -0.2 1.2 0.5
v -0.2 1.4 0.5
v -0.1 0.7 0.5
v -0.1 0.8 0.5
v -0.1 1 0.5
v -0.1 1.1 0.5
v -0.1 1.2 0.5
v -0.1 1.4 0.5
v 0 0.7 0.5
v 0 0.8 0.5
v 0.1 0.7 0.5
v 0.1 0.8 0.5
v 0.2 0.7 0.5
v 0.2 0.8 0.5
v 0.2 0.9 0.5
v 0.2 1.5 0.5
v 0.3 0.7 0.5
v 0.3 0.8 0.5
v 0.3 1.6 0.5
v 0.4 0.7 0.5
v 0.4 0.8 0.5
v 0.5 0.6 0.5
v 0.5 0.7 0.5
v 0.5 0.8 0.5
v 0.6 0.8 0.5
v 0.7 0.8 0.5
v 0.8 0.8 0.5
v 0.8 1.1 0.5
v 0.8 1.2 0.5
v 0.8 1.3 0.5
v 0.8 1.6 0.5
v 0.8 1.7 0.5
v 0.9 0.4 0.5
v 0.9 0.6 0.5
v 0.9 0.8 0.5
v 0.9 1.1 0.5
v 0.9 1.2 0.5
v 0.9 1.6 0.5
v 0.9 1.7 0.5
v 0.9 2 0.5
v 1 1.6 0.5
v 1.1 0.8 0.5
v 1.1 1.1 0.5
v 1.1 1.6 0.5
v 1.1 1.7 0.5
v -0.8 2 0.4
v -0.8 2.2 0.4
v -0.6 2.2 0.4
v -0.6 2.3 0.4
v -0.3 2.2 0.4
v -0.3 2.3 0.4
v -0.2 2 0.4
v -0.2 2.2 0.4
v 0.9 0.7 0.4
v 0.9 0.8 0.4
v 0.9 1.1 0.4
v 0.9 1.2 0.4
v 0.9 1.7 0.4
v 0.9 1.8 0.4
v 1.1 0.7 0.4
v 1.1 0.8 0.4
v 1.1 1.1 0.4
v 1.1 1.2 0.4
v 1.1 1.4 0.4
v 1.1 1.7 0.4
v 1.1 1.8 0.4
v 1.2 0.7 0.4
v 1.2 1.1 0.4
v 1.2 1.4 0.4
v 1.2 1.8 0.4
v -1.2 1 0.3
v -1.2 1.4 0.3
v -1.1 1 0.3
v -1.1 1.4 0.3
v -1.2 1 0.1
v -1.2 1.4 0.1
v -1.1 1 0.1
v -1.1 1.4 0.1
v -0.8 2 0.1
v -0.8 2.2 0.1
v -0.6 2.2 0.1
v -0.6 2.3 0.1
v -0.3 2.2 0.1
v -0.3 2.3 0.1
v -0.2 2 0.1
v -0.2 2.2 0.1
v 0.9 0.7 -0.4
v 0.9 1.8 -0.4
v 1.1 0.7 -0.4
v 1.1 1.1 -0.4
v 1.1 1.4 -0.4
v 1.1 1.8 -0.4
v 1.2 0.7 -0.4
v 1.2 1.1 -0.4
v 1.2 1.4 -0.4
v 1.2 1.8 -0.4
v -1.1 0.4 -0.6
v -1.1 0.7 -0.6
v -0.8 0.7 -0.6
v -0.8 1.8 -0.6
v -0.6 0.4 -0.6
v -0.6 0.5 -0.6
v 0.4 0.4 -0.6
v 0.4 0.5 -0.6
v 0.5 0.7 -0.6
v 0.5 1.8 -0.6
v 0.8 0.7 -0.6
v 0.8 2 -0.6
v 0.9 0.4 -0.6
v 0.9 0.7 -0.6
v 0.9 2 -0.6
v -1.3 0.3 -0.7
v -1.3 0.4 -0.7
v -1.1 0.7 -0.7
v -1.1 2 -0.7
v -0.9 0.2 -0.7
v -0.9 0.3 -0.7
v -0.8 0.7 -0.7
v -0.8 1.8 -0.7
v 0.5 0.7 -0.7
v 0.5 1.8 -0.7
v 0.8 0.7 -0.7
v 0.8 2 -0.7
v 0.9 0.2 -0.7
v 0.9 0.3 -0.7
v 1.3 0.3 -0.7
v 1.3 0.4 -0.7
v -1.4 0 -0.8
v -1.4 0.2 -0.8
v -1.3 0.1 -0.8
v -1.3 0.2 -0.8
v -1.3 0.3 -0.8
v -0.9 0.1 -0.8
v -0.9 0.2 -0.8
v -0.9 0.3 -0.8
v 0.9 0.1 -0.8
v 0.9 0.2 -0.8
v 0.9 0.3 -0.8
v 1.3 0.1 -0.8
v 1.3 0.2 -0.8
v 1.3 0.3 -0.8
v 1.4 0 -0.8
v 1.4 0.2 -0.8
v -1.4 0 0.8
v 1.4 0 0.8
v -1.4 0 -0.8
v 1.4 0 -0.8
v 0.5 0.6 0.6
v 0.9 0.6 0.6
v 0.5 0.6 0.5
v 0.9 0.6 0.5
v -0.8 0.7 0.6
v -0.7 0.7 0.6
v -0.6 0.7 0.6
v -0.5 0.7 0.6
v -0.4 0.7 0.6
v -0.3 0.7 0.6
v -0.2 0.7 0.6
v -0.1 0.7 0.6
v 0 0.7 0.6
v 0.1 0.7 0.6
v 0.2 0.7 0.6
v 0.3 0.7 0.6
v 0.4 0.7 0.6
v 0.5 0.7 0.6
v -0.8 0.7 0.5
v -0.7 0.7 0.5
v -0.6 0.7 0.5
v -0.5 0.7 0.5
v -0.4 0.7 0.5
v -0.3 0.7 0.5
v -0.2 0.7 0.5
v -0.1 0.7 0.5
v 0 0.7 0.5
v 0.1 0.7 0.5
v 0.2 0.7 0.5
v 0.3 0.7 0.5
v 0.4 0.7 0.5
v 0.5 0.7 0.5
v 0.9 0.7 0.4
v 1.1 0.7 0.4
v 1.2 0.7 0.4
v 0.9 0.7 -0.4
v 1.1 0.7 -0.4
v 1.2 0.7 -0.4
v -1.1 0.7 -0.6
v -0.8 0.7 -0.6
v 0.5 0.7 -0.6
v 0.8 0.7 -0.6
v -1.1 0.7 -0.7
v -0.8 0.7 -0.7
v 0.5 0.7 -0.7
v 0.8 0.7 -0.7
v 0.9 0.8 0.5
v 1.1 0.8 0.5
v 0.9 0.8 0.4
v 1.1 0.8 0.4
v -1.2 1 0.3
v -1.1 1 0.3
v -1.2 1 0.1
v -1.1 1 0.1
v 0.8 1.2 0.6
v 1.1 1.2 0.6
v 0.8 1.2 0.5
v 0.9 1.2 0.5
v 1.1 1.2 0.5
v 0.9 1.2 0.4
v 1.1 1.2 0.4
v -0.8 1.8 -0.6
v 0.5 1.8 -0.6
v -0.8 1.8 -0.7
v 0.5 1.8 -0.7
v -1.4 0.2 0.8
v -1.3 0.2 0.8
v -0.9 0.2 0.8
v 0.9 0.2 0.8
v 1.3 0.2 0.8
v 1.4 0.2 0.8
v -0.9 0.2 0.7
v 0.9 0.2 0.7
v -1.3 0.2 0.5
v 1.3 0.2 0.5
v -1.3 0.2 -0.5
v 1.3 0.2 -0.5
v -0.9 0.2 -0.7
v 0.9 0.2 -0.7
v -1.4 0.2 -0.8
v -1.3 0.2 -0.8
v -0.9 0.2 -0.8
v 0.9 0.2 -0.8
v 1.3 0.2 -0.8
v 1.4 0.2 -0.8
v -1.3 0.3 0.8
v -0.9 0.3 0.8
v 0.9 0.3 0.8
v 1.3 0.3 0.8
v -1.3 0.3 0.7
v -0.9 0.3 0.7
v 0.9 0.3 0.7
v 1.3 0.3 0.7
v -1.3 0.3 -0.7
v -0.9 0.3 -0.7
v 0.9 0.3 -0.7
v 1.3 0.3 -0.7
v -1.3 0.3 -0.8
v -0.9 0.3 -0.8
v 0.9 0.3 -0.8
v 1.3 0.3 -0.8
v -1.3 0.4 0.7
v 1.3 0.4 0.7
v -1.1 0.4 0.5
v 0.9 0.4 0.5
v -1.1 0.4 -0.6
v -0.6 0.4 -0.6
v 0.4 0.4 -0.6
v 0.9 0.4 -0.6
v -1.3 0.4 -0.7
v 1.3 0.4 -0.7
v -0.8 0.8 0.6
v -0.7 0.8 0.6
v -0.6 0.8 0.6
v -0.5 0.8 0.6
v -0.4 0.8 0.6
v -0.3 0.8 0.6
v -0.2 0.8 0.6
v -0.1 0.8 0.6
v 0 0.8 0.6
v 0.1 0.8 0.6
v 0.2 0.8 0.6
v 0.3 0.8 0.6
v 0.4 0.8 0.6
v 0.5 0.8 0.6
v 0.6 0.8 0.6
v 0.7 0.8 0.6
v 0.8 0.8 0.6
v 0.9 0.8 0.6
v -0.8 0.8 0.5
v -0.7 0.8 0.5
v -0.6 0.8 0.5
v -0.5 0.8 0.5
v -0.4 0.8 0.5
v -0.3 0.8 0.5
v -0.2 0.8 0.5
v -0.1 0.8 0.5
v 0 0.8 0.5
v 0.1 0.8 0.5
v 0.2 0.8 0.5
v 0.3 0.8 0.5
v 0.4 0.8 0.5
v 0.5 0.8 0.5
v 0.6 0.8 0.5
v 0.7 0.8 0.5
v 0.8 0.8 0.5
v 0.9 0.8 0.5
v 0.9 1.1 0.5
v 1.1 1.1 0.5
v 0.9 1.1 0.4
v 1.1 1.1 0.4
v -1.2 1.4 0.3
v -1.1 1.4 0.3
v -1.2 1.4 0.1
v -1.1 1.4 0.1
v 0.8 1.6 0.6
v 0.9 1.6 0.6
v 1 1.6 0.6
v 1.1 1.6 0.6
v 0.8 1.6 0.5
v 0.9 1.6 0.5
v 1 1.6 0.5
v 1.1 1.6 0.5
v 0.9 1.7 0.5
v 1.1 1.7 0.5
v 0.9 1.7 0.4
v 1.1 1.7 0.4
v 0.9 1.8 0.4
v 1.1 1.8 0.4
v 1.2 1.8 0.4
v 0.9 1.8 -0.4
v 1.1 1.8 -0.4
v 1.2 1.8 -0.4
v -1.1 2 0.5
v 0.9 2 0.5
v -0.8 2 0.4
v -0.2 2 0.4
v -0.8 2 0.1
v -0.2 2 0.1
v -1.1 2 -0.6
v 0.8 2 -0.6
v 0.9 2 -0.6
v -1.1 2 -0.7
v 0.8 2 -0.7
v -0.8 2.2 0.4
v -0.6 2.2 0.4
v -0.3 2.2 0.4
v -0.2 2.2 0.4
v -0.8 2.2 0.1
v -0.6 2.2 0.1
v -0.3 2.2 0.1
v -0.2 2.2 0.1
v -0.6 2.3 0.4
v -0.3 2.3 0.4
v -0.6 2.3 0.1
v -0.3 2.3 0.1

# faces
f 3/4/1 2/4/1 1/4/1
f 4/4/1 2/4/1 3/4/1
f 9/6/1 6/6/1 5/6/1
f 10/6/1 6/6/1 9/6/1
f 11/3/1 7/3/1 6/3/1
f 11/6/1 6/6/1 10/6/1
f 12/6/1 8/6/1 7/6/1
f 12/3/1 7/3/1 11/3/1
f 13/6/1 8/6/1 12/6/1
f 14/6/1 8/6/1 13/6/1
f 15/3/1 11/3/1 10/3/1
f 15/3/1 13/3/1 12/3/1
f 15/3/1 12/3/1 11/3/1
f 16/3/1 13/3/1 15/3/1
f 19/5/1 18/5/1 17/5/1
f 20/5/1 18/5/1 19/5/1
f 23/4/1 22/4/1 21/4/1
f 24/4/1 22/4/1 23/4/1
f 26/1/1 24/1/1 23/1/1
f 27/1/1 24/1/1 26/1/1
f 28/1/1 26/1/1 23/1/1
f 29/1/1 24/1/1 27/1/1
f 30/1/1 28/1/1 23/1/1
f 30/1/1 29/1/1 28/1/1
f 31/4/1 25/4/1 24/4/1
f 31/1/1 29/1/1 30/1/1
f 31/1/1 24/1/1 29/1/1
f 32/4/1 25/4/1 31/4/1
f 35/4/1 34/4/1 33/4/1
f 36/4/1 34/4/1 35/4/1
f 39/4/1 38/4/1 37/4/1
f 40/4/1 38/4/1 39/4/1
f 43/6/1 42/6/1 41/6/1
f 44/6/1 42/6/1 43/6/1
f 47/5/1 46/5/1 45/5/1
f 48/5/1 46/5/1 47/5/1
f 51/4/1 50/4/1 49/4/1
f 52/4/1 50/4/1 51/4/1
f 55/8/1 54/8/1 53/8/1
f 56/8/1 54/8/1 55/8/1
f 57/7/1 56/7/1 55/7/1
f 58/7/1 56/7/1 57/7/1
f 63/6/1 60/6/1 59/6/1
f 64/6/1 60/6/1 63/6/1
f 65/6/1 62/6/1 61/6/1
f 66/6/1 62/6/1 65/6/1
f 67/6/2 68/6/2 71/6/2
f 71/6/2 68/6/2 72/6/2
f 69/6/2 70/6/2 73/6/2
f 73/6/2 70/6/2 74/6/2
f 75/4/2 76/4/2 77/4/2
f 77/4/2 76/4/2 78/4/2
f 79/6/2 80/6/2 81/6/2
f 81/6/2 80/6/2 82/6/2
f 83/4/2 84/4/2 85/4/2
f 85/4/2 84/4/2 86/4/2
f 87/4/2 88/4/2 89/4/2
f 89/4/2 88/4/2 90/4/2
f 91/4/2 92/4/2 94/4/2
f 93/5/2 94/5/2 95/5/2
f 94/4/2 92/4/2 96/4/2
f 95/5/2 94/5/2 96/5/2
f 96/4/2 92/4/2 97/4/2
f 97/4/2 92/4/2 98/4/2
f 98/4/2 92/4/2 99/4/2
f 95/16/2 96/16/2 100/16/2
f 96/1/2 97/1/2 101/1/2
f 100/16/2 96/16/2 101/16/2
f 101/1/2 97/1/2 102/1/2
f 103/1/2 104/1/2 105/1/2
f 105/1/2 104/1/2 106/1/2
f 107/1/2 108/1/2 109/1/2
f 98/1/2 99/1/2 110/1/2
f 107/1/2 109/1/2 111/1/2
f 109/1/2 110/1/2 111/1/2
f 110/1/2 99/1/2 112/1/2
f 111/1/2 110/1/2 112/1/2
f 113/5/2 114/5/2 115/5/2
f 115/5/2 114/5/2 116/5/2
f 117/8/2 118/8/2 120/8/2
f 118/3/2 119/3/2 121/3/2
f 120/8/2 118/8/2 121/8/2
f 121/3/2 119/3/2 122/3/2
f 120/7/2 121/7/2 123/7/2
f 121/3/2 122/3/2 124/3/2
f 123/7/2 121/7/2 124/7/2
f 124/3/2 122/3/2 125/3/2
f 125/3/2 122/3/2 126/3/2
f 127/6/2 128/6/2 129/6/2
f 129/6/2 128/6/2 130/6/2
f 129/1/2 130/1/2 131/1/2
f 131/1/2 130/1/2 132/1/2
f 131/6/2 132/6/2 133/6/2
f 133/6/2 132/6/2 134/6/2
f 135/6/2 136/6/2 139/6/2
f 139/6/2 136/6/2 140/6/2
f 136/3/2 137/3/2 141/3/2
f 140/6/2 136/6/2 141/6/2
f 137/6/2 138/6/2 142/6/2
f 141/3/2 137/3/2 142/3/2
f 142/6/2 138/6/2 143/6/2
f 143/6/2 138/6/2 144/6/2
f 140/3/2 141/3/2 145/3/2
f 142/3/2 143/3/2 145/3/2
f 141/3/2 142/3/2 145/3/2
f 145/3/2 143/3/2 146/3/2
f 147/4/2 148/4/2 149/4/2
f 149/4/2 148/4/2 150/4/2
f 153/4/3 152/4/3 151/4/3
f 154/4/3 152/4/3 153/4/3
f 156/4/3 153/4/3 151/4/3
f 156/6/3 155/6/3 154/6/3
f 156/6/3 154/6/3 153/6/3
f 157/6/3 155/6/3 156/6/3
f 158/6/3 155/6/3 157/6/3
f 159/4/3 156/4/3 151/4/3
f 159/4/3 157/4/3 156/4/3
f 160/4/3 157/4/3 159/4/3
f 162/4/3 159/4/3 151/4/3
f 162/6/3 161/6/3 160/6/3
f 162/6/3 160/6/3 159/6/3
f 163/6/3 161/6/3 162/6/3
f 164/6/3 161/6/3 163/6/3
f 165/4/3 162/4/3 151/4/3
f 165/4/3 163/4/3 162/4/3
f 166/4/3 163/4/3 165/4/3
f 170/3/3 168/3/3 167/3/3
f 171/3/3 170/3/3 169/3/3
f 172/3/3 168/3/3 170/3/3
f 172/3/3 170/3/3 171/3/3
f 173/3/3 168/3/3 172/3/3
f 174/3/3 168/3/3 173/3/3
f 177/4/3 176/4/3 175/4/3
f 178/4/3 176/4/3 177/4/3
f 179/15/3 178/15/3 177/15/3
f 180/15/3 178/15/3 179/15/3
f 181/5/3 180/5/3 179/5/3
f 182/5/3 180/5/3 181/5/3
f 183/15/3 182/15/3 181/15/3
f 184/15/3 182/15/3 183/15/3
f 185/5/3 184/5/3 183/5/3
f 186/5/3 184/5/3 185/5/3
f 187/15/3 186/15/3 185/15/3
f 188/15/3 186/15/3 187/15/3
f 189/5/3 188/5/3 187/5/3
f 190/5/3 188/5/3 189/5/3
f 191/15/3 190/15/3 189/15/3
f 192/15/3 190/15/3 191/15/3
f 193/5/3 192/5/3 191/5/3
f 194/5/3 192/5/3 193/5/3
f 195/15/3 194/15/3 193/15/3
f 196/15/3 194/15/3 195/15/3
f 197/5/3 196/5/3 195/5/3
f 198/5/3 196/5/3 197/5/3
f 199/15/3 198/15/3 197/15/3
f 200/15/3 198/15/3 199/15/3
f 202/4/3 200/4/3 199/4/3
f 203/4/3 200/4/3 202/4/3
f 204/5/3 202/5/3 201/5/3
f 204/13/3 203/13/3 202/13/3
f 205/13/3 203/13/3 204/13/3
f 206/5/3 204/5/3 201/5/3
f 206/14/3 205/14/3 204/14/3
f 207/14/3 205/14/3 206/14/3
f 208/5/3 206/5/3 201/5/3
f 208/15/3 207/15/3 206/15/3
f 209/15/3 207/15/3 208/15/3
f 213/5/3 208/5/3 201/5/3
f 214/16/3 209/16/3 208/16/3
f 214/5/3 208/5/3 213/5/3
f 215/16/3 209/16/3 214/16/3
f 216/7/3 212/7/3 211/7/3
f 217/7/3 212/7/3 216/7/3
f 218/8/3 217/8/3 216/8/3
f 218/7/3 216/7/3 211/7/3
f 219/8/3 217/8/3 218/8/3
f 220/8/3 211/8/3 210/8/3
f 221/7/3 218/7/3 211/7/3
f 221/8/3 211/8/3 220/8/3
f 221/7/3 219/7/3 218/7/3
f 222/7/3 219/7/3 221/7/3
f 226/1/3 225/1/3 224/1/3
f 227/1/3 225/1/3 226/1/3
f 228/1/3 226/1/3 224/1/3
f 229/5/3 227/5/3 226/5/3
f 229/1/3 226/1/3 228/1/3
f 230/1/3 225/1/3 227/1/3
f 230/5/3 227/5/3 229/5/3
f 231/1/3 225/1/3 230/1/3
f 232/4/3 224/4/3 223/4/3
f 232/1/3 228/1/3 224/1/3
f 233/1/3 228/1/3 232/1/3
f 234/5/3 229/5/3 228/5/3
f 234/1/3 228/1/3 233/1/3
f 235/1/3 230/1/3 229/1/3
f 235/5/3 229/5/3 234/5/3
f 236/5/3 231/5/3 230/5/3
f 236/1/3 230/1/3 235/1/3
f 237/1/3 225/1/3 231/1/3
f 237/5/3 231/5/3 236/5/3
f 238/4/3 232/4/3 223/4/3
f 239/1/3 235/1/3 234/1/3
f 239/1/3 234/1/3 233/1/3
f 240/5/3 236/5/3 235/5/3
f 240/1/3 235/1/3 239/1/3
f 241/1/3 237/1/3 236/1/3
f 241/5/3 236/5/3 240/5/3
f 242/4/3 238/4/3 223/4/3
f 243/1/3 240/1/3 239/1/3
f 243/1/3 241/1/3 240/1/3
f 244/1/3 225/1/3 237/1/3
f 244/1/3 241/1/3 243/1/3
f 244/1/3 237/1/3 241/1/3
f 245/4/3 242/4/3 223/4/3
f 246/9/3 244/9/3 243/9/3
f 247/9/3 244/9/3 246/9/3
f 248/9/3 244/9/3 247/9/3
f 249/4/3 245/4/3 223/4/3
f 250/9/3 247/9/3 246/9/3
f 251/4/3 249/4/3 223/4/3
f 252/9/3 247/9/3 250/9/3
f 253/4/3 251/4/3 223/4/3
f 254/9/3 247/9/3 252/9/3
f 255/5/3 248/5/3 247/5/3
f 256/5/3 248/5/3 255/5/3
f 257/5/3 248/5/3 256/5/3
f 258/5/3 248/5/3 257/5/3
f 259/4/3 253/4/3 223/4/3
f 260/9/3 247/9/3 254/9/3
f 261/5/3 255/5/3 247/5/3
f 261/15/3 256/15/3 255/15/3
f 262/5/3 257/5/3 256/5/3
f 262/15/3 256/15/3 261/15/3
f 263/15/3 258/15/3 257/15/3
f 263/5/3 257/5/3 262/5/3
f 264/5/3 248/5/3 258/5/3
f 264/15/3 258/15/3 263/15/3
f 265/4/3 259/4/3 223/4/3
f 266/9/3 247/9/3 260/9/3
f 267/4/3 265/4/3 223/4/3
f 268/9/3 247/9/3 266/9/3
f 269/4/3 267/4/3 223/4/3
f 270/9/3 247/9/3 268/9/3
f 271/5/3 263/5/3 262/5/3
f 271/9/3 247/9/3 270/9/3
f 271/5/3 261/5/3 247/5/3
f 271/5/3 262/5/3 261/5/3
f 271/5/3 264/5/3 263/5/3
f 272/9/3 244/9/3 248/9/3
f 272/5/3 264/5/3 271/5/3
f 272/5/3 248/5/3 264/5/3
f 273/4/3 269/4/3 223/4/3
f 274/9/3 271/9/3 270/9/3
f 274/9/3 272/9/3 271/9/3
f 275/1/3 225/1/3 244/1/3
f 275/9/3 272/9/3 274/9/3
f 275/9/3 244/9/3 272/9/3
f 276/4/3 273/4/3 223/4/3
f 277/1/3 275/1/3 274/1/3
f 278/4/3 276/4/3 223/4/3
f 279/4/3 276/4/3 278/4/3
f 280/1/3 275/1/3 277/1/3
f 281/1/3 275/1/3 280/1/3
f 282/1/3 275/1/3 281/1/3
f 283/1/3 275/1/3 282/1/3
f 284/1/3 275/1/3 283/1/3
f 285/1/3 275/1/3 284/1/3
f 286/1/3 275/1/3 285/1/3
f 287/1/3 225/1/3 275/1/3
f 287/1/3 275/1/3 286/1/3
f 288/1/3 225/1/3 287/1/3
f 289/4/3 278/4/3 223/4/3
f 290/4/3 278/4/3 289/4/3
f 291/5/3 284/5/3 283/5/3
f 292/1/3 285/1/3 284/1/3
f 292/5/3 284/5/3 291/5/3
f 293/1/3 285/1/3 292/1/3
f 294/3/3 288/3/3 287/3/3
f 295/1/3 225/1/3 288/1/3
f 295/3/3 288/3/3 294/3/3
f 296/1/3 225/1/3 295/1/3
f 297/3/3 295/3/3 294/3/3
f 298/5/3 292/5/3 291/5/3
f 299/5/3 292/5/3 298/5/3
f 300/3/3 295/3/3 297/3/3
f 301/3/3 295/3/3 300/3/3
f 304/4/3 303/4/3 302/4/3
f 306/4/3 304/4/3 302/4/3
f 306/6/3 305/6/3 304/6/3
f 307/6/3 305/6/3 306/6/3
f 308/4/3 306/4/3 302/4/3
f 309/4/3 306/4/3 308/4/3
f 316/1/3 311/1/3 310/1/3
f 317/1/3 311/1/3 316/1/3
f 318/1/3 313/1/3 312/1/3
f 319/1/3 313/1/3 318/1/3
f 321/1/3 315/1/3 314/1/3
f 322/1/3 315/1/3 321/1/3
f 323/6/3 317/6/3 316/6/3
f 323/6/3 318/6/3 317/6/3
f 324/1/3 320/1/3 319/1/3
f 324/6/3 318/6/3 323/6/3
f 324/1/3 319/1/3 318/1/3
f 325/6/3 322/6/3 321/6/3
f 325/1/3 320/1/3 324/1/3
f 325/6/3 321/6/3 320/6/3
f 326/6/3 322/6/3 325/6/3
f 329/5/3 328/5/3 327/5/3
f 330/5/3 328/5/3 329/5/3
f 331/5/4 332/5/4 333/5/4
f 333/5/4 332/5/4 334/5/4
f 335/4/4 336/4/4 337/4/4
f 335/4/4 337/4/4 339/4/4
f 337/6/4 338/6/4 339/6/4
f 339/6/4 338/6/4 340/6/4
f 335/4/4 339/4/4 341/4/4
f 341/4/4 339/4/4 342/4/4
f 343/1/4 344/1/4 345/1/4
f 345/1/4 344/1/4 346/1/4
f 346/1/4 344/1/4 347/1/4
f 347/1/4 344/1/4 348/1/4
f 345/6/4 346/6/4 349/6/4
f 346/1/4 347/1/4 350/1/4
f 349/6/4 346/6/4 350/6/4
f 347/6/4 348/6/4 351/6/4
f 350/1/4 347/1/4 351/1/4
f 351/6/4 348/6/4 352/6/4
f 353/4/4 354/4/4 355/4/4
f 353/4/4 355/4/4 357/4/4
f 357/4/4 355/4/4 358/4/4
f 357/1/4 358/1/4 359/1/4
f 358/4/4 355/4/4 360/4/4
f 359/1/4 358/1/4 360/1/4
f 355/1/4 356/1/4 361/1/4
f 360/4/4 355/4/4 361/4/4
f 359/4/4 360/4/4 361/4/4
f 361/1/4 356/1/4 362/1/4
f 359/4/4 361/4/4 363/4/4
f 359/4/4 363/4/4 365/4/4
f 363/1/4 364/1/4 366/1/4
f 365/4/4 363/4/4 366/4/4
f 366/1/4 364/1/4 367/1/4
f 368/3/4 369/3/4 373/3/4
f 370/4/4 371/4/4 374/4/4
f 374/4/4 371/4/4 375/4/4
f 375/4/4 371/4/4 377/4/4
f 376/4/4 377/4/4 378/4/4
f 377/4/4 371/4/4 379/4/4
f 378/4/4 377/4/4 379/4/4
f 372/3/4 373/3/4 380/3/4
f 373/3/4 369/3/4 381/3/4
f 380/3/4 373/3/4 381/3/4
f 381/3/4 369/3/4 382/3/4
f 382/3/4 369/3/4 383/3/4
f 384/4/4 385/4/4 386/4/4
f 386/4/4 385/4/4 387/4/4
f 384/4/4 386/4/4 389/4/4
f 387/6/4 388/6/4 389/6/4
f 386/6/4 387/6/4 389/6/4
f 389/6/4 388/6/4 390/6/4
f 390/6/4 388/6/4 391/6/4
f 384/4/4 389/4/4 392/4/4
f 389/4/4 390/4/4 392/4/4
f 392/4/4 390/4/4 393/4/4
f 384/4/4 392/4/4 395/4/4
f 393/6/4 394/6/4 395/6/4
f 392/6/4 393/6/4 395/6/4
f 395/6/4 394/6/4 396/6/4
f 396/6/4 394/6/4 397/6/4
f 384/4/4 395/4/4 398/4/4
f 395/4/4 396/4/4 398/4/4
f 398/4/4 396/4/4 399/4/4
f 402/4/5 401/4/5 400/4/5
f 403/4/5 401/4/5 402/4/5
f 406/5/5 405/5/5 404/5/5
f 407/5/5 405/5/5 406/5/5
f 422/4/5 409/4/5 408/4/5
f 423/15/5 410/15/5 409/15/5
f 423/4/5 409/4/5 422/4/5
f 424/5/5 411/5/5 410/5/5
f 424/15/5 410/15/5 423/15/5
f 425/15/5 412/15/5 411/15/5
f 425/5/5 411/5/5 424/5/5
f 426/5/5 413/5/5 412/5/5
f 426/15/5 412/15/5 425/15/5
f 427/15/5 414/15/5 413/15/5
f 427/5/5 413/5/5 426/5/5
f 428/5/5 415/5/5 414/5/5
f 428/15/5 414/15/5 427/15/5
f 429/15/5 416/15/5 415/15/5
f 429/5/5 415/5/5 428/5/5
f 430/5/5 417/5/5 416/5/5
f 430/15/5 416/15/5 429/15/5
f 431/15/5 418/15/5 417/15/5
f 431/5/5 417/5/5 430/5/5
f 432/5/5 419/5/5 418/5/5
f 432/15/5 418/15/5 431/15/5
f 433/15/5 420/15/5 419/15/5
f 433/5/5 419/5/5 432/5/5
f 434/4/5 421/4/5 420/4/5
f 434/15/5 420/15/5 433/15/5
f 435/4/5 421/4/5 434/4/5
f 439/1/5 437/1/5 436/1/5
f 440/6/5 438/6/5 437/6/5
f 440/1/5 437/1/5 439/1/5
f 441/6/5 438/6/5 440/6/5
f 446/4/5 443/4/5 442/4/5
f 447/4/5 443/4/5 446/4/5
f 448/4/5 445/4/5 444/4/5
f 449/4/5 445/4/5 448/4/5
f 452/5/5 451/5/5 450/5/5
f 453/5/5 451/5/5 452/5/5
f 456/5/5 455/5/5 454/5/5
f 457/5/5 455/5/5 456/5/5
f 460/8/5 459/8/5 458/8/5
f 461/8/5 459/8/5 460/8/5
f 462/8/5 459/8/5 461/8/5
f 463/3/5 462/3/5 461/3/5
f 464/3/5 462/3/5 463/3/5
f 467/4/5 466/4/5 465/4/5
f 468/4/5 466/4/5 467/4/5
f 471/4/6 472/4/6 475/4/6
f 475/4/6 472/4/6 476/4/6
f 469/4/6 470/4/6 477/4/6
f 473/4/6 474/4/6 478/4/6
f 469/4/6 477/4/6 479/4/6
f 478/4/6 474/4/6 480/4/6
f 469/4/6 479/4/6 483/4/6
f 483/4/6 479/4/6 484/4/6
f 481/4/6 482/4/6 485/4/6
f 485/4/6 482/4/6 486/4/6
f 480/4/6 474/4/6 487/4/6
f 487/4/6 474/4/6 488/4/6
f 489/6/6 490/6/6 493/6/6
f 493/6/6 490/6/6 494/6/6
f 491/6/6 492/6/6 495/6/6
f 495/6/6 492/6/6 496/6/6
f 497/6/6 498/6/6 501/6/6
f 501/6/6 498/6/6 502/6/6
f 499/6/6 500/6/6 503/6/6
f 503/6/6 500/6/6 504/6/6
f 505/3/6 506/3/6 507/3/6
f 507/3/6 506/3/6 508/3/6
f 505/3/6 507/3/6 509/3/6
f 508/3/6 506/3/6 512/3/6
f 510/3/6 511/3/6 513/3/6
f 511/3/6 512/3/6 513/3/6
f 505/3/6 509/3/6 513/3/6
f 509/3/6 510/3/6 513/3/6
f 512/3/6 506/3/6 514/3/6
f 513/3/6 512/3/6 514/3/6
f 515/4/6 516/4/6 533/4/6
f 516/15/6 517/15/6 534/15/6
f 533/4/6 516/4/6 534/4/6
f 517/5/6 518/5/6 535/5/6
f 534/15/6 517/15/6 535/15/6
f 518/15/6 519/15/6 536/15/6
f 535/5/6 518/5/6 536/5/6
f 519/5/6 520/5/6 537/5/6
f 536/15/6 519/15/6 537/15/6
f 520/15/6 521/15/6 538/15/6
f 537/5/6 520/5/6 538/5/6
f 521/5/6 522/5/6 539/5/6
f 538/15/6 521/15/6 539/15/6
f 522/15/6 523/15/6 540/15/6
f 539/5/6 522/5/6 540/5/6
f 523/5/6 524/5/6 541/5/6
f 540/15/6 523/15/6 541/15/6
f 524/15/6 525/15/6 542/15/6
f 541/5/6 524/5/6 542/5/6
f 525/5/6 526/5/6 543/5/6
f 542/15/6 525/15/6 543/15/6
f 526/15/6 527/15/6 544/15/6
f 543/5/6 526/5/6 544/5/6
f 527/4/6 528/4/6 545/4/6
f 544/15/6 527/15/6 545/15/6
f 528/13/6 529/13/6 546/13/6
f 545/4/6 528/4/6 546/4/6
f 529/14/6 530/14/6 547/14/6
f 546/13/6 529/13/6 547/13/6
f 530/15/6 531/15/6 548/15/6
f 547/14/6 530/14/6 548/14/6
f 531/16/6 532/16/6 549/16/6
f 548/15/6 531/15/6 549/15/6
f 549/16/6 532/16/6 550/16/6
f 551/5/6 552/5/6 553/5/6
f 553/5/6 552/5/6 554/5/6
f 555/5/6 556/5/6 557/5/6
f 557/5/6 556/5/6 558/5/6
f 559/7/6 560/7/6 563/7/6
f 560/8/6 561/8/6 564/8/6
f 563/7/6 560/7/6 564/7/6
f 561/7/6 562/7/6 565/7/6
f 564/8/6 561/8/6 565/8/6
f 565/7/6 562/7/6 566/7/6
f 567/3/6 568/3/6 569/3/6
f 569/3/6 568/3/6 570/3/6
f 571/1/6 572/1/6 574/1/6
f 572/6/6 573/6/6 575/6/6
f 574/1/6 572/1/6 575/1/6
f 575/6/6 573/6/6 576/6/6
f 577/1/6 578/1/6 579/1/6
f 579/1/6 578/1/6 580/1/6
f 577/1/6 579/1/6 581/1/6
f 580/1/6 578/1/6 582/1/6
f 577/1/6 581/1/6 583/1/6
f 581/1/6 582/1/6 583/1/6
f 582/1/6 578/1/6 584/1/6
f 583/1/6 582/1/6 584/1/6
f 584/1/6 578/1/6 585/1/6
f 583/4/6 584/4/6 586/4/6
f 586/4/6 584/4/6 587/4/6
f 588/4/6 589/4/6 592/4/6
f 592/4/6 589/4/6 593/4/6
f 590/4/6 591/4/6 594/4/6
f 594/4/6 591/4/6 595/4/6
f 596/6/6 597/6/6 598/6/6
f 598/6/6 597/6/6 599/6/6
