# MagicaVoxel @ Ephtracy

# group
o 

# material
mtllib Radiation_Shield_Generator.mtl
usemtl palette

# normals
vn -1 0 0
vn 1 0 0
vn 0 0 1
vn 0 0 -1
vn 0 -1 0
vn 0 1 0

# texcoords
vt 0.00195312 0.5
vt 0.00585938 0.5
vt 0.00976562 0.5
vt 0.0136719 0.5
vt 0.0175781 0.5
vt 0.0214844 0.5
vt 0.0332031 0.5
vt 0.0371094 0.5
vt 0.0449219 0.5
vt 0.0488281 0.5
vt 0.0644531 0.5
vt 0.0722656 0.5
vt 0.0761719 0.5
vt 0.0800781 0.5

# verts
v -1.4 0 0.7
v -1.4 0 -0.7
v -1.4 0.2 0.7
v -1.4 0.2 -0.7
v -1.3 0.2 0.7
v -1.3 0.2 0.4
v -1.3 0.2 -0.4
v -1.3 0.2 -0.7
v -1.3 0.3 0.7
v -1.3 0.3 0.6
v -1.3 0.3 0.4
v -1.3 0.3 -0.4
v -1.3 0.3 -0.6
v -1.3 0.3 -0.7
v -1.3 0.4 0.6
v -1.3 0.4 -0.6
v -1.3 2 0.5
v -1.3 2 -0.1
v -1.3 2.1 0.5
v -1.3 2.1 -0.1
v -1.3 2.2 0.5
v -1.3 2.2 -0.1
v -1.3 2.3 0.5
v -1.3 2.3 -0.1
v -1.3 2.4 0.5
v -1.3 2.4 -0.1
v -1.2 0.4 0.4
v -1.2 0.4 5.96046e-08
v -1.2 2 0.4
v -1.2 2 5.96046e-08
v -1.2 2.4 0.4
v -1.2 2.4 5.96046e-08
v -1.2 2.6 0.4
v -1.2 2.6 5.96046e-08
v -1.1 0.4 0.6
v -1.1 0.4 0.4
v -1.1 0.9 0.6
v -1.1 0.9 0.4
v -1 0.5 0.7
v -1 0.5 0.6
v -1 0.8 0.7
v -1 0.8 0.6
v -1 0.8 -0.5
v -1 0.8 -0.7
v -1 2 -0.1
v -1 2 -0.5
v -1 2.1 -0.1
v -1 2.2 -0.1
v -1 2.2 -0.7
v -0.8 2.3 -0.1
v -0.8 2.3 -0.2
v -0.8 2.4 5.96046e-08
v -0.8 2.4 -0.1
v -0.8 2.5 5.96046e-08
v -0.8 2.5 -0.2
v -0.8 2.6 5.96046e-08
v -0.8 2.6 -0.2
v -0.7 2.6 0.1
v -0.7 2.6 -0.1
v -0.7 2.8 0.1
v -0.7 2.8 -0.1
v -0.6 0.4 -0.2
v -0.6 0.4 -0.6
v -0.6 0.8 -0.5
v -0.6 0.8 -0.6
v -0.6 0.9 -0.2
v -0.6 0.9 -0.5
v -0.6 1 -0.5
v -0.6 1 -0.6
v -0.6 1.1 -0.2
v -0.6 1.1 -0.6
v -0.5 0.4 0.4
v -0.5 0.4 -0.2
v -0.5 0.8 0.5
v -0.5 0.8 0.4
v -0.5 0.9 -0.2
v -0.5 1.1 -0.2
v -0.5 1.1 -0.4
v -0.5 1.3 0.2
v -0.5 1.3 5.96046e-08
v -0.5 1.6 0.5
v -0.5 1.6 0.4
v -0.5 1.7 0.2
v -0.5 1.7 5.96046e-08
v -0.5 1.8 0.4
v -0.5 1.8 -0.4
v -0.4 1.8 0.3
v -0.4 1.8 -0.3
v -0.4 2.3 0.3
v -0.4 2.3 -0.3
v -0.3 0.9 0.5
v -0.3 0.9 0.4
v -0.3 1.7 0.5
v -0.3 1.7 0.4
v -0.3 2.3 0.2
v -0.3 2.3 0.1
v -0.3 2.3 -0.1
v -0.3 2.3 -0.2
v -0.3 2.4 0.2
v -0.3 2.4 0.1
v -0.3 2.4 -0.1
v -0.3 2.4 -0.2
v -0.3 2.5 0.3
v -0.3 2.5 0.2
v -0.3 2.5 -0.2
v -0.3 2.5 -0.3
v -0.3 2.6 0.2
v -0.3 2.6 0.1
v -0.3 2.6 -0.1
v -0.3 2.6 -0.2
v -0.3 2.8 0.3
v -0.3 2.8 0.1
v -0.3 2.8 -0.1
v -0.3 2.8 -0.3
v -0.2 1 0.6
v -0.2 1 0.5
v -0.2 1.1 0.6
v -0.2 1.1 0.5
v -0.2 1.3 0.6
v -0.2 1.3 0.5
v -0.2 1.4 0.6
v -0.2 1.4 0.5
v -0.2 2.8 0.2
v -0.2 2.8 -0.2
v -0.2 3 0.2
v -0.2 3 -0.2
v -0.1 3 0.1
v -0.1 3 -0.1
v -0.1 3.4 0.1
v -0.1 3.4 -0.1
v 0.4 0.6 -0.4
v 0.4 0.6 -0.6
v 0.4 0.8 0.5
v 0.4 0.8 0.4
v 0.4 0.9 -0.4
v 0.4 0.9 -0.6
v 0.4 1.1 -0.4
v 0.4 1.1 -0.6
v 0.4 1.6 0.5
v 0.4 1.6 0.4
v 0.5 0.8 -0.6
v 0.5 0.8 -0.7
v 0.5 0.9 -0.6
v 0.5 1.1 -0.6
v 0.5 1.1 -0.7
v 0.6 0.4 0.6
v 0.6 0.4 0.3
v 0.6 0.9 0.6
v 0.6 0.9 0.3
v 0.6 2.3 0.2
v 0.6 2.3 -0.2
v 0.6 2.4 0.2
v 0.6 2.4 -0.2
v 0.7 0.4 0.3
v 0.7 0.4 5.96046e-08
v 0.7 0.5 0.7
v 0.7 0.5 0.6
v 0.7 0.8 0.7
v 0.7 0.8 0.6
v 0.7 0.9 0.4
v 0.7 0.9 0.3
v 0.7 1.3 0.2
v 0.7 1.3 5.96046e-08
v 0.7 1.7 0.2
v 0.7 1.7 5.96046e-08
v 0.7 2 0.5
v 0.7 2 0.4
v 0.7 2 5.96046e-08
v 0.7 2 -0.1
v 0.7 2.1 0.5
v 0.7 2.1 -0.1
v 0.7 2.2 0.5
v 0.7 2.2 -0.1
v 0.7 2.3 0.5
v 0.7 2.3 0.2
v 0.7 2.3 -0.1
v 0.7 2.4 0.5
v 0.7 2.4 0.2
v 0.8 1.1 -0.5
v 0.8 1.1 -0.7
v 0.8 1.9 -0.5
v 0.8 1.9 -0.7
v 0.8 2 -0.1
v 0.8 2 -0.5
v 0.8 2.1 -0.1
v 0.8 2.2 -0.1
v 0.8 2.2 -0.5
v 0.8 2.4 0.4
v 0.8 2.4 0.2
v 0.8 2.5 0.2
v 0.8 2.6 0.4
v 0.8 2.6 0.2
v 0.9 0.2 0.7
v 0.9 0.2 0.6
v 0.9 0.2 -0.6
v 0.9 0.2 -0.7
v 0.9 0.3 0.7
v 0.9 0.3 0.6
v 0.9 0.3 -0.6
v 0.9 0.3 -0.7
v -0.9 0.2 0.7
v -0.9 0.2 0.6
v -0.9 0.2 -0.6
v -0.9 0.2 -0.7
v -0.9 0.3 0.7
v -0.9 0.3 0.6
v -0.9 0.3 -0.6
v -0.9 0.3 -0.7
v -0.8 1 -0.5
v -0.8 1 -0.7
v -0.8 1.9 -0.5
v -0.8 1.9 -0.7
v -0.8 2 -0.1
v -0.8 2 -0.5
v -0.8 2.1 -0.1
v -0.8 2.2 -0.1
v -0.8 2.2 -0.5
v -0.8 2.4 0.4
v -0.8 2.4 0.2
v -0.8 2.5 0.2
v -0.8 2.6 0.4
v -0.8 2.6 0.2
v -0.7 0.4 0.3
v -0.7 0.4 5.96046e-08
v -0.7 0.5 0.7
v -0.7 0.5 0.6
v -0.7 0.8 0.7
v -0.7 0.8 0.6
v -0.7 0.9 0.4
v -0.7 0.9 0.3
v -0.7 1.3 0.2
v -0.7 1.3 5.96046e-08
v -0.7 1.7 0.2
v -0.7 1.7 5.96046e-08
v -0.7 2 0.5
v -0.7 2 0.4
v -0.7 2 5.96046e-08
v -0.7 2 -0.1
v -0.7 2.1 0.5
v -0.7 2.1 -0.1
v -0.7 2.2 0.5
v -0.7 2.2 -0.1
v -0.7 2.3 0.5
v -0.7 2.3 0.4
v -0.7 2.3 0.2
v -0.7 2.3 -0.1
v -0.7 2.4 0.5
v -0.7 2.4 0.4
v -0.7 2.4 0.2
v -0.6 0.4 0.6
v -0.6 0.4 0.3
v -0.6 0.9 0.6
v -0.6 0.9 0.3
v -0.6 2.3 0.2
v -0.6 2.3 -0.2
v -0.6 2.4 0.2
v -0.6 2.4 -0.2
v -0.5 0.8 -0.6
v -0.5 0.8 -0.7
v -0.5 0.9 -0.6
v -0.5 1 -0.6
v -0.5 1 -0.7
v -0.4 0.6 -0.4
v -0.4 0.6 -0.6
v -0.4 0.8 0.5
v -0.4 0.8 0.4
v -0.4 0.9 -0.4
v -0.4 0.9 -0.6
v -0.4 1.1 -0.4
v -0.4 1.1 -0.6
v -0.4 1.6 0.5
v -0.4 1.6 0.4
v 0.1 3 0.1
v 0.1 3 -0.1
v 0.1 3.4 0.1
v 0.1 3.4 -0.1
v 0.2 1 0.6
v 0.2 1 0.5
v 0.2 1.1 0.6
v 0.2 1.1 0.5
v 0.2 1.3 0.6
v 0.2 1.3 0.5
v 0.2 1.4 0.6
v 0.2 1.4 0.5
v 0.2 2.8 0.2
v 0.2 2.8 -0.2
v 0.2 3 0.2
v 0.2 3 -0.2
v 0.3 0.9 0.5
v 0.3 0.9 0.4
v 0.3 1.7 0.5
v 0.3 1.7 0.4
v 0.3 2.3 0.2
v 0.3 2.3 0.1
v 0.3 2.3 -0.1
v 0.3 2.3 -0.2
v 0.3 2.4 0.2
v 0.3 2.4 0.1
v 0.3 2.4 -0.1
v 0.3 2.4 -0.2
v 0.3 2.5 0.3
v 0.3 2.5 0.2
v 0.3 2.5 -0.2
v 0.3 2.5 -0.3
v 0.3 2.6 0.2
v 0.3 2.6 0.1
v 0.3 2.6 -0.1
v 0.3 2.6 -0.2
v 0.3 2.8 0.3
v 0.3 2.8 0.1
v 0.3 2.8 -0.1
v 0.3 2.8 -0.3
v 0.4 1.8 0.3
v 0.4 1.8 -0.3
v 0.4 2.3 0.3
v 0.4 2.3 -0.3
v 0.5 0.4 0.4
v 0.5 0.4 -0.2
v 0.5 0.8 0.5
v 0.5 0.8 0.4
v 0.5 0.9 -0.2
v 0.5 1.1 -0.2
v 0.5 1.1 -0.4
v 0.5 1.3 0.2
v 0.5 1.3 5.96046e-08
v 0.5 1.6 0.5
v 0.5 1.6 0.4
v 0.5 1.7 0.2
v 0.5 1.7 5.96046e-08
v 0.5 1.8 0.4
v 0.5 1.8 -0.4
v 0.6 0.4 -0.2
v 0.6 0.4 -0.6
v 0.6 0.8 -0.5
v 0.6 0.8 -0.6
v 0.6 0.9 -0.2
v 0.6 0.9 -0.5
v 0.6 1.1 -0.2
v 0.6 1.1 -0.5
v 0.7 2.6 0.1
v 0.7 2.6 -0.1
v 0.7 2.8 0.1
v 0.7 2.8 -0.1
v 0.8 2.3 -0.1
v 0.8 2.3 -0.2
v 0.8 2.4 5.96046e-08
v 0.8 2.4 -0.1
v 0.8 2.5 5.96046e-08
v 0.8 2.5 -0.2
v 0.8 2.6 5.96046e-08
v 0.8 2.6 -0.2
v 1 0.5 0.7
v 1 0.5 0.6
v 1 0.8 0.7
v 1 0.8 0.6
v 1 0.8 -0.5
v 1 0.8 -0.7
v 1 2 -0.1
v 1 2 -0.5
v 1 2.1 -0.1
v 1 2.2 -0.1
v 1 2.2 -0.7
v 1.1 0.4 0.6
v 1.1 0.4 0.4
v 1.1 0.9 0.6
v 1.1 0.9 0.4
v 1.2 0.4 0.4
v 1.2 0.4 5.96046e-08
v 1.2 2 0.4
v 1.2 2 5.96046e-08
v 1.2 2.4 0.4
v 1.2 2.4 5.96046e-08
v 1.2 2.6 0.4
v 1.2 2.6 5.96046e-08
v 1.3 0.2 0.7
v 1.3 0.2 0.4
v 1.3 0.2 -0.4
v 1.3 0.2 -0.7
v 1.3 0.3 0.7
v 1.3 0.3 0.6
v 1.3 0.3 0.4
v 1.3 0.3 -0.4
v 1.3 0.3 -0.6
v 1.3 0.3 -0.7
v 1.3 0.4 0.6
v 1.3 0.4 -0.6
v 1.3 2 0.5
v 1.3 2 -0.1
v 1.3 2.1 0.5
v 1.3 2.1 -0.1
v 1.3 2.2 0.5
v 1.3 2.2 -0.1
v 1.3 2.3 0.5
v 1.3 2.3 -0.1
v 1.3 2.4 0.5
v 1.3 2.4 -0.1
v 1.4 0 0.7
v 1.4 0 -0.7
v 1.4 0.2 0.7
v 1.4 0.2 -0.7
v -1.4 0 0.7
v -1.4 0.2 0.7
v -1.3 0.1 0.7
v -1.3 0.2 0.7
v -1.3 0.3 0.7
v -1 0.5 0.7
v -1 0.8 0.7
v -0.9 0.1 0.7
v -0.9 0.2 0.7
v -0.9 0.3 0.7
v -0.9 0.6 0.7
v -0.9 0.7 0.7
v -0.8 0.6 0.7
v -0.8 0.7 0.7
v -0.7 0.5 0.7
v -0.7 0.8 0.7
v 0.7 0.5 0.7
v 0.7 0.8 0.7
v 0.8 0.6 0.7
v 0.8 0.7 0.7
v 0.9 0.1 0.7
v 0.9 0.2 0.7
v 0.9 0.3 0.7
v 0.9 0.6 0.7
v 0.9 0.7 0.7
v 1 0.5 0.7
v 1 0.8 0.7
v 1.3 0.1 0.7
v 1.3 0.2 0.7
v 1.3 0.3 0.7
v 1.4 0 0.7
v 1.4 0.2 0.7
v -1.3 0.3 0.6
v -1.3 0.4 0.6
v -1.1 0.4 0.6
v -1.1 0.9 0.6
v -1 0.5 0.6
v -1 0.8 0.6
v -0.9 0.2 0.6
v -0.9 0.3 0.6
v -0.7 0.5 0.6
v -0.7 0.8 0.6
v -0.6 0.4 0.6
v -0.6 0.9 0.6
v -0.2 1 0.6
v -0.2 1.1 0.6
v -0.2 1.3 0.6
v -0.2 1.4 0.6
v -0.1 1 0.6
v -0.1 1.1 0.6
v -0.1 1.3 0.6
v -0.1 1.4 0.6
v 0.1 1 0.6
v 0.1 1.1 0.6
v 0.1 1.3 0.6
v 0.1 1.4 0.6
v 0.2 1 0.6
v 0.2 1.1 0.6
v 0.2 1.3 0.6
v 0.2 1.4 0.6
v 0.6 0.4 0.6
v 0.6 0.9 0.6
v 0.7 0.5 0.6
v 0.7 0.8 0.6
v 0.9 0.2 0.6
v 0.9 0.3 0.6
v 1 0.5 0.6
v 1 0.8 0.6
v 1.1 0.4 0.6
v 1.1 0.9 0.6
v 1.3 0.3 0.6
v 1.3 0.4 0.6
v -1.3 2 0.5
v -1.3 2.1 0.5
v -1.3 2.2 0.5
v -1.3 2.3 0.5
v -1.3 2.4 0.5
v -0.7 2 0.5
v -0.7 2.1 0.5
v -0.7 2.2 0.5
v -0.7 2.3 0.5
v -0.7 2.4 0.5
v -0.5 0.8 0.5
v -0.5 1.6 0.5
v -0.4 0.8 0.5
v -0.4 1.6 0.5
v -0.3 0.9 0.5
v -0.3 1.7 0.5
v -0.2 1 0.5
v -0.2 1.1 0.5
v -0.2 1.3 0.5
v -0.2 1.4 0.5
v -0.2 1.5 0.5
v -0.2 1.6 0.5
v -0.1 1 0.5
v -0.1 1.4 0.5
v -0.1 1.5 0.5
v -0.1 1.6 0.5
v 0 1.5 0.5
v 0 1.6 0.5
v 0.1 1 0.5
v 0.1 1.4 0.5
v 0.1 1.5 0.5
v 0.1 1.6 0.5
v 0.2 1 0.5
v 0.2 1.1 0.5
v 0.2 1.3 0.5
v 0.2 1.4 0.5
v 0.2 1.5 0.5
v 0.2 1.6 0.5
v 0.3 0.9 0.5
v 0.3 1.7 0.5
v 0.4 0.8 0.5
v 0.4 1.6 0.5
v 0.5 0.8 0.5
v 0.5 1.6 0.5
v 0.7 2 0.5
v 0.7 2.1 0.5
v 0.7 2.2 0.5
v 0.7 2.3 0.5
v 0.7 2.4 0.5
v 1.3 2 0.5
v 1.3 2.1 0.5
v 1.3 2.2 0.5
v 1.3 2.3 0.5
v 1.3 2.4 0.5
v -1.2 0.4 0.4
v -1.2 2 0.4
v -1.2 2.4 0.4
v -1.2 2.6 0.4
v -1.1 0.4 0.4
v -1.1 0.9 0.4
v -0.8 2.4 0.4
v -0.8 2.6 0.4
v -0.7 0.9 0.4
v -0.7 2 0.4
v -0.5 0.4 0.4
v -0.5 0.8 0.4
v -0.5 1.6 0.4
v -0.5 1.8 0.4
v -0.4 0.8 0.4
v -0.4 1.6 0.4
v -0.3 0.9 0.4
v -0.3 1.7 0.4
v 0.3 0.9 0.4
v 0.3 1.7 0.4
v 0.4 0.8 0.4
v 0.4 1.6 0.4
v 0.5 0.4 0.4
v 0.5 0.8 0.4
v 0.5 1.6 0.4
v 0.5 1.8 0.4
v 0.7 0.9 0.4
v 0.7 2 0.4
v 0.8 2.4 0.4
v 0.8 2.6 0.4
v 1.1 0.4 0.4
v 1.1 0.9 0.4
v 1.2 0.4 0.4
v 1.2 2 0.4
v 1.2 2.4 0.4
v 1.2 2.6 0.4
v -0.4 1.8 0.3
v -0.4 2.3 0.3
v -0.3 2.5 0.3
v -0.3 2.8 0.3
v 0.3 2.5 0.3
v 0.3 2.8 0.3
v 0.4 1.8 0.3
v 0.4 2.3 0.3
v -0.8 2.4 0.2
v -0.8 2.5 0.2
v -0.8 2.6 0.2
v -0.7 1.3 0.2
v -0.7 1.7 0.2
v -0.7 2.3 0.2
v -0.7 2.4 0.2
v -0.6 2.3 0.2
v -0.6 2.4 0.2
v -0.6 2.5 0.2
v -0.5 1.3 0.2
v -0.5 1.7 0.2
v -0.3 2.3 0.2
v -0.3 2.4 0.2
v -0.3 2.5 0.2
v -0.3 2.6 0.2
v -0.2 2.8 0.2
v -0.2 3 0.2
v 0.2 2.8 0.2
v 0.2 3 0.2
v 0.3 2.3 0.2
v 0.3 2.4 0.2
v 0.3 2.5 0.2
v 0.3 2.6 0.2
v 0.5 1.3 0.2
v 0.5 1.7 0.2
v 0.6 2.3 0.2
v 0.6 2.4 0.2
v 0.6 2.5 0.2
v 0.7 1.3 0.2
v 0.7 1.7 0.2
v 0.7 2.3 0.2
v 0.7 2.4 0.2
v 0.8 2.4 0.2
v 0.8 2.5 0.2
v 0.8 2.6 0.2
v -0.7 2.6 0.1
v -0.7 2.8 0.1
v -0.6 2.6 0.1
v -0.6 2.8 0.1
v -0.5 2.6 0.1
v -0.5 2.8 0.1
v -0.4 2.6 0.1
v -0.4 2.8 0.1
v -0.3 2.6 0.1
v -0.3 2.8 0.1
v -0.1 3 0.1
v -0.1 3.4 0.1
v 0.1 3 0.1
v 0.1 3.4 0.1
v 0.3 2.6 0.1
v 0.3 2.8 0.1
v 0.4 2.6 0.1
v 0.4 2.8 0.1
v 0.5 2.6 0.1
v 0.5 2.8 0.1
v 0.6 2.6 0.1
v 0.6 2.8 0.1
v 0.7 2.6 0.1
v 0.7 2.8 0.1
v -0.6 0.4 -0.2
v -0.6 0.9 -0.2
v -0.6 1.1 -0.2
v -0.5 0.4 -0.2
v -0.5 0.9 -0.2
v -0.5 1.1 -0.2
v 0.5 0.4 -0.2
v 0.5 0.9 -0.2
v 0.5 1.1 -0.2
v 0.6 0.4 -0.2
v 0.6 0.9 -0.2
v 0.6 1.1 -0.2
v -1 0.8 -0.5
v -1 2 -0.5
v -0.8 1 -0.5
v -0.8 1.9 -0.5
v -0.8 2 -0.5
v -0.8 2.2 -0.5
v -0.6 0.8 -0.5
v -0.6 0.9 -0.5
v -0.6 1 -0.5
v 0.6 0.8 -0.5
v 0.6 0.9 -0.5
v 0.6 1.1 -0.5
v 0.8 1.1 -0.5
v 0.8 1.9 -0.5
v 0.8 2 -0.5
v 0.8 2.2 -0.5
v 1 0.8 -0.5
v 1 2 -0.5
v -0.7 0.4 0.3
v -0.7 0.9 0.3
v -0.6 0.4 0.3
v -0.6 0.9 0.3
v 0.6 0.4 0.3
v 0.6 0.9 0.3
v 0.7 0.4 0.3
v 0.7 0.9 0.3
v -1.2 0.4 5.96046e-08
v -1.2 2 5.96046e-08
v -1.2 2.4 5.96046e-08
v -1.2 2.6 5.96046e-08
v -1 2 5.96046e-08
v -0.8 1.3 5.96046e-08
v -0.8 1.7 5.96046e-08
v -0.8 2 5.96046e-08
v -0.8 2.4 5.96046e-08
v -0.8 2.5 5.96046e-08
v -0.8 2.6 5.96046e-08
v -0.7 0.4 5.96046e-08
v -0.7 1.3 5.96046e-08
v -0.7 1.7 5.96046e-08
v -0.7 2 5.96046e-08
v -0.5 1.3 5.96046e-08
v -0.5 1.7 5.96046e-08
v 0.5 1.3 5.96046e-08
v 0.5 1.7 5.96046e-08
v 0.7 0.4 5.96046e-08
v 0.7 1.3 5.96046e-08
v 0.7 1.7 5.96046e-08
v 0.7 2 5.96046e-08
v 0.8 1.3 5.96046e-08
v 0.8 1.7 5.96046e-08
v 0.8 2.4 5.96046e-08
v 0.8 2.5 5.96046e-08
v 0.8 2.6 5.96046e-08
v 1.2 0.4 5.96046e-08
v 1.2 2 5.96046e-08
v 1.2 2.4 5.96046e-08
v 1.2 2.6 5.96046e-08
v -1.3 2 -0.1
v -1.3 2.1 -0.1
v -1.3 2.2 -0.1
v -1.3 2.3 -0.1
v -1.3 2.4 -0.1
v -1 2 -0.1
v -1 2.1 -0.1
v -1 2.2 -0.1
v -0.8 2 -0.1
v -0.8 2.1 -0.1
v -0.8 2.2 -0.1
v -0.8 2.3 -0.1
v -0.8 2.4 -0.1
v -0.7 2 -0.1
v -0.7 2.1 -0.1
v -0.7 2.2 -0.1
v -0.7 2.3 -0.1
v -0.7 2.6 -0.1
v -0.7 2.8 -0.1
v -0.6 2.6 -0.1
v -0.6 2.8 -0.1
v -0.5 2.6 -0.1
v -0.5 2.8 -0.1
v -0.4 2.6 -0.1
v -0.4 2.8 -0.1
v -0.3 2.6 -0.1
v -0.3 2.8 -0.1
v -0.1 3 -0.1
v -0.1 3.4 -0.1
v 0.1 3 -0.1
v 0.1 3.4 -0.1
v 0.3 2.6 -0.1
v 0.3 2.8 -0.1
v 0.4 2.6 -0.1
v 0.4 2.8 -0.1
v 0.5 2.6 -0.1
v 0.5 2.8 -0.1
v 0.6 2.6 -0.1
v 0.6 2.8 -0.1
v 0.7 2 -0.1
v 0.7 2.1 -0.1
v 0.7 2.2 -0.1
v 0.7 2.3 -0.1
v 0.7 2.6 -0.1
v 0.7 2.8 -0.1
v 0.8 2 -0.1
v 0.8 2.1 -0.1
v 0.8 2.2 -0.1
v 0.8 2.3 -0.1
v 0.8 2.4 -0.1
v 1 2 -0.1
v 1 2.1 -0.1
v 1 2.2 -0.1
v 1.3 2 -0.1
v 1.3 2.1 -0.1
v 1.3 2.2 -0.1
v 1.3 2.3 -0.1
v 1.3 2.4 -0.1
v -0.8 2.3 -0.2
v -0.8 2.5 -0.2
v -0.8 2.6 -0.2
v -0.6 2.3 -0.2
v -0.6 2.4 -0.2
v -0.6 2.5 -0.2
v -0.3 2.3 -0.2
v -0.3 2.4 -0.2
v -0.3 2.5 -0.2
v -0.3 2.6 -0.2
v -0.2 2.8 -0.2
v -0.2 3 -0.2
v 0.2 2.8 -0.2
v 0.2 3 -0.2
v 0.3 2.3 -0.2
v 0.3 2.4 -0.2
v 0.3 2.5 -0.2
v 0.3 2.6 -0.2
v 0.6 2.3 -0.2
v 0.6 2.4 -0.2
v 0.6 2.5 -0.2
v 0.8 2.3 -0.2
v 0.8 2.5 -0.2
v 0.8 2.6 -0.2
v -0.4 1.8 -0.3
v -0.4 2.3 -0.3
v -0.3 2.5 -0.3
v -0.3 2.8 -0.3
v 0.3 2.5 -0.3
v 0.3 2.8 -0.3
v 0.4 1.8 -0.3
v 0.4 2.3 -0.3
v -0.5 1.1 -0.4
v -0.5 1.8 -0.4
v -0.4 0.6 -0.4
v -0.4 0.9 -0.4
v -0.4 1.1 -0.4
v 0.4 0.6 -0.4
v 0.4 0.9 -0.4
v 0.4 1.1 -0.4
v 0.5 1.1 -0.4
v 0.5 1.8 -0.4
v -1.3 0.3 -0.6
v -1.3 0.4 -0.6
v -0.9 0.2 -0.6
v -0.9 0.3 -0.6
v -0.6 0.4 -0.6
v -0.6 0.8 -0.6
v -0.6 1 -0.6
v -0.6 1.1 -0.6
v -0.5 0.8 -0.6
v -0.5 0.9 -0.6
v -0.5 1 -0.6
v -0.4 0.2 -0.6
v -0.4 0.4 -0.6
v -0.4 0.6 -0.6
v -0.4 0.9 -0.6
v -0.4 1.1 -0.6
v 0.4 0.2 -0.6
v 0.4 0.4 -0.6
v 0.4 0.6 -0.6
v 0.4 0.9 -0.6
v 0.4 1.1 -0.6
v 0.5 0.8 -0.6
v 0.5 0.9 -0.6
v 0.5 1.1 -0.6
v 0.6 0.4 -0.6
v 0.6 0.8 -0.6
v 0.9 0.2 -0.6
v 0.9 0.3 -0.6
v 1.3 0.3 -0.6
v 1.3 0.4 -0.6
v -1.4 0 -0.7
v -1.4 0.2 -0.7
v -1.3 0.1 -0.7
v -1.3 0.2 -0.7
v -1.3 0.3 -0.7
v -1 0.8 -0.7
v -1 2.2 -0.7
v -0.9 0.1 -0.7
v -0.9 0.2 -0.7
v -0.9 0.3 -0.7
v -0.8 1 -0.7
v -0.8 1.9 -0.7
v -0.5 0.8 -0.7
v -0.5 1 -0.7
v 0.5 0.8 -0.7
v 0.5 1.1 -0.7
v 0.8 1.1 -0.7
v 0.8 1.9 -0.7
v 0.9 0.1 -0.7
v 0.9 0.2 -0.7
v 0.9 0.3 -0.7
v 1 0.8 -0.7
v 1 2.2 -0.7
v 1.3 0.1 -0.7
v 1.3 0.2 -0.7
v 1.3 0.3 -0.7
v 1.4 0 -0.7
v 1.4 0.2 -0.7
v -1.4 0 0.7
v 1.4 0 0.7
v -1.4 0 -0.7
v 1.4 0 -0.7
v -1 0.5 0.7
v -0.7 0.5 0.7
v 0.7 0.5 0.7
v 1 0.5 0.7
v -1 0.5 0.6
v -0.7 0.5 0.6
v 0.7 0.5 0.6
v 1 0.5 0.6
v -0.5 0.8 0.5
v -0.4 0.8 0.5
v 0.4 0.8 0.5
v 0.5 0.8 0.5
v -0.5 0.8 0.4
v -0.4 0.8 0.4
v 0.4 0.8 0.4
v 0.5 0.8 0.4
v -1 0.8 -0.5
v -0.6 0.8 -0.5
v 0.6 0.8 -0.5
v 1 0.8 -0.5
v -0.6 0.8 -0.6
v -0.5 0.8 -0.6
v 0.5 0.8 -0.6
v 0.6 0.8 -0.6
v -1 0.8 -0.7
v -0.5 0.8 -0.7
v 0.5 0.8 -0.7
v 1 0.8 -0.7
v -0.3 0.9 0.5
v 0.3 0.9 0.5
v -0.3 0.9 0.4
v 0.3 0.9 0.4
v -0.2 1 0.6
v -0.1 1 0.6
v 0.1 1 0.6
v 0.2 1 0.6
v -0.2 1 0.5
v -0.1 1 0.5
v 0.1 1 0.5
v 0.2 1 0.5
v -0.7 1.3 0.2
v -0.5 1.3 0.2
v 0.5 1.3 0.2
v 0.7 1.3 0.2
v -0.7 1.3 5.96046e-08
v -0.5 1.3 5.96046e-08
v 0.5 1.3 5.96046e-08
v 0.7 1.3 5.96046e-08
v -0.8 1.9 -0.5
v 0.8 1.9 -0.5
v -0.8 1.9 -0.7
v 0.8 1.9 -0.7
v -1.3 2 0.5
v -0.7 2 0.5
v 0.7 2 0.5
v 1.3 2 0.5
v -1.2 2 0.4
v -0.7 2 0.4
v 0.7 2 0.4
v 1.2 2 0.4
v -1.2 2 5.96046e-08
v -1 2 5.96046e-08
v -0.8 2 5.96046e-08
v -0.7 2 5.96046e-08
v 0.7 2 5.96046e-08
v 1.2 2 5.96046e-08
v -1.3 2 -0.1
v -1 2 -0.1
v -0.8 2 -0.1
v -0.7 2 -0.1
v 0.7 2 -0.1
v 0.8 2 -0.1
v 1 2 -0.1
v 1.3 2 -0.1
v -1 2 -0.5
v -0.8 2 -0.5
v 0.8 2 -0.5
v 1 2 -0.5
v -0.7 2.3 0.2
v -0.6 2.3 0.2
v 0.6 2.3 0.2
v 0.7 2.3 0.2
v -0.8 2.3 -0.1
v -0.7 2.3 -0.1
v 0.7 2.3 -0.1
v 0.8 2.3 -0.1
v -0.8 2.3 -0.2
v -0.6 2.3 -0.2
v 0.6 2.3 -0.2
v 0.8 2.3 -0.2
v -0.6 2.4 0.2
v -0.3 2.4 0.2
v 0.3 2.4 0.2
v 0.6 2.4 0.2
v -0.3 2.4 0.1
v 0.3 2.4 0.1
v -0.3 2.4 -0.1
v 0.3 2.4 -0.1
v -0.6 2.4 -0.2
v -0.3 2.4 -0.2
v 0.3 2.4 -0.2
v 0.6 2.4 -0.2
v -0.3 2.5 0.3
v 0.3 2.5 0.3
v -0.3 2.5 0.2
v 0.3 2.5 0.2
v -0.3 2.5 -0.2
v 0.3 2.5 -0.2
v -0.3 2.5 -0.3
v 0.3 2.5 -0.3
v -1.4 0.2 0.7
v -1.3 0.2 0.7
v -0.9 0.2 0.7
v 0.9 0.2 0.7
v 1.3 0.2 0.7
v 1.4 0.2 0.7
v -0.9 0.2 0.6
v 0.9 0.2 0.6
v -1.3 0.2 0.4
v 1.3 0.2 0.4
v -1.3 0.2 -0.4
v 1.3 0.2 -0.4
v -0.9 0.2 -0.6
v -0.4 0.2 -0.6
v 0.4 0.2 -0.6
v 0.9 0.2 -0.6
v -1.4 0.2 -0.7
v -1.3 0.2 -0.7
v -0.9 0.2 -0.7
v 0.9 0.2 -0.7
v 1.3 0.2 -0.7
v 1.4 0.2 -0.7
v -1.3 0.3 0.7
v -0.9 0.3 0.7
v 0.9 0.3 0.7
v 1.3 0.3 0.7
v -1.3 0.3 0.6
v -0.9 0.3 0.6
v 0.9 0.3 0.6
v 1.3 0.3 0.6
v -1.3 0.3 -0.6
v -0.9 0.3 -0.6
v 0.9 0.3 -0.6
v 1.3 0.3 -0.6
v -1.3 0.3 -0.7
v -0.9 0.3 -0.7
v 0.9 0.3 -0.7
v 1.3 0.3 -0.7
v -1.3 0.4 0.6
v -1.1 0.4 0.6
v -0.6 0.4 0.6
v 0.6 0.4 0.6
v 1.1 0.4 0.6
v 1.3 0.4 0.6
v -1.2 0.4 0.4
v -1.1 0.4 0.4
v -0.5 0.4 0.4
v 0.5 0.4 0.4
v 1.1 0.4 0.4
v 1.2 0.4 0.4
v -0.7 0.4 0.3
v -0.6 0.4 0.3
v 0.6 0.4 0.3
v 0.7 0.4 0.3
v -1.2 0.4 5.96046e-08
v -0.7 0.4 5.96046e-08
v 0.7 0.4 5.96046e-08
v 1.2 0.4 5.96046e-08
v -0.6 0.4 -0.2
v -0.5 0.4 -0.2
v 0.5 0.4 -0.2
v 0.6 0.4 -0.2
v -1.3 0.4 -0.6
v -0.6 0.4 -0.6
v 0.6 0.4 -0.6
v 1.3 0.4 -0.6
v -0.4 0.6 -0.4
v 0.4 0.6 -0.4
v -0.4 0.6 -0.6
v 0.4 0.6 -0.6
v -1 0.8 0.7
v -0.7 0.8 0.7
v 0.7 0.8 0.7
v 1 0.8 0.7
v -1 0.8 0.6
v -0.7 0.8 0.6
v 0.7 0.8 0.6
v 1 0.8 0.6
v -1.1 0.9 0.6
v -0.6 0.9 0.6
v 0.6 0.9 0.6
v 1.1 0.9 0.6
v -1.1 0.9 0.4
v -0.7 0.9 0.4
v 0.7 0.9 0.4
v 1.1 0.9 0.4
v -0.7 0.9 0.3
v -0.6 0.9 0.3
v 0.6 0.9 0.3
v 0.7 0.9 0.3
v -0.8 1 -0.5
v -0.6 1 -0.5
v -0.6 1 -0.6
v -0.5 1 -0.6
v -0.8 1 -0.7
v -0.5 1 -0.7
v -0.6 1.1 -0.2
v -0.5 1.1 -0.2
v 0.5 1.1 -0.2
v 0.6 1.1 -0.2
v -0.5 1.1 -0.4
v -0.4 1.1 -0.4
v 0.4 1.1 -0.4
v 0.5 1.1 -0.4
v 0.6 1.1 -0.5
v 0.8 1.1 -0.5
v -0.6 1.1 -0.6
v -0.4 1.1 -0.6
v 0.4 1.1 -0.6
v 0.5 1.1 -0.6
v 0.6 1.1 -0.6
v 0.5 1.1 -0.7
v 0.8 1.1 -0.7
v -0.2 1.4 0.6
v -0.1 1.4 0.6
v 0.1 1.4 0.6
v 0.2 1.4 0.6
v -0.2 1.4 0.5
v -0.1 1.4 0.5
v 0.1 1.4 0.5
v 0.2 1.4 0.5
v -0.5 1.6 0.5
v -0.4 1.6 0.5
v 0.4 1.6 0.5
v 0.5 1.6 0.5
v -0.5 1.6 0.4
v -0.4 1.6 0.4
v 0.4 1.6 0.4
v 0.5 1.6 0.4
v -0.3 1.7 0.5
v 0.3 1.7 0.5
v -0.3 1.7 0.4
v 0.3 1.7 0.4
v -0.7 1.7 0.2
v -0.5 1.7 0.2
v 0.5 1.7 0.2
v 0.7 1.7 0.2
v -0.7 1.7 5.96046e-08
v -0.5 1.7 5.96046e-08
v 0.5 1.7 5.96046e-08
v 0.7 1.7 5.96046e-08
v -0.5 1.8 0.4
v 0.5 1.8 0.4
v -0.4 1.8 0.3
v 0.4 1.8 0.3
v -0.4 1.8 -0.3
v 0.4 1.8 -0.3
v -0.5 1.8 -0.4
v 0.5 1.8 -0.4
v -1 2.2 -0.1
v -0.8 2.2 -0.1
v 0.8 2.2 -0.1
v 1 2.2 -0.1
v -0.8 2.2 -0.5
v 0.8 2.2 -0.5
v -1 2.2 -0.7
v 1 2.2 -0.7
v -0.4 2.3 0.3
v 0.4 2.3 0.3
v -0.3 2.3 0.2
v 0.3 2.3 0.2
v -0.3 2.3 0.1
v 0.3 2.3 0.1
v -0.3 2.3 -0.1
v 0.3 2.3 -0.1
v -0.3 2.3 -0.2
v 0.3 2.3 -0.2
v -0.4 2.3 -0.3
v 0.4 2.3 -0.3
v -1.3 2.4 0.5
v -0.7 2.4 0.5
v 0.7 2.4 0.5
v 1.3 2.4 0.5
v -1.2 2.4 0.4
v -0.8 2.4 0.4
v -0.7 2.4 0.4
v 0.8 2.4 0.4
v 1.2 2.4 0.4
v -0.8 2.4 0.2
v -0.7 2.4 0.2
v 0.7 2.4 0.2
v 0.8 2.4 0.2
v -1.2 2.4 5.96046e-08
v -0.8 2.4 5.96046e-08
v 0.8 2.4 5.96046e-08
v 1.2 2.4 5.96046e-08
v -1.3 2.4 -0.1
v -0.8 2.4 -0.1
v 0.8 2.4 -0.1
v 1.3 2.4 -0.1
v -1.2 2.6 0.4
v -0.8 2.6 0.4
v 0.8 2.6 0.4
v 1.2 2.6 0.4
v -0.8 2.6 0.2
v -0.3 2.6 0.2
v 0.3 2.6 0.2
v 0.8 2.6 0.2
v -0.7 2.6 0.1
v -0.6 2.6 0.1
v -0.5 2.6 0.1
v -0.4 2.6 0.1
v -0.3 2.6 0.1
v 0.3 2.6 0.1
v 0.4 2.6 0.1
v 0.5 2.6 0.1
v 0.6 2.6 0.1
v 0.7 2.6 0.1
v -1.2 2.6 5.96046e-08
v -0.8 2.6 5.96046e-08
v 0.8 2.6 5.96046e-08
v 1.2 2.6 5.96046e-08
v -0.7 2.6 -0.1
v -0.6 2.6 -0.1
v -0.5 2.6 -0.1
v -0.4 2.6 -0.1
v -0.3 2.6 -0.1
v 0.3 2.6 -0.1
v 0.4 2.6 -0.1
v 0.5 2.6 -0.1
v 0.6 2.6 -0.1
v 0.7 2.6 -0.1
v -0.8 2.6 -0.2
v -0.3 2.6 -0.2
v 0.3 2.6 -0.2
v 0.8 2.6 -0.2
v -0.3 2.8 0.3
v 0.3 2.8 0.3
v -0.2 2.8 0.2
v 0.2 2.8 0.2
v -0.7 2.8 0.1
v -0.6 2.8 0.1
v -0.5 2.8 0.1
v -0.4 2.8 0.1
v -0.3 2.8 0.1
v 0.3 2.8 0.1
v 0.4 2.8 0.1
v 0.5 2.8 0.1
v 0.6 2.8 0.1
v 0.7 2.8 0.1
v -0.7 2.8 -0.1
v -0.6 2.8 -0.1
v -0.5 2.8 -0.1
v -0.4 2.8 -0.1
v -0.3 2.8 -0.1
v 0.3 2.8 -0.1
v 0.4 2.8 -0.1
v 0.5 2.8 -0.1
v 0.6 2.8 -0.1
v 0.7 2.8 -0.1
v -0.2 2.8 -0.2
v 0.2 2.8 -0.2
v -0.3 2.8 -0.3
v 0.3 2.8 -0.3
v -0.2 3 0.2
v 0.2 3 0.2
v -0.1 3 0.1
v 0.1 3 0.1
v -0.1 3 -0.1
v 0.1 3 -0.1
v -0.2 3 -0.2
v 0.2 3 -0.2
v -0.1 3.4 0.1
v 0.1 3.4 0.1
v -0.1 3.4 -0.1
v 0.1 3.4 -0.1

# faces
f 3/4/1 2/4/1 1/4/1
f 4/4/1 2/4/1 3/4/1
f 9/6/1 6/6/1 5/6/1
f 10/6/1 6/6/1 9/6/1
f 11/3/1 7/3/1 6/3/1
f 11/6/1 6/6/1 10/6/1
f 12/6/1 8/6/1 7/6/1
f 12/3/1 7/3/1 11/3/1
f 13/6/1 8/6/1 12/6/1
f 14/6/1 8/6/1 13/6/1
f 15/3/1 11/3/1 10/3/1
f 15/3/1 13/3/1 12/3/1
f 15/3/1 12/3/1 11/3/1
f 16/3/1 13/3/1 15/3/1
f 19/11/1 18/11/1 17/11/1
f 20/11/1 18/11/1 19/11/1
f 21/12/1 20/12/1 19/12/1
f 22/12/1 20/12/1 21/12/1
f 23/11/1 22/11/1 21/11/1
f 24/11/1 22/11/1 23/11/1
f 25/12/1 24/12/1 23/12/1
f 26/12/1 24/12/1 25/12/1
f 29/1/1 28/1/1 27/1/1
f 30/1/1 28/1/1 29/1/1
f 33/11/1 32/11/1 31/11/1
f 34/11/1 32/11/1 33/11/1
f 37/3/1 36/3/1 35/3/1
f 38/3/1 36/3/1 37/3/1
f 41/11/1 40/11/1 39/11/1
f 42/11/1 40/11/1 41/11/1
f 46/4/1 44/4/1 43/4/1
f 47/4/1 46/4/1 45/4/1
f 48/4/1 46/4/1 47/4/1
f 49/4/1 44/4/1 46/4/1
f 49/4/1 46/4/1 48/4/1
f 53/6/1 51/6/1 50/6/1
f 54/6/1 53/6/1 52/6/1
f 55/6/1 51/6/1 53/6/1
f 55/6/1 53/6/1 54/6/1
f 56/4/1 55/4/1 54/4/1
f 57/4/1 55/4/1 56/4/1
f 60/11/1 59/11/1 58/11/1
f 61/11/1 59/11/1 60/11/1
f 64/9/1 63/9/1 62/9/1
f 65/9/1 63/9/1 64/9/1
f 66/9/1 64/9/1 62/9/1
f 67/9/1 64/9/1 66/9/1
f 68/5/1 67/5/1 66/5/1
f 70/5/1 68/5/1 66/5/1
f 70/5/1 69/5/1 68/5/1
f 71/5/1 69/5/1 70/5/1
f 75/1/1 73/1/1 72/1/1
f 76/1/1 73/1/1 75/1/1
f 77/1/1 76/1/1 75/1/1
f 79/1/1 77/1/1 75/1/1
f 79/1/1 78/1/1 77/1/1
f 80/1/1 78/1/1 79/1/1
f 81/6/1 75/6/1 74/6/1
f 82/1/1 79/1/1 75/1/1
f 82/6/1 75/6/1 81/6/1
f 83/1/1 79/1/1 82/1/1
f 84/1/1 78/1/1 80/1/1
f 85/1/1 83/1/1 82/1/1
f 85/1/1 84/1/1 83/1/1
f 86/1/1 78/1/1 84/1/1
f 86/1/1 84/1/1 85/1/1
f 89/3/1 88/3/1 87/3/1
f 90/3/1 88/3/1 89/3/1
f 93/3/1 92/3/1 91/3/1
f 94/3/1 92/3/1 93/3/1
f 99/5/1 96/5/1 95/5/1
f 100/4/1 97/4/1 96/4/1
f 100/5/1 96/5/1 99/5/1
f 101/5/1 98/5/1 97/5/1
f 101/4/1 97/4/1 100/4/1
f 102/5/1 98/5/1 101/5/1
f 107/3/1 104/3/1 103/3/1
f 110/3/1 106/3/1 105/3/1
f 111/3/1 108/3/1 107/3/1
f 111/3/1 107/3/1 103/3/1
f 112/3/1 108/3/1 111/3/1
f 113/3/1 110/3/1 109/3/1
f 114/3/1 106/3/1 110/3/1
f 114/3/1 110/3/1 113/3/1
f 117/12/1 116/12/1 115/12/1
f 118/12/1 116/12/1 117/12/1
f 119/11/1 118/11/1 117/11/1
f 120/11/1 118/11/1 119/11/1
f 121/12/1 120/12/1 119/12/1
f 122/12/1 120/12/1 121/12/1
f 125/11/1 124/11/1 123/11/1
f 126/11/1 124/11/1 125/11/1
f 129/3/1 128/3/1 127/3/1
f 130/3/1 128/3/1 129/3/1
f 135/9/1 132/9/1 131/9/1
f 136/9/1 132/9/1 135/9/1
f 137/5/1 136/5/1 135/5/1
f 138/5/1 136/5/1 137/5/1
f 139/6/1 134/6/1 133/6/1
f 140/6/1 134/6/1 139/6/1
f 143/4/1 142/4/1 141/4/1
f 144/4/1 142/4/1 143/4/1
f 145/4/1 142/4/1 144/4/1
f 148/3/1 147/3/1 146/3/1
f 149/3/1 147/3/1 148/3/1
f 152/6/1 151/6/1 150/6/1
f 153/6/1 151/6/1 152/6/1
f 158/11/1 157/11/1 156/11/1
f 159/11/1 157/11/1 158/11/1
f 161/1/1 155/1/1 154/1/1
f 162/1/1 155/1/1 161/1/1
f 162/1/1 161/1/1 160/1/1
f 163/1/1 155/1/1 162/1/1
f 164/1/1 162/1/1 160/1/1
f 167/1/1 164/1/1 160/1/1
f 167/1/1 165/1/1 164/1/1
f 168/1/1 165/1/1 167/1/1
f 170/11/1 168/11/1 167/11/1
f 170/11/1 169/11/1 168/11/1
f 170/11/1 167/11/1 166/11/1
f 171/11/1 169/11/1 170/11/1
f 172/12/1 171/12/1 170/12/1
f 173/12/1 171/12/1 172/12/1
f 174/11/1 173/11/1 172/11/1
f 175/11/1 173/11/1 174/11/1
f 176/11/1 173/11/1 175/11/1
f 177/12/1 175/12/1 174/12/1
f 178/12/1 175/12/1 177/12/1
f 181/4/1 180/4/1 179/4/1
f 182/4/1 180/4/1 181/4/1
f 185/4/1 184/4/1 183/4/1
f 186/4/1 184/4/1 185/4/1
f 187/4/1 184/4/1 186/4/1
f 190/11/1 189/11/1 188/11/1
f 191/11/1 190/11/1 188/11/1
f 192/11/1 190/11/1 191/11/1
f 197/6/1 194/6/1 193/6/1
f 198/6/1 194/6/1 197/6/1
f 199/6/1 196/6/1 195/6/1
f 200/6/1 196/6/1 199/6/1
f 201/6/2 202/6/2 205/6/2
f 205/6/2 202/6/2 206/6/2
f 203/6/2 204/6/2 207/6/2
f 207/6/2 204/6/2 208/6/2
f 209/4/2 210/4/2 211/4/2
f 211/4/2 210/4/2 212/4/2
f 213/4/2 214/4/2 215/4/2
f 215/4/2 214/4/2 216/4/2
f 216/4/2 214/4/2 217/4/2
f 218/11/2 219/11/2 220/11/2
f 218/11/2 220/11/2 221/11/2
f 221/11/2 220/11/2 222/11/2
f 225/11/2 226/11/2 227/11/2
f 227/11/2 226/11/2 228/11/2
f 223/1/2 224/1/2 230/1/2
f 230/1/2 224/1/2 231/1/2
f 229/1/2 230/1/2 231/1/2
f 231/1/2 224/1/2 232/1/2
f 229/1/2 231/1/2 233/1/2
f 229/1/2 233/1/2 236/1/2
f 233/1/2 234/1/2 236/1/2
f 236/1/2 234/1/2 237/1/2
f 236/11/2 237/11/2 239/11/2
f 237/11/2 238/11/2 239/11/2
f 235/11/2 236/11/2 239/11/2
f 239/11/2 238/11/2 240/11/2
f 239/12/2 240/12/2 241/12/2
f 241/12/2 240/12/2 242/12/2
f 241/11/2 242/11/2 243/11/2
f 243/11/2 242/11/2 244/11/2
f 244/11/2 242/11/2 245/11/2
f 245/11/2 242/11/2 246/11/2
f 243/12/2 244/12/2 247/12/2
f 244/4/2 245/4/2 248/4/2
f 247/12/2 244/12/2 248/12/2
f 248/4/2 245/4/2 249/4/2
f 250/3/2 251/3/2 252/3/2
f 252/3/2 251/3/2 253/3/2
f 254/6/2 255/6/2 256/6/2
f 256/6/2 255/6/2 257/6/2
f 258/4/2 259/4/2 260/4/2
f 260/4/2 259/4/2 261/4/2
f 261/4/2 259/4/2 262/4/2
f 263/9/2 264/9/2 267/9/2
f 267/9/2 264/9/2 268/9/2
f 267/5/2 268/5/2 269/5/2
f 269/5/2 268/5/2 270/5/2
f 265/6/2 266/6/2 271/6/2
f 271/6/2 266/6/2 272/6/2
f 273/3/2 274/3/2 275/3/2
f 275/3/2 274/3/2 276/3/2
f 277/12/2 278/12/2 279/12/2
f 279/12/2 278/12/2 280/12/2
f 279/11/2 280/11/2 281/11/2
f 281/11/2 280/11/2 282/11/2
f 281/12/2 282/12/2 283/12/2
f 283/12/2 282/12/2 284/12/2
f 285/11/2 286/11/2 287/11/2
f 287/11/2 286/11/2 288/11/2
f 289/3/2 290/3/2 291/3/2
f 291/3/2 290/3/2 292/3/2
f 293/5/2 294/5/2 297/5/2
f 294/4/2 295/4/2 298/4/2
f 297/5/2 294/5/2 298/5/2
f 295/5/2 296/5/2 299/5/2
f 298/4/2 295/4/2 299/4/2
f 299/5/2 296/5/2 300/5/2
f 301/3/2 302/3/2 305/3/2
f 303/3/2 304/3/2 308/3/2
f 305/3/2 306/3/2 309/3/2
f 301/3/2 305/3/2 309/3/2
f 309/3/2 306/3/2 310/3/2
f 307/3/2 308/3/2 311/3/2
f 308/3/2 304/3/2 312/3/2
f 311/3/2 308/3/2 312/3/2
f 313/3/2 314/3/2 315/3/2
f 315/3/2 314/3/2 316/3/2
f 317/1/2 318/1/2 320/1/2
f 320/1/2 318/1/2 321/1/2
f 320/1/2 321/1/2 322/1/2
f 320/1/2 322/1/2 324/1/2
f 322/1/2 323/1/2 324/1/2
f 324/1/2 323/1/2 325/1/2
f 319/6/2 320/6/2 326/6/2
f 320/1/2 324/1/2 327/1/2
f 326/6/2 320/6/2 327/6/2
f 327/1/2 324/1/2 328/1/2
f 325/1/2 323/1/2 329/1/2
f 327/1/2 328/1/2 330/1/2
f 328/1/2 329/1/2 330/1/2
f 329/1/2 323/1/2 331/1/2
f 330/1/2 329/1/2 331/1/2
f 332/9/2 333/9/2 334/9/2
f 334/9/2 333/9/2 335/9/2
f 332/9/2 334/9/2 336/9/2
f 336/9/2 334/9/2 337/9/2
f 336/5/2 337/5/2 338/5/2
f 338/5/2 337/5/2 339/5/2
f 340/11/2 341/11/2 342/11/2
f 342/11/2 341/11/2 343/11/2
f 344/6/2 345/6/2 347/6/2
f 346/6/2 347/6/2 348/6/2
f 347/6/2 345/6/2 349/6/2
f 348/6/2 347/6/2 349/6/2
f 348/4/2 349/4/2 350/4/2
f 350/4/2 349/4/2 351/4/2
f 352/11/2 353/11/2 354/11/2
f 354/11/2 353/11/2 355/11/2
f 356/4/2 357/4/2 359/4/2
f 358/4/2 359/4/2 360/4/2
f 360/4/2 359/4/2 361/4/2
f 359/4/2 357/4/2 362/4/2
f 361/4/2 359/4/2 362/4/2
f 363/3/2 364/3/2 365/3/2
f 365/3/2 364/3/2 366/3/2
f 367/1/2 368/1/2 369/1/2
f 369/1/2 368/1/2 370/1/2
f 371/11/2 372/11/2 373/11/2
f 373/11/2 372/11/2 374/11/2
f 375/6/2 376/6/2 379/6/2
f 379/6/2 376/6/2 380/6/2
f 376/3/2 377/3/2 381/3/2
f 380/6/2 376/6/2 381/6/2
f 377/6/2 378/6/2 382/6/2
f 381/3/2 377/3/2 382/3/2
f 382/6/2 378/6/2 383/6/2
f 383/6/2 378/6/2 384/6/2
f 380/3/2 381/3/2 385/3/2
f 382/3/2 383/3/2 385/3/2
f 381/3/2 382/3/2 385/3/2
f 385/3/2 383/3/2 386/3/2
f 387/11/2 388/11/2 389/11/2
f 389/11/2 388/11/2 390/11/2
f 389/12/2 390/12/2 391/12/2
f 391/12/2 390/12/2 392/12/2
f 391/11/2 392/11/2 393/11/2
f 393/11/2 392/11/2 394/11/2
f 393/12/2 394/12/2 395/12/2
f 395/12/2 394/12/2 396/12/2
f 397/4/2 398/4/2 399/4/2
f 399/4/2 398/4/2 400/4/2
f 403/4/3 402/4/3 401/4/3
f 404/4/3 402/4/3 403/4/3
f 408/4/3 403/4/3 401/4/3
f 408/6/3 404/6/3 403/6/3
f 408/6/3 405/6/3 404/6/3
f 409/6/3 405/6/3 408/6/3
f 410/6/3 405/6/3 409/6/3
f 411/11/3 407/11/3 406/11/3
f 412/11/3 407/11/3 411/11/3
f 413/11/3 411/11/3 406/11/3
f 413/12/3 412/12/3 411/12/3
f 414/11/3 407/11/3 412/11/3
f 414/12/3 412/12/3 413/12/3
f 415/11/3 413/11/3 406/11/3
f 415/11/3 414/11/3 413/11/3
f 416/11/3 407/11/3 414/11/3
f 416/11/3 414/11/3 415/11/3
f 419/11/3 418/11/3 417/11/3
f 420/11/3 418/11/3 419/11/3
f 421/4/3 408/4/3 401/4/3
f 421/4/3 409/4/3 408/4/3
f 422/4/3 409/4/3 421/4/3
f 424/12/3 420/12/3 419/12/3
f 424/11/3 419/11/3 417/11/3
f 425/11/3 418/11/3 420/11/3
f 425/12/3 420/12/3 424/12/3
f 426/11/3 424/11/3 417/11/3
f 426/11/3 425/11/3 424/11/3
f 427/11/3 418/11/3 425/11/3
f 427/11/3 425/11/3 426/11/3
f 428/6/3 423/6/3 422/6/3
f 428/6/3 422/6/3 421/6/3
f 428/4/3 421/4/3 401/4/3
f 429/6/3 423/6/3 428/6/3
f 430/6/3 423/6/3 429/6/3
f 431/4/3 428/4/3 401/4/3
f 431/4/3 429/4/3 428/4/3
f 432/4/3 429/4/3 431/4/3
f 435/3/3 434/3/3 433/3/3
f 437/3/3 436/3/3 435/3/3
f 438/3/3 436/3/3 437/3/3
f 440/3/3 435/3/3 433/3/3
f 440/3/3 437/3/3 435/3/3
f 441/3/3 437/3/3 440/3/3
f 441/3/3 440/3/3 439/3/3
f 442/3/3 436/3/3 438/3/3
f 443/3/3 441/3/3 439/3/3
f 443/3/3 442/3/3 441/3/3
f 444/3/3 436/3/3 442/3/3
f 444/3/3 442/3/3 443/3/3
f 449/12/3 446/12/3 445/12/3
f 450/11/3 447/11/3 446/11/3
f 450/12/3 446/12/3 449/12/3
f 451/12/3 448/12/3 447/12/3
f 451/11/3 447/11/3 450/11/3
f 452/12/3 448/12/3 451/12/3
f 453/11/3 450/11/3 449/11/3
f 454/12/3 451/12/3 450/12/3
f 454/11/3 450/11/3 453/11/3
f 455/11/3 452/11/3 451/11/3
f 455/12/3 451/12/3 454/12/3
f 456/11/3 452/11/3 455/11/3
f 457/12/3 454/12/3 453/12/3
f 458/11/3 455/11/3 454/11/3
f 458/12/3 454/12/3 457/12/3
f 459/12/3 456/12/3 455/12/3
f 459/11/3 455/11/3 458/11/3
f 460/12/3 456/12/3 459/12/3
f 461/3/3 443/3/3 439/3/3
f 463/3/3 462/3/3 461/3/3
f 464/3/3 462/3/3 463/3/3
f 465/3/3 461/3/3 439/3/3
f 465/3/3 463/3/3 461/3/3
f 466/3/3 463/3/3 465/3/3
f 467/3/3 463/3/3 466/3/3
f 468/3/3 462/3/3 464/3/3
f 469/3/3 467/3/3 466/3/3
f 469/3/3 468/3/3 467/3/3
f 470/3/3 462/3/3 468/3/3
f 470/3/3 468/3/3 469/3/3
f 471/3/3 469/3/3 466/3/3
f 472/3/3 469/3/3 471/3/3
f 478/11/3 474/11/3 473/11/3
f 479/12/3 475/12/3 474/12/3
f 479/11/3 474/11/3 478/11/3
f 480/11/3 476/11/3 475/11/3
f 480/12/3 475/12/3 479/12/3
f 481/12/3 477/12/3 476/12/3
f 481/11/3 476/11/3 480/11/3
f 482/12/3 477/12/3 481/12/3
f 485/6/3 484/6/3 483/6/3
f 486/6/3 484/6/3 485/6/3
f 489/3/3 488/3/3 487/3/3
f 490/3/3 488/3/3 489/3/3
f 491/3/3 488/3/3 490/3/3
f 492/3/3 488/3/3 491/3/3
f 493/3/3 488/3/3 492/3/3
f 494/3/3 488/3/3 493/3/3
f 495/3/3 489/3/3 487/3/3
f 496/3/3 493/3/3 492/3/3
f 497/13/3 494/13/3 493/13/3
f 497/3/3 493/3/3 496/3/3
f 498/3/3 488/3/3 494/3/3
f 498/13/3 494/13/3 497/13/3
f 499/3/3 497/3/3 496/3/3
f 499/14/3 498/14/3 497/14/3
f 500/3/3 488/3/3 498/3/3
f 500/14/3 498/14/3 499/14/3
f 501/3/3 495/3/3 487/3/3
f 502/3/3 499/3/3 496/3/3
f 503/11/3 500/11/3 499/11/3
f 503/3/3 499/3/3 502/3/3
f 504/3/3 488/3/3 500/3/3
f 504/11/3 500/11/3 503/11/3
f 505/3/3 501/3/3 487/3/3
f 508/3/3 503/3/3 502/3/3
f 509/7/3 504/7/3 503/7/3
f 509/3/3 503/3/3 508/3/3
f 510/3/3 488/3/3 504/3/3
f 510/7/3 504/7/3 509/7/3
f 511/3/3 509/3/3 508/3/3
f 511/3/3 507/3/3 506/3/3
f 511/3/3 510/3/3 509/3/3
f 511/3/3 508/3/3 507/3/3
f 511/3/3 506/3/3 505/3/3
f 511/3/3 505/3/3 487/3/3
f 512/3/3 488/3/3 510/3/3
f 512/3/3 510/3/3 511/3/3
f 515/6/3 514/6/3 513/6/3
f 516/6/3 514/6/3 515/6/3
f 522/11/3 518/11/3 517/11/3
f 523/12/3 519/12/3 518/12/3
f 523/11/3 518/11/3 522/11/3
f 524/11/3 520/11/3 519/11/3
f 524/12/3 519/12/3 523/12/3
f 525/12/3 521/12/3 520/12/3
f 525/11/3 520/11/3 524/11/3
f 526/12/3 521/12/3 525/12/3
f 531/1/3 528/1/3 527/1/3
f 532/1/3 528/1/3 531/1/3
f 533/11/3 530/11/3 529/11/3
f 534/11/3 530/11/3 533/11/3
f 535/1/3 528/1/3 532/1/3
f 536/1/3 528/1/3 535/1/3
f 541/1/3 538/1/3 537/1/3
f 542/1/3 540/1/3 539/1/3
f 543/1/3 542/1/3 541/1/3
f 544/1/3 540/1/3 542/1/3
f 544/1/3 542/1/3 543/1/3
f 545/1/3 543/1/3 541/1/3
f 546/1/3 540/1/3 544/1/3
f 547/1/3 541/1/3 537/1/3
f 547/1/3 546/1/3 545/1/3
f 547/1/3 545/1/3 541/1/3
f 548/1/3 546/1/3 547/1/3
f 549/1/3 547/1/3 537/1/3
f 550/1/3 547/1/3 549/1/3
f 551/1/3 546/1/3 548/1/3
f 552/1/3 540/1/3 546/1/3
f 552/1/3 546/1/3 551/1/3
f 558/1/3 554/1/3 553/1/3
f 559/1/3 558/1/3 557/1/3
f 560/1/3 554/1/3 558/1/3
f 560/1/3 558/1/3 559/1/3
f 561/11/3 556/11/3 555/11/3
f 562/11/3 556/11/3 561/11/3
f 567/3/3 566/3/3 565/3/3
f 568/3/3 566/3/3 567/3/3
f 569/3/3 564/3/3 563/3/3
f 570/3/3 564/3/3 569/3/3
f 577/6/3 572/6/3 571/6/3
f 578/6/3 577/6/3 576/6/3
f 579/6/3 572/6/3 577/6/3
f 579/6/3 577/6/3 578/6/3
f 580/4/3 573/4/3 572/4/3
f 580/6/3 572/6/3 579/6/3
f 581/4/3 575/4/3 574/4/3
f 582/4/3 575/4/3 581/4/3
f 584/4/3 580/4/3 579/4/3
f 585/4/3 573/4/3 580/4/3
f 585/4/3 580/4/3 584/4/3
f 586/4/3 573/4/3 585/4/3
f 589/11/3 588/11/3 587/11/3
f 590/11/3 588/11/3 589/11/3
f 591/5/3 584/5/3 583/5/3
f 592/4/3 585/4/3 584/4/3
f 592/5/3 584/5/3 591/5/3
f 593/4/3 585/4/3 592/4/3
f 598/4/3 594/4/3 593/4/3
f 598/4/3 593/4/3 592/4/3
f 599/4/3 594/4/3 598/4/3
f 600/4/3 596/4/3 595/4/3
f 601/4/3 596/4/3 600/4/3
f 602/6/3 598/6/3 597/6/3
f 602/6/3 599/6/3 598/6/3
f 603/6/3 599/6/3 602/6/3
f 604/6/3 599/6/3 603/6/3
f 605/4/3 594/4/3 599/4/3
f 605/6/3 599/6/3 604/6/3
f 606/4/3 594/4/3 605/4/3
f 609/11/3 608/11/3 607/11/3
f 610/11/3 608/11/3 609/11/3
f 611/12/3 610/12/3 609/12/3
f 612/12/3 610/12/3 611/12/3
f 613/11/3 612/11/3 611/11/3
f 614/11/3 612/11/3 613/11/3
f 615/12/3 614/12/3 613/12/3
f 616/12/3 614/12/3 615/12/3
f 619/3/3 618/3/3 617/3/3
f 620/3/3 618/3/3 619/3/3
f 623/12/3 622/12/3 621/12/3
f 624/12/3 622/12/3 623/12/3
f 625/11/3 624/11/3 623/11/3
f 626/11/3 624/11/3 625/11/3
f 627/12/3 626/12/3 625/12/3
f 628/12/3 626/12/3 627/12/3
f 629/11/3 628/11/3 627/11/3
f 630/11/3 628/11/3 629/11/3
f 634/9/3 632/9/3 631/9/3
f 635/5/3 633/5/3 632/5/3
f 635/9/3 632/9/3 634/9/3
f 636/5/3 633/5/3 635/5/3
f 640/9/3 638/9/3 637/9/3
f 641/5/3 639/5/3 638/5/3
f 641/9/3 638/9/3 640/9/3
f 642/5/3 639/5/3 641/5/3
f 645/4/3 644/4/3 643/4/3
f 646/4/3 644/4/3 645/4/3
f 647/4/3 644/4/3 646/4/3
f 649/4/3 645/4/3 643/4/3
f 650/4/3 645/4/3 649/4/3
f 651/4/3 645/4/3 650/4/3
f 655/4/3 653/4/3 652/4/3
f 655/4/3 654/4/3 653/4/3
f 656/4/3 648/4/3 647/4/3
f 656/4/3 647/4/3 646/4/3
f 657/4/3 648/4/3 656/4/3
f 658/4/3 648/4/3 657/4/3
f 659/4/3 655/4/3 652/4/3
f 659/4/3 656/4/3 655/4/3
f 659/4/3 657/4/3 656/4/3
f 660/4/3 657/4/3 659/4/3
f 661/3/4 662/3/4 663/3/4
f 663/3/4 662/3/4 664/3/4
f 665/3/4 666/3/4 667/3/4
f 667/3/4 666/3/4 668/3/4
f 669/1/4 670/1/4 673/1/4
f 669/1/4 673/1/4 674/1/4
f 674/1/4 673/1/4 675/1/4
f 675/1/4 673/1/4 676/1/4
f 671/11/4 672/11/4 677/11/4
f 677/11/4 672/11/4 678/11/4
f 678/11/4 672/11/4 679/11/4
f 669/1/4 674/1/4 680/1/4
f 674/10/4 675/10/4 681/10/4
f 680/1/4 674/1/4 681/1/4
f 675/1/4 676/1/4 682/1/4
f 681/10/4 675/10/4 682/10/4
f 682/1/4 676/1/4 683/1/4
f 681/4/4 682/4/4 684/4/4
f 684/4/4 682/4/4 685/4/4
f 686/4/4 687/4/4 689/4/4
f 689/4/4 687/4/4 690/4/4
f 689/10/4 690/10/4 692/10/4
f 688/1/4 689/1/4 692/1/4
f 690/1/4 691/1/4 693/1/4
f 692/10/4 690/10/4 693/10/4
f 688/1/4 692/1/4 697/1/4
f 692/1/4 693/1/4 697/1/4
f 693/1/4 691/1/4 698/1/4
f 697/1/4 693/1/4 698/1/4
f 695/11/4 696/11/4 699/11/4
f 694/11/4 695/11/4 699/11/4
f 699/11/4 696/11/4 700/11/4
f 701/11/4 702/11/4 706/11/4
f 702/12/4 703/12/4 707/12/4
f 706/11/4 702/11/4 707/11/4
f 703/11/4 704/11/4 708/11/4
f 707/12/4 703/12/4 708/12/4
f 708/11/4 704/11/4 711/11/4
f 704/12/4 705/12/4 712/12/4
f 711/11/4 704/11/4 712/11/4
f 712/12/4 705/12/4 713/12/4
f 709/11/4 710/11/4 714/11/4
f 710/12/4 711/12/4 715/12/4
f 714/11/4 710/11/4 715/11/4
f 711/11/4 712/11/4 716/11/4
f 715/12/4 711/12/4 716/12/4
f 716/11/4 712/11/4 717/11/4
f 718/11/4 719/11/4 720/11/4
f 720/11/4 719/11/4 721/11/4
f 720/12/4 721/12/4 722/12/4
f 722/12/4 721/12/4 723/12/4
f 722/11/4 723/11/4 724/11/4
f 724/11/4 723/11/4 725/11/4
f 724/12/4 725/12/4 726/12/4
f 726/12/4 725/12/4 727/12/4
f 728/3/4 729/3/4 730/3/4
f 730/3/4 729/3/4 731/3/4
f 732/12/4 733/12/4 734/12/4
f 734/12/4 733/12/4 735/12/4
f 734/11/4 735/11/4 736/11/4
f 736/11/4 735/11/4 737/11/4
f 736/12/4 737/12/4 738/12/4
f 738/12/4 737/12/4 739/12/4
f 738/11/4 739/11/4 744/11/4
f 744/11/4 739/11/4 745/11/4
f 740/11/4 741/11/4 746/11/4
f 741/12/4 742/12/4 747/12/4
f 746/11/4 741/11/4 747/11/4
f 742/11/4 743/11/4 748/11/4
f 747/12/4 742/12/4 748/12/4
f 748/11/4 743/11/4 749/11/4
f 748/11/4 749/11/4 753/11/4
f 751/11/4 752/11/4 754/11/4
f 752/12/4 753/12/4 755/12/4
f 754/11/4 752/11/4 755/11/4
f 753/11/4 749/11/4 756/11/4
f 755/12/4 753/12/4 756/12/4
f 749/12/4 750/12/4 757/12/4
f 756/11/4 749/11/4 757/11/4
f 757/12/4 750/12/4 758/12/4
f 759/6/4 760/6/4 762/6/4
f 762/6/4 760/6/4 763/6/4
f 760/4/4 761/4/4 764/4/4
f 763/6/4 760/6/4 764/6/4
f 763/4/4 764/4/4 766/4/4
f 764/4/4 761/4/4 767/4/4
f 766/4/4 764/4/4 767/4/4
f 767/4/4 761/4/4 768/4/4
f 769/11/4 770/11/4 771/11/4
f 771/11/4 770/11/4 772/11/4
f 765/5/4 766/5/4 773/5/4
f 766/4/4 767/4/4 774/4/4
f 773/5/4 766/5/4 774/5/4
f 774/4/4 767/4/4 775/4/4
f 775/4/4 776/4/4 778/4/4
f 774/4/4 775/4/4 778/4/4
f 778/4/4 776/4/4 779/4/4
f 777/6/4 778/6/4 780/6/4
f 778/6/4 779/6/4 780/6/4
f 779/4/4 776/4/4 781/4/4
f 780/6/4 779/6/4 781/6/4
f 781/4/4 776/4/4 782/4/4
f 785/3/4 786/3/4 787/3/4
f 787/3/4 786/3/4 788/3/4
f 783/3/4 784/3/4 789/3/4
f 789/3/4 784/3/4 790/3/4
f 791/1/4 792/1/4 795/1/4
f 793/1/4 794/1/4 796/1/4
f 794/1/4 795/1/4 796/1/4
f 796/1/4 795/1/4 797/1/4
f 795/1/4 792/1/4 798/1/4
f 797/1/4 795/1/4 798/1/4
f 798/1/4 792/1/4 799/1/4
f 799/1/4 792/1/4 800/1/4
f 801/3/4 802/3/4 804/3/4
f 804/3/4 802/3/4 805/3/4
f 803/3/4 804/3/4 805/3/4
f 805/9/4 806/9/4 809/9/4
f 807/5/4 808/5/4 811/5/4
f 803/3/4 805/3/4 812/3/4
f 809/9/4 810/9/4 813/9/4
f 812/3/4 805/3/4 813/3/4
f 805/9/4 809/9/4 813/9/4
f 813/9/4 810/9/4 814/9/4
f 810/5/4 811/5/4 815/5/4
f 814/9/4 810/9/4 815/9/4
f 811/5/4 808/5/4 816/5/4
f 815/5/4 811/5/4 816/5/4
f 813/1/4 814/1/4 817/1/4
f 812/1/4 813/1/4 817/1/4
f 817/1/4 814/1/4 818/1/4
f 818/1/4 814/1/4 819/1/4
f 818/9/4 819/9/4 822/9/4
f 819/9/4 820/9/4 822/9/4
f 820/5/4 821/5/4 823/5/4
f 822/9/4 820/9/4 823/9/4
f 823/5/4 821/5/4 824/5/4
f 817/3/4 818/3/4 825/3/4
f 818/9/4 822/9/4 825/9/4
f 825/9/4 822/9/4 826/9/4
f 817/3/4 825/3/4 827/3/4
f 827/3/4 825/3/4 828/3/4
f 828/3/4 825/3/4 829/3/4
f 829/3/4 825/3/4 830/3/4
f 831/4/4 832/4/4 833/4/4
f 833/4/4 832/4/4 834/4/4
f 831/4/4 833/4/4 838/4/4
f 833/6/4 834/6/4 838/6/4
f 834/6/4 835/6/4 838/6/4
f 838/6/4 835/6/4 839/6/4
f 839/6/4 835/6/4 840/6/4
f 836/4/4 837/4/4 841/4/4
f 841/4/4 837/4/4 842/4/4
f 836/4/4 841/4/4 843/4/4
f 843/4/4 841/4/4 844/4/4
f 845/4/4 846/4/4 847/4/4
f 842/4/4 837/4/4 848/4/4
f 838/4/4 839/4/4 849/4/4
f 831/4/4 838/4/4 849/4/4
f 849/4/4 839/4/4 850/4/4
f 847/4/4 848/4/4 852/4/4
f 845/4/4 847/4/4 852/4/4
f 848/4/4 837/4/4 853/4/4
f 852/4/4 848/4/4 853/4/4
f 850/6/4 851/6/4 854/6/4
f 849/6/4 850/6/4 854/6/4
f 831/4/4 849/4/4 854/4/4
f 854/6/4 851/6/4 855/6/4
f 855/6/4 851/6/4 856/6/4
f 831/4/4 854/4/4 857/4/4
f 854/4/4 855/4/4 857/4/4
f 857/4/4 855/4/4 858/4/4
f 861/4/5 860/4/5 859/4/5
f 862/4/5 860/4/5 861/4/5
f 867/11/5 864/11/5 863/11/5
f 868/11/5 864/11/5 867/11/5
f 869/11/5 866/11/5 865/11/5
f 870/11/5 866/11/5 869/11/5
f 875/6/5 872/6/5 871/6/5
f 876/6/5 872/6/5 875/6/5
f 877/6/5 874/6/5 873/6/5
f 878/6/5 874/6/5 877/6/5
f 883/4/5 880/4/5 879/4/5
f 886/4/5 882/4/5 881/4/5
f 887/4/5 884/4/5 883/4/5
f 887/4/5 883/4/5 879/4/5
f 888/4/5 884/4/5 887/4/5
f 889/4/5 886/4/5 885/4/5
f 890/4/5 882/4/5 886/4/5
f 890/4/5 886/4/5 889/4/5
f 893/3/5 892/3/5 891/3/5
f 894/3/5 892/3/5 893/3/5
f 899/12/5 896/12/5 895/12/5
f 900/11/5 897/11/5 896/11/5
f 900/12/5 896/12/5 899/12/5
f 901/12/5 898/12/5 897/12/5
f 901/11/5 897/11/5 900/11/5
f 902/12/5 898/12/5 901/12/5
f 907/4/5 904/4/5 903/4/5
f 908/4/5 904/4/5 907/4/5
f 909/4/5 906/4/5 905/4/5
f 910/4/5 906/4/5 909/4/5
f 913/4/5 912/4/5 911/4/5
f 914/4/5 912/4/5 913/4/5
f 919/11/5 916/11/5 915/11/5
f 920/11/5 916/11/5 919/11/5
f 921/11/5 918/11/5 917/11/5
f 922/11/5 918/11/5 921/11/5
f 923/11/5 919/11/5 915/11/5
f 928/11/5 918/11/5 922/11/5
f 929/11/5 923/11/5 915/11/5
f 929/11/5 924/11/5 923/11/5
f 930/4/5 925/4/5 924/4/5
f 930/11/5 924/11/5 929/11/5
f 931/11/5 926/11/5 925/11/5
f 931/4/5 925/4/5 930/4/5
f 932/11/5 926/11/5 931/11/5
f 933/11/5 928/11/5 927/11/5
f 934/11/5 928/11/5 933/11/5
f 935/11/5 928/11/5 934/11/5
f 936/11/5 918/11/5 928/11/5
f 936/11/5 928/11/5 935/11/5
f 937/4/5 931/4/5 930/4/5
f 938/4/5 931/4/5 937/4/5
f 939/4/5 935/4/5 934/4/5
f 940/4/5 935/4/5 939/4/5
f 946/6/5 942/6/5 941/6/5
f 947/6/5 944/6/5 943/6/5
f 949/6/5 946/6/5 945/6/5
f 950/6/5 942/6/5 946/6/5
f 950/6/5 946/6/5 949/6/5
f 951/6/5 948/6/5 947/6/5
f 951/6/5 947/6/5 943/6/5
f 952/6/5 948/6/5 951/6/5
f 957/4/5 954/4/5 953/4/5
f 958/4/5 956/4/5 955/4/5
f 959/4/5 957/4/5 953/4/5
f 960/4/5 956/4/5 958/4/5
f 961/4/5 959/4/5 953/4/5
f 962/4/5 959/4/5 961/4/5
f 963/4/5 956/4/5 960/4/5
f 964/4/5 956/4/5 963/4/5
f 967/3/5 966/3/5 965/3/5
f 968/3/5 966/3/5 967/3/5
f 971/3/5 970/3/5 969/3/5
f 972/3/5 970/3/5 971/3/5
f 975/4/6 976/4/6 979/4/6
f 979/4/6 976/4/6 980/4/6
f 973/4/6 974/4/6 981/4/6
f 977/4/6 978/4/6 982/4/6
f 973/4/6 981/4/6 983/4/6
f 982/4/6 978/4/6 984/4/6
f 973/4/6 983/4/6 989/4/6
f 989/4/6 983/4/6 990/4/6
f 987/4/6 988/4/6 991/4/6
f 985/4/6 986/4/6 991/4/6
f 986/4/6 987/4/6 991/4/6
f 991/4/6 988/4/6 992/4/6
f 984/4/6 978/4/6 993/4/6
f 993/4/6 978/4/6 994/4/6
f 995/6/6 996/6/6 999/6/6
f 999/6/6 996/6/6 1000/6/6
f 997/6/6 998/6/6 1001/6/6
f 1001/6/6 998/6/6 1002/6/6
f 1003/6/6 1004/6/6 1007/6/6
f 1007/6/6 1004/6/6 1008/6/6
f 1005/6/6 1006/6/6 1009/6/6
f 1009/6/6 1006/6/6 1010/6/6
f 1011/3/6 1012/3/6 1017/3/6
f 1017/3/6 1012/3/6 1018/3/6
f 1013/3/6 1014/3/6 1019/3/6
f 1019/3/6 1014/3/6 1020/3/6
f 1015/3/6 1016/3/6 1021/3/6
f 1021/3/6 1016/3/6 1022/3/6
f 1013/3/6 1019/3/6 1024/3/6
f 1020/3/6 1014/3/6 1025/3/6
f 1011/3/6 1017/3/6 1027/3/6
f 1023/3/6 1024/3/6 1028/3/6
f 1025/3/6 1026/3/6 1029/3/6
f 1022/3/6 1016/3/6 1030/3/6
f 1027/3/6 1028/3/6 1031/3/6
f 1024/3/6 1019/3/6 1031/3/6
f 1028/3/6 1024/3/6 1031/3/6
f 1031/3/6 1019/3/6 1032/3/6
f 1025/3/6 1029/3/6 1033/3/6
f 1029/3/6 1030/3/6 1033/3/6
f 1020/3/6 1025/3/6 1033/3/6
f 1033/3/6 1030/3/6 1034/3/6
f 1011/3/6 1027/3/6 1035/3/6
f 1027/3/6 1031/3/6 1035/3/6
f 1035/3/6 1031/3/6 1036/3/6
f 1034/3/6 1030/3/6 1037/3/6
f 1030/3/6 1016/3/6 1038/3/6
f 1037/3/6 1030/3/6 1038/3/6
f 1039/1/6 1040/1/6 1041/1/6
f 1041/1/6 1040/1/6 1042/1/6
f 1043/11/6 1044/11/6 1047/11/6
f 1047/11/6 1044/11/6 1048/11/6
f 1045/11/6 1046/11/6 1049/11/6
f 1049/11/6 1046/11/6 1050/11/6
f 1051/3/6 1052/3/6 1055/3/6
f 1055/3/6 1052/3/6 1056/3/6
f 1053/3/6 1054/3/6 1057/3/6
f 1057/3/6 1054/3/6 1058/3/6
f 1056/3/6 1052/3/6 1059/3/6
f 1059/3/6 1052/3/6 1060/3/6
f 1053/3/6 1057/3/6 1061/3/6
f 1061/3/6 1057/3/6 1062/3/6
f 1063/4/6 1064/4/6 1065/4/6
f 1063/4/6 1065/4/6 1067/4/6
f 1065/4/6 1066/4/6 1067/4/6
f 1067/4/6 1066/4/6 1068/4/6
f 1069/5/6 1070/5/6 1073/5/6
f 1071/5/6 1072/5/6 1076/5/6
f 1076/5/6 1072/5/6 1077/5/6
f 1075/5/6 1076/5/6 1077/5/6
f 1073/5/6 1074/5/6 1079/5/6
f 1069/5/6 1073/5/6 1079/5/6
f 1079/5/6 1074/5/6 1080/5/6
f 1075/5/6 1077/5/6 1081/5/6
f 1081/5/6 1077/5/6 1082/5/6
f 1077/4/6 1078/4/6 1083/4/6
f 1082/5/6 1077/5/6 1083/5/6
f 1082/4/6 1083/4/6 1084/4/6
f 1083/4/6 1078/4/6 1085/4/6
f 1084/4/6 1083/4/6 1085/4/6
f 1086/12/6 1087/12/6 1090/12/6
f 1087/11/6 1088/11/6 1091/11/6
f 1090/12/6 1087/12/6 1091/12/6
f 1088/12/6 1089/12/6 1092/12/6
f 1091/11/6 1088/11/6 1092/11/6
f 1092/12/6 1089/12/6 1093/12/6
f 1094/6/6 1095/6/6 1098/6/6
f 1098/6/6 1095/6/6 1099/6/6
f 1096/6/6 1097/6/6 1100/6/6
f 1100/6/6 1097/6/6 1101/6/6
f 1102/3/6 1103/3/6 1104/3/6
f 1104/3/6 1103/3/6 1105/3/6
f 1106/4/6 1107/4/6 1110/4/6
f 1110/4/6 1107/4/6 1111/4/6
f 1108/4/6 1109/4/6 1112/4/6
f 1112/4/6 1109/4/6 1113/4/6
f 1114/1/6 1115/1/6 1116/1/6
f 1116/1/6 1115/1/6 1117/1/6
f 1114/1/6 1116/1/6 1118/1/6
f 1117/1/6 1115/1/6 1119/1/6
f 1114/1/6 1118/1/6 1120/1/6
f 1118/1/6 1119/1/6 1120/1/6
f 1119/1/6 1115/1/6 1121/1/6
f 1120/1/6 1119/1/6 1121/1/6
f 1122/4/6 1123/4/6 1126/4/6
f 1124/4/6 1125/4/6 1127/4/6
f 1122/4/6 1126/4/6 1128/4/6
f 1126/4/6 1127/4/6 1128/4/6
f 1127/4/6 1125/4/6 1129/4/6
f 1128/4/6 1127/4/6 1129/4/6
f 1130/3/6 1131/3/6 1132/3/6
f 1132/3/6 1131/3/6 1133/3/6
f 1130/3/6 1132/3/6 1134/3/6
f 1133/3/6 1131/3/6 1135/3/6
f 1130/3/6 1134/3/6 1136/3/6
f 1135/3/6 1131/3/6 1137/3/6
f 1130/3/6 1136/3/6 1138/3/6
f 1137/3/6 1131/3/6 1139/3/6
f 1130/3/6 1138/3/6 1140/3/6
f 1138/3/6 1139/3/6 1140/3/6
f 1139/3/6 1131/3/6 1141/3/6
f 1140/3/6 1139/3/6 1141/3/6
f 1142/12/6 1143/12/6 1146/12/6
f 1146/12/6 1143/12/6 1147/12/6
f 1147/12/6 1143/12/6 1148/12/6
f 1144/12/6 1145/12/6 1149/12/6
f 1149/12/6 1145/12/6 1150/12/6
f 1147/4/6 1148/4/6 1151/4/6
f 1151/4/6 1148/4/6 1152/4/6
f 1144/12/6 1149/12/6 1153/12/6
f 1153/12/6 1149/12/6 1154/12/6
f 1142/12/6 1146/12/6 1155/12/6
f 1150/12/6 1145/12/6 1158/12/6
f 1155/12/6 1156/12/6 1159/12/6
f 1142/12/6 1155/12/6 1159/12/6
f 1159/12/6 1156/12/6 1160/12/6
f 1157/12/6 1158/12/6 1161/12/6
f 1158/12/6 1145/12/6 1162/12/6
f 1161/12/6 1158/12/6 1162/12/6
f 1163/11/6 1164/11/6 1167/11/6
f 1165/11/6 1166/11/6 1170/11/6
f 1167/4/6 1168/4/6 1171/4/6
f 1171/4/6 1168/4/6 1172/4/6
f 1172/4/6 1168/4/6 1173/4/6
f 1173/4/6 1168/4/6 1174/4/6
f 1174/4/6 1168/4/6 1175/4/6
f 1169/4/6 1170/4/6 1176/4/6
f 1176/4/6 1170/4/6 1177/4/6
f 1177/4/6 1170/4/6 1178/4/6
f 1178/4/6 1170/4/6 1179/4/6
f 1179/4/6 1170/4/6 1180/4/6
f 1163/11/6 1167/11/6 1181/11/6
f 1167/4/6 1171/4/6 1182/4/6
f 1181/11/6 1167/11/6 1182/11/6
f 1180/4/6 1170/4/6 1183/4/6
f 1170/11/6 1166/11/6 1183/11/6
f 1183/11/6 1166/11/6 1184/11/6
f 1182/4/6 1171/4/6 1185/4/6
f 1180/4/6 1183/4/6 1194/4/6
f 1182/4/6 1185/4/6 1195/4/6
f 1185/4/6 1186/4/6 1195/4/6
f 1186/4/6 1187/4/6 1195/4/6
f 1187/4/6 1188/4/6 1195/4/6
f 1188/4/6 1189/4/6 1195/4/6
f 1195/4/6 1189/4/6 1196/4/6
f 1192/4/6 1193/4/6 1197/4/6
f 1193/4/6 1194/4/6 1197/4/6
f 1191/4/6 1192/4/6 1197/4/6
f 1190/4/6 1191/4/6 1197/4/6
f 1194/4/6 1183/4/6 1198/4/6
f 1197/4/6 1194/4/6 1198/4/6
f 1199/3/6 1200/3/6 1201/3/6
f 1201/3/6 1200/3/6 1202/3/6
f 1199/3/6 1201/3/6 1207/3/6
f 1202/3/6 1200/3/6 1208/3/6
f 1203/11/6 1204/11/6 1213/11/6
f 1204/12/6 1205/12/6 1214/12/6
f 1213/11/6 1204/11/6 1214/11/6
f 1205/11/6 1206/11/6 1215/11/6
f 1214/12/6 1205/12/6 1215/12/6
f 1206/12/6 1207/12/6 1216/12/6
f 1215/11/6 1206/11/6 1216/11/6
f 1207/3/6 1201/3/6 1217/3/6
f 1216/12/6 1207/12/6 1217/12/6
f 1202/3/6 1208/3/6 1218/3/6
f 1208/12/6 1209/12/6 1218/12/6
f 1209/11/6 1210/11/6 1219/11/6
f 1218/12/6 1209/12/6 1219/12/6
f 1210/12/6 1211/12/6 1220/12/6
f 1219/11/6 1210/11/6 1220/11/6
f 1211/11/6 1212/11/6 1221/11/6
f 1220/12/6 1211/12/6 1221/12/6
f 1221/11/6 1212/11/6 1222/11/6
f 1217/3/6 1201/3/6 1223/3/6
f 1202/3/6 1218/3/6 1224/3/6
f 1217/3/6 1223/3/6 1225/3/6
f 1223/3/6 1224/3/6 1225/3/6
f 1224/3/6 1218/3/6 1226/3/6
f 1225/3/6 1224/3/6 1226/3/6
f 1227/11/6 1228/11/6 1229/11/6
f 1229/11/6 1228/11/6 1230/11/6
f 1227/11/6 1229/11/6 1231/11/6
f 1230/11/6 1228/11/6 1232/11/6
f 1227/11/6 1231/11/6 1233/11/6
f 1231/11/6 1232/11/6 1233/11/6
f 1232/11/6 1228/11/6 1234/11/6
f 1233/11/6 1232/11/6 1234/11/6
f 1235/3/6 1236/3/6 1237/3/6
f 1237/3/6 1236/3/6 1238/3/6
