# MagicaVoxel @ Ephtracy

# group
o 

# material
mtllib water_purification_system.mtl
usemtl palette

# normals
vn -1 0 0
vn 1 0 0
vn 0 0 1
vn 0 0 -1
vn 0 -1 0
vn 0 1 0

# texcoords
vt 0.00195312 0.5
vt 0.00585938 0.5
vt 0.00976562 0.5
vt 0.0136719 0.5
vt 0.0175781 0.5
vt 0.0214844 0.5
vt 0.0332031 0.5
vt 0.0371094 0.5
vt 0.0410156 0.5
vt 0.0449219 0.5
vt 0.0488281 0.5
vt 0.0644531 0.5
vt 0.0683594 0.5
vt 0.0722656 0.5
vt 0.0761719 0.5

# verts
v -1.5 0 0.8
v -1.5 0 -0.8
v -1.5 0.2 0.8
v -1.5 0.2 -0.8
v -1.4 0.2 0.8
v -1.4 0.2 0.5
v -1.4 0.2 -0.5
v -1.4 0.2 -0.8
v -1.4 0.3 0.8
v -1.4 0.3 0.7
v -1.4 0.3 0.5
v -1.4 0.3 -0.5
v -1.4 0.3 -0.7
v -1.4 0.3 -0.8
v -1.4 0.4 0.7
v -1.4 0.4 -0.7
v -1.3 0.4 0.6
v -1.3 0.4 -0.2
v -1.3 0.5 0.6
v -1.3 0.5 -0.2
v -1.3 0.7 0.6
v -1.3 0.7 -0.2
v -1.3 0.8 0.4
v -1.3 0.8 -0.2
v -1.3 1.6 0.6
v -1.3 1.6 0.4
v -1.3 1.9 0.6
v -1.3 1.9 5.96046e-08
v -1.3 2.3 0.6
v -1.3 2.3 5.96046e-08
v -1.3 2.5 0.6
v -1.3 2.5 0.5
v -1.3 2.5 5.96046e-08
v -1.3 2.7 0.5
v -1.3 2.7 -0.2
v -1.2 0.7 0.5
v -1.2 0.7 5.96046e-08
v -1.2 0.8 0.4
v -1.2 0.8 5.96046e-08
v -1.2 1.6 0.5
v -1.2 1.6 0.4
v -1.2 1.9 0.5
v -1.2 1.9 5.96046e-08
v -1.2 2.3 0.5
v -1.2 2.3 5.96046e-08
v -1.2 2.7 0.4
v -1.2 2.7 -0.0999999
v -1.2 2.8 0.4
v -1.2 2.8 -0.0999999
v -0.7 0.4 0.5
v -0.7 0.4 5.96046e-08
v -0.7 0.5 0.5
v -0.7 0.5 5.96046e-08
v -0.7 0.7 0.5
v -0.7 0.7 5.96046e-08
v -0.7 0.8 0.4
v -0.7 0.8 0.1
v -0.7 1.6 0.5
v -0.7 1.6 0.4
v -0.7 1.6 0.1
v -0.7 1.6 5.96046e-08
v -0.7 1.9 0.5
v -0.7 1.9 5.96046e-08
v -0.7 2.3 0.5
v -0.7 2.3 0.2
v -0.7 2.3 5.96046e-08
v -0.7 2.5 0.2
v -0.7 2.5 5.96046e-08
v -0.2 0.4 0.5
v -0.2 0.4 5.96046e-08
v -0.2 0.5 0.5
v -0.2 0.5 5.96046e-08
v -0.2 0.7 0.5
v -0.2 0.7 5.96046e-08
v -0.2 0.8 0.4
v -0.2 0.8 0.1
v -0.2 1.6 0.5
v -0.2 1.6 0.4
v -0.2 1.6 0.1
v -0.2 1.6 5.96046e-08
v -0.2 1.9 0.5
v -0.2 1.9 5.96046e-08
v -0.2 2.3 0.5
v -0.2 2.3 5.96046e-08
v 0 0.4 0.7
v 0 0.4 0.6
v 0 0.5 0.7
v 0 0.5 0.6
v 0 0.7 0.8
v 0 0.7 0.7
v 0 0.7 0.6
v 0 0.7 0.5
v 0 1 0.8
v 0 1 0.7
v 0 1 0.5
v 0 1.2 0.7
v 0 1.2 0.5
v 0.1 0.4 0.8
v 0.1 0.4 0.7
v 0.1 0.5 0.7
v 0.1 0.6 0.8
v 0.1 0.6 0.7
v 0.3 0.4 -0.2
v 0.3 0.4 -0.5
v 0.3 0.5 -0.2
v 0.3 0.7 -0.2
v 0.3 0.7 -0.5
v 0.3 2.1 0.5
v 0.3 2.1 -0.5
v 0.3 2.3 0.5
v 0.3 2.3 5.96046e-08
v 0.3 2.3 -0.5
v 0.4 0.4 0.1
v 0.4 0.4 -0.0999999
v 0.4 0.5 0.1
v 0.4 0.5 5.96046e-08
v 0.4 0.6 5.96046e-08
v 0.4 0.6 -0.0999999
v 0.4 0.7 0.2
v 0.4 0.7 -0.4
v 0.4 1.2 0.4
v 0.4 1.2 0.2
v 0.4 2.1 0.4
v 0.4 2.1 -0.4
v 0.6 2.3 0.2
v 0.6 2.3 -0.2
v 0.6 2.5 0.2
v 0.6 2.5 5.96046e-08
v 0.6 2.5 -0.2
v 0.7 2.5 0.1
v 0.7 2.5 5.96046e-08
v 0.7 2.7 0.1
v 0.7 2.7 5.96046e-08
v 0.9 0.4 -0.5
v 0.9 0.4 -0.7
v 0.9 0.6 -0.5
v 0.9 0.6 -0.7
v 1 0.2 0.8
v 1 0.2 0.7
v 1 0.2 -0.7
v 1 0.2 -0.8
v 1 0.3 0.8
v 1 0.3 0.7
v 1 0.3 -0.7
v 1 0.3 -0.8
v 1.4 0.7 0.1
v 1.4 0.7 -0.0999999
v 1.4 2.1 0.1
v 1.4 2.1 -0.0999999
v -1.1 0.8 5.96046e-08
v -1.1 0.8 -0.2
v -1.1 1.6 5.96046e-08
v -1.1 1.6 -0.0999999
v -1.1 1.9 5.96046e-08
v -1.1 1.9 -0.0999999
v -1.1 2.3 5.96046e-08
v -1.1 2.5 5.96046e-08
v -1.1 2.5 -0.2
v -1 0.2 0.8
v -1 0.2 0.7
v -1 0.2 -0.7
v -1 0.2 -0.8
v -1 0.3 0.8
v -1 0.3 0.7
v -1 0.3 -0.7
v -1 0.3 -0.8
v -0.8 0.4 0.5
v -0.8 0.4 5.96046e-08
v -0.8 0.5 0.5
v -0.8 0.5 5.96046e-08
v -0.8 0.7 0.5
v -0.8 0.7 5.96046e-08
v -0.8 0.8 0.4
v -0.8 0.8 0.1
v -0.8 1.6 0.5
v -0.8 1.6 0.4
v -0.8 1.6 0.1
v -0.8 1.6 5.96046e-08
v -0.8 1.9 0.5
v -0.8 1.9 5.96046e-08
v -0.8 2.3 0.5
v -0.8 2.3 0.2
v -0.8 2.3 5.96046e-08
v -0.8 2.5 0.2
v -0.8 2.5 5.96046e-08
v -0.3 0.4 0.5
v -0.3 0.4 5.96046e-08
v -0.3 0.5 0.5
v -0.3 0.5 5.96046e-08
v -0.3 0.7 0.5
v -0.3 0.7 5.96046e-08
v -0.3 0.8 0.4
v -0.3 0.8 0.1
v -0.3 1.6 0.5
v -0.3 1.6 0.4
v -0.3 1.6 0.1
v -0.3 1.6 5.96046e-08
v -0.3 1.9 0.5
v -0.3 1.9 5.96046e-08
v -0.3 2.3 0.5
v -0.3 2.3 5.96046e-08
v 0.2 0.7 0.2
v 0.2 0.7 5.96046e-08
v 0.2 0.8 0.2
v 0.2 0.8 0.1
v 0.2 1.2 0.5
v 0.2 1.2 0.4
v 0.2 1.6 0.5
v 0.2 1.6 0.4
v 0.2 1.6 0.1
v 0.2 1.6 5.96046e-08
v 0.2 1.9 0.5
v 0.2 1.9 5.96046e-08
v 0.2 2.3 0.5
v 0.2 2.3 5.96046e-08
v 0.2 2.7 0.4
v 0.2 2.7 -0.0999999
v 0.2 2.8 0.4
v 0.2 2.8 -0.0999999
v 0.3 0.4 0.1
v 0.3 0.4 -0.0999999
v 0.3 0.5 0.1
v 0.3 0.5 5.96046e-08
v 0.3 0.5 -0.0999999
v 0.3 0.6 5.96046e-08
v 0.3 0.6 -0.0999999
v 0.3 0.8 0.2
v 0.3 0.8 0.1
v 0.3 1.2 0.4
v 0.3 1.2 0.2
v 0.3 1.6 0.6
v 0.3 1.6 0.4
v 0.3 1.6 0.1
v 0.3 1.6 -0.0999999
v 0.3 1.9 0.6
v 0.3 1.9 -0.0999999
v 0.3 2.3 0.6
v 0.3 2.3 0.5
v 0.3 2.3 5.96046e-08
v 0.3 2.5 0.6
v 0.3 2.5 0.5
v 0.3 2.5 5.96046e-08
v 0.3 2.7 0.5
v 0.3 2.7 5.96046e-08
v 0.5 0.4 0.8
v 0.5 0.4 0.7
v 0.5 0.5 0.7
v 0.5 0.6 0.8
v 0.5 0.6 0.7
v 0.6 0.4 0.7
v 0.6 0.4 0.5
v 0.6 0.5 0.7
v 0.6 0.5 0.5
v 0.6 0.7 0.8
v 0.6 0.7 0.7
v 0.6 0.7 0.5
v 0.6 0.7 0.4
v 0.6 1 0.8
v 0.6 1 0.7
v 0.6 1 0.4
v 0.6 1.2 0.7
v 0.6 1.2 0.4
v 0.9 2.5 0.1
v 0.9 2.5 5.96046e-08
v 0.9 2.7 0.1
v 0.9 2.7 5.96046e-08
v 1 2.3 0.2
v 1 2.3 5.96046e-08
v 1 2.4 5.96046e-08
v 1 2.5 0.2
v 1 2.5 5.96046e-08
v 1.1 2.3 5.96046e-08
v 1.1 2.3 -0.2
v 1.1 2.4 5.96046e-08
v 1.1 2.4 -0.2
v 1.1 2.7 5.96046e-08
v 1.1 2.7 -0.2
v 1.2 0.7 0.4
v 1.2 0.7 -0.4
v 1.2 2.1 0.4
v 1.2 2.1 -0.4
v 1.3 0.4 0.5
v 1.3 0.4 0.1
v 1.3 0.4 -0.0999999
v 1.3 0.4 -0.2
v 1.3 0.6 -0.2
v 1.3 0.6 -0.5
v 1.3 0.7 0.5
v 1.3 0.7 0.1
v 1.3 0.7 -0.0999999
v 1.3 0.7 -0.5
v 1.3 2.1 0.5
v 1.3 2.1 0.1
v 1.3 2.1 -0.0999999
v 1.3 2.1 -0.5
v 1.3 2.3 0.5
v 1.3 2.3 0.1
v 1.3 2.3 -0.0999999
v 1.3 2.3 -0.5
v 1.4 0.2 0.8
v 1.4 0.2 0.5
v 1.4 0.2 -0.2
v 1.4 0.2 -0.7
v 1.4 0.2 -0.8
v 1.4 0.3 0.8
v 1.4 0.3 0.7
v 1.4 0.3 0.5
v 1.4 0.3 -0.7
v 1.4 0.3 -0.8
v 1.4 0.4 0.7
v 1.4 0.4 0.1
v 1.4 0.4 -0.0999999
v 1.4 0.4 -0.2
v 1.4 0.6 -0.2
v 1.4 0.6 -0.7
v 1.5 0 0.8
v 1.5 0 -0.8
v 1.5 0.2 0.8
v 1.5 0.2 -0.8
v 1.6 0.4 0.1
v 1.6 0.4 -0.0999999
v 1.6 2.3 0.1
v 1.6 2.3 -0.0999999
v -1.5 0 0.8
v -1.5 0.2 0.8
v -1.4 0.1 0.8
v -1.4 0.2 0.8
v -1.4 0.3 0.8
v -1 0.1 0.8
v -1 0.2 0.8
v -1 0.3 0.8
v 0 0.7 0.8
v 0 1 0.8
v 0.1 0.4 0.8
v 0.1 0.6 0.8
v 0.1 0.8 0.8
v 0.1 0.9 0.8
v 0.2 0.8 0.8
v 0.2 0.9 0.8
v 0.3 0.8 0.8
v 0.3 0.9 0.8
v 0.4 0.8 0.8
v 0.4 0.9 0.8
v 0.5 0.4 0.8
v 0.5 0.6 0.8
v 0.5 0.8 0.8
v 0.5 0.9 0.8
v 0.6 0.7 0.8
v 0.6 1 0.8
v 1 0.1 0.8
v 1 0.2 0.8
v 1 0.3 0.8
v 1.4 0.1 0.8
v 1.4 0.2 0.8
v 1.4 0.3 0.8
v 1.5 0 0.8
v 1.5 0.2 0.8
v -1.4 0.3 0.7
v -1.4 0.4 0.7
v -1 0.2 0.7
v -1 0.3 0.7
v 0 0.4 0.7
v 0 0.5 0.7
v 0 0.7 0.7
v 0 1 0.7
v 0 1.2 0.7
v 0.1 0.4 0.7
v 0.1 0.5 0.7
v 0.1 0.6 0.7
v 0.1 0.7 0.7
v 0.5 0.4 0.7
v 0.5 0.5 0.7
v 0.5 0.6 0.7
v 0.5 0.7 0.7
v 0.6 0.4 0.7
v 0.6 0.5 0.7
v 0.6 0.7 0.7
v 0.6 1 0.7
v 0.6 1.2 0.7
v 1 0.2 0.7
v 1 0.3 0.7
v 1.4 0.3 0.7
v 1.4 0.4 0.7
v -1.3 0.4 0.6
v -1.3 0.5 0.6
v -1.3 0.7 0.6
v -1.3 1.6 0.6
v -1.3 1.9 0.6
v -1.3 2.3 0.6
v -1.3 2.5 0.6
v 0 0.4 0.6
v 0 0.5 0.6
v 0 0.7 0.6
v 0.3 1.6 0.6
v 0.3 1.9 0.6
v 0.3 2.3 0.6
v 0.3 2.5 0.6
v -1.3 2.5 0.5
v -1.3 2.7 0.5
v -1.2 0.7 0.5
v -1.2 1.6 0.5
v -1.2 1.9 0.5
v -1.2 2.3 0.5
v -1.2 2.5 0.5
v -1.2 2.6 0.5
v -0.8 0.7 0.5
v -0.8 1.6 0.5
v -0.8 1.9 0.5
v -0.8 2.3 0.5
v -0.8 2.5 0.5
v -0.8 2.6 0.5
v -0.7 0.7 0.5
v -0.7 1.6 0.5
v -0.7 1.9 0.5
v -0.7 2.3 0.5
v -0.7 2.5 0.5
v -0.7 2.6 0.5
v -0.3 0.7 0.5
v -0.3 1.6 0.5
v -0.3 1.9 0.5
v -0.3 2.3 0.5
v -0.3 2.5 0.5
v -0.3 2.6 0.5
v -0.2 0.7 0.5
v -0.2 1.6 0.5
v -0.2 1.9 0.5
v -0.2 2.3 0.5
v -0.2 2.5 0.5
v -0.2 2.6 0.5
v 0 0.7 0.5
v 0 1 0.5
v 0 1.2 0.5
v 0.2 1.2 0.5
v 0.2 1.6 0.5
v 0.2 1.9 0.5
v 0.2 2.3 0.5
v 0.2 2.5 0.5
v 0.2 2.6 0.5
v 0.3 2.1 0.5
v 0.3 2.3 0.5
v 0.3 2.5 0.5
v 0.3 2.7 0.5
v 0.6 0.4 0.5
v 0.6 0.5 0.5
v 0.6 0.7 0.5
v 1.3 0.4 0.5
v 1.3 0.7 0.5
v 1.3 2.1 0.5
v 1.3 2.3 0.5
v -1.3 0.8 0.4
v -1.3 1.6 0.4
v -1.2 0.8 0.4
v -1.2 1.6 0.4
v -1.2 2.7 0.4
v -1.2 2.8 0.4
v -0.8 0.8 0.4
v -0.8 1.6 0.4
v -0.7 0.8 0.4
v -0.7 1.6 0.4
v -0.3 0.8 0.4
v -0.3 1.6 0.4
v -0.2 0.8 0.4
v -0.2 1.6 0.4
v 0.2 1.2 0.4
v 0.2 1.6 0.4
v 0.2 2.7 0.4
v 0.2 2.8 0.4
v 0.3 1.2 0.4
v 0.3 1.6 0.4
v 0.4 1.2 0.4
v 0.4 2.1 0.4
v 0.6 0.7 0.4
v 0.6 1 0.4
v 0.6 1.2 0.4
v 1.2 0.7 0.4
v 1.2 2.1 0.4
v 0.6 2.3 0.2
v 0.6 2.5 0.2
v 1 2.3 0.2
v 1 2.5 0.2
v 0.7 2.5 0.1
v 0.7 2.7 0.1
v 0.9 2.5 0.1
v 0.9 2.7 0.1
v 1.3 0.4 0.1
v 1.3 0.7 0.1
v 1.3 2.1 0.1
v 1.3 2.3 0.1
v 1.4 0.4 0.1
v 1.4 0.7 0.1
v 1.4 2.1 0.1
v 1.6 0.4 0.1
v 1.6 2.3 0.1
v -1.3 1.9 5.96046e-08
v -1.3 2.3 5.96046e-08
v -1.2 1.9 5.96046e-08
v -1.2 2.3 5.96046e-08
v -0.8 0.4 5.96046e-08
v -0.8 0.5 5.96046e-08
v -0.8 0.7 5.96046e-08
v -0.7 0.4 5.96046e-08
v -0.7 0.5 5.96046e-08
v -0.7 0.7 5.96046e-08
v -0.3 0.4 5.96046e-08
v -0.3 0.5 5.96046e-08
v -0.3 0.7 5.96046e-08
v -0.2 0.4 5.96046e-08
v -0.2 0.5 5.96046e-08
v -0.2 0.7 5.96046e-08
v 0.3 2.5 5.96046e-08
v 0.3 2.7 5.96046e-08
v 0.6 2.5 5.96046e-08
v 0.7 2.5 5.96046e-08
v 0.7 2.7 5.96046e-08
v 0.9 2.5 5.96046e-08
v 0.9 2.7 5.96046e-08
v 1 2.3 5.96046e-08
v 1 2.4 5.96046e-08
v 1 2.5 5.96046e-08
v 1.1 2.3 5.96046e-08
v 1.1 2.4 5.96046e-08
v 1.1 2.7 5.96046e-08
v 0.3 0.4 -0.0999999
v 0.3 0.5 -0.0999999
v 0.3 0.6 -0.0999999
v 0.4 0.4 -0.0999999
v 0.4 0.6 -0.0999999
v 1.3 0.4 -0.2
v 1.3 0.6 -0.2
v 1.4 0.4 -0.2
v 1.4 0.6 -0.2
v -0.8 0.4 0.5
v -0.8 0.5 0.5
v -0.8 0.7 0.5
v -0.7 0.4 0.5
v -0.7 0.5 0.5
v -0.7 0.7 0.5
v -0.3 0.4 0.5
v -0.3 0.5 0.5
v -0.3 0.7 0.5
v -0.2 0.4 0.5
v -0.2 0.5 0.5
v -0.2 0.7 0.5
v -0.8 2.3 0.2
v -0.8 2.5 0.2
v -0.7 2.3 0.2
v -0.7 2.5 0.2
v 0.2 0.7 0.2
v 0.2 0.8 0.2
v 0.3 0.8 0.2
v 0.3 1.2 0.2
v 0.4 0.7 0.2
v 0.4 1.2 0.2
v -0.8 0.8 0.1
v -0.8 1.6 0.1
v -0.7 0.8 0.1
v -0.7 1.6 0.1
v -0.3 0.8 0.1
v -0.3 1.6 0.1
v -0.2 0.8 0.1
v -0.2 1.6 0.1
v 0.2 0.8 0.1
v 0.2 1.6 0.1
v 0.3 0.4 0.1
v 0.3 0.5 0.1
v 0.3 0.8 0.1
v 0.3 1.6 0.1
v 0.4 0.4 0.1
v 0.4 0.5 0.1
v -1.2 0.7 5.96046e-08
v -1.2 0.8 5.96046e-08
v -1.1 0.8 5.96046e-08
v -1.1 1.6 5.96046e-08
v -1.1 1.9 5.96046e-08
v -1.1 2.3 5.96046e-08
v -1.1 2.5 5.96046e-08
v -0.8 0.7 5.96046e-08
v -0.8 1.6 5.96046e-08
v -0.8 1.9 5.96046e-08
v -0.8 2.3 5.96046e-08
v -0.8 2.5 5.96046e-08
v -0.7 0.7 5.96046e-08
v -0.7 1.6 5.96046e-08
v -0.7 1.9 5.96046e-08
v -0.7 2.3 5.96046e-08
v -0.7 2.5 5.96046e-08
v -0.3 0.7 5.96046e-08
v -0.3 1.6 5.96046e-08
v -0.3 1.9 5.96046e-08
v -0.3 2.3 5.96046e-08
v -0.2 0.7 5.96046e-08
v -0.2 1.6 5.96046e-08
v -0.2 1.9 5.96046e-08
v -0.2 2.3 5.96046e-08
v 0.2 0.7 5.96046e-08
v 0.2 1.6 5.96046e-08
v 0.2 1.9 5.96046e-08
v 0.2 2.3 5.96046e-08
v 0.3 0.5 5.96046e-08
v 0.3 0.6 5.96046e-08
v 0.3 2.3 5.96046e-08
v 0.3 2.5 5.96046e-08
v 0.4 0.5 5.96046e-08
v 0.4 0.6 5.96046e-08
v -1.2 2.7 -0.0999999
v -1.2 2.8 -0.0999999
v -1.1 1.6 -0.0999999
v -1.1 1.9 -0.0999999
v 0.2 2.7 -0.0999999
v 0.2 2.8 -0.0999999
v 0.3 1.6 -0.0999999
v 0.3 1.9 -0.0999999
v 1.3 0.4 -0.0999999
v 1.3 0.7 -0.0999999
v 1.3 2.1 -0.0999999
v 1.3 2.3 -0.0999999
v 1.4 0.4 -0.0999999
v 1.4 0.7 -0.0999999
v 1.4 2.1 -0.0999999
v 1.6 0.4 -0.0999999
v 1.6 2.3 -0.0999999
v -1.3 0.4 -0.2
v -1.3 0.5 -0.2
v -1.3 0.7 -0.2
v -1.3 0.8 -0.2
v -1.3 2.7 -0.2
v -1.1 0.8 -0.2
v -1.1 2.5 -0.2
v 0.3 0.4 -0.2
v 0.3 0.5 -0.2
v 0.3 0.7 -0.2
v 0.6 2.3 -0.2
v 0.6 2.5 -0.2
v 0.8 2.5 -0.2
v 0.8 2.7 -0.2
v 1 2.3 -0.2
v 1 2.4 -0.2
v 1 2.5 -0.2
v 1.1 2.3 -0.2
v 1.1 2.4 -0.2
v 1.1 2.7 -0.2
v 0.4 0.7 -0.4
v 0.4 2.1 -0.4
v 1.2 0.7 -0.4
v 1.2 2.1 -0.4
v 0.3 0.4 -0.5
v 0.3 0.7 -0.5
v 0.3 2.1 -0.5
v 0.3 2.3 -0.5
v 0.9 0.4 -0.5
v 0.9 0.6 -0.5
v 1.3 0.6 -0.5
v 1.3 0.7 -0.5
v 1.3 2.1 -0.5
v 1.3 2.3 -0.5
v -1.4 0.3 -0.7
v -1.4 0.4 -0.7
v -1 0.2 -0.7
v -1 0.3 -0.7
v 0.9 0.2 -0.7
v 0.9 0.4 -0.7
v 0.9 0.6 -0.7
v 1 0.2 -0.7
v 1 0.3 -0.7
v 1.4 0.3 -0.7
v 1.4 0.6 -0.7
v -1.5 0 -0.8
v -1.5 0.2 -0.8
v -1.4 0.1 -0.8
v -1.4 0.2 -0.8
v -1.4 0.3 -0.8
v -1 0.1 -0.8
v -1 0.2 -0.8
v -1 0.3 -0.8
v 1 0.1 -0.8
v 1 0.2 -0.8
v 1 0.3 -0.8
v 1.4 0.1 -0.8
v 1.4 0.2 -0.8
v 1.4 0.3 -0.8
v 1.5 0 -0.8
v 1.5 0.2 -0.8
v -1.5 0 0.8
v 1.5 0 0.8
v -1.5 0 -0.8
v 1.5 0 -0.8
v 0.1 0.4 0.8
v 0.5 0.4 0.8
v 0.1 0.4 0.7
v 0.5 0.4 0.7
v 1.4 0.4 0.1
v 1.6 0.4 0.1
v 1.4 0.4 -0.0999999
v 1.6 0.4 -0.0999999
v 0.3 0.5 0.1
v 0.4 0.5 0.1
v 0.3 0.5 5.96046e-08
v 0.4 0.5 5.96046e-08
v 0.3 0.6 5.96046e-08
v 0.4 0.6 5.96046e-08
v 0.3 0.6 -0.0999999
v 0.4 0.6 -0.0999999
v 0 0.7 0.8
v 0.6 0.7 0.8
v 0 0.7 0.7
v 0.1 0.7 0.7
v 0.5 0.7 0.7
v 0.6 0.7 0.7
v -1.3 0.8 0.4
v -1.2 0.8 0.4
v -0.8 0.8 0.4
v -0.7 0.8 0.4
v -0.3 0.8 0.4
v -0.2 0.8 0.4
v 0.2 0.8 0.2
v 0.3 0.8 0.2
v -0.8 0.8 0.1
v -0.7 0.8 0.1
v -0.3 0.8 0.1
v -0.2 0.8 0.1
v 0.2 0.8 0.1
v 0.3 0.8 0.1
v -1.2 0.8 5.96046e-08
v -1.1 0.8 5.96046e-08
v -1.3 0.8 -0.2
v -1.1 0.8 -0.2
v -1.3 1.6 0.6
v 0.3 1.6 0.6
v -1.2 1.6 0.5
v -0.8 1.6 0.5
v -0.7 1.6 0.5
v -0.3 1.6 0.5
v -0.2 1.6 0.5
v 0.2 1.6 0.5
v -1.3 1.6 0.4
v -1.2 1.6 0.4
v -0.8 1.6 0.4
v -0.7 1.6 0.4
v -0.3 1.6 0.4
v -0.2 1.6 0.4
v 0.2 1.6 0.4
v 0.3 1.6 0.4
v -0.8 1.6 0.1
v -0.7 1.6 0.1
v -0.3 1.6 0.1
v -0.2 1.6 0.1
v 0.2 1.6 0.1
v 0.3 1.6 0.1
v -1.1 1.6 5.96046e-08
v -0.8 1.6 5.96046e-08
v -0.7 1.6 5.96046e-08
v -0.3 1.6 5.96046e-08
v -0.2 1.6 5.96046e-08
v 0.2 1.6 5.96046e-08
v -1.1 1.6 -0.0999999
v 0.3 1.6 -0.0999999
v 0.3 2.1 0.5
v 1.3 2.1 0.5
v 0.4 2.1 0.4
v 1.2 2.1 0.4
v 1.3 2.1 0.1
v 1.4 2.1 0.1
v 1.3 2.1 -0.0999999
v 1.4 2.1 -0.0999999
v 0.4 2.1 -0.4
v 1.2 2.1 -0.4
v 0.3 2.1 -0.5
v 1.3 2.1 -0.5
v -1.3 2.3 0.6
v 0.3 2.3 0.6
v -1.2 2.3 0.5
v -0.8 2.3 0.5
v -0.7 2.3 0.5
v -0.3 2.3 0.5
v -0.2 2.3 0.5
v 0.2 2.3 0.5
v 0.3 2.3 0.5
v -0.8 2.3 0.2
v -0.7 2.3 0.2
v -1.3 2.3 5.96046e-08
v -1.2 2.3 5.96046e-08
v -0.3 2.3 5.96046e-08
v -0.2 2.3 5.96046e-08
v 0.2 2.3 5.96046e-08
v 0.3 2.3 5.96046e-08
v -0.8 2.5 0.2
v -0.7 2.5 0.2
v -1.1 2.5 5.96046e-08
v -0.8 2.5 5.96046e-08
v -0.7 2.5 5.96046e-08
v 0.3 2.5 5.96046e-08
v 0.6 2.5 5.96046e-08
v -1.1 2.5 -0.2
v 0.6 2.5 -0.2
v -1.5 0.2 0.8
v -1.4 0.2 0.8
v -1 0.2 0.8
v 1 0.2 0.8
v 1.4 0.2 0.8
v 1.5 0.2 0.8
v -1 0.2 0.7
v 1 0.2 0.7
v -1.4 0.2 0.5
v 1.4 0.2 0.5
v 1.4 0.2 -0.2
v -1.4 0.2 -0.5
v -1 0.2 -0.7
v 0.9 0.2 -0.7
v 1 0.2 -0.7
v 1.4 0.2 -0.7
v -1.5 0.2 -0.8
v -1.4 0.2 -0.8
v -1 0.2 -0.8
v 1 0.2 -0.8
v 1.4 0.2 -0.8
v 1.5 0.2 -0.8
v -1.4 0.3 0.8
v -1 0.3 0.8
v 1 0.3 0.8
v 1.4 0.3 0.8
v -1.4 0.3 0.7
v -1 0.3 0.7
v 1 0.3 0.7
v 1.4 0.3 0.7
v -1.4 0.3 -0.7
v -1 0.3 -0.7
v 1 0.3 -0.7
v 1.4 0.3 -0.7
v -1.4 0.3 -0.8
v -1 0.3 -0.8
v 1 0.3 -0.8
v 1.4 0.3 -0.8
v -1.4 0.4 0.7
v 0 0.4 0.7
v 0.6 0.4 0.7
v 1.4 0.4 0.7
v -1.3 0.4 0.6
v 0 0.4 0.6
v -0.8 0.4 0.5
v -0.7 0.4 0.5
v -0.3 0.4 0.5
v -0.2 0.4 0.5
v 0.6 0.4 0.5
v 1.3 0.4 0.5
v 0.3 0.4 0.1
v 0.4 0.4 0.1
v 1.3 0.4 0.1
v 1.4 0.4 0.1
v -0.8 0.4 5.96046e-08
v -0.7 0.4 5.96046e-08
v -0.3 0.4 5.96046e-08
v -0.2 0.4 5.96046e-08
v 0.3 0.4 -0.0999999
v 0.4 0.4 -0.0999999
v 1.3 0.4 -0.0999999
v 1.4 0.4 -0.0999999
v -1.3 0.4 -0.2
v 0.3 0.4 -0.2
v 1.3 0.4 -0.2
v 1.4 0.4 -0.2
v 0.3 0.4 -0.5
v 0.9 0.4 -0.5
v -1.4 0.4 -0.7
v 0.9 0.4 -0.7
v 0.1 0.6 0.8
v 0.5 0.6 0.8
v 0.1 0.6 0.7
v 0.5 0.6 0.7
v 1.3 0.6 -0.2
v 1.4 0.6 -0.2
v 0.9 0.6 -0.5
v 1.3 0.6 -0.5
v 0.9 0.6 -0.7
v 1.4 0.6 -0.7
v -1.3 0.7 0.6
v 0 0.7 0.6
v -1.2 0.7 0.5
v -0.8 0.7 0.5
v -0.7 0.7 0.5
v -0.3 0.7 0.5
v -0.2 0.7 0.5
v 0 0.7 0.5
v 0.6 0.7 0.5
v 1.3 0.7 0.5
v 0.6 0.7 0.4
v 1.2 0.7 0.4
v 0.2 0.7 0.2
v 0.4 0.7 0.2
v 1.3 0.7 0.1
v 1.4 0.7 0.1
v -1.2 0.7 5.96046e-08
v -0.8 0.7 5.96046e-08
v -0.7 0.7 5.96046e-08
v -0.3 0.7 5.96046e-08
v -0.2 0.7 5.96046e-08
v 0.2 0.7 5.96046e-08
v 1.3 0.7 -0.0999999
v 1.4 0.7 -0.0999999
v -1.3 0.7 -0.2
v 0.3 0.7 -0.2
v 0.4 0.7 -0.4
v 1.2 0.7 -0.4
v 0.3 0.7 -0.5
v 1.3 0.7 -0.5
v 0 1 0.8
v 0.6 1 0.8
v 0 1 0.7
v 0.6 1 0.7
v 0 1.2 0.7
v 0.6 1.2 0.7
v 0 1.2 0.5
v 0.2 1.2 0.5
v 0.2 1.2 0.4
v 0.3 1.2 0.4
v 0.4 1.2 0.4
v 0.6 1.2 0.4
v 0.3 1.2 0.2
v 0.4 1.2 0.2
v -1.3 1.9 0.6
v 0.3 1.9 0.6
v -1.2 1.9 0.5
v -0.8 1.9 0.5
v -0.7 1.9 0.5
v -0.3 1.9 0.5
v -0.2 1.9 0.5
v 0.2 1.9 0.5
v -1.3 1.9 5.96046e-08
v -1.2 1.9 5.96046e-08
v -1.1 1.9 5.96046e-08
v -0.8 1.9 5.96046e-08
v -0.7 1.9 5.96046e-08
v -0.3 1.9 5.96046e-08
v -0.2 1.9 5.96046e-08
v 0.2 1.9 5.96046e-08
v -1.1 1.9 -0.0999999
v 0.3 1.9 -0.0999999
v 0.3 2.3 0.5
v 1.3 2.3 0.5
v 0.6 2.3 0.2
v 1 2.3 0.2
v 1.3 2.3 0.1
v 1.6 2.3 0.1
v 0.3 2.3 5.96046e-08
v 1 2.3 5.96046e-08
v 1.1 2.3 5.96046e-08
v 1.3 2.3 -0.0999999
v 1.6 2.3 -0.0999999
v 0.6 2.3 -0.2
v 1 2.3 -0.2
v 1.1 2.3 -0.2
v 0.3 2.3 -0.5
v 1.3 2.3 -0.5
v -1.3 2.5 0.6
v 0.3 2.5 0.6
v -1.3 2.5 0.5
v -1.2 2.5 0.5
v -0.8 2.5 0.5
v -0.7 2.5 0.5
v -0.3 2.5 0.5
v -0.2 2.5 0.5
v 0.2 2.5 0.5
v 0.3 2.5 0.5
v 0.6 2.5 0.2
v 1 2.5 0.2
v 0.7 2.5 0.1
v 0.9 2.5 0.1
v 0.6 2.5 5.96046e-08
v 0.7 2.5 5.96046e-08
v 0.9 2.5 5.96046e-08
v 1 2.5 5.96046e-08
v -1.3 2.7 0.5
v 0.3 2.7 0.5
v -1.2 2.7 0.4
v 0.2 2.7 0.4
v 0.7 2.7 0.1
v 0.9 2.7 0.1
v 0.3 2.7 5.96046e-08
v 0.7 2.7 5.96046e-08
v 0.9 2.7 5.96046e-08
v 1.1 2.7 5.96046e-08
v -1.2 2.7 -0.0999999
v 0.2 2.7 -0.0999999
v 0.7 2.7 -0.0999999
v 0.8 2.7 -0.0999999
v 0.9 2.7 -0.0999999
v -1.3 2.7 -0.2
v 0.8 2.7 -0.2
v 1.1 2.7 -0.2
v -1.2 2.8 0.4
v 0.2 2.8 0.4
v -1.2 2.8 -0.0999999
v 0.2 2.8 -0.0999999

# faces
f 3/4/1 2/4/1 1/4/1
f 4/4/1 2/4/1 3/4/1
f 9/6/1 6/6/1 5/6/1
f 10/6/1 6/6/1 9/6/1
f 11/3/1 7/3/1 6/3/1
f 11/6/1 6/6/1 10/6/1
f 12/6/1 8/6/1 7/6/1
f 12/3/1 7/3/1 11/3/1
f 13/6/1 8/6/1 12/6/1
f 14/6/1 8/6/1 13/6/1
f 15/3/1 11/3/1 10/3/1
f 15/3/1 13/3/1 12/3/1
f 15/3/1 12/3/1 11/3/1
f 16/3/1 13/3/1 15/3/1
f 19/1/1 18/1/1 17/1/1
f 20/1/1 18/1/1 19/1/1
f 21/4/1 20/4/1 19/4/1
f 22/4/1 20/4/1 21/4/1
f 26/4/1 24/4/1 23/4/1
f 27/4/1 26/4/1 25/4/1
f 28/4/1 24/4/1 26/4/1
f 28/4/1 26/4/1 27/4/1
f 30/4/1 24/4/1 28/4/1
f 31/3/1 30/3/1 29/3/1
f 32/3/1 30/3/1 31/3/1
f 33/4/1 24/4/1 30/4/1
f 33/3/1 30/3/1 32/3/1
f 34/4/1 33/4/1 32/4/1
f 35/4/1 24/4/1 33/4/1
f 35/4/1 33/4/1 34/4/1
f 38/8/1 37/8/1 36/8/1
f 39/8/1 37/8/1 38/8/1
f 40/8/1 38/8/1 36/8/1
f 41/8/1 38/8/1 40/8/1
f 44/8/1 43/8/1 42/8/1
f 45/8/1 43/8/1 44/8/1
f 48/4/1 47/4/1 46/4/1
f 49/4/1 47/4/1 48/4/1
f 52/1/1 51/1/1 50/1/1
f 53/1/1 51/1/1 52/1/1
f 54/4/1 53/4/1 52/4/1
f 55/4/1 53/4/1 54/4/1
f 56/8/1 55/8/1 54/8/1
f 57/8/1 55/8/1 56/8/1
f 58/8/1 56/8/1 54/8/1
f 59/8/1 56/8/1 58/8/1
f 60/8/1 55/8/1 57/8/1
f 61/8/1 55/8/1 60/8/1
f 64/8/1 63/8/1 62/8/1
f 65/8/1 63/8/1 64/8/1
f 66/8/1 63/8/1 65/8/1
f 67/3/1 66/3/1 65/3/1
f 68/3/1 66/3/1 67/3/1
f 71/1/1 70/1/1 69/1/1
f 72/1/1 70/1/1 71/1/1
f 73/4/1 72/4/1 71/4/1
f 74/4/1 72/4/1 73/4/1
f 75/8/1 74/8/1 73/8/1
f 76/8/1 74/8/1 75/8/1
f 77/8/1 75/8/1 73/8/1
f 78/8/1 75/8/1 77/8/1
f 79/8/1 74/8/1 76/8/1
f 80/8/1 74/8/1 79/8/1
f 83/8/1 82/8/1 81/8/1
f 84/8/1 82/8/1 83/8/1
f 87/1/1 86/1/1 85/1/1
f 88/1/1 86/1/1 87/1/1
f 90/6/1 88/6/1 87/6/1
f 91/6/1 88/6/1 90/6/1
f 93/3/1 90/3/1 89/3/1
f 94/6/1 91/6/1 90/6/1
f 94/3/1 90/3/1 93/3/1
f 94/6/1 92/6/1 91/6/1
f 95/6/1 92/6/1 94/6/1
f 96/1/1 95/1/1 94/1/1
f 97/1/1 95/1/1 96/1/1
f 100/5/1 99/5/1 98/5/1
f 101/5/1 100/5/1 98/5/1
f 102/5/1 100/5/1 101/5/1
f 105/4/1 104/4/1 103/4/1
f 106/4/1 104/4/1 105/4/1
f 107/4/1 104/4/1 106/4/1
f 110/3/1 109/3/1 108/3/1
f 111/3/1 109/3/1 110/3/1
f 112/3/1 109/3/1 111/3/1
f 115/8/1 114/8/1 113/8/1
f 116/8/1 114/8/1 115/8/1
f 117/8/1 114/8/1 116/8/1
f 118/8/1 114/8/1 117/8/1
f 122/8/1 120/8/1 119/8/1
f 123/8/1 122/8/1 121/8/1
f 124/8/1 120/8/1 122/8/1
f 124/8/1 122/8/1 123/8/1
f 127/3/1 126/3/1 125/3/1
f 128/3/1 126/3/1 127/3/1
f 129/3/1 126/3/1 128/3/1
f 132/5/1 131/5/1 130/5/1
f 133/5/1 131/5/1 132/5/1
f 136/1/1 135/1/1 134/1/1
f 137/1/1 135/1/1 136/1/1
f 142/6/1 139/6/1 138/6/1
f 143/6/1 139/6/1 142/6/1
f 144/6/1 141/6/1 140/6/1
f 145/6/1 141/6/1 144/6/1
f 148/4/1 147/4/1 146/4/1
f 149/4/1 147/4/1 148/4/1
f 150/4/2 151/4/2 152/4/2
f 152/4/2 151/4/2 153/4/2
f 153/4/2 151/4/2 155/4/2
f 154/4/2 155/4/2 156/4/2
f 156/4/2 155/4/2 157/4/2
f 155/4/2 151/4/2 158/4/2
f 157/4/2 155/4/2 158/4/2
f 159/6/2 160/6/2 163/6/2
f 163/6/2 160/6/2 164/6/2
f 161/6/2 162/6/2 165/6/2
f 165/6/2 162/6/2 166/6/2
f 167/1/2 168/1/2 169/1/2
f 169/1/2 168/1/2 170/1/2
f 169/4/2 170/4/2 171/4/2
f 171/4/2 170/4/2 172/4/2
f 171/8/2 172/8/2 173/8/2
f 173/8/2 172/8/2 174/8/2
f 171/8/2 173/8/2 175/8/2
f 175/8/2 173/8/2 176/8/2
f 174/8/2 172/8/2 177/8/2
f 177/8/2 172/8/2 178/8/2
f 179/8/2 180/8/2 181/8/2
f 181/8/2 180/8/2 182/8/2
f 182/8/2 180/8/2 183/8/2
f 182/3/2 183/3/2 184/3/2
f 184/3/2 183/3/2 185/3/2
f 186/1/2 187/1/2 188/1/2
f 188/1/2 187/1/2 189/1/2
f 188/4/2 189/4/2 190/4/2
f 190/4/2 189/4/2 191/4/2
f 190/8/2 191/8/2 192/8/2
f 192/8/2 191/8/2 193/8/2
f 190/8/2 192/8/2 194/8/2
f 194/8/2 192/8/2 195/8/2
f 193/8/2 191/8/2 196/8/2
f 196/8/2 191/8/2 197/8/2
f 198/8/2 199/8/2 200/8/2
f 200/8/2 199/8/2 201/8/2
f 202/8/2 203/8/2 204/8/2
f 204/8/2 203/8/2 205/8/2
f 206/8/2 207/8/2 208/8/2
f 208/8/2 207/8/2 209/8/2
f 205/8/2 203/8/2 210/8/2
f 210/8/2 203/8/2 211/8/2
f 212/8/2 213/8/2 214/8/2
f 214/8/2 213/8/2 215/8/2
f 216/4/2 217/4/2 218/4/2
f 218/4/2 217/4/2 219/4/2
f 220/1/2 221/1/2 222/1/2
f 222/1/2 221/1/2 223/1/2
f 223/1/2 221/1/2 224/1/2
f 223/4/2 224/4/2 225/4/2
f 225/4/2 224/4/2 226/4/2
f 227/4/2 228/4/2 230/4/2
f 229/4/2 230/4/2 232/4/2
f 230/4/2 228/4/2 233/4/2
f 232/4/2 230/4/2 233/4/2
f 231/4/2 232/4/2 235/4/2
f 233/4/2 234/4/2 235/4/2
f 232/4/2 233/4/2 235/4/2
f 235/4/2 234/4/2 236/4/2
f 237/3/2 238/3/2 240/3/2
f 238/3/2 239/3/2 240/3/2
f 240/3/2 239/3/2 241/3/2
f 241/3/2 239/3/2 242/3/2
f 241/4/2 242/4/2 243/4/2
f 243/4/2 242/4/2 244/4/2
f 245/5/2 246/5/2 247/5/2
f 245/5/2 247/5/2 248/5/2
f 248/5/2 247/5/2 249/5/2
f 250/1/2 251/1/2 252/1/2
f 252/1/2 251/1/2 253/1/2
f 252/6/2 253/6/2 255/6/2
f 255/6/2 253/6/2 256/6/2
f 254/3/2 255/3/2 258/3/2
f 255/6/2 256/6/2 259/6/2
f 258/3/2 255/3/2 259/3/2
f 256/6/2 257/6/2 259/6/2
f 259/6/2 257/6/2 260/6/2
f 259/1/2 260/1/2 261/1/2
f 261/1/2 260/1/2 262/1/2
f 263/5/2 264/5/2 265/5/2
f 265/5/2 264/5/2 266/5/2
f 267/3/2 268/3/2 269/3/2
f 267/3/2 269/3/2 270/3/2
f 270/3/2 269/3/2 271/3/2
f 272/4/2 273/4/2 274/4/2
f 274/4/2 273/4/2 275/4/2
f 274/6/2 275/6/2 276/6/2
f 276/6/2 275/6/2 277/6/2
f 278/8/2 279/8/2 280/8/2
f 280/8/2 279/8/2 281/8/2
f 284/4/2 285/4/2 286/4/2
f 282/4/2 283/4/2 288/4/2
f 288/4/2 283/4/2 289/4/2
f 286/4/2 287/4/2 290/4/2
f 284/4/2 286/4/2 290/4/2
f 290/4/2 287/4/2 291/4/2
f 292/3/2 293/3/2 296/3/2
f 296/3/2 293/3/2 297/3/2
f 294/3/2 295/3/2 298/3/2
f 298/3/2 295/3/2 299/3/2
f 300/6/2 301/6/2 305/6/2
f 305/6/2 301/6/2 306/6/2
f 301/3/2 302/3/2 307/3/2
f 306/6/2 301/6/2 307/6/2
f 303/6/2 304/6/2 308/6/2
f 302/1/2 303/1/2 308/1/2
f 308/6/2 304/6/2 309/6/2
f 306/3/2 307/3/2 310/3/2
f 307/3/2 302/3/2 311/3/2
f 310/3/2 307/3/2 311/3/2
f 311/3/2 302/3/2 312/3/2
f 302/1/2 308/1/2 313/1/2
f 312/3/2 302/3/2 313/3/2
f 313/1/2 308/1/2 314/1/2
f 314/1/2 308/1/2 315/1/2
f 316/4/2 317/4/2 318/4/2
f 318/4/2 317/4/2 319/4/2
f 320/4/2 321/4/2 322/4/2
f 322/4/2 321/4/2 323/4/2
f 326/4/3 325/4/3 324/4/3
f 327/4/3 325/4/3 326/4/3
f 329/4/3 326/4/3 324/4/3
f 329/6/3 328/6/3 327/6/3
f 329/6/3 327/6/3 326/6/3
f 330/6/3 328/6/3 329/6/3
f 331/6/3 328/6/3 330/6/3
f 336/3/3 333/3/3 332/3/3
f 337/3/3 333/3/3 336/3/3
f 338/3/3 336/3/3 332/3/3
f 338/12/3 337/12/3 336/12/3
f 339/3/3 333/3/3 337/3/3
f 339/12/3 337/12/3 338/12/3
f 340/3/3 338/3/3 332/3/3
f 340/13/3 339/13/3 338/13/3
f 341/3/3 333/3/3 339/3/3
f 341/13/3 339/13/3 340/13/3
f 342/3/3 340/3/3 332/3/3
f 342/14/3 341/14/3 340/14/3
f 343/3/3 333/3/3 341/3/3
f 343/14/3 341/14/3 342/14/3
f 344/5/3 335/5/3 334/5/3
f 345/5/3 335/5/3 344/5/3
f 346/3/3 342/3/3 332/3/3
f 346/15/3 343/15/3 342/15/3
f 347/3/3 333/3/3 343/3/3
f 347/15/3 343/15/3 346/15/3
f 348/3/3 346/3/3 332/3/3
f 348/3/3 347/3/3 346/3/3
f 349/3/3 333/3/3 347/3/3
f 349/3/3 347/3/3 348/3/3
f 350/4/3 329/4/3 324/4/3
f 350/4/3 330/4/3 329/4/3
f 351/4/3 330/4/3 350/4/3
f 353/4/3 350/4/3 324/4/3
f 353/6/3 352/6/3 351/6/3
f 353/6/3 351/6/3 350/6/3
f 354/6/3 352/6/3 353/6/3
f 355/6/3 352/6/3 354/6/3
f 356/4/3 353/4/3 324/4/3
f 356/4/3 354/4/3 353/4/3
f 357/4/3 354/4/3 356/4/3
f 361/3/3 359/3/3 358/3/3
f 362/3/3 359/3/3 361/3/3
f 362/3/3 361/3/3 360/3/3
f 367/3/3 362/3/3 360/3/3
f 367/1/3 363/1/3 362/1/3
f 368/6/3 364/6/3 363/6/3
f 368/1/3 363/1/3 367/1/3
f 369/6/3 364/6/3 368/6/3
f 370/6/3 364/6/3 369/6/3
f 371/3/3 367/3/3 360/3/3
f 373/1/3 370/1/3 369/1/3
f 374/1/3 370/1/3 373/1/3
f 375/1/3 372/1/3 371/1/3
f 375/3/3 371/3/3 360/3/3
f 376/6/3 374/6/3 373/6/3
f 376/1/3 372/1/3 375/1/3
f 376/6/3 373/6/3 372/6/3
f 377/6/3 374/6/3 376/6/3
f 378/1/3 366/1/3 365/1/3
f 379/1/3 366/1/3 378/1/3
f 380/3/3 375/3/3 360/3/3
f 381/3/3 375/3/3 380/3/3
f 382/3/3 375/3/3 381/3/3
f 383/3/3 375/3/3 382/3/3
f 391/1/3 385/1/3 384/1/3
f 392/4/3 386/4/3 385/4/3
f 392/1/3 385/1/3 391/1/3
f 393/4/3 386/4/3 392/4/3
f 394/4/3 388/4/3 387/4/3
f 395/4/3 388/4/3 394/4/3
f 396/3/3 390/3/3 389/3/3
f 397/3/3 390/3/3 396/3/3
f 404/4/3 399/4/3 398/4/3
f 405/4/3 399/4/3 404/4/3
f 406/8/3 401/8/3 400/8/3
f 407/8/3 401/8/3 406/8/3
f 408/8/3 403/8/3 402/8/3
f 409/8/3 403/8/3 408/8/3
f 410/6/3 405/6/3 404/6/3
f 411/4/3 399/4/3 405/4/3
f 411/6/3 405/6/3 410/6/3
f 416/4/3 411/4/3 410/4/3
f 417/4/3 399/4/3 411/4/3
f 417/4/3 411/4/3 416/4/3
f 418/8/3 413/8/3 412/8/3
f 419/8/3 413/8/3 418/8/3
f 420/8/3 415/8/3 414/8/3
f 421/8/3 415/8/3 420/8/3
f 422/6/3 417/6/3 416/6/3
f 423/4/3 399/4/3 417/4/3
f 423/6/3 417/6/3 422/6/3
f 428/4/3 423/4/3 422/4/3
f 429/4/3 399/4/3 423/4/3
f 429/4/3 423/4/3 428/4/3
f 430/8/3 425/8/3 424/8/3
f 431/8/3 425/8/3 430/8/3
f 432/8/3 425/8/3 431/8/3
f 433/8/3 425/8/3 432/8/3
f 434/8/3 425/8/3 433/8/3
f 435/8/3 427/8/3 426/8/3
f 436/8/3 427/8/3 435/8/3
f 437/6/3 429/6/3 428/6/3
f 438/4/3 399/4/3 429/4/3
f 438/6/3 429/6/3 437/6/3
f 441/4/3 438/4/3 437/4/3
f 442/4/3 399/4/3 438/4/3
f 442/4/3 438/4/3 441/4/3
f 446/4/3 444/4/3 443/4/3
f 446/4/3 445/4/3 444/4/3
f 447/4/3 445/4/3 446/4/3
f 448/3/3 440/3/3 439/3/3
f 449/3/3 440/3/3 448/3/3
f 452/4/3 451/4/3 450/4/3
f 453/4/3 451/4/3 452/4/3
f 458/4/3 457/4/3 456/4/3
f 459/4/3 457/4/3 458/4/3
f 462/4/3 461/4/3 460/4/3
f 463/4/3 461/4/3 462/4/3
f 466/4/3 455/4/3 454/4/3
f 467/4/3 455/4/3 466/4/3
f 468/4/3 465/4/3 464/4/3
f 469/4/3 465/4/3 468/4/3
f 474/8/3 471/8/3 470/8/3
f 475/8/3 473/8/3 472/8/3
f 475/8/3 474/8/3 473/8/3
f 476/8/3 471/8/3 474/8/3
f 476/8/3 474/8/3 475/8/3
f 479/3/3 478/3/3 477/3/3
f 480/3/3 478/3/3 479/3/3
f 483/5/3 482/5/3 481/5/3
f 484/5/3 482/5/3 483/5/3
f 489/4/3 486/4/3 485/4/3
f 490/4/3 486/4/3 489/4/3
f 491/4/3 488/4/3 487/4/3
f 492/4/3 490/4/3 489/4/3
f 492/4/3 491/4/3 490/4/3
f 493/4/3 488/4/3 491/4/3
f 493/4/3 491/4/3 492/4/3
f 496/4/3 495/4/3 494/4/3
f 497/4/3 495/4/3 496/4/3
f 501/1/3 499/1/3 498/1/3
f 502/4/3 500/4/3 499/4/3
f 502/1/3 499/1/3 501/1/3
f 503/4/3 500/4/3 502/4/3
f 507/1/3 505/1/3 504/1/3
f 508/4/3 506/4/3 505/4/3
f 508/1/3 505/1/3 507/1/3
f 509/4/3 506/4/3 508/4/3
f 512/4/3 511/4/3 510/4/3
f 513/4/3 511/4/3 512/4/3
f 514/4/3 511/4/3 513/4/3
f 519/6/3 516/6/3 515/6/3
f 520/4/3 518/4/3 517/4/3
f 521/6/3 519/6/3 518/6/3
f 521/4/3 518/4/3 520/4/3
f 522/6/3 516/6/3 519/6/3
f 522/6/3 519/6/3 521/6/3
f 526/4/3 524/4/3 523/4/3
f 526/4/3 525/4/3 524/4/3
f 527/4/3 525/4/3 526/4/3
f 530/1/3 529/1/3 528/1/3
f 531/1/3 529/1/3 530/1/3
f 532/1/4 533/1/4 535/1/4
f 533/4/4 534/4/4 536/4/4
f 535/1/4 533/1/4 536/1/4
f 536/4/4 534/4/4 537/4/4
f 538/1/4 539/1/4 541/1/4
f 539/4/4 540/4/4 542/4/4
f 541/1/4 539/1/4 542/1/4
f 542/4/4 540/4/4 543/4/4
f 544/3/4 545/3/4 546/3/4
f 546/3/4 545/3/4 547/3/4
f 548/1/4 549/1/4 550/1/4
f 548/1/4 550/1/4 552/1/4
f 550/1/4 551/1/4 552/1/4
f 552/1/4 551/1/4 553/1/4
f 554/4/4 555/4/4 556/4/4
f 556/4/4 555/4/4 557/4/4
f 558/4/4 559/4/4 560/4/4
f 560/4/4 559/4/4 561/4/4
f 562/4/4 563/4/4 566/4/4
f 566/4/4 563/4/4 567/4/4
f 564/4/4 565/4/4 568/4/4
f 568/4/4 565/4/4 569/4/4
f 570/8/4 571/8/4 572/8/4
f 570/8/4 572/8/4 577/8/4
f 572/8/4 573/8/4 577/8/4
f 577/8/4 573/8/4 578/8/4
f 574/8/4 575/8/4 579/8/4
f 575/3/4 576/3/4 580/3/4
f 579/8/4 575/8/4 580/8/4
f 580/3/4 576/3/4 581/3/4
f 582/8/4 583/8/4 587/8/4
f 587/8/4 583/8/4 588/8/4
f 584/8/4 585/8/4 589/8/4
f 585/3/4 586/3/4 590/3/4
f 589/8/4 585/8/4 590/8/4
f 590/3/4 586/3/4 594/3/4
f 591/8/4 592/8/4 595/8/4
f 595/8/4 592/8/4 596/8/4
f 593/8/4 594/8/4 597/8/4
f 594/3/4 586/3/4 598/3/4
f 597/8/4 594/8/4 598/8/4
f 598/3/4 586/3/4 601/3/4
f 601/3/4 586/3/4 602/3/4
f 599/4/4 600/4/4 603/4/4
f 603/4/4 600/4/4 604/4/4
f 605/4/4 606/4/4 609/4/4
f 609/4/4 606/4/4 610/4/4
f 607/4/4 608/4/4 611/4/4
f 611/4/4 608/4/4 612/4/4
f 613/4/4 614/4/4 617/4/4
f 617/4/4 614/4/4 618/4/4
f 615/4/4 616/4/4 619/4/4
f 617/4/4 618/4/4 620/4/4
f 618/4/4 619/4/4 620/4/4
f 619/4/4 616/4/4 621/4/4
f 620/4/4 619/4/4 621/4/4
f 625/4/4 626/4/4 627/4/4
f 627/4/4 626/4/4 628/4/4
f 622/1/4 623/1/4 629/1/4
f 623/4/4 624/4/4 630/4/4
f 629/1/4 623/1/4 630/1/4
f 630/4/4 624/4/4 631/4/4
f 628/4/4 626/4/4 633/4/4
f 633/4/4 626/4/4 634/4/4
f 632/3/4 633/3/4 634/3/4
f 634/4/4 626/4/4 635/4/4
f 632/3/4 634/3/4 636/3/4
f 636/3/4 634/3/4 637/3/4
f 634/6/4 635/6/4 638/6/4
f 637/3/4 634/3/4 638/3/4
f 636/4/4 637/4/4 639/4/4
f 637/6/4 638/6/4 640/6/4
f 639/4/4 637/4/4 640/4/4
f 638/6/4 635/6/4 641/6/4
f 640/6/4 638/6/4 641/6/4
f 642/8/4 643/8/4 644/8/4
f 644/8/4 643/8/4 645/8/4
f 646/4/4 647/4/4 650/4/4
f 650/4/4 647/4/4 651/4/4
f 651/4/4 647/4/4 652/4/4
f 652/4/4 647/4/4 653/4/4
f 648/3/4 649/3/4 654/3/4
f 654/3/4 649/3/4 655/3/4
f 656/3/4 657/3/4 659/3/4
f 658/3/4 659/3/4 660/3/4
f 659/3/4 657/3/4 661/3/4
f 660/3/4 659/3/4 661/3/4
f 660/1/4 661/1/4 663/1/4
f 661/1/4 662/1/4 663/1/4
f 663/1/4 662/1/4 664/1/4
f 664/1/4 662/1/4 665/1/4
f 665/1/4 662/1/4 666/1/4
f 667/4/4 668/4/4 669/4/4
f 669/4/4 668/4/4 670/4/4
f 667/4/4 669/4/4 672/4/4
f 670/6/4 671/6/4 672/6/4
f 669/6/4 670/6/4 672/6/4
f 672/6/4 671/6/4 673/6/4
f 673/6/4 671/6/4 674/6/4
f 667/4/4 672/4/4 675/4/4
f 672/4/4 673/4/4 675/4/4
f 675/4/4 673/4/4 676/4/4
f 667/4/4 675/4/4 678/4/4
f 676/6/4 677/6/4 678/6/4
f 675/6/4 676/6/4 678/6/4
f 678/6/4 677/6/4 679/6/4
f 679/6/4 677/6/4 680/6/4
f 667/4/4 678/4/4 681/4/4
f 678/4/4 679/4/4 681/4/4
f 681/4/4 679/4/4 682/4/4
f 685/4/5 684/4/5 683/4/5
f 686/4/5 684/4/5 685/4/5
f 689/5/5 688/5/5 687/5/5
f 690/5/5 688/5/5 689/5/5
f 693/4/5 692/4/5 691/4/5
f 694/4/5 692/4/5 693/4/5
f 697/4/5 696/4/5 695/4/5
f 698/4/5 696/4/5 697/4/5
f 701/4/5 700/4/5 699/4/5
f 702/4/5 700/4/5 701/4/5
f 705/3/5 704/3/5 703/3/5
f 706/3/5 704/3/5 705/3/5
f 707/3/5 704/3/5 706/3/5
f 708/3/5 704/3/5 707/3/5
f 717/4/5 712/4/5 711/4/5
f 718/4/5 712/4/5 717/4/5
f 719/4/5 714/4/5 713/4/5
f 720/4/5 714/4/5 719/4/5
f 721/4/5 716/4/5 715/4/5
f 722/4/5 716/4/5 721/4/5
f 723/4/5 710/4/5 709/4/5
f 725/4/5 723/4/5 709/4/5
f 725/4/5 724/4/5 723/4/5
f 726/4/5 724/4/5 725/4/5
f 729/4/5 728/4/5 727/4/5
f 730/4/5 728/4/5 729/4/5
f 731/4/5 728/4/5 730/4/5
f 732/4/5 728/4/5 731/4/5
f 733/4/5 728/4/5 732/4/5
f 734/4/5 728/4/5 733/4/5
f 735/4/5 729/4/5 727/4/5
f 736/4/5 729/4/5 735/4/5
f 737/4/5 731/4/5 730/4/5
f 738/4/5 731/4/5 737/4/5
f 739/4/5 733/4/5 732/4/5
f 740/4/5 733/4/5 739/4/5
f 741/4/5 728/4/5 734/4/5
f 742/4/5 728/4/5 741/4/5
f 750/4/5 744/4/5 743/4/5
f 751/4/5 744/4/5 750/4/5
f 752/4/5 746/4/5 745/4/5
f 753/4/5 746/4/5 752/4/5
f 754/4/5 748/4/5 747/4/5
f 755/4/5 753/4/5 752/4/5
f 755/4/5 754/4/5 753/4/5
f 755/4/5 751/4/5 750/4/5
f 755/4/5 750/4/5 749/4/5
f 755/4/5 752/4/5 751/4/5
f 756/4/5 748/4/5 754/4/5
f 756/4/5 754/4/5 755/4/5
f 759/3/5 758/3/5 757/3/5
f 760/3/5 758/3/5 759/3/5
f 761/3/5 758/3/5 760/3/5
f 763/3/5 761/3/5 760/3/5
f 763/4/5 762/4/5 761/4/5
f 764/4/5 762/4/5 763/4/5
f 765/3/5 759/3/5 757/3/5
f 766/3/5 763/3/5 760/3/5
f 767/3/5 765/3/5 757/3/5
f 767/3/5 766/3/5 765/3/5
f 768/3/5 763/3/5 766/3/5
f 768/3/5 766/3/5 767/3/5
f 771/3/5 770/3/5 769/3/5
f 772/3/5 770/3/5 771/3/5
f 773/3/5 770/3/5 772/3/5
f 774/3/5 770/3/5 773/3/5
f 775/3/5 770/3/5 774/3/5
f 776/3/5 770/3/5 775/3/5
f 777/3/5 770/3/5 776/3/5
f 778/3/5 773/3/5 772/3/5
f 779/3/5 773/3/5 778/3/5
f 780/3/5 771/3/5 769/3/5
f 781/3/5 771/3/5 780/3/5
f 782/3/5 775/3/5 774/3/5
f 783/3/5 775/3/5 782/3/5
f 784/3/5 777/3/5 776/3/5
f 785/3/5 777/3/5 784/3/5
f 789/4/5 787/4/5 786/4/5
f 790/4/5 787/4/5 789/4/5
f 793/4/5 789/4/5 788/4/5
f 793/4/5 792/4/5 791/4/5
f 793/4/5 791/4/5 790/4/5
f 793/4/5 790/4/5 789/4/5
f 794/4/5 792/4/5 793/4/5
f 797/4/6 798/4/6 801/4/6
f 801/4/6 798/4/6 802/4/6
f 795/4/6 796/4/6 803/4/6
f 799/4/6 800/4/6 804/4/6
f 804/4/6 800/4/6 805/4/6
f 795/4/6 803/4/6 806/4/6
f 805/4/6 800/4/6 810/4/6
f 795/4/6 806/4/6 811/4/6
f 811/4/6 806/4/6 812/4/6
f 808/4/6 809/4/6 813/4/6
f 807/4/6 808/4/6 813/4/6
f 813/4/6 809/4/6 814/4/6
f 810/4/6 800/4/6 815/4/6
f 815/4/6 800/4/6 816/4/6
f 817/6/6 818/6/6 821/6/6
f 821/6/6 818/6/6 822/6/6
f 819/6/6 820/6/6 823/6/6
f 823/6/6 820/6/6 824/6/6
f 825/6/6 826/6/6 829/6/6
f 829/6/6 826/6/6 830/6/6
f 827/6/6 828/6/6 831/6/6
f 831/6/6 828/6/6 832/6/6
f 833/3/6 834/3/6 837/3/6
f 837/3/6 834/3/6 838/3/6
f 835/3/6 836/3/6 843/3/6
f 843/3/6 836/3/6 844/3/6
f 844/3/6 836/3/6 847/3/6
f 847/3/6 836/3/6 848/3/6
f 839/3/6 840/3/6 849/3/6
f 849/3/6 840/3/6 850/3/6
f 841/3/6 842/3/6 851/3/6
f 851/3/6 842/3/6 852/3/6
f 845/3/6 846/3/6 853/3/6
f 853/3/6 846/3/6 854/3/6
f 833/3/6 837/3/6 857/3/6
f 855/3/6 856/3/6 859/3/6
f 859/3/6 856/3/6 860/3/6
f 857/3/6 858/3/6 861/3/6
f 833/3/6 857/3/6 863/3/6
f 861/3/6 862/3/6 863/3/6
f 857/3/6 861/3/6 863/3/6
f 863/3/6 862/3/6 864/3/6
f 865/5/6 866/5/6 867/5/6
f 867/5/6 866/5/6 868/5/6
f 869/1/6 870/1/6 872/1/6
f 871/1/6 872/1/6 873/1/6
f 872/1/6 870/1/6 874/1/6
f 873/1/6 872/1/6 874/1/6
f 875/4/6 876/4/6 877/4/6
f 877/4/6 876/4/6 878/4/6
f 878/4/6 876/4/6 879/4/6
f 879/4/6 876/4/6 880/4/6
f 880/4/6 876/4/6 881/4/6
f 881/4/6 876/4/6 882/4/6
f 883/4/6 884/4/6 885/4/6
f 885/4/6 884/4/6 886/4/6
f 886/4/6 884/4/6 889/4/6
f 875/4/6 877/4/6 891/4/6
f 887/4/6 888/4/6 896/4/6
f 889/4/6 890/4/6 897/4/6
f 886/4/6 889/4/6 897/4/6
f 897/4/6 890/4/6 898/4/6
f 895/4/6 896/4/6 899/4/6
f 894/4/6 895/4/6 899/4/6
f 875/4/6 891/4/6 899/4/6
f 891/4/6 892/4/6 899/4/6
f 893/4/6 894/4/6 899/4/6
f 892/4/6 893/4/6 899/4/6
f 896/4/6 888/4/6 900/4/6
f 899/4/6 896/4/6 900/4/6
f 900/4/6 888/4/6 901/4/6
f 886/4/6 897/4/6 902/4/6
f 900/4/6 901/4/6 903/4/6
f 901/4/6 902/4/6 903/4/6
f 902/4/6 897/4/6 904/4/6
f 903/4/6 902/4/6 904/4/6
f 905/3/6 906/3/6 907/3/6
f 907/3/6 906/3/6 908/3/6
f 909/1/6 910/1/6 911/1/6
f 911/1/6 910/1/6 912/1/6
f 912/1/6 910/1/6 913/1/6
f 913/1/6 910/1/6 914/1/6
f 914/1/6 910/1/6 915/1/6
f 915/1/6 910/1/6 916/1/6
f 914/1/6 915/1/6 917/1/6
f 917/1/6 915/1/6 918/1/6
f 919/4/6 920/4/6 921/4/6
f 921/4/6 920/4/6 922/4/6
f 922/4/6 920/4/6 923/4/6
f 923/4/6 920/4/6 924/4/6
f 924/4/6 920/4/6 925/4/6
f 925/4/6 920/4/6 926/4/6
f 919/4/6 921/4/6 927/4/6
f 927/4/6 921/4/6 928/4/6
f 922/4/6 923/4/6 930/4/6
f 930/4/6 923/4/6 931/4/6
f 924/4/6 925/4/6 932/4/6
f 932/4/6 925/4/6 933/4/6
f 926/4/6 920/4/6 934/4/6
f 932/4/6 933/4/6 935/4/6
f 933/4/6 934/4/6 935/4/6
f 930/4/6 931/4/6 935/4/6
f 931/4/6 932/4/6 935/4/6
f 929/4/6 930/4/6 935/4/6
f 934/4/6 920/4/6 936/4/6
f 935/4/6 934/4/6 936/4/6
f 937/3/6 938/3/6 939/3/6
f 939/3/6 938/3/6 940/3/6
f 940/3/6 938/3/6 941/3/6
f 937/3/6 939/3/6 943/3/6
f 940/3/6 941/3/6 944/3/6
f 944/3/6 941/3/6 945/3/6
f 941/4/6 942/4/6 946/4/6
f 945/3/6 941/3/6 946/3/6
f 946/4/6 942/4/6 947/4/6
f 943/3/6 939/3/6 948/3/6
f 945/3/6 946/3/6 950/3/6
f 948/3/6 949/3/6 951/3/6
f 949/3/6 950/3/6 951/3/6
f 943/3/6 948/3/6 951/3/6
f 950/3/6 946/3/6 952/3/6
f 951/3/6 950/3/6 952/3/6
f 953/3/6 954/3/6 955/3/6
f 955/3/6 954/3/6 956/3/6
f 956/3/6 954/3/6 957/3/6
f 957/3/6 954/3/6 958/3/6
f 958/3/6 954/3/6 959/3/6
f 959/3/6 954/3/6 960/3/6
f 960/3/6 954/3/6 961/3/6
f 961/3/6 954/3/6 962/3/6
f 963/3/6 964/3/6 965/3/6
f 965/3/6 964/3/6 966/3/6
f 963/3/6 965/3/6 967/3/6
f 967/3/6 965/3/6 968/3/6
f 966/3/6 964/3/6 969/3/6
f 969/3/6 964/3/6 970/3/6
f 971/4/6 972/4/6 973/4/6
f 973/4/6 972/4/6 974/4/6
f 974/4/6 972/4/6 977/4/6
f 975/5/6 976/5/6 978/5/6
f 978/5/6 976/5/6 979/5/6
f 971/4/6 973/4/6 981/4/6
f 974/4/6 977/4/6 982/4/6
f 977/4/6 978/4/6 982/4/6
f 978/5/6 979/5/6 983/5/6
f 982/4/6 978/4/6 983/4/6
f 983/5/6 979/5/6 984/5/6
f 979/6/6 980/6/6 985/6/6
f 984/5/6 979/5/6 985/5/6
f 983/4/6 984/4/6 986/4/6
f 971/4/6 981/4/6 986/4/6
f 981/4/6 982/4/6 986/4/6
f 982/4/6 983/4/6 986/4/6
f 984/6/6 985/6/6 987/6/6
f 986/4/6 984/4/6 987/4/6
f 985/6/6 980/6/6 988/6/6
f 987/6/6 985/6/6 988/6/6
f 989/4/6 990/4/6 991/4/6
f 991/4/6 990/4/6 992/4/6
