# MagicaVoxel @ Ephtracy

# group
o 

# material
mtllib hydroponic_pods.mtl
usemtl palette

# normals
vn -1 0 0
vn 1 0 0
vn 0 0 1
vn 0 0 -1
vn 0 -1 0
vn 0 1 0

# texcoords
vt 0.00195312 0.5
vt 0.00585938 0.5
vt 0.00976562 0.5
vt 0.0136719 0.5
vt 0.0175781 0.5
vt 0.0214844 0.5
vt 0.0292969 0.5
vt 0.0332031 0.5
vt 0.0371094 0.5
vt 0.0410156 0.5
vt 0.0449219 0.5
vt 0.0644531 0.5
vt 0.0761719 0.5
vt 0.0800781 0.5

# verts
v -1.4 0.5 0.3
v -1.4 0.5 -0.3
v -1.4 1.5 0.3
v -1.4 1.5 -0.3
v -1.3 0 0.7
v -1.3 0 -0.7
v -1.3 0.2 0.7
v -1.3 0.2 -0.7
v -1.3 0.4 -0.3
v -1.3 0.4 -0.6
v -1.3 0.5 -0.3
v -1.3 0.9 -0.3
v -1.3 0.9 -0.6
v -1.2 0.2 0.7
v -1.2 0.2 0.4
v -1.2 0.2 -0.4
v -1.2 0.2 -0.7
v -1.2 0.4 0.4
v -1.2 0.4 -0.3
v -1.2 0.4 -0.4
v -1.2 0.4 -0.6
v -1.2 0.5 0.3
v -1.2 0.5 -0.3
v -1.2 0.6 0.7
v -1.2 0.6 0.4
v -1.2 0.6 0.3
v -1.2 0.6 -0.6
v -1.2 0.6 -0.7
v -1.1 0.6 0.6
v -1.1 0.6 0.4
v -1.1 0.6 0.3
v -1.1 0.9 -0.3
v -1.1 0.9 -0.6
v -1.1 1.2 0.6
v -1.1 1.2 0.4
v -1.1 1.4 0.3
v -1.1 1.4 -0.3
v -1.1 1.5 0.3
v -1.1 1.5 -0.3
v -1.1 1.9 0.6
v -1.1 1.9 0.3
v -1.1 1.9 -0.3
v -1.1 1.9 -0.6
v -1 1.4 0.3
v -1 1.4 -0.3
v -1 1.9 0.6
v -1 1.9 0.3
v -1 1.9 -0.3
v -1 1.9 -0.6
v -1 2 0.3
v -1 2 -0.3
v -1 2.1 0.6
v -1 2.1 0.3
v -1 2.1 -0.3
v -1 2.1 -0.6
v -0.9 0.6 0.7
v -0.9 0.6 0.6
v -0.9 0.8 0.3
v -0.9 0.8 -0.3
v -0.9 1.2 0.6
v -0.9 1.4 0.3
v -0.9 1.4 -0.3
v -0.9 2 0.7
v -0.9 2 0.6
v -0.9 2 0.3
v -0.9 2 -0.3
v -0.9 2.1 0.3
v -0.9 2.1 -0.3
v -0.8 0.7 0.8
v -0.8 0.7 0.7
v -0.8 1.9 0.8
v -0.8 1.9 0.7
v -0.8 2.1 0.4
v -0.8 2.1 -0.4
v -0.8 2.2 0.4
v -0.8 2.2 -0.4
v -0.7 0.8 0.4
v -0.7 0.8 -0.4
v -0.7 0.9 0.4
v -0.7 0.9 -0.4
v -0.7 2.2 0.3
v -0.7 2.2 -0.3
v -0.7 2.3 0.3
v -0.7 2.3 -0.3
v -0.6 0.9 0.3
v -0.6 0.9 -0.3
v -0.6 1 0.3
v -0.6 1 0.2
v -0.6 1 0.1
v -0.6 1 0
v -0.6 1 -0.1
v -0.6 1 -0.2
v -0.6 1 -0.3
v -0.6 1 -0.6
v -0.6 1 -0.7
v -0.6 1.1 0.3
v -0.6 1.1 0.2
v -0.6 1.1 0.1
v -0.6 1.1 0
v -0.6 1.1 -0.1
v -0.6 1.1 -0.2
v -0.6 1.2 0.3
v -0.6 1.2 0.2
v -0.6 1.3 0.3
v -0.6 1.3 0.2
v -0.6 1.8 -0.6
v -0.6 1.8 -0.7
v -0.5 1.1 0.3
v -0.5 1.1 0.2
v -0.5 1.2 0.4
v -0.5 1.2 0.3
v -0.5 1.2 0.2
v -0.5 1.2 0.1
v -0.5 1.2 -0.1
v -0.5 1.2 -0.2
v -0.5 1.3 0.4
v -0.5 1.3 0.3
v -0.5 1.3 0.2
v -0.5 1.3 0.1
v -0.5 1.3 -0.1
v -0.5 1.3 -0.2
v -0.5 1.4 0.3
v -0.5 1.4 0.2
v -0.4 1 0.1
v -0.4 1 0
v -0.4 1 -0.1
v -0.4 1 -0.2
v -0.4 1.1 0.1
v -0.4 1.1 0
v -0.4 1.2 0
v -0.4 1.2 -0.1
v -0.4 1.2 -0.2
v -0.4 1.2 -0.3
v -0.4 1.3 0
v -0.4 1.3 -0.1
v -0.4 1.3 -0.2
v -0.4 1.3 -0.3
v -0.4 1.4 -0.1
v -0.4 1.4 -0.2
v -0.3 0.4 0.7
v -0.3 0.4 0.6
v -0.3 0.6 0.7
v -0.3 0.6 0.6
v -0.3 1.2 0.2
v -0.3 1.2 0.1
v -0.3 1.3 0.2
v -0.3 1.3 0.1
v -0.2 0.4 0.8
v -0.2 0.4 0.7
v -0.2 0.6 0.8
v -0.2 0.6 0.7
v -0.2 1 0.3
v -0.2 1 0.2
v -0.2 1 0.1
v -0.2 1 0
v -0.2 1 -0.1
v -0.2 1 -0.2
v -0.2 1.1 0.3
v -0.2 1.1 0.2
v -0.2 1.1 0.1
v -0.2 1.1 0
v -0.2 1.1 -0.1
v -0.2 1.1 -0.2
v -0.2 1.2 0.3
v -0.2 1.2 0.2
v -0.2 1.2 0.1
v -0.2 1.2 0
v -0.2 1.3 0.3
v -0.2 1.3 0.2
v -0.2 1.3 0.1
v -0.2 1.3 0
v -0.2 1.5 0.2
v -0.2 1.5 0.1
v -0.1 1.2 -0.1
v -0.1 1.2 -0.2
v -0.1 1.3 -0.1
v -0.1 1.3 -0.2
v 0 1 0.3
v 0 1 0.2
v 0 1 0.1
v 0 1 0
v 0 1 -0.1
v 0 1 -0.2
v 0 1.1 0.3
v 0 1.1 0.2
v 0 1.1 0.1
v 0 1.1 0
v 0 1.2 0.1
v 0 1.2 -0.1
v 0 1.2 -0.2
v 0 1.2 -0.3
v 0 1.3 0.1
v 0 1.3 -0.1
v 0 1.3 -0.2
v 0 1.3 -0.3
v 0 1.5 -0.1
v 0 1.5 -0.2
v 0.1 1.1 0.1
v 0.1 1.1 0
v 0.1 1.2 0.2
v 0.1 1.2 0.1
v 0.1 1.2 0
v 0.1 1.3 0.2
v 0.1 1.3 0.1
v 0.1 1.3 0
v 0.1 1.4 0.1
v 0.1 1.4 0
v 0.2 1 0.3
v 0.2 1 0.2
v 0.2 1 -0.1
v 0.2 1 -0.2
v 0.2 1.1 0.3
v 0.2 1.1 0.2
v 0.2 1.1 -0.1
v 0.2 1.1 -0.2
v 0.3 1.1 -0.1
v 0.3 1.1 -0.2
v 0.3 1.2 0.2
v 0.3 1.2 0.1
v 0.3 1.2 0
v 0.3 1.2 -0.1
v 0.3 1.2 -0.2
v 0.3 1.2 -0.3
v 0.3 1.3 0.2
v 0.3 1.3 0.1
v 0.3 1.3 0
v 0.3 1.3 -0.1
v 0.3 1.3 -0.2
v 0.3 1.3 -0.3
v 0.3 1.4 -0.1
v 0.3 1.4 -0.2
v 0.4 1 0.3
v 0.4 1 0.2
v 0.4 1 0.1
v 0.4 1 0
v 0.4 1.1 0.3
v 0.4 1.1 0.2
v 0.4 1.1 0.1
v 0.4 1.1 0
v 0.4 1.2 0.3
v 0.4 1.2 0.2
v 0.4 1.2 0.1
v 0.4 1.2 0
v 0.4 1.3 0.3
v 0.4 1.3 0.2
v 0.4 1.3 0.1
v 0.4 1.3 0
v 0.4 1.5 0.2
v 0.4 1.5 0.1
v 0.7 0.8 0.8
v 0.7 0.8 0.7
v 0.7 1.8 0.8
v 0.7 1.8 0.7
v 0.7 2 -0.5
v 0.7 2 -0.6
v 0.7 2.1 -0.5
v 0.7 2.1 -0.6
v 0.8 0.8 0.7
v 0.8 0.8 0.6
v 0.8 0.8 -0.4
v 0.8 1.8 0.7
v 0.8 1.8 0.6
v 0.8 1.9 0.6
v 0.8 1.9 -0.4
v 0.9 0.2 0.7
v 0.9 0.2 0.6
v 0.9 0.2 -0.6
v 0.9 0.2 -0.7
v 0.9 0.4 0.6
v 0.9 0.4 -0.6
v 0.9 0.6 0.7
v 0.9 0.6 0.6
v 0.9 0.6 -0.6
v 0.9 0.6 -0.7
v 1 0.8 0.3
v 1 0.8 -0.3
v 1 1 0.3
v 1 1 0.2
v 1 1 0.1
v 1 1 0
v 1 1 -0.1
v 1 1 -0.2
v 1 1 -0.3
v 1 1.1 0.3
v 1 1.1 0.2
v 1 1.1 0.1
v 1 1.1 0
v 1 1.1 -0.1
v 1 1.1 -0.2
v 1 1.1 -0.3
v 1 1.2 0.3
v 1 1.2 0.2
v 1 1.2 0.1
v 1 1.2 0
v 1 1.2 -0.1
v 1 1.2 -0.2
v 1 1.2 -0.3
v 1 1.3 0.3
v 1 1.3 0.2
v 1 1.3 0.1
v 1 1.3 0
v 1 1.3 -0.1
v 1 1.3 -0.2
v 1 1.3 -0.3
v 1 1.4 0.3
v 1 1.4 0.2
v 1 1.4 0.1
v 1 1.4 0
v 1 1.4 -0.1
v 1 1.4 -0.2
v 1 1.4 -0.3
v 1 1.7 0.3
v 1 1.7 -0.3
v 1.2 0.9 -0.3
v 1.2 0.9 -0.6
v 1.2 1 -0.3
v 1.2 1 -0.4
v 1.2 1.5 -0.3
v 1.2 1.5 -0.4
v 1.2 1.6 -0.3
v 1.2 1.7 -0.3
v 1.2 1.8 -0.3
v 1.2 1.8 -0.6
v -1.1 1.4 0.3
v -1.1 1.4 -0.3
v -1.1 1.5 0.3
v -1.1 1.5 -0.3
v -1 0.8 0.3
v -1 0.8 -0.3
v -1 1.4 0.3
v -1 1.4 -0.3
v -0.9 0.2 0.7
v -0.9 0.2 0.6
v -0.9 0.2 -0.6
v -0.9 0.2 -0.7
v -0.9 0.4 0.6
v -0.9 0.4 -0.6
v -0.9 0.6 0.7
v -0.9 0.6 0.6
v -0.9 0.6 -0.6
v -0.9 0.6 -0.7
v -0.8 0.8 0.7
v -0.8 0.8 0.6
v -0.8 0.8 -0.4
v -0.8 1.8 0.7
v -0.8 1.8 0.6
v -0.8 1.9 0.6
v -0.8 1.9 -0.4
v -0.7 0.8 0.8
v -0.7 0.8 0.7
v -0.7 1.8 0.8
v -0.7 1.8 0.7
v -0.7 2 -0.5
v -0.7 2 -0.6
v -0.7 2.1 -0.5
v -0.7 2.1 -0.6
v -0.5 1 0.1
v -0.5 1 0
v -0.5 1 -0.1
v -0.5 1 -0.2
v -0.5 1.1 0.1
v -0.5 1.1 0
v -0.5 1.1 -0.1
v -0.5 1.1 -0.2
v -0.4 1.1 0.3
v -0.4 1.1 0.2
v -0.4 1.2 0.4
v -0.4 1.2 0.3
v -0.4 1.2 0.2
v -0.4 1.2 0.1
v -0.4 1.3 0.4
v -0.4 1.3 0.3
v -0.4 1.3 0.2
v -0.4 1.3 0.1
v -0.4 1.4 0.3
v -0.4 1.4 0.2
v -0.3 1 0.3
v -0.3 1 0.2
v -0.3 1 0.1
v -0.3 1 0
v -0.3 1 -0.1
v -0.3 1 -0.2
v -0.3 1.1 0.3
v -0.3 1.1 0.2
v -0.3 1.1 0.1
v -0.3 1.1 0
v -0.3 1.2 0.3
v -0.3 1.2 0.2
v -0.3 1.2 0
v -0.3 1.2 -0.1
v -0.3 1.2 -0.2
v -0.3 1.2 -0.3
v -0.3 1.3 0.3
v -0.3 1.3 0.2
v -0.3 1.3 0
v -0.3 1.3 -0.1
v -0.3 1.3 -0.2
v -0.3 1.3 -0.3
v -0.3 1.4 -0.1
v -0.3 1.4 -0.2
v -0.2 1.2 -0.1
v -0.2 1.2 -0.2
v -0.2 1.3 -0.1
v -0.2 1.3 -0.2
v -0.1 1 0.3
v -0.1 1 0.2
v -0.1 1 0.1
v -0.1 1 0
v -0.1 1 -0.1
v -0.1 1 -0.2
v -0.1 1.1 0.3
v -0.1 1.1 0.2
v -0.1 1.1 0.1
v -0.1 1.1 0
v -0.1 1.1 -0.1
v -0.1 1.1 -0.2
v -0.1 1.2 0.3
v -0.1 1.2 0.2
v -0.1 1.2 0.1
v -0.1 1.2 0
v -0.1 1.3 0.3
v -0.1 1.3 0.2
v -0.1 1.3 0.1
v -0.1 1.3 0
v -0.1 1.5 0.2
v -0.1 1.5 0.1
v 0 1.2 0.2
v 0 1.2 0.1
v 0 1.3 0.2
v 0 1.3 0.1
v 0.1 1 0.3
v 0.1 1 0.2
v 0.1 1 -0.1
v 0.1 1 -0.2
v 0.1 1.1 0.3
v 0.1 1.1 0.2
v 0.1 1.2 -0.1
v 0.1 1.2 -0.2
v 0.1 1.2 -0.3
v 0.1 1.3 -0.1
v 0.1 1.3 -0.2
v 0.1 1.3 -0.3
v 0.1 1.5 -0.1
v 0.1 1.5 -0.2
v 0.2 0.4 0.8
v 0.2 0.4 0.7
v 0.2 0.6 0.8
v 0.2 0.6 0.7
v 0.2 1.1 0.1
v 0.2 1.1 0
v 0.2 1.2 0.2
v 0.2 1.2 0.1
v 0.2 1.2 0
v 0.2 1.2 -0.1
v 0.2 1.3 0.2
v 0.2 1.3 0.1
v 0.2 1.3 0
v 0.2 1.3 -0.1
v 0.2 1.4 0.1
v 0.2 1.4 0
v 0.3 0.4 0.7
v 0.3 0.4 0.6
v 0.3 0.6 0.7
v 0.3 0.6 0.6
v 0.3 1 0.3
v 0.3 1 0.2
v 0.3 1 0.1
v 0.3 1 0
v 0.3 1.1 0.3
v 0.3 1.1 0.2
v 0.3 1.1 0.1
v 0.3 1.1 0
v 0.3 1.2 0.1
v 0.3 1.2 0
v 0.3 1.3 0.1
v 0.3 1.3 0
v 0.4 1.1 -0.1
v 0.4 1.1 -0.2
v 0.4 1.2 0
v 0.4 1.2 -0.1
v 0.4 1.2 -0.2
v 0.4 1.2 -0.3
v 0.4 1.3 0
v 0.4 1.3 -0.1
v 0.4 1.3 -0.2
v 0.4 1.3 -0.3
v 0.4 1.4 -0.1
v 0.4 1.4 -0.2
v 0.5 1 0.3
v 0.5 1 0.2
v 0.5 1 0.1
v 0.5 1 0
v 0.5 1 -0.1
v 0.5 1 -0.2
v 0.5 1.1 0.3
v 0.5 1.1 0.2
v 0.5 1.1 0.1
v 0.5 1.1 0
v 0.5 1.1 -0.1
v 0.5 1.1 -0.2
v 0.5 1.2 0.3
v 0.5 1.2 0.2
v 0.5 1.2 0.1
v 0.5 1.2 0
v 0.5 1.2 -0.1
v 0.5 1.2 -0.2
v 0.5 1.3 0.3
v 0.5 1.3 0.2
v 0.5 1.3 0.1
v 0.5 1.3 0
v 0.5 1.3 -0.1
v 0.5 1.3 -0.2
v 0.5 1.5 0.2
v 0.5 1.5 0.1
v 0.6 0.9 0.3
v 0.6 0.9 -0.3
v 0.6 1 0.3
v 0.6 1 -0.3
v 0.6 1 -0.6
v 0.6 1 -0.7
v 0.6 1.2 0.2
v 0.6 1.2 0.1
v 0.6 1.3 0.2
v 0.6 1.3 0.1
v 0.6 1.8 -0.6
v 0.6 1.8 -0.7
v 0.7 0.8 0.4
v 0.7 0.8 -0.4
v 0.7 0.9 0.4
v 0.7 0.9 -0.4
v 0.7 2.2 0.3
v 0.7 2.2 -0.3
v 0.7 2.3 0.3
v 0.7 2.3 -0.3
v 0.8 0.7 0.8
v 0.8 0.7 0.7
v 0.8 1.9 0.8
v 0.8 1.9 0.7
v 0.8 2 0.3
v 0.8 2 -0.3
v 0.8 2.1 0.4
v 0.8 2.1 0.3
v 0.8 2.1 -0.3
v 0.8 2.1 -0.4
v 0.8 2.2 0.4
v 0.8 2.2 -0.4
v 0.9 0.6 0.7
v 0.9 0.6 0.6
v 0.9 0.8 0.3
v 0.9 0.8 -0.3
v 0.9 1.2 0.6
v 0.9 1.7 0.3
v 0.9 1.7 -0.3
v 0.9 1.9 0.3
v 0.9 1.9 -0.3
v 0.9 2 0.7
v 0.9 2 0.6
v 0.9 2 0.3
v 0.9 2 -0.3
v 1 1.7 0.3
v 1 1.7 -0.3
v 1 1.9 0.6
v 1 1.9 0.3
v 1 1.9 -0.3
v 1 1.9 -0.6
v 1 2.1 0.6
v 1 2.1 0.3
v 1 2.1 -0.3
v 1 2.1 -0.6
v 1.1 0.6 0.6
v 1.1 0.6 0.4
v 1.1 0.6 -0.3
v 1.1 0.7 0.3
v 1.1 0.7 -0.3
v 1.1 0.8 0.3
v 1.1 0.9 -0.3
v 1.1 0.9 -0.6
v 1.1 1 0.4
v 1.1 1 0.3
v 1.1 1 -0.3
v 1.1 1 -0.4
v 1.1 1.2 0.6
v 1.1 1.2 0.4
v 1.1 1.5 0.4
v 1.1 1.5 0.3
v 1.1 1.5 -0.3
v 1.1 1.5 -0.4
v 1.1 1.6 0.3
v 1.1 1.6 -0.3
v 1.1 1.7 0.3
v 1.1 1.7 -0.3
v 1.1 1.9 0.6
v 1.1 1.9 0.3
v 1.1 1.9 -0.3
v 1.1 1.9 -0.6
v 1.2 0.2 0.7
v 1.2 0.2 0.4
v 1.2 0.2 -0.4
v 1.2 0.2 -0.7
v 1.2 0.4 0.4
v 1.2 0.4 -0.3
v 1.2 0.4 -0.4
v 1.2 0.4 -0.6
v 1.2 0.6 0.7
v 1.2 0.6 0.4
v 1.2 0.6 -0.3
v 1.2 0.6 -0.6
v 1.2 0.6 -0.7
v 1.2 1 0.4
v 1.2 1 0.3
v 1.2 1.5 0.4
v 1.2 1.5 0.3
v 1.3 0 0.7
v 1.3 0 -0.7
v 1.3 0.2 0.7
v 1.3 0.2 -0.7
v 1.4 0.4 -0.3
v 1.4 0.4 -0.6
v 1.4 0.7 0.3
v 1.4 0.7 -0.3
v 1.4 0.8 0.3
v 1.4 0.8 -0.3
v 1.4 0.9 -0.3
v 1.4 0.9 -0.6
v 1.4 1.6 0.3
v 1.4 1.6 -0.3
v 1.4 1.7 0.3
v 1.4 1.7 -0.3
v 1.4 1.8 -0.3
v 1.4 1.8 -0.6
v 1.5 0.8 0.3
v 1.5 0.8 -0.3
v 1.5 1.6 0.3
v 1.5 1.6 -0.3
v -0.8 0.7 0.8
v -0.8 1.9 0.8
v -0.7 0.8 0.8
v -0.7 1.8 0.8
v -0.2 0.4 0.8
v -0.2 0.6 0.8
v 0.2 0.4 0.8
v 0.2 0.6 0.8
v 0.7 0.8 0.8
v 0.7 1.8 0.8
v 0.8 0.7 0.8
v 0.8 1.9 0.8
v -1.3 0 0.7
v -1.3 0.2 0.7
v -1.2 0.2 0.7
v -1.2 0.6 0.7
v -0.9 0.2 0.7
v -0.9 0.6 0.7
v -0.9 2 0.7
v -0.8 0.7 0.7
v -0.8 1.9 0.7
v -0.3 0.4 0.7
v -0.3 0.6 0.7
v -0.3 0.7 0.7
v -0.2 0.4 0.7
v -0.2 0.6 0.7
v 0.2 0.4 0.7
v 0.2 0.6 0.7
v 0.3 0.4 0.7
v 0.3 0.6 0.7
v 0.3 0.7 0.7
v 0.8 0.7 0.7
v 0.8 1.9 0.7
v 0.9 0.2 0.7
v 0.9 0.6 0.7
v 0.9 2 0.7
v 1.2 0.2 0.7
v 1.2 0.6 0.7
v 1.3 0 0.7
v 1.3 0.2 0.7
v -1.1 0.6 0.6
v -1.1 1.2 0.6
v -1.1 1.9 0.6
v -1 1.9 0.6
v -1 2.1 0.6
v -0.9 0.2 0.6
v -0.9 0.4 0.6
v -0.9 0.6 0.6
v -0.9 1.2 0.6
v -0.9 2 0.6
v -0.8 2 0.6
v -0.8 2.1 0.6
v -0.3 0.4 0.6
v -0.3 0.6 0.6
v -0.2 0.4 0.6
v 0.2 0.4 0.6
v 0.3 0.4 0.6
v 0.3 0.6 0.6
v 0.8 2 0.6
v 0.8 2.1 0.6
v 0.9 0.2 0.6
v 0.9 0.4 0.6
v 0.9 0.6 0.6
v 0.9 1.2 0.6
v 0.9 2 0.6
v 1 1.9 0.6
v 1 2.1 0.6
v 1.1 0.6 0.6
v 1.1 1.2 0.6
v 1.1 1.9 0.6
v -0.8 2.1 0.4
v -0.8 2.2 0.4
v -0.7 0.8 0.4
v -0.7 0.9 0.4
v -0.5 1.2 0.4
v -0.5 1.3 0.4
v -0.4 1.2 0.4
v -0.4 1.3 0.4
v 0.7 0.8 0.4
v 0.7 0.9 0.4
v 0.8 2.1 0.4
v 0.8 2.2 0.4
v 1.1 1 0.4
v 1.1 1.2 0.4
v 1.1 1.5 0.4
v 1.2 1 0.4
v 1.2 1.5 0.4
v -1.4 0.5 0.3
v -1.4 1.5 0.3
v -1.3 0.6 0.3
v -1.3 1.4 0.3
v -1.2 0.5 0.3
v -1.2 0.6 0.3
v -1.1 0.6 0.3
v -1.1 1.4 0.3
v -1.1 1.5 0.3
v -0.7 2.2 0.3
v -0.7 2.3 0.3
v -0.6 0.9 0.3
v -0.6 1 0.3
v -0.6 1.1 0.3
v -0.6 1.2 0.3
v -0.6 1.3 0.3
v -0.5 1 0.3
v -0.5 1.1 0.3
v -0.5 1.2 0.3
v -0.5 1.3 0.3
v -0.5 1.4 0.3
v -0.4 1 0.3
v -0.4 1.1 0.3
v -0.4 1.2 0.3
v -0.4 1.3 0.3
v -0.4 1.4 0.3
v -0.3 1 0.3
v -0.3 1.1 0.3
v -0.3 1.2 0.3
v -0.3 1.3 0.3
v -0.2 1 0.3
v -0.2 1.1 0.3
v -0.2 1.2 0.3
v -0.2 1.3 0.3
v -0.1 1 0.3
v -0.1 1.1 0.3
v -0.1 1.2 0.3
v -0.1 1.3 0.3
v 0 1 0.3
v 0 1.1 0.3
v 0.1 1 0.3
v 0.1 1.1 0.3
v 0.2 1 0.3
v 0.2 1.1 0.3
v 0.3 1 0.3
v 0.3 1.1 0.3
v 0.4 1 0.3
v 0.4 1.1 0.3
v 0.4 1.2 0.3
v 0.4 1.3 0.3
v 0.5 1 0.3
v 0.5 1.1 0.3
v 0.5 1.2 0.3
v 0.5 1.3 0.3
v 0.6 0.9 0.3
v 0.6 1 0.3
v 0.7 2.2 0.3
v 0.7 2.3 0.3
v 1.1 0.7 0.3
v 1.1 0.8 0.3
v 1.1 1 0.3
v 1.1 1.5 0.3
v 1.1 1.6 0.3
v 1.1 1.7 0.3
v 1.2 1 0.3
v 1.2 1.5 0.3
v 1.3 1.1 0.3
v 1.3 1.2 0.3
v 1.3 1.3 0.3
v 1.3 1.4 0.3
v 1.3 1.5 0.3
v 1.4 0.7 0.3
v 1.4 0.8 0.3
v 1.4 1.1 0.3
v 1.4 1.2 0.3
v 1.4 1.3 0.3
v 1.4 1.4 0.3
v 1.4 1.5 0.3
v 1.4 1.6 0.3
v 1.4 1.7 0.3
v 1.5 0.8 0.3
v 1.5 1.6 0.3
v -0.3 1.2 0.2
v -0.3 1.3 0.2
v -0.2 1.1 0.2
v -0.2 1.2 0.2
v -0.2 1.3 0.2
v -0.2 1.5 0.2
v -0.1 1.1 0.2
v -0.1 1.2 0.2
v -0.1 1.3 0.2
v -0.1 1.5 0.2
v 0 1.2 0.2
v 0 1.3 0.2
v 0.1 1.2 0.2
v 0.1 1.3 0.2
v 0.2 1.2 0.2
v 0.2 1.3 0.2
v 0.3 1.2 0.2
v 0.3 1.3 0.2
v 0.4 1.1 0.2
v 0.4 1.2 0.2
v 0.4 1.3 0.2
v 0.4 1.5 0.2
v 0.5 1.1 0.2
v 0.5 1.2 0.2
v 0.5 1.3 0.2
v 0.5 1.5 0.2
v 0.6 1.2 0.2
v 0.6 1.3 0.2
v -0.6 1 0.1
v -0.6 1.1 0.1
v -0.5 1 0.1
v -0.5 1.1 0.1
v -0.4 1 0.1
v -0.4 1.1 0.1
v -0.3 1 0.1
v -0.3 1.1 0.1
v 0 1 0.1
v 0 1.1 0.1
v 0 1.2 0.1
v 0 1.3 0.1
v 0.1 1 0.1
v 0.1 1.1 0.1
v 0.1 1.2 0.1
v 0.1 1.3 0.1
v 0.1 1.4 0.1
v 0.2 1 0.1
v 0.2 1.1 0.1
v 0.2 1.2 0.1
v 0.2 1.3 0.1
v 0.2 1.4 0.1
v 0.3 1 0.1
v 0.3 1.1 0.1
v 0.3 1.2 0.1
v 0.3 1.3 0.1
v -0.4 1.2 0
v -0.4 1.3 0
v -0.3 1.2 0
v -0.3 1.3 0
v 0.3 1.2 0
v 0.3 1.3 0
v 0.4 1.2 0
v 0.4 1.3 0
v -0.6 1 -0.1
v -0.6 1.1 -0.1
v -0.5 1 -0.1
v -0.5 1.1 -0.1
v -0.5 1.2 -0.1
v -0.5 1.3 -0.1
v -0.4 1 -0.1
v -0.4 1.2 -0.1
v -0.4 1.3 -0.1
v -0.4 1.4 -0.1
v -0.3 1 -0.1
v -0.3 1.2 -0.1
v -0.3 1.3 -0.1
v -0.3 1.4 -0.1
v -0.2 1 -0.1
v -0.2 1.1 -0.1
v -0.2 1.2 -0.1
v -0.2 1.3 -0.1
v -0.1 1 -0.1
v -0.1 1.1 -0.1
v -0.1 1.2 -0.1
v -0.1 1.3 -0.1
v 0 1 -0.1
v 0 1.2 -0.1
v 0 1.3 -0.1
v 0 1.5 -0.1
v 0.1 1 -0.1
v 0.1 1.2 -0.1
v 0.1 1.3 -0.1
v 0.1 1.5 -0.1
v 0.2 1 -0.1
v 0.2 1.1 -0.1
v 0.2 1.2 -0.1
v 0.2 1.3 -0.1
v 0.3 1 -0.1
v 0.3 1.1 -0.1
v 0.3 1.2 -0.1
v 0.3 1.3 -0.1
v 0.3 1.4 -0.1
v 0.4 1 -0.1
v 0.4 1.1 -0.1
v 0.4 1.2 -0.1
v 0.4 1.3 -0.1
v 0.4 1.4 -0.1
v 0.5 1 -0.1
v 0.5 1.1 -0.1
v 0.5 1.2 -0.1
v 0.5 1.3 -0.1
v -1.3 0.4 -0.3
v -1.3 0.5 -0.3
v -1.2 0.4 -0.3
v -1.2 0.5 -0.3
v -1.1 1.4 -0.3
v -1.1 1.5 -0.3
v -1.1 1.9 -0.3
v -1 0.8 -0.3
v -1 1.4 -0.3
v -1 1.9 -0.3
v -1 2 -0.3
v -1 2.1 -0.3
v -0.9 0.8 -0.3
v -0.9 1.4 -0.3
v -0.9 2 -0.3
v -0.9 2.1 -0.3
v 0.8 2 -0.3
v 0.8 2.1 -0.3
v 0.9 0.8 -0.3
v 0.9 1.7 -0.3
v 0.9 1.9 -0.3
v 0.9 2 -0.3
v 1 0.8 -0.3
v 1 1 -0.3
v 1 1.1 -0.3
v 1 1.2 -0.3
v 1 1.3 -0.3
v 1 1.4 -0.3
v 1 1.7 -0.3
v 1 1.9 -0.3
v 1 2.1 -0.3
v 1.1 0.6 -0.3
v 1.1 0.7 -0.3
v 1.1 1.7 -0.3
v 1.1 1.9 -0.3
v 1.2 0.4 -0.3
v 1.2 0.6 -0.3
v 1.2 1.7 -0.3
v 1.2 1.8 -0.3
v 1.4 0.4 -0.3
v 1.4 0.7 -0.3
v 1.4 1.7 -0.3
v 1.4 1.8 -0.3
v -0.8 0.8 -0.4
v -0.8 1.9 -0.4
v -0.7 0.8 -0.4
v -0.7 0.9 -0.4
v 0.7 0.8 -0.4
v 0.7 0.9 -0.4
v 0.8 0.8 -0.4
v 0.8 1.9 -0.4
v -0.8 0.8 0.7
v -0.8 1.8 0.7
v -0.7 0.8 0.7
v -0.7 1.8 0.7
v 0.7 0.8 0.7
v 0.7 1.8 0.7
v 0.8 0.8 0.7
v 0.8 1.8 0.7
v -0.8 1.8 0.6
v -0.8 1.9 0.6
v 0.8 1.8 0.6
v 0.8 1.9 0.6
v -1.1 1.4 0.3
v -1.1 1.5 0.3
v -1.1 1.9 0.3
v -1 0.8 0.3
v -1 1.4 0.3
v -1 1.9 0.3
v -1 2 0.3
v -1 2.1 0.3
v -0.9 0.8 0.3
v -0.9 1.4 0.3
v -0.9 2 0.3
v -0.9 2.1 0.3
v 0.8 2 0.3
v 0.8 2.1 0.3
v 0.9 0.8 0.3
v 0.9 1.7 0.3
v 0.9 1.9 0.3
v 0.9 2 0.3
v 1 0.8 0.3
v 1 1 0.3
v 1 1.1 0.3
v 1 1.2 0.3
v 1 1.3 0.3
v 1 1.4 0.3
v 1 1.7 0.3
v 1 1.9 0.3
v 1 2.1 0.3
v 1.1 1.7 0.3
v 1.1 1.9 0.3
v -0.6 1 0.2
v -0.6 1.1 0.2
v -0.6 1.2 0.2
v -0.6 1.3 0.2
v -0.5 1 0.2
v -0.5 1.1 0.2
v -0.5 1.2 0.2
v -0.5 1.3 0.2
v -0.5 1.4 0.2
v -0.4 1 0.2
v -0.4 1.1 0.2
v -0.4 1.2 0.2
v -0.4 1.3 0.2
v -0.4 1.4 0.2
v -0.3 1 0.2
v -0.3 1.1 0.2
v -0.3 1.2 0.2
v -0.3 1.3 0.2
v 0 1 0.2
v 0 1.1 0.2
v 0.1 1 0.2
v 0.1 1.1 0.2
v 0.2 1 0.2
v 0.2 1.1 0.2
v 0.3 1 0.2
v 0.3 1.1 0.2
v -0.5 1.2 0.1
v -0.5 1.3 0.1
v -0.4 1.2 0.1
v -0.4 1.3 0.1
v -0.3 1.2 0.1
v -0.3 1.3 0.1
v -0.2 1.1 0.1
v -0.2 1.2 0.1
v -0.2 1.3 0.1
v -0.2 1.5 0.1
v -0.1 1.1 0.1
v -0.1 1.2 0.1
v -0.1 1.3 0.1
v -0.1 1.5 0.1
v 0 1.2 0.1
v 0 1.3 0.1
v 0.3 1.2 0.1
v 0.3 1.3 0.1
v 0.4 1.1 0.1
v 0.4 1.2 0.1
v 0.4 1.3 0.1
v 0.4 1.5 0.1
v 0.5 1.1 0.1
v 0.5 1.2 0.1
v 0.5 1.3 0.1
v 0.5 1.5 0.1
v 0.6 1.2 0.1
v 0.6 1.3 0.1
v -0.6 1 0
v -0.6 1.1 0
v -0.5 1 0
v -0.5 1.1 0
v -0.4 1 0
v -0.4 1.1 0
v -0.3 1 0
v -0.3 1.1 0
v -0.2 1 0
v -0.2 1.1 0
v -0.2 1.2 0
v -0.2 1.3 0
v -0.1 1 0
v -0.1 1.1 0
v -0.1 1.2 0
v -0.1 1.3 0
v 0 1 0
v 0 1.1 0
v 0.1 1 0
v 0.1 1.1 0
v 0.1 1.2 0
v 0.1 1.3 0
v 0.1 1.4 0
v 0.2 1 0
v 0.2 1.1 0
v 0.2 1.2 0
v 0.2 1.3 0
v 0.2 1.4 0
v 0.3 1 0
v 0.3 1.1 0
v 0.3 1.2 0
v 0.3 1.3 0
v 0.4 1 0
v 0.4 1.1 0
v 0.4 1.2 0
v 0.4 1.3 0
v 0.5 1 0
v 0.5 1.1 0
v 0.5 1.2 0
v 0.5 1.3 0
v -0.6 1 -0.2
v -0.6 1.1 -0.2
v -0.5 1 -0.2
v -0.5 1.1 -0.2
v -0.5 1.2 -0.2
v -0.5 1.3 -0.2
v -0.4 1 -0.2
v -0.4 1.2 -0.2
v -0.4 1.3 -0.2
v -0.4 1.4 -0.2
v -0.3 1 -0.2
v -0.3 1.2 -0.2
v -0.3 1.3 -0.2
v -0.3 1.4 -0.2
v -0.2 1 -0.2
v -0.2 1.1 -0.2
v -0.2 1.2 -0.2
v -0.2 1.3 -0.2
v -0.1 1 -0.2
v -0.1 1.1 -0.2
v -0.1 1.2 -0.2
v -0.1 1.3 -0.2
v 0 1 -0.2
v 0 1.2 -0.2
v 0 1.3 -0.2
v 0 1.5 -0.2
v 0.1 1 -0.2
v 0.1 1.2 -0.2
v 0.1 1.3 -0.2
v 0.1 1.5 -0.2
v 0.2 1 -0.2
v 0.2 1.1 -0.2
v 0.3 1 -0.2
v 0.3 1.1 -0.2
v 0.3 1.2 -0.2
v 0.3 1.3 -0.2
v 0.3 1.4 -0.2
v 0.4 1 -0.2
v 0.4 1.1 -0.2
v 0.4 1.2 -0.2
v 0.4 1.3 -0.2
v 0.4 1.4 -0.2
v 0.5 1 -0.2
v 0.5 1.1 -0.2
v 0.5 1.2 -0.2
v 0.5 1.3 -0.2
v -1.4 0.5 -0.3
v -1.4 1.5 -0.3
v -1.3 0.5 -0.3
v -1.3 0.9 -0.3
v -1.3 1.4 -0.3
v -1.1 0.9 -0.3
v -1.1 1.4 -0.3
v -1.1 1.5 -0.3
v -0.7 2.2 -0.3
v -0.7 2.3 -0.3
v -0.6 0.9 -0.3
v -0.6 1 -0.3
v -0.4 1.2 -0.3
v -0.4 1.3 -0.3
v -0.3 1.2 -0.3
v -0.3 1.3 -0.3
v 0 1.2 -0.3
v 0 1.3 -0.3
v 0.1 1.2 -0.3
v 0.1 1.3 -0.3
v 0.3 1.2 -0.3
v 0.3 1.3 -0.3
v 0.4 1.2 -0.3
v 0.4 1.3 -0.3
v 0.6 0.9 -0.3
v 0.6 1 -0.3
v 0.7 2.2 -0.3
v 0.7 2.3 -0.3
v 1.1 0.9 -0.3
v 1.1 1 -0.3
v 1.1 1.5 -0.3
v 1.1 1.6 -0.3
v 1.1 1.7 -0.3
v 1.2 0.9 -0.3
v 1.2 1 -0.3
v 1.2 1.5 -0.3
v 1.2 1.6 -0.3
v 1.2 1.7 -0.3
v 1.4 0.8 -0.3
v 1.4 0.9 -0.3
v 1.4 1.6 -0.3
v 1.5 0.8 -0.3
v 1.5 1.6 -0.3
v -0.8 2.1 -0.4
v -0.8 2.2 -0.4
v 0.8 2.1 -0.4
v 0.8 2.2 -0.4
v 1.1 1 -0.4
v 1.1 1.5 -0.4
v 1.2 1 -0.4
v 1.2 1.5 -0.4
v -0.7 2 -0.5
v -0.7 2.1 -0.5
v 0.7 2 -0.5
v 0.7 2.1 -0.5
v -1.3 0.4 -0.6
v -1.3 0.9 -0.6
v -1.2 0.4 -0.6
v -1.2 0.6 -0.6
v -1.1 0.9 -0.6
v -1.1 1.9 -0.6
v -1 0.6 -0.6
v -1 0.9 -0.6
v -1 1.9 -0.6
v -1 2.1 -0.6
v -0.9 0.2 -0.6
v -0.9 0.4 -0.6
v -0.9 0.6 -0.6
v -0.7 2 -0.6
v -0.7 2.1 -0.6
v -0.6 1 -0.6
v -0.6 1.8 -0.6
v 0.6 1 -0.6
v 0.6 1.8 -0.6
v 0.7 2 -0.6
v 0.7 2.1 -0.6
v 0.9 0.2 -0.6
v 0.9 0.4 -0.6
v 0.9 0.6 -0.6
v 1 1.9 -0.6
v 1 2.1 -0.6
v 1.1 0.6 -0.6
v 1.1 0.9 -0.6
v 1.1 1.9 -0.6
v 1.2 0.4 -0.6
v 1.2 0.6 -0.6
v 1.2 0.9 -0.6
v 1.2 1.8 -0.6
v 1.4 0.4 -0.6
v 1.4 0.9 -0.6
v 1.4 1.8 -0.6
v -1.3 0 -0.7
v -1.3 0.2 -0.7
v -1.2 0.2 -0.7
v -1.2 0.6 -0.7
v -0.9 0.2 -0.7
v -0.9 0.6 -0.7
v -0.6 1 -0.7
v -0.6 1.8 -0.7
v 0.6 1 -0.7
v 0.6 1.8 -0.7
v 0.9 0.2 -0.7
v 0.9 0.6 -0.7
v 1.2 0.2 -0.7
v 1.2 0.6 -0.7
v 1.3 0 -0.7
v 1.3 0.2 -0.7
v -1.3 0 0.7
v 1.3 0 0.7
v -1.3 0 -0.7
v 1.3 0 -0.7
v -0.2 0.4 0.8
v 0.2 0.4 0.8
v -0.3 0.4 0.7
v -0.2 0.4 0.7
v 0.2 0.4 0.7
v 0.3 0.4 0.7
v -0.3 0.4 0.6
v -0.2 0.4 0.6
v 0.2 0.4 0.6
v 0.3 0.4 0.6
v -1.3 0.4 -0.3
v -1.2 0.4 -0.3
v 1.2 0.4 -0.3
v 1.4 0.4 -0.3
v -1.2 0.4 -0.4
v 1.2 0.4 -0.4
v -1.3 0.4 -0.6
v -1.2 0.4 -0.6
v 1.2 0.4 -0.6
v 1.4 0.4 -0.6
v -1.4 0.5 0.3
v -1.2 0.5 0.3
v -1.4 0.5 -0.3
v -1.3 0.5 -0.3
v -1.2 0.5 -0.3
v -0.9 0.6 0.7
v -0.3 0.6 0.7
v 0.3 0.6 0.7
v 0.9 0.6 0.7
v -0.9 0.6 0.6
v -0.3 0.6 0.6
v 0.3 0.6 0.6
v 0.9 0.6 0.6
v -0.8 0.7 0.8
v 0.8 0.7 0.8
v -0.8 0.7 0.7
v -0.3 0.7 0.7
v 0.3 0.7 0.7
v 0.8 0.7 0.7
v 1.1 0.7 0.3
v 1.4 0.7 0.3
v 1.1 0.7 -0.3
v 1.4 0.7 -0.3
v 1.4 0.8 0.3
v 1.5 0.8 0.3
v 1.4 0.8 -0.3
v 1.5 0.8 -0.3
v 1.1 1 0.4
v 1.2 1 0.4
v 1.1 1 0.3
v 1.2 1 0.3
v 1.1 1 -0.3
v 1.2 1 -0.3
v 1.1 1 -0.4
v 1.2 1 -0.4
v -0.6 1 -0.6
v 0.6 1 -0.6
v -0.6 1 -0.7
v 0.6 1 -0.7
v -0.5 1.2 0.4
v -0.4 1.2 0.4
v -0.6 1.2 0.3
v -0.5 1.2 0.3
v -0.4 1.2 0.3
v -0.3 1.2 0.3
v -0.2 1.2 0.3
v -0.1 1.2 0.3
v 0.4 1.2 0.3
v 0.5 1.2 0.3
v -0.6 1.2 0.2
v -0.5 1.2 0.2
v -0.4 1.2 0.2
v -0.3 1.2 0.2
v -0.2 1.2 0.2
v -0.1 1.2 0.2
v 0 1.2 0.2
v 0.1 1.2 0.2
v 0.2 1.2 0.2
v 0.3 1.2 0.2
v 0.4 1.2 0.2
v 0.5 1.2 0.2
v 0.6 1.2 0.2
v -0.5 1.2 0.1
v -0.4 1.2 0.1
v -0.3 1.2 0.1
v -0.2 1.2 0.1
v -0.1 1.2 0.1
v 0 1.2 0.1
v 0.1 1.2 0.1
v 0.2 1.2 0.1
v 0.3 1.2 0.1
v 0.4 1.2 0.1
v 0.5 1.2 0.1
v 0.6 1.2 0.1
v -0.4 1.2 0
v -0.3 1.2 0
v -0.2 1.2 0
v -0.1 1.2 0
v 0.1 1.2 0
v 0.2 1.2 0
v 0.3 1.2 0
v 0.4 1.2 0
v 0.5 1.2 0
v -0.5 1.2 -0.1
v -0.4 1.2 -0.1
v -0.3 1.2 -0.1
v -0.2 1.2 -0.1
v -0.1 1.2 -0.1
v 0 1.2 -0.1
v 0.1 1.2 -0.1
v 0.2 1.2 -0.1
v 0.3 1.2 -0.1
v 0.4 1.2 -0.1
v 0.5 1.2 -0.1
v -0.5 1.2 -0.2
v -0.4 1.2 -0.2
v -0.3 1.2 -0.2
v -0.2 1.2 -0.2
v -0.1 1.2 -0.2
v 0 1.2 -0.2
v 0.1 1.2 -0.2
v 0.3 1.2 -0.2
v 0.4 1.2 -0.2
v 0.5 1.2 -0.2
v -0.4 1.2 -0.3
v -0.3 1.2 -0.3
v 0 1.2 -0.3
v 0.1 1.2 -0.3
v 0.3 1.2 -0.3
v 0.4 1.2 -0.3
v -1 1.4 0.3
v -0.9 1.4 0.3
v -1 1.4 -0.3
v -0.9 1.4 -0.3
v 0.9 1.7 0.3
v 1 1.7 0.3
v 0.9 1.7 -0.3
v 1 1.7 -0.3
v -0.7 1.8 0.8
v 0.7 1.8 0.8
v -0.8 1.8 0.7
v -0.7 1.8 0.7
v 0.7 1.8 0.7
v 0.8 1.8 0.7
v -0.8 1.8 0.6
v 0.8 1.8 0.6
v -0.8 1.9 0.6
v 0.8 1.9 0.6
v -0.8 1.9 -0.4
v 0.8 1.9 -0.4
v -1.3 0.2 0.7
v -1.2 0.2 0.7
v -0.9 0.2 0.7
v 0.9 0.2 0.7
v 1.2 0.2 0.7
v 1.3 0.2 0.7
v -0.9 0.2 0.6
v 0.9 0.2 0.6
v -1.2 0.2 0.4
v 1.2 0.2 0.4
v -1.2 0.2 -0.4
v 1.2 0.2 -0.4
v -0.9 0.2 -0.6
v 0.9 0.2 -0.6
v -1.3 0.2 -0.7
v -1.2 0.2 -0.7
v -0.9 0.2 -0.7
v 0.9 0.2 -0.7
v 1.2 0.2 -0.7
v 1.3 0.2 -0.7
v -0.2 0.6 0.8
v 0.2 0.6 0.8
v -1.2 0.6 0.7
v -0.9 0.6 0.7
v -0.2 0.6 0.7
v 0.2 0.6 0.7
v 0.9 0.6 0.7
v 1.2 0.6 0.7
v -1.1 0.6 0.6
v -0.9 0.6 0.6
v 0.9 0.6 0.6
v 1.1 0.6 0.6
v -1.2 0.6 0.4
v -1.1 0.6 0.4
v 1.1 0.6 0.4
v 1.2 0.6 0.4
v -1.2 0.6 0.3
v -1.1 0.6 0.3
v 1.1 0.6 -0.3
v 1.2 0.6 -0.3
v -1.2 0.6 -0.6
v -1 0.6 -0.6
v -0.9 0.6 -0.6
v 0.9 0.6 -0.6
v 1.1 0.6 -0.6
v 1.2 0.6 -0.6
v -1.2 0.6 -0.7
v -0.9 0.6 -0.7
v 0.9 0.6 -0.7
v 1.2 0.6 -0.7
v -0.7 0.8 0.8
v 0.7 0.8 0.8
v -0.8 0.8 0.7
v -0.7 0.8 0.7
v 0.7 0.8 0.7
v 0.8 0.8 0.7
v -0.8 0.8 0.6
v 0.8 0.8 0.6
v -0.7 0.8 0.4
v 0.7 0.8 0.4
v -1 0.8 0.3
v -0.9 0.8 0.3
v 0.9 0.8 0.3
v 1 0.8 0.3
v -1 0.8 -0.3
v -0.9 0.8 -0.3
v 0.9 0.8 -0.3
v 1 0.8 -0.3
v -0.8 0.8 -0.4
v -0.7 0.8 -0.4
v 0.7 0.8 -0.4
v 0.8 0.8 -0.4
v -0.7 0.9 0.4
v 0.7 0.9 0.4
v -0.6 0.9 0.3
v 0.6 0.9 0.3
v -1.3 0.9 -0.3
v -1.1 0.9 -0.3
v -0.6 0.9 -0.3
v 0.6 0.9 -0.3
v 1.1 0.9 -0.3
v 1.2 0.9 -0.3
v -0.7 0.9 -0.4
v 0.7 0.9 -0.4
v -1.3 0.9 -0.6
v -1.1 0.9 -0.6
v 1.1 0.9 -0.6
v 1.2 0.9 -0.6
v -0.3 1 0.3
v -0.2 1 0.3
v -0.1 1 0.3
v 0 1 0.3
v 0.1 1 0.3
v 0.2 1 0.3
v 0.3 1 0.3
v 0.4 1 0.3
v 0.5 1 0.3
v 0.6 1 0.3
v -0.6 1 0.2
v -0.5 1 0.2
v -0.4 1 0.2
v -0.3 1 0.2
v -0.2 1 0.2
v -0.1 1 0.2
v 0 1 0.2
v 0.1 1 0.2
v 0.2 1 0.2
v 0.3 1 0.2
v 0.4 1 0.2
v 0.5 1 0.2
v -0.6 1 0.1
v -0.5 1 0.1
v -0.4 1 0.1
v -0.3 1 0.1
v -0.2 1 0.1
v -0.1 1 0.1
v 0 1 0.1
v 0.1 1 0.1
v 0.2 1 0.1
v 0.3 1 0.1
v 0.4 1 0.1
v 0.5 1 0.1
v -0.6 1 0
v -0.5 1 0
v -0.4 1 0
v -0.3 1 0
v -0.2 1 0
v -0.1 1 0
v 0 1 0
v 0.1 1 0
v 0.2 1 0
v 0.3 1 0
v 0.4 1 0
v 0.5 1 0
v -0.6 1 -0.1
v -0.5 1 -0.1
v -0.4 1 -0.1
v -0.3 1 -0.1
v -0.2 1 -0.1
v -0.1 1 -0.1
v 0 1 -0.1
v 0.1 1 -0.1
v 0.2 1 -0.1
v 0.3 1 -0.1
v 0.4 1 -0.1
v 0.5 1 -0.1
v -0.6 1 -0.2
v -0.5 1 -0.2
v -0.4 1 -0.2
v -0.3 1 -0.2
v -0.2 1 -0.2
v -0.1 1 -0.2
v 0 1 -0.2
v 0.1 1 -0.2
v 0.2 1 -0.2
v 0.3 1 -0.2
v 0.4 1 -0.2
v 0.5 1 -0.2
v -0.6 1 -0.3
v 0.6 1 -0.3
v -0.6 1.1 0.3
v -0.5 1.1 0.3
v -0.4 1.1 0.3
v -0.3 1.1 0.3
v -0.2 1.1 0.3
v -0.1 1.1 0.3
v 0 1.1 0.3
v 0.1 1.1 0.3
v 0.2 1.1 0.3
v 0.3 1.1 0.3
v 0.4 1.1 0.3
v 0.5 1.1 0.3
v -0.6 1.1 0.2
v -0.5 1.1 0.2
v -0.4 1.1 0.2
v -0.3 1.1 0.2
v -0.2 1.1 0.2
v -0.1 1.1 0.2
v 0 1.1 0.2
v 0.1 1.1 0.2
v 0.2 1.1 0.2
v 0.3 1.1 0.2
v 0.4 1.1 0.2
v 0.5 1.1 0.2
v -0.6 1.1 0.1
v -0.5 1.1 0.1
v -0.4 1.1 0.1
v -0.3 1.1 0.1
v -0.2 1.1 0.1
v -0.1 1.1 0.1
v 0 1.1 0.1
v 0.1 1.1 0.1
v 0.2 1.1 0.1
v 0.3 1.1 0.1
v 0.4 1.1 0.1
v 0.5 1.1 0.1
v -0.6 1.1 0
v -0.5 1.1 0
v -0.4 1.1 0
v -0.3 1.1 0
v -0.2 1.1 0
v -0.1 1.1 0
v 0 1.1 0
v 0.1 1.1 0
v 0.2 1.1 0
v 0.3 1.1 0
v 0.4 1.1 0
v 0.5 1.1 0
v -0.6 1.1 -0.1
v -0.5 1.1 -0.1
v -0.2 1.1 -0.1
v -0.1 1.1 -0.1
v 0.2 1.1 -0.1
v 0.3 1.1 -0.1
v 0.4 1.1 -0.1
v 0.5 1.1 -0.1
v -0.6 1.1 -0.2
v -0.5 1.1 -0.2
v -0.2 1.1 -0.2
v -0.1 1.1 -0.2
v 0.2 1.1 -0.2
v 0.3 1.1 -0.2
v 0.4 1.1 -0.2
v 0.5 1.1 -0.2
v -0.5 1.3 0.4
v -0.4 1.3 0.4
v -0.6 1.3 0.3
v -0.5 1.3 0.3
v -0.4 1.3 0.3
v -0.3 1.3 0.3
v -0.2 1.3 0.3
v -0.1 1.3 0.3
v 0.4 1.3 0.3
v 0.5 1.3 0.3
v -0.6 1.3 0.2
v -0.5 1.3 0.2
v -0.4 1.3 0.2
v -0.3 1.3 0.2
v -0.2 1.3 0.2
v -0.1 1.3 0.2
v 0 1.3 0.2
v 0.1 1.3 0.2
v 0.2 1.3 0.2
v 0.3 1.3 0.2
v 0.4 1.3 0.2
v 0.5 1.3 0.2
v 0.6 1.3 0.2
v -0.5 1.3 0.1
v -0.4 1.3 0.1
v -0.3 1.3 0.1
v -0.2 1.3 0.1
v -0.1 1.3 0.1
v 0 1.3 0.1
v 0.1 1.3 0.1
v 0.2 1.3 0.1
v 0.3 1.3 0.1
v 0.4 1.3 0.1
v 0.5 1.3 0.1
v 0.6 1.3 0.1
v -0.4 1.3 0
v -0.3 1.3 0
v -0.2 1.3 0
v -0.1 1.3 0
v 0.1 1.3 0
v 0.2 1.3 0
v 0.3 1.3 0
v 0.4 1.3 0
v 0.5 1.3 0
v -0.5 1.3 -0.1
v -0.4 1.3 -0.1
v -0.3 1.3 -0.1
v -0.2 1.3 -0.1
v -0.1 1.3 -0.1
v 0 1.3 -0.1
v 0.1 1.3 -0.1
v 0.2 1.3 -0.1
v 0.3 1.3 -0.1
v 0.4 1.3 -0.1
v 0.5 1.3 -0.1
v -0.5 1.3 -0.2
v -0.4 1.3 -0.2
v -0.3 1.3 -0.2
v -0.2 1.3 -0.2
v -0.1 1.3 -0.2
v 0 1.3 -0.2
v 0.1 1.3 -0.2
v 0.3 1.3 -0.2
v 0.4 1.3 -0.2
v 0.5 1.3 -0.2
v -0.4 1.3 -0.3
v -0.3 1.3 -0.3
v 0 1.3 -0.3
v 0.1 1.3 -0.3
v 0.3 1.3 -0.3
v 0.4 1.3 -0.3
v -1.1 1.4 0.3
v -1 1.4 0.3
v -0.5 1.4 0.3
v -0.4 1.4 0.3
v -0.5 1.4 0.2
v -0.4 1.4 0.2
v 0.1 1.4 0.1
v 0.2 1.4 0.1
v 0.1 1.4 0
v 0.2 1.4 0
v -0.4 1.4 -0.1
v -0.3 1.4 -0.1
v 0.3 1.4 -0.1
v 0.4 1.4 -0.1
v -0.4 1.4 -0.2
v -0.3 1.4 -0.2
v 0.3 1.4 -0.2
v 0.4 1.4 -0.2
v -1.1 1.4 -0.3
v -1 1.4 -0.3
v 1.1 1.5 0.4
v 1.2 1.5 0.4
v -1.4 1.5 0.3
v -1.1 1.5 0.3
v 1.1 1.5 0.3
v 1.2 1.5 0.3
v -0.2 1.5 0.2
v -0.1 1.5 0.2
v 0.4 1.5 0.2
v 0.5 1.5 0.2
v -0.2 1.5 0.1
v -0.1 1.5 0.1
v 0.4 1.5 0.1
v 0.5 1.5 0.1
v 0 1.5 -0.1
v 0.1 1.5 -0.1
v 0 1.5 -0.2
v 0.1 1.5 -0.2
v -1.4 1.5 -0.3
v -1.1 1.5 -0.3
v 1.1 1.5 -0.3
v 1.2 1.5 -0.3
v 1.1 1.5 -0.4
v 1.2 1.5 -0.4
v 1.4 1.6 0.3
v 1.5 1.6 0.3
v 1.4 1.6 -0.3
v 1.5 1.6 -0.3
v 1 1.7 0.3
v 1.1 1.7 0.3
v 1.4 1.7 0.3
v 1 1.7 -0.3
v 1.1 1.7 -0.3
v 1.2 1.7 -0.3
v 1.4 1.7 -0.3
v 1.2 1.8 -0.3
v 1.4 1.8 -0.3
v -0.6 1.8 -0.6
v 0.6 1.8 -0.6
v 1.2 1.8 -0.6
v 1.4 1.8 -0.6
v -0.6 1.8 -0.7
v 0.6 1.8 -0.7
v -0.8 1.9 0.8
v 0.8 1.9 0.8
v -0.8 1.9 0.7
v 0.8 1.9 0.7
v -1.1 1.9 0.6
v -1 1.9 0.6
v 1 1.9 0.6
v 1.1 1.9 0.6
v -1.1 1.9 0.3
v -1 1.9 0.3
v 0.9 1.9 0.3
v 1 1.9 0.3
v 1.1 1.9 0.3
v -1.1 1.9 -0.3
v -1 1.9 -0.3
v 0.9 1.9 -0.3
v 1 1.9 -0.3
v 1.1 1.9 -0.3
v -1.1 1.9 -0.6
v -1 1.9 -0.6
v 1 1.9 -0.6
v 1.1 1.9 -0.6
v -0.9 2 0.7
v 0.9 2 0.7
v -0.9 2 0.6
v -0.8 2 0.6
v 0.8 2 0.6
v 0.9 2 0.6
v -1 2 0.3
v -0.9 2 0.3
v 0.8 2 0.3
v 0.9 2 0.3
v -1 2 -0.3
v -0.9 2 -0.3
v 0.8 2 -0.3
v 0.9 2 -0.3
v -0.7 2 -0.5
v 0.7 2 -0.5
v -0.7 2 -0.6
v 0.7 2 -0.6
v -1 2.1 0.6
v -0.8 2.1 0.6
v 0.8 2.1 0.6
v 1 2.1 0.6
v -0.8 2.1 0.4
v 0.8 2.1 0.4
v -1 2.1 0.3
v -0.9 2.1 0.3
v 0.8 2.1 0.3
v 1 2.1 0.3
v -1 2.1 -0.3
v -0.9 2.1 -0.3
v 0.8 2.1 -0.3
v 1 2.1 -0.3
v -0.8 2.1 -0.4
v 0.8 2.1 -0.4
v -0.8 2.1 -0.5
v -0.7 2.1 -0.5
v 0.7 2.1 -0.5
v 0.8 2.1 -0.5
v -1 2.1 -0.6
v -0.7 2.1 -0.6
v 0.7 2.1 -0.6
v 1 2.1 -0.6
v -0.8 2.2 0.4
v 0.8 2.2 0.4
v -0.7 2.2 0.3
v 0.7 2.2 0.3
v -0.7 2.2 -0.3
v 0.7 2.2 -0.3
v -0.8 2.2 -0.4
v 0.8 2.2 -0.4
v -0.7 2.3 0.3
v 0.7 2.3 0.3
v -0.7 2.3 -0.3
v 0.7 2.3 -0.3

# faces
f 3/4/1 2/4/1 1/4/1
f 4/4/1 2/4/1 3/4/1
f 7/4/1 6/4/1 5/4/1
f 8/4/1 6/4/1 7/4/1
f 11/6/1 10/6/1 9/6/1
f 12/6/1 10/6/1 11/6/1
f 13/6/1 10/6/1 12/6/1
f 18/6/1 15/6/1 14/6/1
f 18/3/1 16/3/1 15/3/1
f 19/3/1 16/3/1 18/3/1
f 20/6/1 17/6/1 16/6/1
f 20/3/1 16/3/1 19/3/1
f 21/6/1 17/6/1 20/6/1
f 22/1/1 19/1/1 18/1/1
f 23/1/1 19/1/1 22/1/1
f 24/6/1 18/6/1 14/6/1
f 25/1/1 22/1/1 18/1/1
f 25/6/1 18/6/1 24/6/1
f 26/1/1 22/1/1 25/1/1
f 27/6/1 17/6/1 21/6/1
f 28/6/1 17/6/1 27/6/1
f 34/6/1 30/6/1 29/6/1
f 35/1/1 31/1/1 30/1/1
f 35/6/1 30/6/1 34/6/1
f 36/1/1 35/1/1 34/1/1
f 36/1/1 31/1/1 35/1/1
f 37/1/1 33/1/1 32/1/1
f 38/1/1 36/1/1 34/1/1
f 39/1/1 33/1/1 37/1/1
f 40/1/1 38/1/1 34/1/1
f 41/1/1 38/1/1 40/1/1
f 42/1/1 33/1/1 39/1/1
f 43/1/1 33/1/1 42/1/1
f 47/1/1 45/1/1 44/1/1
f 48/1/1 45/1/1 47/1/1
f 50/1/1 47/1/1 46/1/1
f 50/1/1 49/1/1 48/1/1
f 50/1/1 48/1/1 47/1/1
f 51/1/1 49/1/1 50/1/1
f 52/1/1 50/1/1 46/1/1
f 53/1/1 50/1/1 52/1/1
f 54/1/1 49/1/1 51/1/1
f 55/1/1 49/1/1 54/1/1
f 60/1/1 57/1/1 56/1/1
f 61/9/1 59/9/1 58/9/1
f 62/9/1 59/9/1 61/9/1
f 63/1/1 60/1/1 56/1/1
f 64/1/1 60/1/1 63/1/1
f 67/1/1 66/1/1 65/1/1
f 68/1/1 66/1/1 67/1/1
f 71/1/1 70/1/1 69/1/1
f 72/1/1 70/1/1 71/1/1
f 75/4/1 74/4/1 73/4/1
f 76/4/1 74/4/1 75/4/1
f 79/3/1 78/3/1 77/3/1
f 80/3/1 78/3/1 79/3/1
f 83/4/1 82/4/1 81/4/1
f 84/4/1 82/4/1 83/4/1
f 87/9/1 86/9/1 85/9/1
f 88/9/1 86/9/1 87/9/1
f 89/9/1 86/9/1 88/9/1
f 90/9/1 86/9/1 89/9/1
f 91/9/1 86/9/1 90/9/1
f 92/9/1 86/9/1 91/9/1
f 93/9/1 86/9/1 92/9/1
f 96/2/1 88/2/1 87/2/1
f 97/2/1 88/2/1 96/2/1
f 98/2/1 90/2/1 89/2/1
f 99/2/1 90/2/1 98/2/1
f 100/2/1 92/2/1 91/2/1
f 101/2/1 92/2/1 100/2/1
f 104/10/1 103/10/1 102/10/1
f 105/10/1 103/10/1 104/10/1
f 106/1/1 95/1/1 94/1/1
f 107/1/1 95/1/1 106/1/1
f 111/11/1 109/11/1 108/11/1
f 112/11/1 109/11/1 111/11/1
f 116/10/1 111/10/1 110/10/1
f 117/10/1 111/10/1 116/10/1
f 118/10/1 113/10/1 112/10/1
f 119/10/1 113/10/1 118/10/1
f 120/10/1 115/10/1 114/10/1
f 121/10/1 115/10/1 120/10/1
f 122/10/1 118/10/1 117/10/1
f 123/10/1 118/10/1 122/10/1
f 128/2/1 125/2/1 124/2/1
f 129/2/1 125/2/1 128/2/1
f 131/11/1 127/11/1 126/11/1
f 132/11/1 127/11/1 131/11/1
f 134/10/1 131/10/1 130/10/1
f 135/10/1 131/10/1 134/10/1
f 136/10/1 133/10/1 132/10/1
f 137/10/1 133/10/1 136/10/1
f 138/10/1 136/10/1 135/10/1
f 139/10/1 136/10/1 138/10/1
f 142/5/1 141/5/1 140/5/1
f 143/5/1 141/5/1 142/5/1
f 146/10/1 145/10/1 144/10/1
f 147/10/1 145/10/1 146/10/1
f 150/8/1 149/8/1 148/8/1
f 151/8/1 149/8/1 150/8/1
f 158/2/1 153/2/1 152/2/1
f 159/11/1 154/11/1 153/11/1
f 159/2/1 153/2/1 158/2/1
f 160/2/1 155/2/1 154/2/1
f 160/11/1 154/11/1 159/11/1
f 161/2/1 155/2/1 160/2/1
f 162/2/1 157/2/1 156/2/1
f 163/2/1 157/2/1 162/2/1
f 165/11/1 160/11/1 159/11/1
f 166/11/1 160/11/1 165/11/1
f 168/10/1 165/10/1 164/10/1
f 169/10/1 165/10/1 168/10/1
f 170/10/1 167/10/1 166/10/1
f 171/10/1 167/10/1 170/10/1
f 172/10/1 170/10/1 169/10/1
f 173/10/1 170/10/1 172/10/1
f 176/10/1 175/10/1 174/10/1
f 177/10/1 175/10/1 176/10/1
f 184/2/1 179/2/1 178/2/1
f 185/2/1 179/2/1 184/2/1
f 186/2/1 181/2/1 180/2/1
f 187/2/1 181/2/1 186/2/1
f 189/11/1 183/11/1 182/11/1
f 190/11/1 183/11/1 189/11/1
f 192/10/1 189/10/1 188/10/1
f 193/10/1 189/10/1 192/10/1
f 194/10/1 191/10/1 190/10/1
f 195/10/1 191/10/1 194/10/1
f 196/10/1 194/10/1 193/10/1
f 197/10/1 194/10/1 196/10/1
f 201/11/1 199/11/1 198/11/1
f 202/11/1 199/11/1 201/11/1
f 203/10/1 201/10/1 200/10/1
f 204/10/1 201/10/1 203/10/1
f 206/10/1 205/10/1 204/10/1
f 207/10/1 205/10/1 206/10/1
f 212/2/1 209/2/1 208/2/1
f 213/2/1 209/2/1 212/2/1
f 214/2/1 211/2/1 210/2/1
f 215/2/1 211/2/1 214/2/1
f 221/11/1 217/11/1 216/11/1
f 222/11/1 217/11/1 221/11/1
f 224/10/1 219/10/1 218/10/1
f 225/10/1 219/10/1 224/10/1
f 226/10/1 221/10/1 220/10/1
f 227/10/1 221/10/1 226/10/1
f 228/10/1 223/10/1 222/10/1
f 229/10/1 223/10/1 228/10/1
f 230/10/1 228/10/1 227/10/1
f 231/10/1 228/10/1 230/10/1
f 236/2/1 233/2/1 232/2/1
f 237/11/1 234/11/1 233/11/1
f 237/2/1 233/2/1 236/2/1
f 238/2/1 235/2/1 234/2/1
f 238/11/1 234/11/1 237/11/1
f 239/2/1 235/2/1 238/2/1
f 241/11/1 238/11/1 237/11/1
f 242/11/1 238/11/1 241/11/1
f 244/10/1 241/10/1 240/10/1
f 245/10/1 241/10/1 244/10/1
f 246/10/1 243/10/1 242/10/1
f 247/10/1 243/10/1 246/10/1
f 248/10/1 246/10/1 245/10/1
f 249/10/1 246/10/1 248/10/1
f 252/1/1 251/1/1 250/1/1
f 253/1/1 251/1/1 252/1/1
f 256/1/1 255/1/1 254/1/1
f 257/1/1 255/1/1 256/1/1
f 261/1/1 259/1/1 258/1/1
f 262/9/1 260/9/1 259/9/1
f 262/1/1 259/1/1 261/1/1
f 263/9/1 260/9/1 262/9/1
f 264/9/1 260/9/1 263/9/1
f 269/6/1 266/6/1 265/6/1
f 270/6/1 268/6/1 267/6/1
f 271/6/1 269/6/1 265/6/1
f 272/6/1 269/6/1 271/6/1
f 273/6/1 268/6/1 270/6/1
f 274/6/1 268/6/1 273/6/1
f 277/4/1 276/4/1 275/4/1
f 278/4/1 276/4/1 277/4/1
f 279/4/1 276/4/1 278/4/1
f 280/4/1 276/4/1 279/4/1
f 281/4/1 276/4/1 280/4/1
f 282/4/1 276/4/1 281/4/1
f 283/4/1 276/4/1 282/4/1
f 284/8/1 278/8/1 277/8/1
f 285/7/1 279/7/1 278/7/1
f 285/8/1 278/8/1 284/8/1
f 286/8/1 280/8/1 279/8/1
f 286/7/1 279/7/1 285/7/1
f 287/7/1 281/7/1 280/7/1
f 287/8/1 280/8/1 286/8/1
f 288/8/1 282/8/1 281/8/1
f 288/7/1 281/7/1 287/7/1
f 289/7/1 283/7/1 282/7/1
f 289/8/1 282/8/1 288/8/1
f 290/7/1 283/7/1 289/7/1
f 291/7/1 285/7/1 284/7/1
f 292/8/1 286/8/1 285/8/1
f 292/7/1 285/7/1 291/7/1
f 293/7/1 287/7/1 286/7/1
f 293/8/1 286/8/1 292/8/1
f 294/8/1 288/8/1 287/8/1
f 294/7/1 287/7/1 293/7/1
f 295/7/1 289/7/1 288/7/1
f 295/8/1 288/8/1 294/8/1
f 296/8/1 290/8/1 289/8/1
f 296/7/1 289/7/1 295/7/1
f 297/8/1 290/8/1 296/8/1
f 298/8/1 292/8/1 291/8/1
f 299/7/1 293/7/1 292/7/1
f 299/8/1 292/8/1 298/8/1
f 300/8/1 294/8/1 293/8/1
f 300/7/1 293/7/1 299/7/1
f 301/7/1 295/7/1 294/7/1
f 301/8/1 294/8/1 300/8/1
f 302/8/1 296/8/1 295/8/1
f 302/7/1 295/7/1 301/7/1
f 303/7/1 297/7/1 296/7/1
f 303/8/1 296/8/1 302/8/1
f 304/7/1 297/7/1 303/7/1
f 305/7/1 299/7/1 298/7/1
f 306/8/1 300/8/1 299/8/1
f 306/7/1 299/7/1 305/7/1
f 307/7/1 301/7/1 300/7/1
f 307/8/1 300/8/1 306/8/1
f 308/8/1 302/8/1 301/8/1
f 308/7/1 301/7/1 307/7/1
f 309/7/1 303/7/1 302/7/1
f 309/8/1 302/8/1 308/8/1
f 310/8/1 304/8/1 303/8/1
f 310/7/1 303/7/1 309/7/1
f 311/8/1 304/8/1 310/8/1
f 312/4/1 306/4/1 305/4/1
f 312/4/1 307/4/1 306/4/1
f 312/4/1 311/4/1 310/4/1
f 312/4/1 310/4/1 309/4/1
f 312/4/1 309/4/1 308/4/1
f 312/4/1 308/4/1 307/4/1
f 313/4/1 311/4/1 312/4/1
f 316/4/1 315/4/1 314/4/1
f 317/4/1 315/4/1 316/4/1
f 319/4/1 315/4/1 317/4/1
f 320/4/1 319/4/1 318/4/1
f 321/4/1 319/4/1 320/4/1
f 322/4/1 319/4/1 321/4/1
f 323/4/1 315/4/1 319/4/1
f 323/4/1 319/4/1 322/4/1
f 324/4/2 325/4/2 326/4/2
f 326/4/2 325/4/2 327/4/2
f 328/3/2 329/3/2 330/3/2
f 330/3/2 329/3/2 331/3/2
f 332/6/2 333/6/2 336/6/2
f 334/6/2 335/6/2 337/6/2
f 332/6/2 336/6/2 338/6/2
f 338/6/2 336/6/2 339/6/2
f 337/6/2 335/6/2 340/6/2
f 340/6/2 335/6/2 341/6/2
f 342/1/2 343/1/2 345/1/2
f 343/9/2 344/9/2 346/9/2
f 345/1/2 343/1/2 346/1/2
f 346/9/2 344/9/2 347/9/2
f 347/9/2 344/9/2 348/9/2
f 349/1/2 350/1/2 351/1/2
f 351/1/2 350/1/2 352/1/2
f 353/1/2 354/1/2 355/1/2
f 355/1/2 354/1/2 356/1/2
f 357/2/2 358/2/2 361/2/2
f 361/2/2 358/2/2 362/2/2
f 359/2/2 360/2/2 363/2/2
f 363/2/2 360/2/2 364/2/2
f 365/11/2 366/11/2 368/11/2
f 368/11/2 366/11/2 369/11/2
f 367/10/2 368/10/2 371/10/2
f 371/10/2 368/10/2 372/10/2
f 369/10/2 370/10/2 373/10/2
f 373/10/2 370/10/2 374/10/2
f 372/10/2 373/10/2 375/10/2
f 375/10/2 373/10/2 376/10/2
f 377/2/2 378/2/2 383/2/2
f 383/2/2 378/2/2 384/2/2
f 379/2/2 380/2/2 385/2/2
f 385/2/2 380/2/2 386/2/2
f 381/11/2 382/11/2 390/11/2
f 390/11/2 382/11/2 391/11/2
f 387/10/2 388/10/2 393/10/2
f 393/10/2 388/10/2 394/10/2
f 389/10/2 390/10/2 395/10/2
f 395/10/2 390/10/2 396/10/2
f 391/10/2 392/10/2 397/10/2
f 397/10/2 392/10/2 398/10/2
f 396/10/2 397/10/2 399/10/2
f 399/10/2 397/10/2 400/10/2
f 401/10/2 402/10/2 403/10/2
f 403/10/2 402/10/2 404/10/2
f 405/2/2 406/2/2 411/2/2
f 406/11/2 407/11/2 412/11/2
f 411/2/2 406/2/2 412/2/2
f 407/2/2 408/2/2 413/2/2
f 412/11/2 407/11/2 413/11/2
f 413/2/2 408/2/2 414/2/2
f 409/2/2 410/2/2 415/2/2
f 415/2/2 410/2/2 416/2/2
f 412/11/2 413/11/2 418/11/2
f 418/11/2 413/11/2 419/11/2
f 417/10/2 418/10/2 421/10/2
f 421/10/2 418/10/2 422/10/2
f 419/10/2 420/10/2 423/10/2
f 423/10/2 420/10/2 424/10/2
f 422/10/2 423/10/2 425/10/2
f 425/10/2 423/10/2 426/10/2
f 427/10/2 428/10/2 429/10/2
f 429/10/2 428/10/2 430/10/2
f 431/2/2 432/2/2 435/2/2
f 435/2/2 432/2/2 436/2/2
f 433/11/2 434/11/2 437/11/2
f 437/11/2 434/11/2 438/11/2
f 438/10/2 439/10/2 441/10/2
f 441/10/2 439/10/2 442/10/2
f 440/10/2 441/10/2 443/10/2
f 443/10/2 441/10/2 444/10/2
f 445/8/2 446/8/2 447/8/2
f 447/8/2 446/8/2 448/8/2
f 449/11/2 450/11/2 452/11/2
f 452/11/2 450/11/2 453/11/2
f 451/10/2 452/10/2 455/10/2
f 455/10/2 452/10/2 456/10/2
f 453/10/2 454/10/2 457/10/2
f 457/10/2 454/10/2 458/10/2
f 456/10/2 457/10/2 459/10/2
f 459/10/2 457/10/2 460/10/2
f 461/5/2 462/5/2 463/5/2
f 463/5/2 462/5/2 464/5/2
f 465/2/2 466/2/2 469/2/2
f 469/2/2 466/2/2 470/2/2
f 467/2/2 468/2/2 471/2/2
f 471/2/2 468/2/2 472/2/2
f 473/10/2 474/10/2 475/10/2
f 475/10/2 474/10/2 476/10/2
f 477/11/2 478/11/2 480/11/2
f 480/11/2 478/11/2 481/11/2
f 479/10/2 480/10/2 483/10/2
f 483/10/2 480/10/2 484/10/2
f 481/10/2 482/10/2 485/10/2
f 485/10/2 482/10/2 486/10/2
f 484/10/2 485/10/2 487/10/2
f 487/10/2 485/10/2 488/10/2
f 489/2/2 490/2/2 495/2/2
f 490/11/2 491/11/2 496/11/2
f 495/2/2 490/2/2 496/2/2
f 491/2/2 492/2/2 497/2/2
f 496/11/2 491/11/2 497/11/2
f 497/2/2 492/2/2 498/2/2
f 493/2/2 494/2/2 499/2/2
f 499/2/2 494/2/2 500/2/2
f 496/11/2 497/11/2 502/11/2
f 502/11/2 497/11/2 503/11/2
f 501/10/2 502/10/2 507/10/2
f 507/10/2 502/10/2 508/10/2
f 503/10/2 504/10/2 509/10/2
f 509/10/2 504/10/2 510/10/2
f 505/10/2 506/10/2 511/10/2
f 511/10/2 506/10/2 512/10/2
f 508/10/2 509/10/2 513/10/2
f 513/10/2 509/10/2 514/10/2
f 515/9/2 516/9/2 517/9/2
f 517/9/2 516/9/2 518/9/2
f 521/10/2 522/10/2 523/10/2
f 523/10/2 522/10/2 524/10/2
f 519/1/2 520/1/2 525/1/2
f 525/1/2 520/1/2 526/1/2
f 527/3/2 528/3/2 529/3/2
f 529/3/2 528/3/2 530/3/2
f 531/4/2 532/4/2 533/4/2
f 533/4/2 532/4/2 534/4/2
f 535/1/2 536/1/2 537/1/2
f 537/1/2 536/1/2 538/1/2
f 539/4/2 540/4/2 542/4/2
f 542/4/2 540/4/2 543/4/2
f 541/4/2 542/4/2 545/4/2
f 543/4/2 544/4/2 545/4/2
f 542/4/2 543/4/2 545/4/2
f 545/4/2 544/4/2 546/4/2
f 547/1/2 548/1/2 551/1/2
f 549/9/2 550/9/2 552/9/2
f 552/9/2 550/9/2 553/9/2
f 547/1/2 551/1/2 556/1/2
f 556/1/2 551/1/2 557/1/2
f 554/1/2 555/1/2 558/1/2
f 558/1/2 555/1/2 559/1/2
f 560/1/2 561/1/2 563/1/2
f 563/1/2 561/1/2 564/1/2
f 562/1/2 563/1/2 566/1/2
f 566/1/2 563/1/2 567/1/2
f 564/1/2 565/1/2 568/1/2
f 568/1/2 565/1/2 569/1/2
f 571/1/2 572/1/2 573/1/2
f 573/1/2 572/1/2 574/1/2
f 571/1/2 573/1/2 575/1/2
f 570/6/2 571/6/2 578/6/2
f 571/1/2 575/1/2 578/1/2
f 578/1/2 575/1/2 579/1/2
f 576/1/2 577/1/2 580/1/2
f 580/1/2 577/1/2 581/1/2
f 570/6/2 578/6/2 582/6/2
f 582/6/2 578/6/2 583/6/2
f 582/1/2 583/1/2 584/1/2
f 581/1/2 577/1/2 587/1/2
f 584/1/2 585/1/2 588/1/2
f 586/1/2 587/1/2 589/1/2
f 584/1/2 588/1/2 590/1/2
f 589/1/2 587/1/2 591/1/2
f 584/1/2 590/1/2 592/1/2
f 582/1/2 584/1/2 592/1/2
f 592/1/2 590/1/2 593/1/2
f 591/1/2 587/1/2 594/1/2
f 587/1/2 577/1/2 595/1/2
f 594/1/2 587/1/2 595/1/2
f 596/6/2 597/6/2 600/6/2
f 597/3/2 598/3/2 600/3/2
f 600/3/2 598/3/2 601/3/2
f 598/6/2 599/6/2 602/6/2
f 601/3/2 598/3/2 602/3/2
f 602/6/2 599/6/2 603/6/2
f 596/6/2 600/6/2 604/6/2
f 600/1/2 601/1/2 605/1/2
f 604/6/2 600/6/2 605/6/2
f 605/1/2 601/1/2 606/1/2
f 603/6/2 599/6/2 607/6/2
f 607/6/2 599/6/2 608/6/2
f 609/5/2 610/5/2 611/5/2
f 611/5/2 610/5/2 612/5/2
f 613/4/2 614/4/2 615/4/2
f 615/4/2 614/4/2 616/4/2
f 617/6/2 618/6/2 620/6/2
f 619/4/2 620/4/2 621/4/2
f 620/6/2 618/6/2 622/6/2
f 621/4/2 620/4/2 622/4/2
f 622/6/2 618/6/2 623/6/2
f 623/6/2 618/6/2 624/6/2
f 623/4/2 624/4/2 626/4/2
f 625/4/2 626/4/2 627/4/2
f 626/4/2 624/4/2 628/4/2
f 627/4/2 626/4/2 628/4/2
f 628/4/2 624/4/2 629/4/2
f 629/4/2 624/4/2 630/4/2
f 631/3/2 632/3/2 633/3/2
f 633/3/2 632/3/2 634/3/2
f 637/1/3 636/1/3 635/1/3
f 638/1/3 636/1/3 637/1/3
f 641/8/3 640/8/3 639/8/3
f 642/8/3 640/8/3 641/8/3
f 643/1/3 637/1/3 635/1/3
f 644/1/3 636/1/3 638/1/3
f 645/1/3 643/1/3 635/1/3
f 645/1/3 644/1/3 643/1/3
f 646/1/3 636/1/3 644/1/3
f 646/1/3 644/1/3 645/1/3
f 649/4/3 648/4/3 647/4/3
f 651/4/3 649/4/3 647/4/3
f 651/6/3 650/6/3 649/6/3
f 652/6/3 650/6/3 651/6/3
f 654/1/3 653/1/3 652/1/3
f 655/1/3 653/1/3 654/1/3
f 657/1/3 654/1/3 652/1/3
f 658/1/3 654/1/3 657/1/3
f 659/5/3 657/5/3 656/5/3
f 659/5/3 658/5/3 657/5/3
f 660/5/3 658/5/3 659/5/3
f 662/5/3 658/5/3 660/5/3
f 663/5/3 662/5/3 661/5/3
f 664/5/3 658/5/3 662/5/3
f 664/5/3 662/5/3 663/5/3
f 665/5/3 658/5/3 664/5/3
f 666/1/3 665/1/3 664/1/3
f 667/1/3 653/1/3 655/1/3
f 668/4/3 651/4/3 647/4/3
f 669/1/3 667/1/3 666/1/3
f 669/1/3 666/1/3 664/1/3
f 670/1/3 653/1/3 667/1/3
f 670/1/3 667/1/3 669/1/3
f 671/4/3 668/4/3 647/4/3
f 671/6/3 669/6/3 668/6/3
f 672/6/3 669/6/3 671/6/3
f 673/4/3 671/4/3 647/4/3
f 674/4/3 671/4/3 673/4/3
f 678/1/3 677/1/3 676/1/3
f 682/6/3 676/6/3 675/6/3
f 683/1/3 678/1/3 676/1/3
f 683/1/3 679/1/3 678/1/3
f 683/6/3 676/6/3 682/6/3
f 684/1/3 679/1/3 683/1/3
f 685/1/3 679/1/3 684/1/3
f 686/1/3 679/1/3 685/1/3
f 687/3/3 681/3/3 680/3/3
f 687/1/3 682/1/3 681/1/3
f 688/1/3 682/1/3 687/1/3
f 689/3/3 687/3/3 680/3/3
f 690/3/3 689/3/3 680/3/3
f 691/3/3 690/3/3 680/3/3
f 693/4/3 686/4/3 685/4/3
f 694/4/3 686/4/3 693/4/3
f 695/3/3 691/3/3 680/3/3
f 696/1/3 692/1/3 691/1/3
f 696/3/3 691/3/3 695/3/3
f 697/1/3 692/1/3 696/1/3
f 699/1/3 694/1/3 693/1/3
f 700/1/3 699/1/3 698/1/3
f 701/1/3 694/1/3 699/1/3
f 701/1/3 699/1/3 700/1/3
f 702/6/3 698/6/3 697/6/3
f 703/1/3 700/1/3 698/1/3
f 703/6/3 698/6/3 702/6/3
f 704/1/3 700/1/3 703/1/3
f 711/10/3 710/10/3 709/10/3
f 712/10/3 710/10/3 711/10/3
f 713/3/3 708/3/3 707/3/3
f 714/3/3 708/3/3 713/3/3
f 715/4/3 706/4/3 705/4/3
f 716/4/3 706/4/3 715/4/3
f 720/5/3 718/5/3 717/5/3
f 720/5/3 719/5/3 718/5/3
f 721/5/3 719/5/3 720/5/3
f 724/4/3 723/4/3 722/4/3
f 725/4/3 723/4/3 724/4/3
f 726/4/3 724/4/3 722/4/3
f 727/3/3 725/3/3 724/3/3
f 727/4/3 724/4/3 726/4/3
f 728/3/3 725/3/3 727/3/3
f 729/4/3 723/4/3 725/4/3
f 729/3/3 725/3/3 728/3/3
f 730/4/3 723/4/3 729/4/3
f 738/9/3 734/9/3 733/9/3
f 738/2/3 735/2/3 734/2/3
f 739/2/3 735/2/3 738/2/3
f 740/10/3 737/10/3 736/10/3
f 741/10/3 737/10/3 740/10/3
f 743/11/3 739/11/3 738/11/3
f 743/9/3 738/9/3 733/9/3
f 743/11/3 740/11/3 739/11/3
f 744/11/3 740/11/3 743/11/3
f 745/11/3 740/11/3 744/11/3
f 746/10/3 742/10/3 741/10/3
f 747/10/3 742/10/3 746/10/3
f 748/9/3 743/9/3 733/9/3
f 748/2/3 744/2/3 743/2/3
f 749/2/3 744/2/3 748/2/3
f 750/10/3 746/10/3 745/10/3
f 751/10/3 746/10/3 750/10/3
f 752/9/3 748/9/3 733/9/3
f 756/9/3 752/9/3 733/9/3
f 756/2/3 753/2/3 752/2/3
f 757/2/3 753/2/3 756/2/3
f 758/10/3 755/10/3 754/10/3
f 759/10/3 755/10/3 758/10/3
f 760/9/3 756/9/3 733/9/3
f 762/9/3 760/9/3 733/9/3
f 762/2/3 761/2/3 760/2/3
f 763/2/3 761/2/3 762/2/3
f 764/9/3 762/9/3 733/9/3
f 766/9/3 764/9/3 733/9/3
f 766/2/3 765/2/3 764/2/3
f 767/2/3 765/2/3 766/2/3
f 768/9/3 766/9/3 733/9/3
f 772/2/3 769/2/3 768/2/3
f 772/9/3 768/9/3 733/9/3
f 773/2/3 769/2/3 772/2/3
f 774/10/3 771/10/3 770/10/3
f 775/10/3 771/10/3 774/10/3
f 776/9/3 772/9/3 733/9/3
f 777/9/3 772/9/3 776/9/3
f 778/4/3 732/4/3 731/4/3
f 779/4/3 732/4/3 778/4/3
f 786/3/3 782/3/3 781/3/3
f 787/3/3 784/3/3 783/3/3
f 788/3/3 787/3/3 786/3/3
f 789/3/3 787/3/3 788/3/3
f 790/3/3 787/3/3 789/3/3
f 791/3/3 787/3/3 790/3/3
f 792/3/3 784/3/3 787/3/3
f 792/3/3 787/3/3 791/3/3
f 793/4/3 781/4/3 780/4/3
f 794/3/3 786/3/3 781/3/3
f 794/4/3 781/4/3 793/4/3
f 794/3/3 788/3/3 786/3/3
f 795/14/3 789/14/3 788/14/3
f 795/3/3 788/3/3 794/3/3
f 796/13/3 790/13/3 789/13/3
f 796/14/3 789/14/3 795/14/3
f 797/10/3 791/10/3 790/10/3
f 797/13/3 790/13/3 796/13/3
f 798/12/3 792/12/3 791/12/3
f 798/10/3 791/10/3 797/10/3
f 799/3/3 784/3/3 792/3/3
f 799/12/3 792/12/3 798/12/3
f 800/4/3 785/4/3 784/4/3
f 800/3/3 784/3/3 799/3/3
f 801/4/3 785/4/3 800/4/3
f 802/3/3 798/3/3 797/3/3
f 802/3/3 799/3/3 798/3/3
f 802/3/3 800/3/3 799/3/3
f 802/3/3 795/3/3 794/3/3
f 802/3/3 797/3/3 796/3/3
f 802/3/3 796/3/3 795/3/3
f 803/3/3 800/3/3 802/3/3
f 807/10/3 805/10/3 804/10/3
f 808/10/3 805/10/3 807/10/3
f 810/11/3 807/11/3 806/11/3
f 811/11/3 807/11/3 810/11/3
f 812/10/3 809/10/3 808/10/3
f 813/10/3 809/10/3 812/10/3
f 814/10/3 812/10/3 811/10/3
f 815/10/3 812/10/3 814/10/3
f 818/10/3 817/10/3 816/10/3
f 819/10/3 817/10/3 818/10/3
f 823/10/3 821/10/3 820/10/3
f 824/10/3 821/10/3 823/10/3
f 826/11/3 823/11/3 822/11/3
f 827/11/3 823/11/3 826/11/3
f 828/10/3 825/10/3 824/10/3
f 829/10/3 825/10/3 828/10/3
f 830/10/3 828/10/3 827/10/3
f 831/10/3 828/10/3 830/10/3
f 834/2/3 833/2/3 832/2/3
f 835/2/3 833/2/3 834/2/3
f 838/2/3 837/2/3 836/2/3
f 839/2/3 837/2/3 838/2/3
f 844/2/3 841/2/3 840/2/3
f 845/2/3 841/2/3 844/2/3
f 846/10/3 843/10/3 842/10/3
f 847/10/3 843/10/3 846/10/3
f 849/11/3 845/11/3 844/11/3
f 849/11/3 846/11/3 845/11/3
f 850/11/3 846/11/3 849/11/3
f 851/11/3 846/11/3 850/11/3
f 852/10/3 848/10/3 847/10/3
f 853/10/3 848/10/3 852/10/3
f 854/2/3 850/2/3 849/2/3
f 855/2/3 850/2/3 854/2/3
f 856/10/3 852/10/3 851/10/3
f 857/10/3 852/10/3 856/10/3
f 860/10/3 859/10/3 858/10/3
f 861/10/3 859/10/3 860/10/3
f 864/10/3 863/10/3 862/10/3
f 865/10/3 863/10/3 864/10/3
f 868/2/3 867/2/3 866/2/3
f 869/2/3 867/2/3 868/2/3
f 873/10/3 871/10/3 870/10/3
f 874/10/3 871/10/3 873/10/3
f 876/11/3 873/11/3 872/11/3
f 877/11/3 873/11/3 876/11/3
f 878/10/3 875/10/3 874/10/3
f 879/10/3 875/10/3 878/10/3
f 882/10/3 878/10/3 877/10/3
f 883/10/3 878/10/3 882/10/3
f 884/2/3 881/2/3 880/2/3
f 885/2/3 881/2/3 884/2/3
f 889/10/3 887/10/3 886/10/3
f 890/10/3 887/10/3 889/10/3
f 892/11/3 889/11/3 888/11/3
f 893/11/3 889/11/3 892/11/3
f 894/10/3 891/10/3 890/10/3
f 895/10/3 891/10/3 894/10/3
f 900/2/3 897/2/3 896/2/3
f 901/2/3 897/2/3 900/2/3
f 902/10/3 899/10/3 898/10/3
f 903/10/3 899/10/3 902/10/3
f 905/11/3 901/11/3 900/11/3
f 905/11/3 902/11/3 901/11/3
f 906/11/3 902/11/3 905/11/3
f 907/11/3 902/11/3 906/11/3
f 908/10/3 904/10/3 903/10/3
f 909/10/3 904/10/3 908/10/3
f 910/2/3 906/2/3 905/2/3
f 911/2/3 906/2/3 910/2/3
f 912/10/3 908/10/3 907/10/3
f 913/10/3 908/10/3 912/10/3
f 916/6/3 915/6/3 914/6/3
f 917/6/3 915/6/3 916/6/3
f 922/1/3 919/1/3 918/1/3
f 922/1/3 920/1/3 919/1/3
f 923/1/3 920/1/3 922/1/3
f 926/1/3 922/1/3 921/1/3
f 927/1/3 922/1/3 926/1/3
f 928/1/3 925/1/3 924/1/3
f 929/1/3 925/1/3 928/1/3
f 935/1/3 931/1/3 930/1/3
f 936/1/3 933/1/3 932/1/3
f 937/1/3 933/1/3 936/1/3
f 938/1/3 933/1/3 937/1/3
f 939/1/3 933/1/3 938/1/3
f 940/1/3 933/1/3 939/1/3
f 941/1/3 933/1/3 940/1/3
f 942/1/3 933/1/3 941/1/3
f 943/1/3 935/1/3 934/1/3
f 944/1/3 931/1/3 935/1/3
f 944/1/3 935/1/3 943/1/3
f 947/1/3 943/1/3 942/1/3
f 948/1/3 943/1/3 947/1/3
f 950/6/3 946/6/3 945/6/3
f 953/6/3 950/6/3 949/6/3
f 954/6/3 946/6/3 950/6/3
f 954/6/3 950/6/3 953/6/3
f 955/4/3 952/4/3 951/4/3
f 956/4/3 952/4/3 955/4/3
f 959/9/3 958/9/3 957/9/3
f 960/9/3 958/9/3 959/9/3
f 962/9/3 958/9/3 960/9/3
f 963/9/3 962/9/3 961/9/3
f 964/9/3 958/9/3 962/9/3
f 964/9/3 962/9/3 963/9/3
f 965/1/4 966/1/4 967/1/4
f 967/1/4 966/1/4 968/1/4
f 969/1/4 970/1/4 971/1/4
f 971/1/4 970/1/4 972/1/4
f 973/1/4 974/1/4 975/1/4
f 975/1/4 974/1/4 976/1/4
f 977/1/4 978/1/4 981/1/4
f 978/1/4 979/1/4 981/1/4
f 981/1/4 979/1/4 982/1/4
f 980/1/4 981/1/4 985/1/4
f 985/1/4 981/1/4 986/1/4
f 983/1/4 984/1/4 987/1/4
f 987/1/4 984/1/4 988/1/4
f 989/1/4 990/1/4 994/1/4
f 991/1/4 992/1/4 995/1/4
f 995/1/4 992/1/4 996/1/4
f 996/1/4 992/1/4 997/1/4
f 997/1/4 992/1/4 998/1/4
f 998/1/4 992/1/4 999/1/4
f 999/1/4 992/1/4 1000/1/4
f 1000/1/4 992/1/4 1001/1/4
f 993/1/4 994/1/4 1002/1/4
f 994/1/4 990/1/4 1003/1/4
f 1002/1/4 994/1/4 1003/1/4
f 1001/1/4 1002/1/4 1004/1/4
f 1004/1/4 1002/1/4 1005/1/4
f 1006/2/4 1007/2/4 1010/2/4
f 1010/2/4 1007/2/4 1011/2/4
f 1008/10/4 1009/10/4 1012/10/4
f 1012/10/4 1009/10/4 1013/10/4
f 1010/11/4 1011/11/4 1015/11/4
f 1011/11/4 1012/11/4 1015/11/4
f 1015/11/4 1012/11/4 1016/11/4
f 1016/11/4 1012/11/4 1017/11/4
f 1013/10/4 1014/10/4 1018/10/4
f 1018/10/4 1014/10/4 1019/10/4
f 1015/2/4 1016/2/4 1020/2/4
f 1020/2/4 1016/2/4 1021/2/4
f 1017/10/4 1018/10/4 1022/10/4
f 1022/10/4 1018/10/4 1023/10/4
f 1024/2/4 1025/2/4 1026/2/4
f 1026/2/4 1025/2/4 1027/2/4
f 1028/2/4 1029/2/4 1030/2/4
f 1030/2/4 1029/2/4 1031/2/4
f 1032/10/4 1033/10/4 1034/10/4
f 1034/10/4 1033/10/4 1035/10/4
f 1036/10/4 1037/10/4 1039/10/4
f 1039/10/4 1037/10/4 1040/10/4
f 1038/11/4 1039/11/4 1042/11/4
f 1042/11/4 1039/11/4 1043/11/4
f 1040/10/4 1041/10/4 1044/10/4
f 1044/10/4 1041/10/4 1045/10/4
f 1043/10/4 1044/10/4 1046/10/4
f 1046/10/4 1044/10/4 1047/10/4
f 1048/10/4 1049/10/4 1051/10/4
f 1051/10/4 1049/10/4 1052/10/4
f 1050/11/4 1051/11/4 1054/11/4
f 1054/11/4 1051/11/4 1055/11/4
f 1052/10/4 1053/10/4 1056/10/4
f 1056/10/4 1053/10/4 1057/10/4
f 1055/10/4 1056/10/4 1058/10/4
f 1058/10/4 1056/10/4 1059/10/4
f 1060/2/4 1061/2/4 1062/2/4
f 1062/2/4 1061/2/4 1063/2/4
f 1064/2/4 1065/2/4 1066/2/4
f 1066/2/4 1065/2/4 1067/2/4
f 1068/2/4 1069/2/4 1072/2/4
f 1072/2/4 1069/2/4 1073/2/4
f 1070/10/4 1071/10/4 1074/10/4
f 1074/10/4 1071/10/4 1075/10/4
f 1076/2/4 1077/2/4 1078/2/4
f 1078/2/4 1077/2/4 1079/2/4
f 1079/11/4 1080/11/4 1083/11/4
f 1078/11/4 1079/11/4 1083/11/4
f 1083/11/4 1080/11/4 1084/11/4
f 1084/11/4 1080/11/4 1085/11/4
f 1081/10/4 1082/10/4 1086/10/4
f 1086/10/4 1082/10/4 1087/10/4
f 1083/2/4 1084/2/4 1088/2/4
f 1088/2/4 1084/2/4 1089/2/4
f 1085/10/4 1086/10/4 1090/10/4
f 1090/10/4 1086/10/4 1091/10/4
f 1092/2/4 1093/2/4 1096/2/4
f 1096/2/4 1093/2/4 1097/2/4
f 1094/10/4 1095/10/4 1098/10/4
f 1098/10/4 1095/10/4 1099/10/4
f 1100/2/4 1101/2/4 1102/2/4
f 1102/2/4 1101/2/4 1103/2/4
f 1104/10/4 1105/10/4 1107/10/4
f 1107/10/4 1105/10/4 1108/10/4
f 1106/11/4 1107/11/4 1110/11/4
f 1110/11/4 1107/11/4 1111/11/4
f 1108/10/4 1109/10/4 1112/10/4
f 1112/10/4 1109/10/4 1113/10/4
f 1111/10/4 1112/10/4 1116/10/4
f 1116/10/4 1112/10/4 1117/10/4
f 1114/2/4 1115/2/4 1118/2/4
f 1118/2/4 1115/2/4 1119/2/4
f 1120/10/4 1121/10/4 1123/10/4
f 1123/10/4 1121/10/4 1124/10/4
f 1122/11/4 1123/11/4 1126/11/4
f 1126/11/4 1123/11/4 1127/11/4
f 1124/10/4 1125/10/4 1128/10/4
f 1128/10/4 1125/10/4 1129/10/4
f 1130/2/4 1131/2/4 1132/2/4
f 1132/2/4 1131/2/4 1133/2/4
f 1127/10/4 1128/10/4 1134/10/4
f 1134/10/4 1128/10/4 1135/10/4
f 1132/11/4 1133/11/4 1137/11/4
f 1133/11/4 1134/11/4 1137/11/4
f 1137/11/4 1134/11/4 1138/11/4
f 1138/11/4 1134/11/4 1139/11/4
f 1135/10/4 1136/10/4 1140/10/4
f 1140/10/4 1136/10/4 1141/10/4
f 1137/2/4 1138/2/4 1142/2/4
f 1142/2/4 1138/2/4 1143/2/4
f 1139/10/4 1140/10/4 1144/10/4
f 1144/10/4 1140/10/4 1145/10/4
f 1146/4/4 1147/4/4 1148/4/4
f 1148/4/4 1147/4/4 1149/4/4
f 1149/4/4 1147/4/4 1150/4/4
f 1149/3/4 1150/3/4 1151/3/4
f 1150/4/4 1147/4/4 1152/4/4
f 1151/3/4 1150/3/4 1152/3/4
f 1152/4/4 1147/4/4 1153/4/4
f 1158/10/4 1159/10/4 1160/10/4
f 1160/10/4 1159/10/4 1161/10/4
f 1162/10/4 1163/10/4 1164/10/4
f 1164/10/4 1163/10/4 1165/10/4
f 1166/10/4 1167/10/4 1168/10/4
f 1168/10/4 1167/10/4 1169/10/4
f 1156/9/4 1157/9/4 1170/9/4
f 1170/9/4 1157/9/4 1171/9/4
f 1154/4/4 1155/4/4 1172/4/4
f 1172/4/4 1155/4/4 1173/4/4
f 1174/3/4 1175/3/4 1179/3/4
f 1179/3/4 1175/3/4 1180/3/4
f 1176/3/4 1177/3/4 1181/3/4
f 1177/4/4 1178/4/4 1182/4/4
f 1181/3/4 1177/3/4 1182/3/4
f 1182/4/4 1178/4/4 1183/4/4
f 1184/3/4 1185/3/4 1187/3/4
f 1185/3/4 1186/3/4 1187/3/4
f 1187/3/4 1186/3/4 1188/3/4
f 1189/4/4 1190/4/4 1191/4/4
f 1191/4/4 1190/4/4 1192/4/4
f 1193/3/4 1194/3/4 1195/3/4
f 1195/3/4 1194/3/4 1196/3/4
f 1197/4/4 1198/4/4 1199/4/4
f 1199/4/4 1198/4/4 1200/4/4
f 1201/6/4 1202/6/4 1203/6/4
f 1203/6/4 1202/6/4 1204/6/4
f 1204/6/4 1202/6/4 1205/6/4
f 1204/6/4 1205/6/4 1207/6/4
f 1205/1/4 1206/1/4 1208/1/4
f 1207/6/4 1205/6/4 1208/6/4
f 1208/1/4 1206/1/4 1209/1/4
f 1207/1/4 1208/1/4 1213/1/4
f 1208/1/4 1209/1/4 1213/1/4
f 1209/1/4 1210/1/4 1213/1/4
f 1213/1/4 1210/1/4 1214/1/4
f 1212/1/4 1213/1/4 1214/1/4
f 1214/1/4 1210/1/4 1215/1/4
f 1212/1/4 1214/1/4 1216/1/4
f 1216/1/4 1214/1/4 1217/1/4
f 1212/1/4 1216/1/4 1218/1/4
f 1217/1/4 1214/1/4 1219/1/4
f 1219/1/4 1214/1/4 1220/1/4
f 1218/1/4 1219/1/4 1220/1/4
f 1211/3/4 1212/3/4 1222/3/4
f 1220/1/4 1221/1/4 1223/1/4
f 1222/3/4 1212/3/4 1223/3/4
f 1212/1/4 1218/1/4 1223/1/4
f 1218/1/4 1220/1/4 1223/1/4
f 1223/1/4 1221/1/4 1224/1/4
f 1224/1/4 1221/1/4 1225/1/4
f 1225/1/4 1221/1/4 1226/1/4
f 1224/1/4 1225/1/4 1227/1/4
f 1227/1/4 1225/1/4 1228/1/4
f 1228/1/4 1225/1/4 1229/1/4
f 1227/6/4 1228/6/4 1231/6/4
f 1231/6/4 1228/6/4 1232/6/4
f 1230/6/4 1231/6/4 1234/6/4
f 1231/6/4 1232/6/4 1234/6/4
f 1232/4/4 1233/4/4 1235/4/4
f 1234/6/4 1232/6/4 1235/6/4
f 1235/4/4 1233/4/4 1236/4/4
f 1237/4/4 1238/4/4 1239/4/4
f 1237/4/4 1239/4/4 1241/4/4
f 1239/6/4 1240/6/4 1241/6/4
f 1241/6/4 1240/6/4 1242/6/4
f 1243/1/4 1244/1/4 1245/1/4
f 1245/1/4 1244/1/4 1246/1/4
f 1237/4/4 1241/4/4 1247/4/4
f 1237/4/4 1247/4/4 1249/4/4
f 1247/6/4 1248/6/4 1249/6/4
f 1249/6/4 1248/6/4 1250/6/4
f 1237/4/4 1249/4/4 1251/4/4
f 1251/4/4 1249/4/4 1252/4/4
f 1255/4/5 1254/4/5 1253/4/5
f 1256/4/5 1254/4/5 1255/4/5
f 1260/8/5 1258/8/5 1257/8/5
f 1261/8/5 1258/8/5 1260/8/5
f 1263/5/5 1260/5/5 1259/5/5
f 1264/8/5 1261/8/5 1260/8/5
f 1264/5/5 1260/5/5 1263/5/5
f 1265/5/5 1262/5/5 1261/5/5
f 1265/8/5 1261/8/5 1264/8/5
f 1266/5/5 1262/5/5 1265/5/5
f 1271/6/5 1268/6/5 1267/6/5
f 1272/6/5 1270/6/5 1269/6/5
f 1273/6/5 1271/6/5 1267/6/5
f 1274/6/5 1271/6/5 1273/6/5
f 1275/6/5 1270/6/5 1272/6/5
f 1276/6/5 1270/6/5 1275/6/5
f 1279/4/5 1278/4/5 1277/4/5
f 1280/4/5 1278/4/5 1279/4/5
f 1281/4/5 1278/4/5 1280/4/5
f 1286/1/5 1283/1/5 1282/1/5
f 1287/1/5 1283/1/5 1286/1/5
f 1288/1/5 1285/1/5 1284/1/5
f 1289/1/5 1285/1/5 1288/1/5
f 1292/1/5 1291/1/5 1290/1/5
f 1293/1/5 1291/1/5 1292/1/5
f 1294/1/5 1291/1/5 1293/1/5
f 1295/1/5 1291/1/5 1294/1/5
f 1298/4/5 1297/4/5 1296/4/5
f 1299/4/5 1297/4/5 1298/4/5
f 1302/3/5 1301/3/5 1300/3/5
f 1303/3/5 1301/3/5 1302/3/5
f 1306/5/5 1305/5/5 1304/5/5
f 1307/5/5 1305/5/5 1306/5/5
f 1310/3/5 1309/3/5 1308/3/5
f 1311/3/5 1309/3/5 1310/3/5
f 1314/1/5 1313/1/5 1312/1/5
f 1315/1/5 1313/1/5 1314/1/5
f 1319/10/5 1317/10/5 1316/10/5
f 1320/10/5 1317/10/5 1319/10/5
f 1326/10/5 1319/10/5 1318/10/5
f 1327/10/5 1319/10/5 1326/10/5
f 1328/10/5 1321/10/5 1320/10/5
f 1329/10/5 1321/10/5 1328/10/5
f 1330/10/5 1323/10/5 1322/10/5
f 1331/10/5 1323/10/5 1330/10/5
f 1336/10/5 1325/10/5 1324/10/5
f 1337/10/5 1325/10/5 1336/10/5
f 1339/10/5 1328/10/5 1327/10/5
f 1340/10/5 1328/10/5 1339/10/5
f 1341/10/5 1330/10/5 1329/10/5
f 1342/10/5 1330/10/5 1341/10/5
f 1343/10/5 1332/10/5 1331/10/5
f 1344/10/5 1332/10/5 1343/10/5
f 1345/10/5 1334/10/5 1333/10/5
f 1346/10/5 1334/10/5 1345/10/5
f 1347/10/5 1336/10/5 1335/10/5
f 1348/10/5 1336/10/5 1347/10/5
f 1349/10/5 1338/10/5 1337/10/5
f 1350/10/5 1338/10/5 1349/10/5
f 1353/10/5 1343/10/5 1342/10/5
f 1354/10/5 1343/10/5 1353/10/5
f 1355/10/5 1345/10/5 1344/10/5
f 1356/10/5 1347/10/5 1346/10/5
f 1357/10/5 1347/10/5 1356/10/5
f 1358/10/5 1349/10/5 1348/10/5
f 1359/10/5 1349/10/5 1358/10/5
f 1361/10/5 1352/10/5 1351/10/5
f 1362/10/5 1352/10/5 1361/10/5
f 1365/10/5 1355/10/5 1344/10/5
f 1365/10/5 1356/10/5 1355/10/5
f 1366/10/5 1356/10/5 1365/10/5
f 1367/10/5 1356/10/5 1366/10/5
f 1368/10/5 1358/10/5 1357/10/5
f 1369/10/5 1358/10/5 1368/10/5
f 1371/10/5 1361/10/5 1360/10/5
f 1372/10/5 1361/10/5 1371/10/5
f 1373/10/5 1363/10/5 1362/10/5
f 1374/10/5 1363/10/5 1373/10/5
f 1375/10/5 1365/10/5 1364/10/5
f 1376/10/5 1365/10/5 1375/10/5
f 1377/10/5 1367/10/5 1366/10/5
f 1377/10/5 1368/10/5 1367/10/5
f 1378/10/5 1368/10/5 1377/10/5
f 1379/10/5 1370/10/5 1369/10/5
f 1380/10/5 1370/10/5 1379/10/5
f 1381/10/5 1373/10/5 1372/10/5
f 1382/10/5 1373/10/5 1381/10/5
f 1383/10/5 1377/10/5 1376/10/5
f 1384/10/5 1377/10/5 1383/10/5
f 1385/10/5 1379/10/5 1378/10/5
f 1386/10/5 1379/10/5 1385/10/5
f 1389/1/5 1388/1/5 1387/1/5
f 1390/1/5 1388/1/5 1389/1/5
f 1393/1/5 1392/1/5 1391/1/5
f 1394/1/5 1392/1/5 1393/1/5
f 1398/1/5 1396/1/5 1395/1/5
f 1399/1/5 1396/1/5 1398/1/5
f 1401/1/5 1398/1/5 1397/1/5
f 1401/1/5 1400/1/5 1399/1/5
f 1401/1/5 1399/1/5 1398/1/5
f 1402/1/5 1400/1/5 1401/1/5
f 1405/9/5 1404/9/5 1403/9/5
f 1406/9/5 1404/9/5 1405/9/5
f 1409/4/6 1410/4/6 1413/4/6
f 1413/4/6 1410/4/6 1414/4/6
f 1407/4/6 1408/4/6 1415/4/6
f 1411/4/6 1412/4/6 1416/4/6
f 1407/4/6 1415/4/6 1417/4/6
f 1416/4/6 1412/4/6 1418/4/6
f 1407/4/6 1417/4/6 1421/4/6
f 1421/4/6 1417/4/6 1422/4/6
f 1419/4/6 1420/4/6 1423/4/6
f 1423/4/6 1420/4/6 1424/4/6
f 1418/4/6 1412/4/6 1425/4/6
f 1425/4/6 1412/4/6 1426/4/6
f 1427/8/6 1428/8/6 1431/8/6
f 1431/8/6 1428/8/6 1432/8/6
f 1429/6/6 1430/6/6 1435/6/6
f 1435/6/6 1430/6/6 1436/6/6
f 1433/6/6 1434/6/6 1437/6/6
f 1437/6/6 1434/6/6 1438/6/6
f 1429/6/6 1435/6/6 1439/6/6
f 1439/6/6 1435/6/6 1440/6/6
f 1438/6/6 1434/6/6 1441/6/6
f 1441/6/6 1434/6/6 1442/6/6
f 1439/1/6 1440/1/6 1443/1/6
f 1443/1/6 1440/1/6 1444/1/6
f 1441/1/6 1442/1/6 1445/1/6
f 1445/1/6 1442/1/6 1446/1/6
f 1447/6/6 1448/6/6 1453/6/6
f 1448/6/6 1449/6/6 1453/6/6
f 1453/6/6 1449/6/6 1454/6/6
f 1451/6/6 1452/6/6 1455/6/6
f 1450/6/6 1451/6/6 1455/6/6
f 1455/6/6 1452/6/6 1456/6/6
f 1457/1/6 1458/1/6 1460/1/6
f 1460/1/6 1458/1/6 1461/1/6
f 1459/1/6 1460/1/6 1463/1/6
f 1461/1/6 1462/1/6 1463/1/6
f 1460/1/6 1461/1/6 1463/1/6
f 1463/1/6 1462/1/6 1464/1/6
f 1463/4/6 1464/4/6 1465/4/6
f 1465/4/6 1464/4/6 1466/4/6
f 1467/4/6 1468/4/6 1471/4/6
f 1471/4/6 1468/4/6 1472/4/6
f 1469/4/6 1470/4/6 1473/4/6
f 1473/4/6 1470/4/6 1474/4/6
f 1463/4/6 1465/4/6 1475/4/6
f 1475/4/6 1465/4/6 1476/4/6
f 1466/4/6 1464/4/6 1477/4/6
f 1477/4/6 1464/4/6 1478/4/6
f 1479/3/6 1480/3/6 1481/3/6
f 1481/3/6 1480/3/6 1482/3/6
f 1479/3/6 1481/3/6 1485/3/6
f 1482/3/6 1480/3/6 1486/3/6
f 1479/3/6 1485/3/6 1489/3/6
f 1485/3/6 1486/3/6 1489/3/6
f 1486/3/6 1480/3/6 1490/3/6
f 1489/3/6 1486/3/6 1490/3/6
f 1483/6/6 1484/6/6 1491/6/6
f 1491/6/6 1484/6/6 1492/6/6
f 1487/6/6 1488/6/6 1493/6/6
f 1493/6/6 1488/6/6 1494/6/6
f 1495/9/6 1496/9/6 1508/9/6
f 1508/9/6 1496/9/6 1509/9/6
f 1497/9/6 1498/9/6 1510/9/6
f 1510/9/6 1498/9/6 1511/9/6
f 1499/9/6 1500/9/6 1512/9/6
f 1512/9/6 1500/9/6 1513/9/6
f 1501/9/6 1502/9/6 1514/9/6
f 1514/9/6 1502/9/6 1515/9/6
f 1503/9/6 1504/9/6 1516/9/6
f 1506/9/6 1507/9/6 1517/9/6
f 1508/9/6 1509/9/6 1517/9/6
f 1505/9/6 1506/9/6 1517/9/6
f 1507/9/6 1508/9/6 1517/9/6
f 1517/9/6 1509/9/6 1518/9/6
f 1518/9/6 1509/9/6 1519/9/6
f 1519/9/6 1509/9/6 1520/9/6
f 1520/9/6 1509/9/6 1521/9/6
f 1510/9/6 1511/9/6 1522/9/6
f 1512/9/6 1513/9/6 1522/9/6
f 1514/9/6 1515/9/6 1522/9/6
f 1513/9/6 1514/9/6 1522/9/6
f 1511/9/6 1512/9/6 1522/9/6
f 1522/9/6 1515/9/6 1523/9/6
f 1523/9/6 1515/9/6 1524/9/6
f 1524/9/6 1515/9/6 1525/9/6
f 1525/9/6 1515/9/6 1526/9/6
f 1526/9/6 1515/9/6 1527/9/6
f 1516/9/6 1504/9/6 1528/9/6
f 1518/9/6 1519/9/6 1530/9/6
f 1530/9/6 1519/9/6 1531/9/6
f 1520/9/6 1521/9/6 1532/9/6
f 1532/9/6 1521/9/6 1533/9/6
f 1522/9/6 1523/9/6 1534/9/6
f 1534/9/6 1523/9/6 1535/9/6
f 1526/9/6 1527/9/6 1538/9/6
f 1538/9/6 1527/9/6 1539/9/6
f 1528/9/6 1504/9/6 1540/9/6
f 1536/9/6 1537/9/6 1541/9/6
f 1539/9/6 1540/9/6 1541/9/6
f 1530/9/6 1531/9/6 1541/9/6
f 1538/9/6 1539/9/6 1541/9/6
f 1537/9/6 1538/9/6 1541/9/6
f 1532/9/6 1533/9/6 1541/9/6
f 1535/9/6 1536/9/6 1541/9/6
f 1534/9/6 1535/9/6 1541/9/6
f 1533/9/6 1534/9/6 1541/9/6
f 1529/9/6 1530/9/6 1541/9/6
f 1531/9/6 1532/9/6 1541/9/6
f 1541/9/6 1540/9/6 1542/9/6
f 1542/9/6 1540/9/6 1543/9/6
f 1543/9/6 1540/9/6 1544/9/6
f 1544/9/6 1540/9/6 1545/9/6
f 1545/9/6 1540/9/6 1546/9/6
f 1546/9/6 1540/9/6 1547/9/6
f 1547/9/6 1540/9/6 1548/9/6
f 1548/9/6 1540/9/6 1549/9/6
f 1549/9/6 1540/9/6 1550/9/6
f 1550/9/6 1540/9/6 1551/9/6
f 1540/9/6 1504/9/6 1552/9/6
f 1551/9/6 1540/9/6 1552/9/6
f 1542/9/6 1543/9/6 1554/9/6
f 1554/9/6 1543/9/6 1555/9/6
f 1544/9/6 1545/9/6 1556/9/6
f 1556/9/6 1545/9/6 1557/9/6
f 1546/9/6 1547/9/6 1558/9/6
f 1558/9/6 1547/9/6 1559/9/6
f 1548/9/6 1549/9/6 1560/9/6
f 1560/9/6 1549/9/6 1561/9/6
f 1552/9/6 1504/9/6 1564/9/6
f 1562/9/6 1563/9/6 1565/9/6
f 1563/9/6 1564/9/6 1565/9/6
f 1558/9/6 1559/9/6 1565/9/6
f 1554/9/6 1555/9/6 1565/9/6
f 1561/9/6 1562/9/6 1565/9/6
f 1560/9/6 1561/9/6 1565/9/6
f 1559/9/6 1560/9/6 1565/9/6
f 1556/9/6 1557/9/6 1565/9/6
f 1557/9/6 1558/9/6 1565/9/6
f 1553/9/6 1554/9/6 1565/9/6
f 1555/9/6 1556/9/6 1565/9/6
f 1564/9/6 1504/9/6 1566/9/6
f 1565/9/6 1564/9/6 1566/9/6
f 1567/2/6 1568/2/6 1579/2/6
f 1579/2/6 1568/2/6 1580/2/6
f 1569/2/6 1570/2/6 1581/2/6
f 1581/2/6 1570/2/6 1582/2/6
f 1571/2/6 1572/2/6 1583/2/6
f 1583/2/6 1572/2/6 1584/2/6
f 1573/2/6 1574/2/6 1585/2/6
f 1585/2/6 1574/2/6 1586/2/6
f 1575/2/6 1576/2/6 1587/2/6
f 1587/2/6 1576/2/6 1588/2/6
f 1577/2/6 1578/2/6 1589/2/6
f 1589/2/6 1578/2/6 1590/2/6
f 1591/2/6 1592/2/6 1603/2/6
f 1603/2/6 1592/2/6 1604/2/6
f 1593/2/6 1594/2/6 1605/2/6
f 1605/2/6 1594/2/6 1606/2/6
f 1595/2/6 1596/2/6 1607/2/6
f 1607/2/6 1596/2/6 1608/2/6
f 1597/2/6 1598/2/6 1609/2/6
f 1609/2/6 1598/2/6 1610/2/6
f 1599/2/6 1600/2/6 1611/2/6
f 1611/2/6 1600/2/6 1612/2/6
f 1601/2/6 1602/2/6 1613/2/6
f 1613/2/6 1602/2/6 1614/2/6
f 1615/2/6 1616/2/6 1623/2/6
f 1623/2/6 1616/2/6 1624/2/6
f 1617/2/6 1618/2/6 1625/2/6
f 1625/2/6 1618/2/6 1626/2/6
f 1619/2/6 1620/2/6 1627/2/6
f 1627/2/6 1620/2/6 1628/2/6
f 1621/2/6 1622/2/6 1629/2/6
f 1629/2/6 1622/2/6 1630/2/6
f 1631/10/6 1632/10/6 1634/10/6
f 1634/10/6 1632/10/6 1635/10/6
f 1633/10/6 1634/10/6 1641/10/6
f 1641/10/6 1634/10/6 1642/10/6
f 1635/10/6 1636/10/6 1643/10/6
f 1643/10/6 1636/10/6 1644/10/6
f 1637/10/6 1638/10/6 1645/10/6
f 1645/10/6 1638/10/6 1646/10/6
f 1639/10/6 1640/10/6 1651/10/6
f 1651/10/6 1640/10/6 1652/10/6
f 1642/10/6 1643/10/6 1654/10/6
f 1654/10/6 1643/10/6 1655/10/6
f 1644/10/6 1645/10/6 1656/10/6
f 1656/10/6 1645/10/6 1657/10/6
f 1646/10/6 1647/10/6 1658/10/6
f 1658/10/6 1647/10/6 1659/10/6
f 1648/10/6 1649/10/6 1660/10/6
f 1660/10/6 1649/10/6 1661/10/6
f 1650/10/6 1651/10/6 1662/10/6
f 1662/10/6 1651/10/6 1663/10/6
f 1652/10/6 1653/10/6 1664/10/6
f 1664/10/6 1653/10/6 1665/10/6
f 1657/10/6 1658/10/6 1668/10/6
f 1668/10/6 1658/10/6 1669/10/6
f 1659/10/6 1660/10/6 1670/10/6
f 1661/10/6 1662/10/6 1671/10/6
f 1671/10/6 1662/10/6 1672/10/6
f 1663/10/6 1664/10/6 1673/10/6
f 1673/10/6 1664/10/6 1674/10/6
f 1666/10/6 1667/10/6 1676/10/6
f 1676/10/6 1667/10/6 1677/10/6
f 1659/10/6 1670/10/6 1680/10/6
f 1670/10/6 1671/10/6 1680/10/6
f 1680/10/6 1671/10/6 1681/10/6
f 1681/10/6 1671/10/6 1682/10/6
f 1672/10/6 1673/10/6 1683/10/6
f 1683/10/6 1673/10/6 1684/10/6
f 1675/10/6 1676/10/6 1686/10/6
f 1686/10/6 1676/10/6 1687/10/6
f 1677/10/6 1678/10/6 1688/10/6
f 1688/10/6 1678/10/6 1689/10/6
f 1679/10/6 1680/10/6 1690/10/6
f 1690/10/6 1680/10/6 1691/10/6
f 1681/10/6 1682/10/6 1692/10/6
f 1682/10/6 1683/10/6 1692/10/6
f 1692/10/6 1683/10/6 1693/10/6
f 1684/10/6 1685/10/6 1694/10/6
f 1694/10/6 1685/10/6 1695/10/6
f 1687/10/6 1688/10/6 1696/10/6
f 1696/10/6 1688/10/6 1697/10/6
f 1691/10/6 1692/10/6 1698/10/6
f 1698/10/6 1692/10/6 1699/10/6
f 1693/10/6 1694/10/6 1700/10/6
f 1700/10/6 1694/10/6 1701/10/6
f 1704/10/6 1705/10/6 1706/10/6
f 1706/10/6 1705/10/6 1707/10/6
f 1708/10/6 1709/10/6 1710/10/6
f 1710/10/6 1709/10/6 1711/10/6
f 1712/10/6 1713/10/6 1716/10/6
f 1716/10/6 1713/10/6 1717/10/6
f 1714/10/6 1715/10/6 1718/10/6
f 1718/10/6 1715/10/6 1719/10/6
f 1702/3/6 1703/3/6 1720/3/6
f 1720/3/6 1703/3/6 1721/3/6
f 1722/5/6 1723/5/6 1726/5/6
f 1726/5/6 1723/5/6 1727/5/6
f 1728/10/6 1729/10/6 1732/10/6
f 1732/10/6 1729/10/6 1733/10/6
f 1730/10/6 1731/10/6 1734/10/6
f 1734/10/6 1731/10/6 1735/10/6
f 1736/10/6 1737/10/6 1738/10/6
f 1738/10/6 1737/10/6 1739/10/6
f 1724/4/6 1725/4/6 1740/4/6
f 1740/4/6 1725/4/6 1741/4/6
f 1742/3/6 1743/3/6 1744/3/6
f 1744/3/6 1743/3/6 1745/3/6
f 1746/3/6 1747/3/6 1748/3/6
f 1748/3/6 1747/3/6 1749/3/6
f 1750/4/6 1751/4/6 1753/4/6
f 1751/4/6 1752/4/6 1753/4/6
f 1753/4/6 1752/4/6 1754/4/6
f 1754/4/6 1752/4/6 1755/4/6
f 1755/4/6 1752/4/6 1756/4/6
f 1757/4/6 1758/4/6 1761/4/6
f 1761/4/6 1758/4/6 1762/4/6
f 1759/1/6 1760/1/6 1763/1/6
f 1763/1/6 1760/1/6 1764/1/6
f 1765/1/6 1766/1/6 1767/1/6
f 1767/1/6 1766/1/6 1768/1/6
f 1769/1/6 1770/1/6 1773/1/6
f 1773/1/6 1770/1/6 1774/1/6
f 1771/1/6 1772/1/6 1776/1/6
f 1776/1/6 1772/1/6 1777/1/6
f 1775/1/6 1776/1/6 1780/1/6
f 1780/1/6 1776/1/6 1781/1/6
f 1778/1/6 1779/1/6 1783/1/6
f 1783/1/6 1779/1/6 1784/1/6
f 1781/1/6 1782/1/6 1785/1/6
f 1785/1/6 1782/1/6 1786/1/6
f 1787/1/6 1788/1/6 1789/1/6
f 1789/1/6 1788/1/6 1790/1/6
f 1790/1/6 1788/1/6 1791/1/6
f 1791/1/6 1788/1/6 1792/1/6
f 1793/1/6 1794/1/6 1797/1/6
f 1797/1/6 1794/1/6 1798/1/6
f 1795/1/6 1796/1/6 1799/1/6
f 1799/1/6 1796/1/6 1800/1/6
f 1801/1/6 1802/1/6 1803/1/6
f 1803/1/6 1802/1/6 1804/1/6
f 1805/1/6 1806/1/6 1809/1/6
f 1806/4/6 1807/4/6 1809/4/6
f 1807/1/6 1808/1/6 1810/1/6
f 1809/4/6 1807/4/6 1810/4/6
f 1805/1/6 1809/1/6 1811/1/6
f 1811/1/6 1809/1/6 1812/1/6
f 1810/1/6 1808/1/6 1813/1/6
f 1813/1/6 1808/1/6 1814/1/6
f 1812/1/6 1809/1/6 1816/1/6
f 1816/1/6 1809/1/6 1819/1/6
f 1815/1/6 1816/1/6 1819/1/6
f 1817/1/6 1818/1/6 1820/1/6
f 1815/1/6 1819/1/6 1821/1/6
f 1819/4/6 1820/4/6 1821/4/6
f 1821/4/6 1820/4/6 1822/4/6
f 1822/4/6 1820/4/6 1823/4/6
f 1820/1/6 1818/1/6 1824/1/6
f 1823/4/6 1820/4/6 1824/4/6
f 1815/1/6 1821/1/6 1825/1/6
f 1821/1/6 1822/1/6 1825/1/6
f 1825/1/6 1822/1/6 1826/1/6
f 1823/1/6 1824/1/6 1827/1/6
f 1824/1/6 1818/1/6 1828/1/6
f 1827/1/6 1824/1/6 1828/1/6
f 1829/4/6 1830/4/6 1831/4/6
f 1831/4/6 1830/4/6 1832/4/6
f 1829/4/6 1831/4/6 1833/4/6
f 1832/4/6 1830/4/6 1834/4/6
f 1829/4/6 1833/4/6 1835/4/6
f 1833/4/6 1834/4/6 1835/4/6
f 1834/4/6 1830/4/6 1836/4/6
f 1835/4/6 1834/4/6 1836/4/6
f 1837/4/6 1838/4/6 1839/4/6
f 1839/4/6 1838/4/6 1840/4/6
